<?xml version="1.0" encoding="UTF-8" standalone="no"?>
<!-- Created with Inkscape (http://www.inkscape.org/) -->
<svg
   xmlns:dc="http://purl.org/dc/elements/1.1/"
   xmlns:cc="http://creativecommons.org/ns#"
   xmlns:rdf="http://www.w3.org/1999/02/22-rdf-syntax-ns#"
   xmlns:svg="http://www.w3.org/2000/svg"
   xmlns="http://www.w3.org/2000/svg"
   xmlns:sodipodi="http://sodipodi.sourceforge.net/DTD/sodipodi-0.dtd"
   xmlns:inkscape="http://www.inkscape.org/namespaces/inkscape"
   width="64"
   height="64"
   id="svg2685"
   sodipodi:version="0.32"
   inkscape:version="0.46"
   version="1.0"
   sodipodi:docname="eight_32b.svg"
   inkscape:output_extension="org.inkscape.output.svg.inkscape"
   inkscape:export-filename="/mnt/adat/Udi/OpenArena/fonts/sans version 0.1/numbers_sources_wide/eight_32b.png"
   inkscape:export-xdpi="90"
   inkscape:export-ydpi="90">
  <defs
     id="defs2687">
    <inkscape:perspective
       sodipodi:type="inkscape:persp3d"
       inkscape:vp_x="0 : 526.18109 : 1"
       inkscape:vp_y="0 : 1000 : 0"
       inkscape:vp_z="744.09448 : 526.18109 : 1"
       inkscape:persp3d-origin="372.04724 : 350.78739 : 1"
       id="perspective2693" />
  </defs>
  <sodipodi:namedview
     id="base"
     pagecolor="#ffffff"
     bordercolor="#666666"
     borderopacity="1.0"
     inkscape:pageopacity="0.0"
     inkscape:pageshadow="2"
     inkscape:zoom="5.6"
     inkscape:cx="45.51951"
     inkscape:cy="38.033313"
     inkscape:document-units="px"
     inkscape:current-layer="layer2"
     showgrid="true"
     inkscape:window-width="1280"
     inkscape:window-height="742"
     inkscape:window-x="0"
     inkscape:window-y="0"
     objecttolerance="5"
     gridtolerance="5"
     guidetolerance="5">
    <inkscape:grid
       type="xygrid"
       id="grid3469"
       visible="true"
       enabled="true"
       spacingx="2px"
       spacingy="2px"
       empspacing="8" />
  </sodipodi:namedview>
  <metadata
     id="metadata2690">
    <rdf:RDF>
      <cc:Work
         rdf:about="">
        <dc:format>image/svg+xml</dc:format>
        <dc:type
           rdf:resource="http://purl.org/dc/dcmitype/StillImage" />
      </cc:Work>
    </rdf:RDF>
  </metadata>
  <g
     inkscape:label="background"
     inkscape:groupmode="layer"
     id="layer1"
     style="display:inline"
     sodipodi:insensitive="true">
    <rect
       style="opacity:1;fill:#b3b3b3;fill-opacity:1;stroke:none;stroke-width:0.17560613;stroke-linecap:butt;stroke-linejoin:miter;stroke-miterlimit:4;stroke-dasharray:none;stroke-dashoffset:0;stroke-opacity:1"
       id="rect2695"
       width="64"
       height="64"
       x="0"
       y="0" />
  </g>
  <g
     inkscape:groupmode="layer"
     id="layer2"
     inkscape:label="font">
    <path
       sodipodi:nodetypes="ccccccccccccccccccccccccccccccc"
       d="M 8.000005,18 C 8.000005,3 26.999995,2 31.999995,2 C 36.999995,2 56,3 56,18 L 55.999995,22 C 55.999995,32 46,32 46,32 C 46,32 56,32 56,42 L 56,46 C 56.0146,61 36.999995,62 31.999995,62 C 26.999995,62 8,61 8,46 L 7.999995,42 C 7.999995,32 18,32 18,32 C 18,32 8,32 8,22 L 8.000005,18 z M 26,44 L 26,44 C 26,52 32,52 32,52 L 32,52 C 32,52 38,52 38,44 L 38,44 C 38,44 38,36 32,36 L 32,36 C 32,36 26,36 26,44 z M 26,20 L 26,20 C 26,28 32,28 32,28 L 32,28 C 32,28 38,28 38,20 L 38,20 C 38,12 32,12 32,12 L 32,12 C 32,12 26,12 26,20 z"
       style="fill:#ffffff;fill-rule:evenodd;stroke:none;stroke-width:0.1;stroke-linecap:butt;stroke-linejoin:miter;stroke-miterlimit:4;stroke-dasharray:none;stroke-opacity:1;display:inline"
       id="path3653" />
  </g>
</svg>
