<?xml version="1.0" encoding="UTF-8" standalone="no"?>
<!-- Created with Inkscape (http://www.inkscape.org/) -->
<svg
   xmlns:dc="http://purl.org/dc/elements/1.1/"
   xmlns:cc="http://creativecommons.org/ns#"
   xmlns:rdf="http://www.w3.org/1999/02/22-rdf-syntax-ns#"
   xmlns:svg="http://www.w3.org/2000/svg"
   xmlns="http://www.w3.org/2000/svg"
   xmlns:sodipodi="http://sodipodi.sourceforge.net/DTD/sodipodi-0.dtd"
   xmlns:inkscape="http://www.inkscape.org/namespaces/inkscape"
   width="64"
   height="64"
   id="svg2"
   sodipodi:version="0.32"
   inkscape:version="0.46"
   version="1.0"
   sodipodi:docname="envirosuit.svg"
   inkscape:output_extension="org.inkscape.output.svg.inkscape"
   inkscape:export-filename="/mnt/adat/Udi/OpenArena/2D improvement/envirosuit.png"
   inkscape:export-xdpi="90"
   inkscape:export-ydpi="90">
  <defs
     id="defs4">
    <inkscape:perspective
       sodipodi:type="inkscape:persp3d"
       inkscape:vp_x="0 : 526.18109 : 1"
       inkscape:vp_y="0 : 1000 : 0"
       inkscape:vp_z="744.09448 : 526.18109 : 1"
       inkscape:persp3d-origin="372.04724 : 350.78739 : 1"
       id="perspective10" />
    <inkscape:perspective
       id="perspective2412"
       inkscape:persp3d-origin="372.04724 : 350.78739 : 1"
       inkscape:vp_z="744.09448 : 526.18109 : 1"
       inkscape:vp_y="0 : 1000 : 0"
       inkscape:vp_x="0 : 526.18109 : 1"
       sodipodi:type="inkscape:persp3d" />
  </defs>
  <sodipodi:namedview
     id="base"
     pagecolor="#ff6600"
     bordercolor="#666666"
     borderopacity="1.0"
     inkscape:pageopacity="0"
     inkscape:pageshadow="2"
     inkscape:zoom="3.959798"
     inkscape:cx="105.46611"
     inkscape:cy="37.476821"
     inkscape:document-units="px"
     inkscape:current-layer="layer1"
     showgrid="true"
     inkscape:window-width="1280"
     inkscape:window-height="742"
     inkscape:window-x="0"
     inkscape:window-y="0"
     objecttolerance="10"
     gridtolerance="10"
     guidetolerance="10">
    <inkscape:grid
       type="xygrid"
       id="grid2383"
       visible="true"
       enabled="true"
       spacingx="2px"
       spacingy="2px"
       empspacing="4" />
  </sodipodi:namedview>
  <metadata
     id="metadata7">
    <rdf:RDF>
      <cc:Work
         rdf:about="">
        <dc:format>image/svg+xml</dc:format>
        <dc:type
           rdf:resource="http://purl.org/dc/dcmitype/StillImage" />
      </cc:Work>
    </rdf:RDF>
  </metadata>
  <g
     inkscape:label="1. réteg"
     inkscape:groupmode="layer"
     id="layer1">
    <path
       style="opacity:1;fill:#ff6600;fill-opacity:1;fill-rule:nonzero;stroke:none;stroke-width:1;stroke-linecap:round;stroke-linejoin:round;stroke-miterlimit:4;stroke-dasharray:none;stroke-dashoffset:0;stroke-opacity:1"
       d="M 32 20 C 28.2464 20 24.792462 21.301828 22.0625 23.46875 C 22.868538 24.567626 23.847973 25.534014 24.96875 26.3125 C 26.946743 24.876304 29.370397 24 32 24 C 34.622729 24 37.056057 24.851882 39.03125 26.28125 C 40.141189 25.505262 41.107868 24.561509 41.90625 23.46875 C 39.179319 21.311024 35.744768 20 32 20 z M 20.59375 24.8125 C 19.817749 25.603719 19.099414 26.468273 18.5 27.40625 C 18.664866 27.712282 18.675864 28.104772 18.5 28.40625 C 18.33031 28.697147 18.020828 28.855992 17.6875 28.875 C 17.19961 29.85206 16.812397 30.890727 16.53125 31.96875 C 17.858863 32.137322 19.144302 32.506051 20.375 33.03125 C 20.904883 30.959775 21.987397 29.107304 23.4375 27.625 C 22.362464 26.819232 21.404932 25.88273 20.59375 24.8125 z M 43.40625 24.8125 C 42.599089 25.882478 41.633265 26.818829 40.5625 27.625 C 42.012603 29.107304 43.095117 30.959775 43.625 33.03125 C 44.855698 32.506051 46.141137 32.137322 47.46875 31.96875 C 47.187603 30.890727 46.80039 29.85206 46.3125 28.875 C 45.979172 28.855992 45.669689 28.697147 45.5 28.40625 C 45.324137 28.104771 45.335134 27.712281 45.5 27.40625 C 44.900586 26.468273 44.182251 25.603719 43.40625 24.8125 z M 16.15625 33.9375 C 16.068039 34.617237 16 35.296356 16 36 C 16 42.728743 20.175359 48.48058 26.0625 50.84375 C 26.582517 49.595137 26.91163 48.2587 27 46.90625 C 22.876991 45.006365 20 40.834887 20 36 C 20 35.681288 20.038069 35.374974 20.0625 35.0625 C 18.836321 34.477681 17.505084 34.09433 16.15625 33.9375 z M 47.84375 33.9375 C 46.494916 34.09433 45.163679 34.477682 43.9375 35.0625 C 43.961931 35.374974 44 35.681288 44 36 C 44 40.834887 41.123009 45.006365 37 46.90625 C 37.08837 48.258701 37.417483 49.595137 37.9375 50.84375 C 43.824641 48.48058 48.000001 42.728743 48 36 C 48 35.296356 47.931961 34.617237 47.84375 33.9375 z M 28.9375 47.59375 C 28.796812 48.9299 28.471435 50.223716 27.96875 51.46875 C 29.074387 51.757099 30.221374 51.924835 31.40625 51.96875 C 31.577929 51.837316 31.776394 51.750001 32 51.75 C 32.223606 51.75 32.422071 51.837316 32.59375 51.96875 C 33.778626 51.924835 34.925613 51.757099 36.03125 51.46875 C 35.528565 50.223716 35.203188 48.9299 35.0625 47.59375 C 34.081092 47.853441 33.062695 48 32 48 C 30.937305 48 29.918908 47.853441 28.9375 47.59375 z "
       id="path4456" />
    <path
       id="path4458"
       d="M 100,10 C 109.384,10 117,17.616 117,27 C 117,36.384 109.384,44 100,44 C 90.616,43.999999 83,36.384 83,27 C 83,17.616 90.616,10 100,10 z M 100,10 C 88.96,10 80,18.96 80,30 C 80,41.04 88.96,49.999999 100,50 C 111.04,50 120,41.04 120,30 C 120,18.96 111.04,10 100,10 z"
       style="opacity:0.8;fill:#ff6600;fill-opacity:1;fill-rule:nonzero;stroke:none;stroke-width:1;stroke-linecap:round;stroke-linejoin:round;stroke-miterlimit:4;stroke-dasharray:none;stroke-dashoffset:0;stroke-opacity:1" />
    <text
       sodipodi:linespacing="125%"
       id="text4462"
       y="0"
       x="84"
       style="font-size:12px;font-style:normal;font-variant:normal;font-weight:normal;font-stretch:normal;text-align:start;line-height:125%;writing-mode:lr-tb;text-anchor:start;fill:#000000;fill-opacity:1;stroke:none;stroke-width:1px;stroke-linecap:butt;stroke-linejoin:miter;stroke-opacity:1;font-family:Liberation Sans;-inkscape-font-specification:Liberation Sans"
       xml:space="preserve"><tspan
         y="0"
         x="84"
         id="tspan4464"
         sodipodi:role="line">40/34</tspan></text>
    <g
       id="g4475"
       transform="translate(0,4.734375)">
      <path
         id="path4467"
         d="M 98,53.265625 C 107.384,53.265625 115,60.881625 115,70.265625 C 115,79.649625 107.384,87.265625 98,87.265625 C 88.616,87.265624 81,79.649625 81,70.265625 C 81,60.881625 88.616,53.265625 98,53.265625 z M 98,53.265625 C 86.96,53.265625 78,62.225625 78,73.265625 C 78,84.305625 86.96,93.265624 98,93.265625 C 109.04,93.265625 118,84.305625 118,73.265625 C 118,62.225625 109.04,53.265625 98,53.265625 z"
         style="opacity:0.8;fill:#ff6600;fill-opacity:1;fill-rule:nonzero;stroke:none;stroke-width:1;stroke-linecap:round;stroke-linejoin:round;stroke-miterlimit:4;stroke-dasharray:none;stroke-dashoffset:0;stroke-opacity:1" />
      <path
         style="opacity:0.8;fill:#ff6600;fill-opacity:1;fill-rule:nonzero;stroke:none;stroke-width:1;stroke-linecap:round;stroke-linejoin:round;stroke-miterlimit:4;stroke-dasharray:none;stroke-dashoffset:0;stroke-opacity:1"
         d="M 98,53.265625 C 107.384,53.265625 115,60.881625 115,70.265625 C 115,79.649625 107.384,87.265625 98,87.265625 C 88.616,87.265624 81,79.649625 81,70.265625 C 81,60.881625 88.616,53.265625 98,53.265625 z M 98,53.265625 C 86.96,53.265625 78,62.225625 78,73.265625 C 78,84.305625 86.96,93.265624 98,93.265625 C 109.04,93.265625 118,84.305625 118,73.265625 C 118,62.225625 109.04,53.265625 98,53.265625 z"
         id="path4469" />
      <path
         style="fill:none;fill-rule:evenodd;stroke:#000000;stroke-width:1px;stroke-linecap:butt;stroke-linejoin:miter;stroke-opacity:1"
         d="M 98,58 L 98,98"
         id="path4471"
         transform="translate(0,-4.734375)" />
    </g>
    <g
       transform="matrix(-0.5,-0.8660254,0.8660254,-0.5,66.2296,229.5033)"
       id="g4481">
      <path
         style="opacity:0.8;fill:#ff6600;fill-opacity:1;fill-rule:nonzero;stroke:none;stroke-width:1;stroke-linecap:round;stroke-linejoin:round;stroke-miterlimit:4;stroke-dasharray:none;stroke-dashoffset:0;stroke-opacity:1"
         d="M 98,53.265625 C 107.384,53.265625 115,60.881625 115,70.265625 C 115,79.649625 107.384,87.265625 98,87.265625 C 88.616,87.265624 81,79.649625 81,70.265625 C 81,60.881625 88.616,53.265625 98,53.265625 z M 98,53.265625 C 86.96,53.265625 78,62.225625 78,73.265625 C 78,84.305625 86.96,93.265624 98,93.265625 C 109.04,93.265625 118,84.305625 118,73.265625 C 118,62.225625 109.04,53.265625 98,53.265625 z"
         id="path4483" />
      <path
         id="path4485"
         d="M 98,53.265625 C 107.384,53.265625 115,60.881625 115,70.265625 C 115,79.649625 107.384,87.265625 98,87.265625 C 88.616,87.265624 81,79.649625 81,70.265625 C 81,60.881625 88.616,53.265625 98,53.265625 z M 98,53.265625 C 86.96,53.265625 78,62.225625 78,73.265625 C 78,84.305625 86.96,93.265624 98,93.265625 C 109.04,93.265625 118,84.305625 118,73.265625 C 118,62.225625 109.04,53.265625 98,53.265625 z"
         style="opacity:0.8;fill:#ff6600;fill-opacity:1;fill-rule:nonzero;stroke:none;stroke-width:1;stroke-linecap:round;stroke-linejoin:round;stroke-miterlimit:4;stroke-dasharray:none;stroke-dashoffset:0;stroke-opacity:1" />
      <path
         transform="translate(0,-4.734375)"
         id="path4487"
         d="M 98,58 L 98,98"
         style="fill:none;fill-rule:evenodd;stroke:#000000;stroke-width:1px;stroke-linecap:butt;stroke-linejoin:miter;stroke-opacity:1" />
    </g>
    <g
       id="g4491"
       transform="matrix(0.5,-0.8660254,-0.8660254,-0.5,129.7704,229.5033)">
      <path
         id="path4493"
         d="M 98,53.265625 C 107.384,53.265625 115,60.881625 115,70.265625 C 115,79.649625 107.384,87.265625 98,87.265625 C 88.616,87.265624 81,79.649625 81,70.265625 C 81,60.881625 88.616,53.265625 98,53.265625 z M 98,53.265625 C 86.96,53.265625 78,62.225625 78,73.265625 C 78,84.305625 86.96,93.265624 98,93.265625 C 109.04,93.265625 118,84.305625 118,73.265625 C 118,62.225625 109.04,53.265625 98,53.265625 z"
         style="opacity:0.8;fill:#ff6600;fill-opacity:1;fill-rule:nonzero;stroke:none;stroke-width:1;stroke-linecap:round;stroke-linejoin:round;stroke-miterlimit:4;stroke-dasharray:none;stroke-dashoffset:0;stroke-opacity:1" />
      <path
         style="opacity:0.8;fill:#ff6600;fill-opacity:1;fill-rule:nonzero;stroke:none;stroke-width:1;stroke-linecap:round;stroke-linejoin:round;stroke-miterlimit:4;stroke-dasharray:none;stroke-dashoffset:0;stroke-opacity:1"
         d="M 98,53.265625 C 107.384,53.265625 115,60.881625 115,70.265625 C 115,79.649625 107.384,87.265625 98,87.265625 C 88.616,87.265624 81,79.649625 81,70.265625 C 81,60.881625 88.616,53.265625 98,53.265625 z M 98,53.265625 C 86.96,53.265625 78,62.225625 78,73.265625 C 78,84.305625 86.96,93.265624 98,93.265625 C 109.04,93.265625 118,84.305625 118,73.265625 C 118,62.225625 109.04,53.265625 98,53.265625 z"
         id="path4495" />
      <path
         style="fill:none;fill-rule:evenodd;stroke:#000000;stroke-width:1px;stroke-linecap:butt;stroke-linejoin:miter;stroke-opacity:1"
         d="M 98,58 L 98,98"
         id="path4497"
         transform="translate(0,-4.734375)" />
    </g>
    <path
       id="path4501"
       d="M 176,8 C 184.832,8 192,15.168 192,24 C 192,32.832 184.832,40 176,40 C 167.168,40 160,32.832 160,24 C 160,15.168 167.168,8 176,8 z M 176,8 C 164.96,8 156,16.96 156,28 C 156,39.04 164.96,48 176,48 C 187.04,48 196,39.04 196,28 C 196,16.96 187.04,8 176,8 z"
       style="opacity:0.8;fill:#ff6600;fill-opacity:1;fill-rule:nonzero;stroke:none;stroke-width:1;stroke-linecap:round;stroke-linejoin:round;stroke-miterlimit:4;stroke-dasharray:none;stroke-dashoffset:0;stroke-opacity:1" />
    <text
       xml:space="preserve"
       style="font-size:12px;font-style:normal;font-variant:normal;font-weight:normal;font-stretch:normal;text-align:start;line-height:125%;writing-mode:lr-tb;text-anchor:start;fill:#000000;fill-opacity:1;stroke:none;stroke-width:1px;stroke-linecap:butt;stroke-linejoin:miter;stroke-opacity:1;font-family:Liberation Sans;-inkscape-font-specification:Liberation Sans"
       x="160"
       y="0"
       id="text4503"
       sodipodi:linespacing="125%"><tspan
         sodipodi:role="line"
         id="tspan4505"
         x="160"
         y="0">40/32</tspan></text>
    <g
       id="g4514"
       transform="translate(0,4.734375)">
      <path
         id="path4510"
         d="M 176,51.265625 C 184.832,51.265625 192,58.433625 192,67.265625 C 192,76.097625 184.832,83.265625 176,83.265625 C 167.168,83.265625 160,76.097625 160,67.265625 C 160,58.433625 167.168,51.265625 176,51.265625 z M 176,51.265625 C 164.96,51.265625 156,60.225625 156,71.265625 C 156,82.305625 164.96,91.265625 176,91.265625 C 187.04,91.265625 196,82.305625 196,71.265625 C 196,60.225625 187.04,51.265625 176,51.265625 z"
         style="opacity:0.8;fill:#ff6600;fill-opacity:1;fill-rule:nonzero;stroke:none;stroke-width:1;stroke-linecap:round;stroke-linejoin:round;stroke-miterlimit:4;stroke-dasharray:none;stroke-dashoffset:0;stroke-opacity:1" />
      <path
         style="fill:none;fill-rule:evenodd;stroke:#000000;stroke-width:1px;stroke-linecap:butt;stroke-linejoin:miter;stroke-opacity:1"
         d="M 176,51.265625 L 176,91.265625"
         id="path4512" />
    </g>
    <g
       transform="matrix(-0.5,-0.8660254,0.8660254,-0.5,184.96165,294.05329)"
       id="g4518">
      <path
         style="opacity:0.8;fill:#ff6600;fill-opacity:1;fill-rule:nonzero;stroke:none;stroke-width:1;stroke-linecap:round;stroke-linejoin:round;stroke-miterlimit:4;stroke-dasharray:none;stroke-dashoffset:0;stroke-opacity:1"
         d="M 176,51.265625 C 184.832,51.265625 192,58.433625 192,67.265625 C 192,76.097625 184.832,83.265625 176,83.265625 C 167.168,83.265625 160,76.097625 160,67.265625 C 160,58.433625 167.168,51.265625 176,51.265625 z M 176,51.265625 C 164.96,51.265625 156,60.225625 156,71.265625 C 156,82.305625 164.96,91.265625 176,91.265625 C 187.04,91.265625 196,82.305625 196,71.265625 C 196,60.225625 187.04,51.265625 176,51.265625 z"
         id="path4520" />
      <path
         id="path4522"
         d="M 176,51.265625 L 176,91.265625"
         style="fill:none;fill-rule:evenodd;stroke:#000000;stroke-width:1px;stroke-linecap:butt;stroke-linejoin:miter;stroke-opacity:1" />
    </g>
    <g
       id="g4524"
       transform="matrix(0.5,-0.8660254,-0.8660254,-0.5,167.03835,294.05329)">
      <path
         id="path4526"
         d="M 176,51.265625 C 184.832,51.265625 192,58.433625 192,67.265625 C 192,76.097625 184.832,83.265625 176,83.265625 C 167.168,83.265625 160,76.097625 160,67.265625 C 160,58.433625 167.168,51.265625 176,51.265625 z M 176,51.265625 C 164.96,51.265625 156,60.225625 156,71.265625 C 156,82.305625 164.96,91.265625 176,91.265625 C 187.04,91.265625 196,82.305625 196,71.265625 C 196,60.225625 187.04,51.265625 176,51.265625 z"
         style="opacity:0.8;fill:#ff6600;fill-opacity:1;fill-rule:nonzero;stroke:none;stroke-width:1;stroke-linecap:round;stroke-linejoin:round;stroke-miterlimit:4;stroke-dasharray:none;stroke-dashoffset:0;stroke-opacity:1" />
      <path
         style="fill:none;fill-rule:evenodd;stroke:#000000;stroke-width:1px;stroke-linecap:butt;stroke-linejoin:miter;stroke-opacity:1"
         d="M 176,51.265625 L 176,91.265625"
         id="path4528" />
    </g>
    <path
       style="opacity:1;fill:#ff6600;fill-opacity:1;fill-rule:nonzero;stroke:none;stroke-width:1;stroke-linecap:round;stroke-linejoin:round;stroke-miterlimit:4;stroke-dasharray:none;stroke-dashoffset:0;stroke-opacity:1"
       d="M 32 2.90625 C 39.338475 2.90625 45.28125 8.8802748 45.28125 16.21875 C 45.28125 23.557226 39.338475 29.5 32 29.5 C 24.661525 29.499999 18.6875 23.557225 18.6875 16.21875 C 18.6875 8.8802755 24.661525 2.90625 32 2.90625 z M 32 2.90625 C 22.826906 2.90625 15.375 10.358156 15.375 19.53125 C 15.375 22.567758 16.200797 25.424599 17.625 27.875 C 14.793823 27.868411 11.908047 28.577169 9.28125 30.09375 C 1.7371503 34.449337 -1.067602 43.824338 2.59375 51.5625 C -0.16683294 45.418618 2.104398 38.06491 8.0625 34.625 C 14.417811 30.955762 22.580763 33.113444 26.25 39.46875 C 29.919238 45.824053 27.730309 53.955762 21.375 57.625 C 15.438465 61.05246 7.951976 59.384497 4 53.96875 C 8.8797311 60.975224 18.377318 63.190582 25.90625 58.84375 C 28.537466 57.324617 30.589926 55.210401 32 52.75 C 33.409908 55.205862 35.466366 57.326829 38.09375 58.84375 C 45.622685 63.190583 55.120268 60.975223 60 53.96875 C 56.048023 59.384498 48.561535 61.052458 42.625 57.625 C 36.269692 53.955764 34.080763 45.824053 37.75 39.46875 C 41.419239 33.113444 49.582192 30.955763 55.9375 34.625 C 61.895601 38.064909 64.166833 45.418617 61.40625 51.5625 C 65.067602 43.824339 62.262851 34.449338 54.71875 30.09375 C 52.091952 28.577168 49.206176 27.86841 46.375 27.875 C 47.799205 25.4246 48.59375 22.567758 48.59375 19.53125 C 48.59375 10.358155 41.173094 2.90625 32 2.90625 z M 32 32 C 34.207999 32 36 33.792 36 36 C 35.999999 38.208 34.208 40 32 40 C 29.792 40 28 38.208 28 36 C 28 33.792 29.792 32 32 32 z "
       id="path4532" />
    <text
       sodipodi:linespacing="125%"
       id="text4563"
       y="-16"
       x="144"
       style="font-size:12px;font-style:normal;font-variant:normal;font-weight:normal;font-stretch:normal;text-align:start;line-height:125%;writing-mode:lr-tb;text-anchor:start;fill:#000000;fill-opacity:1;stroke:none;stroke-width:1px;stroke-linecap:butt;stroke-linejoin:miter;stroke-opacity:1;font-family:Liberation Sans;-inkscape-font-specification:Liberation Sans"
       xml:space="preserve"><tspan
         y="-16"
         x="144"
         id="tspan4565"
         sodipodi:role="line">This is used:</tspan></text>
    <path
       id="path13642"
       d="M 32,-48 C 23.168,-48 16,-40.832001 16,-32 C 16,-23.168 23.168,-16 32,-16 C 40.832,-16 48.000001,-23.168 48,-32 C 48,-40.832 40.832,-47.999999 32,-48 z M 32,-44 C 38.624,-44 44,-38.624 44,-32 C 44,-25.376 38.624,-20 32,-20 C 25.376,-20 20,-25.376 20,-32 C 20,-38.624 25.376,-44 32,-44 z"
       style="opacity:1;fill:#ff6600;fill-opacity:1;fill-rule:nonzero;stroke:none;stroke-width:1;stroke-linecap:round;stroke-linejoin:round;stroke-miterlimit:4;stroke-dasharray:none;stroke-dashoffset:0;stroke-opacity:1" />
    <path
       id="path13644"
       d="M 32,-65.09375 C 39.338475,-65.09375 45.28125,-59.119725 45.28125,-51.78125 C 45.28125,-44.442774 39.338475,-38.5 32,-38.5 C 24.661525,-38.500001 18.6875,-44.442775 18.6875,-51.78125 C 18.6875,-59.119725 24.661525,-65.09375 32,-65.09375 z M 32,-65.09375 C 22.826906,-65.09375 15.375,-57.641844 15.375,-48.46875 C 15.375,-45.432242 16.200797,-42.575401 17.625,-40.125 C 14.793823,-40.131589 11.908047,-39.422831 9.28125,-37.90625 C 1.73715,-33.550663 -1.067602,-24.175662 2.59375,-16.4375 C -0.166833,-22.581382 2.104398,-29.93509 8.0625,-33.375 C 14.417811,-37.044238 22.580763,-34.886556 26.25,-28.53125 C 29.919238,-22.175947 27.730309,-14.044238 21.375,-10.375 C 15.438465,-6.94754 7.951976,-8.615503 4,-14.03125 C 8.8797311,-7.024776 18.377318,-4.809418 25.90625,-9.15625 C 28.537466,-10.675383 30.589926,-12.789599 32,-15.25 C 33.409908,-12.794138 35.466366,-10.673171 38.09375,-9.15625 C 45.622685,-4.809417 55.120268,-7.024777 60,-14.03125 C 56.048023,-8.615502 48.561535,-6.947542 42.625,-10.375 C 36.269692,-14.044236 34.080763,-22.175947 37.75,-28.53125 C 41.419239,-34.886556 49.582192,-37.044237 55.9375,-33.375 C 61.895601,-29.935091 64.166833,-22.581383 61.40625,-16.4375 C 65.067602,-24.175661 62.262851,-33.550662 54.71875,-37.90625 C 52.091952,-39.422832 49.206176,-40.13159 46.375,-40.125 C 47.799205,-42.5754 48.59375,-45.432242 48.59375,-48.46875 C 48.59375,-57.641845 41.173094,-65.09375 32,-65.09375 z M 32,-36 C 34.207999,-36 36,-34.208 36,-32 C 35.999999,-29.792 34.208,-28 32,-28 C 29.792,-28 28,-29.792 28,-32 C 28,-34.208 29.792,-36 32,-36 z"
       style="opacity:1;fill:#ff6600;fill-opacity:1;fill-rule:nonzero;stroke:none;stroke-width:1;stroke-linecap:round;stroke-linejoin:round;stroke-miterlimit:4;stroke-dasharray:none;stroke-dashoffset:0;stroke-opacity:1" />
  </g>
</svg>
