<?xml version="1.0" encoding="UTF-8" standalone="no"?>
<!-- Created with Inkscape (http://www.inkscape.org/) -->
<svg
   xmlns:dc="http://purl.org/dc/elements/1.1/"
   xmlns:cc="http://creativecommons.org/ns#"
   xmlns:rdf="http://www.w3.org/1999/02/22-rdf-syntax-ns#"
   xmlns:svg="http://www.w3.org/2000/svg"
   xmlns="http://www.w3.org/2000/svg"
   xmlns:sodipodi="http://sodipodi.sourceforge.net/DTD/sodipodi-0.dtd"
   xmlns:inkscape="http://www.inkscape.org/namespaces/inkscape"
   width="64"
   height="64"
   id="svg2"
   sodipodi:version="0.32"
   inkscape:version="0.46"
   version="1.0"
   sodipodi:docname="flight.svg"
   inkscape:output_extension="org.inkscape.output.svg.inkscape"
   inkscape:export-filename="/mnt/adat/Udi/OpenArena/2D improvement/flight.png"
   inkscape:export-xdpi="90"
   inkscape:export-ydpi="90">
  <defs
     id="defs4">
    <inkscape:perspective
       sodipodi:type="inkscape:persp3d"
       inkscape:vp_x="0 : 526.18109 : 1"
       inkscape:vp_y="0 : 1000 : 0"
       inkscape:vp_z="744.09448 : 526.18109 : 1"
       inkscape:persp3d-origin="372.04724 : 350.78739 : 1"
       id="perspective10" />
    <inkscape:perspective
       id="perspective2412"
       inkscape:persp3d-origin="372.04724 : 350.78739 : 1"
       inkscape:vp_z="744.09448 : 526.18109 : 1"
       inkscape:vp_y="0 : 1000 : 0"
       inkscape:vp_x="0 : 526.18109 : 1"
       sodipodi:type="inkscape:persp3d" />
  </defs>
  <sodipodi:namedview
     id="base"
     pagecolor="#ff00cc"
     bordercolor="#666666"
     borderopacity="1.0"
     inkscape:pageopacity="0"
     inkscape:pageshadow="2"
     inkscape:zoom="2.8"
     inkscape:cx="40.394377"
     inkscape:cy="21.28519"
     inkscape:document-units="px"
     inkscape:current-layer="layer1"
     showgrid="true"
     inkscape:window-width="1280"
     inkscape:window-height="742"
     inkscape:window-x="0"
     inkscape:window-y="0"
     objecttolerance="10"
     gridtolerance="10"
     guidetolerance="10"
     inkscape:snap-global="false">
    <inkscape:grid
       type="xygrid"
       id="grid2383"
       visible="true"
       enabled="true"
       spacingx="2px"
       spacingy="2px"
       empspacing="4" />
  </sodipodi:namedview>
  <metadata
     id="metadata7">
    <rdf:RDF>
      <cc:Work
         rdf:about="">
        <dc:format>image/svg+xml</dc:format>
        <dc:type
           rdf:resource="http://purl.org/dc/dcmitype/StillImage" />
      </cc:Work>
    </rdf:RDF>
  </metadata>
  <g
     inkscape:label="1. réteg"
     inkscape:groupmode="layer"
     id="layer1">
    <path
       style="fill:#ff00cc;fill-opacity:1;fill-rule:evenodd;stroke:none;stroke-width:1px;stroke-linecap:butt;stroke-linejoin:miter;stroke-opacity:1"
       d="M -9.177032,119.85325 L 18.822968,107.85325 C 18.822968,125.85325 8.8229682,133.85325 8.8229682,133.85325 L -9.177032,119.85325 z"
       id="path3176"
       sodipodi:nodetypes="cccc" />
    <path
       sodipodi:nodetypes="ccccccccccccccccc"
       id="path3178"
       d="M 20.40133,111.72698 L 15.555507,113.85325 L 19.580582,115.85325 L 18.186852,119.13147 L 13.808045,119.34817 L 16.822968,123.04581 L 16.317892,124.90623 L 12.060583,124.49791 L 14.340416,128.42146 L 13.14086,130.43255 L 8.9739802,129.85325 L 10.741748,133.60071 L 8.5951732,135.79011 L 10.552344,137.72698 L 19.871179,125.00997 L 22.333426,112.42146 L 20.40133,111.72698 z"
       style="fill:#e6e6e6;fill-rule:evenodd;stroke:none;stroke-width:1px;stroke-linecap:butt;stroke-linejoin:miter;stroke-opacity:1" />
    <path
       style="fill:#800080;fill-opacity:1;fill-rule:evenodd;stroke:none;stroke-width:1px;stroke-linecap:butt;stroke-linejoin:miter;stroke-opacity:1"
       d="M 124 6 L 112.21875 11.3125 L 112.25 11.59375 C 112.25 11.59375 112.39445 12.984299 112.53125 14.34375 L 123.84375 10.3125 C 123.9421 8.92028 124 7.46796 124 6 z M 123.6875 12.25 L 112.625 15.40625 C 112.6666 15.819676 112.75 16.5625 112.75 16.5625 L 112.8125 17.28125 L 112.15625 17.5625 L 111.0625 18.0625 L 111.84375 18.4375 L 112.5 18.78125 L 112.40625 19.40625 L 122.90625 17.375 C 123.22427 15.72953 123.50321 14.03135 123.6875 12.25 z M 110.375 13.15625 L 85.90625 24.21875 L 101.90625 36.65625 C 101.98744 36.581337 102.07415 36.516269 102.1875 36.40625 L 101.25 34.4375 L 100.75 33.375 L 94.40625 28.5625 L 101.6875 32.9375 L 102.28125 33 L 104.71875 33.3125 C 104.89474 33.066224 105.06855 32.767023 105.25 32.5 L 95.34375 27.625 L 105.59375 31.3125 L 104.34375 29.125 L 103.8125 28.21875 L 96.21875 26.40625 L 103.40625 27.5 L 103.375 27.4375 L 105.3125 27.625 L 107.78125 27.875 C 107.9503 27.481735 108.11536 27.086072 108.28125 26.65625 L 106.78125 24.84375 L 97.09375 24.34375 L 106.125 24.03125 L 104.9375 22.5625 L 106.90625 22.46875 L 109.71875 22.3125 C 109.8423 21.831291 109.95521 21.318395 110.0625 20.8125 L 97.84375 22.25 L 110.15625 19.84375 L 108.28125 18.90625 L 106.375 17.9375 L 108.3125 17.09375 L 110.6875 16.03125 C 110.68594 16.01596 110.68911 15.984316 110.6875 15.96875 L 97.625 19.6875 L 110.59375 15.0625 C 110.52748 14.468421 110.45302 13.920464 110.375 13.15625 z M 122.5 19.34375 L 112.1875 20.5625 C 111.98066 21.596304 111.75782 22.594019 111.5 23.53125 L 111.4375 23.8125 L 121.375 23.46875 C 121.77871 22.15352 122.17267 20.77349 122.5 19.34375 z M 109.46875 24.96875 L 110.21875 25.875 L 110.5625 26.3125 L 110.375 26.84375 C 110.16432 27.401824 109.94029 27.934537 109.71875 28.46875 L 119 29.875 C 119.60201 28.509061 120.18001 27.079765 120.71875 25.53125 L 109.46875 24.96875 z M 109.28125 29.5 L 109.03125 30 L 108.34375 29.9375 L 107.0625 29.8125 L 107.875 31.21875 L 108.15625 31.71875 L 107.90625 32.125 L 116.34375 35.15625 C 116.96571 34.063909 117.60274 32.90745 118.21875 31.625 L 109.28125 29.5 z M 107.125 33.4375 C 106.75504 34.003954 106.38165 34.52682 106.03125 35 L 105.75 35.34375 L 113.34375 39.90625 C 113.87967 39.15696 114.46594 38.28916 115.0625 37.34375 L 107.125 33.4375 z M 104.21875 36 L 104.3125 36.1875 L 104.59375 36.8125 L 104.125 37.3125 C 103.53559 37.945073 103.14473 38.30713 102.90625 38.53125 L 110 44 C 110 44 110.77077 43.19259 111.875 41.8125 L 104.21875 36 z "
       id="path3190" />
    <path
       sodipodi:nodetypes="cccc"
       id="path3186"
       d="M 34.561553,120.59584 L 74.561553,102.59584 C 74.561553,126.59584 60.561553,140.59584 60.561553,140.59584 L 34.561553,120.59584 z"
       style="fill:#ff00cc;fill-opacity:1;fill-rule:evenodd;stroke:none;stroke-width:1px;stroke-linecap:butt;stroke-linejoin:miter;stroke-opacity:1" />
    <path
       style="fill:#e6e6e6;fill-rule:evenodd;stroke:none;stroke-width:1px;stroke-linecap:butt;stroke-linejoin:miter;stroke-opacity:1"
       d="M 76.351032,106.20425 L 48.201638,116.27695 L 76.24457,108.27695 L 75.297268,113.60874 L 48.418461,118.82544 L 74.64767,115.73737 L 73.249737,120.0085 L 47.653142,120.93947 L 72.611547,122.18444 L 71.054848,126.69554 L 46.798682,122.99123 L 70.530736,128.61369 L 68.31652,132.23216 L 45.918521,124.20214 L 66.860014,134.52098 L 64.880289,137.08749 L 44.985677,125.14473 L 63.48633,139.17745 L 59.723446,141.96381 L 65.16276,143.45425 L 75.910167,126.80867 L 79.354557,106.4523 L 76.351032,106.20425 z"
       id="path3188"
       sodipodi:nodetypes="ccccccccccccccccccccccc" />
    <path
       style="fill:#ff00cc;fill-opacity:1;fill-rule:evenodd;stroke:none;stroke-width:2;stroke-linecap:butt;stroke-linejoin:miter;stroke-miterlimit:4;stroke-dasharray:none;stroke-opacity:1"
       d="M 111.24239,11.684327 L 84,24 L 102,37.999996 C 102,37.999996 102.57419,37.517986 103.40625,36.624996 L 102.15625,33.999996 L 105.21875,34.406246 C 105.79045,33.634226 106.39306,32.752476 107,31.71875 L 105.21875,28.625 L 108.4375,28.9375 C 108.79442,28.17346 109.11047,27.36627 109.4375,26.5 L 106.96875,23.46875 L 110.53125,23.28125 C 110.86911,22.05306 111.17256,20.73592 111.40625,19.34375 L 108.71875,18 L 111.75,16.65625 C 111.75,16.65625 111.24239,11.684327 111.24239,11.684327 z"
       id="path3197"
       sodipodi:nodetypes="cccccccccccccccc" />
    <path
       sodipodi:nodetypes="cccc"
       id="path3216"
       d="M 95.553571,103.91071 L 121.81601,123.85841 C 118.33387,127.6977 113.55357,127.91071 113.55357,127.91071 L 95.553571,103.91071 z"
       style="fill:#ff00cc;fill-opacity:1;fill-rule:evenodd;stroke:none;stroke-width:1px;stroke-linecap:butt;stroke-linejoin:miter;stroke-opacity:1" />
    <path
       sodipodi:nodetypes="ccccccccccccccccccccc"
       id="path3218"
       d="M 93.920285,102.85014 L 97.563331,107.6207 L 104.84392,105.06955 L 98.257571,108.63326 L 100.05729,111.74368 L 109.76102,108.70143 L 101.09726,113.02676 L 103.14504,116.645 L 114.41013,111.95855 L 104.2495,118.29529 L 106.55301,121.55662 L 120.51351,114.99982 L 107.69701,123.22044 L 109.49817,126.27802 L 123.76778,119.15669 L 110.93677,127.92156 L 115.50322,132.49363 L 110.06391,133.98407 L 99.316502,117.33849 L 92.389969,102.56248 L 93.920285,102.85014 z"
       style="fill:#e6e6e6;fill-rule:evenodd;stroke:none;stroke-width:1px;stroke-linecap:butt;stroke-linejoin:miter;stroke-opacity:1" />
    <g
       id="g3302"
       transform="matrix(1.098775,-0.1266382,0.1836315,0.9205882,-8.5461623,5.3739344)">
      <g
         transform="matrix(1.1173872,0,0,1,-0.8821104,0.5357139)"
         id="g3231">
        <path
           style="fill:#ff00cc;fill-opacity:1;fill-rule:evenodd;stroke:none;stroke-width:1px;stroke-linecap:butt;stroke-linejoin:miter;stroke-opacity:1"
           d="M 15.120629,24.338384 L 17.745629,27.838384 L 19.089379,27.369634 L 15.120629,24.338384 z M 19.901879,27.963384 L 18.433129,28.775884 L 20.745629,31.838385 L 23.745629,30.900885 L 19.901879,27.963384 z M 24.558129,31.525885 L 21.620629,32.994635 L 24.214379,36.463385 L 28.651879,34.619635 L 24.558129,31.525885 z M 29.433129,35.213385 L 25.245629,37.838385 L 27.776879,41.213385 L 33.683129,38.463385 L 29.433129,35.213385 z M 34.464379,39.057135 L 28.839379,42.650885 L 31.120629,45.682135 L 38.401879,42.057135 L 34.464379,39.057135 z M 39.026879,42.525885 L 32.245629,47.182135 L 33.120629,48.338385 C 33.120629,48.338385 37.888489,48.146425 41.370629,44.307135 L 39.026879,42.525885 z"
           id="path3220" />
        <g
           transform="translate(-13.637059,-0.3788072)"
           id="g3225">
          <path
             id="path3227"
             d="M 69.83057,6.3788072 L 58.04932,11.691307 L 58.08057,11.972557 C 58.08057,11.972557 58.22502,13.363106 58.36182,14.722557 L 69.67432,10.691307 C 69.77267,9.2990872 69.83057,7.8467672 69.83057,6.3788072 z M 69.51807,12.628807 L 58.45557,15.785057 C 58.49717,16.198483 58.58057,16.941307 58.58057,16.941307 L 58.64307,17.660057 L 57.98682,17.941307 L 56.89307,18.441307 L 57.67432,18.816307 L 58.33057,19.160057 L 58.23682,19.785057 L 68.73682,17.753807 C 69.05484,16.108337 69.33378,14.410157 69.51807,12.628807 z M 56.20557,13.535057 L 31.73682,24.597557 L 47.73682,37.035057 C 47.81801,36.960144 47.90472,36.895076 48.01807,36.785057 L 47.08057,34.816307 L 46.58057,33.753807 L 40.23682,28.941307 L 47.51807,33.316307 L 48.11182,33.378807 L 50.54932,33.691307 C 50.72531,33.445031 50.89912,33.14583 51.08057,32.878807 L 41.17432,28.003807 L 51.42432,31.691307 L 50.17432,29.503807 L 49.64307,28.597557 L 42.04932,26.785057 L 49.23682,27.878807 L 49.20557,27.816307 L 51.14307,28.003807 L 53.61182,28.253807 C 53.78087,27.860542 53.94593,27.464879 54.11182,27.035057 L 52.61182,25.222557 L 42.92432,24.722557 L 51.95557,24.410057 L 50.76807,22.941307 L 52.73682,22.847557 L 55.54932,22.691307 C 55.67287,22.210098 55.78578,21.697202 55.89307,21.191307 L 43.67432,22.628807 L 55.98682,20.222557 L 54.11182,19.285057 L 52.20557,18.316307 L 54.14307,17.472557 L 56.51807,16.410057 C 56.51651,16.394767 56.51968,16.363123 56.51807,16.347557 L 43.45557,20.066307 L 56.42432,15.441307 C 56.35805,14.847228 56.28359,14.299271 56.20557,13.535057 z M 68.33057,19.722557 L 58.01807,20.941307 C 57.81123,21.975111 57.58839,22.972826 57.33057,23.910057 L 57.26807,24.191307 L 67.20557,23.847557 C 67.60928,22.532327 68.00324,21.152297 68.33057,19.722557 z M 55.29932,25.347557 L 56.04932,26.253807 L 56.39307,26.691307 L 56.20557,27.222557 C 55.99489,27.780631 55.77086,28.313344 55.54932,28.847557 L 64.83057,30.253807 C 65.43258,28.887868 66.01058,27.458572 66.54932,25.910057 L 55.29932,25.347557 z M 55.11182,29.878807 L 54.86182,30.378807 L 54.17432,30.316307 L 52.89307,30.191307 L 53.70557,31.597557 L 53.98682,32.097557 L 53.73682,32.503807 L 62.17432,35.535057 C 62.79628,34.442716 63.43331,33.286257 64.04932,32.003807 L 55.11182,29.878807 z M 52.95557,33.816307 C 52.58561,34.382761 52.21222,34.905627 51.86182,35.378807 L 51.58057,35.722557 L 59.17432,40.285057 C 59.71024,39.535767 60.29651,38.667967 60.89307,37.722557 L 52.95557,33.816307 z M 50.04932,36.378807 L 50.14307,36.566307 L 50.42432,37.191307 L 49.95557,37.691307 C 49.36616,38.32388 48.9753,38.685937 48.73682,38.910057 L 55.83057,44.378807 C 55.83057,44.378807 56.60134,43.571397 57.70557,42.191307 L 50.04932,36.378807 z"
             style="fill:#ff00cc;fill-opacity:1;fill-rule:evenodd;stroke:none;stroke-width:1px;stroke-linecap:butt;stroke-linejoin:miter;stroke-opacity:1" />
          <path
             sodipodi:nodetypes="cccccccccccccccc"
             id="path3229"
             d="M 57.07296,12.063134 L 29.83057,24.378807 L 47.83057,38.378803 C 47.83057,38.378803 48.40476,37.896793 49.23682,37.003803 L 47.98682,34.378803 L 51.04932,34.785053 C 51.62102,34.013033 52.22363,33.131283 52.83057,32.097557 L 51.04932,29.003807 L 54.26807,29.316307 C 54.62499,28.552267 54.94104,27.745077 55.26807,26.878807 L 52.79932,23.847557 L 56.36182,23.660057 C 56.69968,22.431867 57.00313,21.114727 57.23682,19.722557 L 54.54932,18.378807 L 57.58057,17.035057 C 57.58057,17.035057 57.07296,12.063134 57.07296,12.063134 z"
             style="fill:#ff00cc;fill-opacity:1;fill-rule:evenodd;stroke:none;stroke-width:2;stroke-linecap:butt;stroke-linejoin:miter;stroke-miterlimit:4;stroke-dasharray:none;stroke-opacity:1" />
        </g>
      </g>
      <path
         id="path3243"
         d="M 34.34375,1.3125 L 29.3125,8.21875 L 29.46875,8.34375 C 29.468751,8.3437499 30.116459,8.8998849 30.75,9.46875 L 35.96875,3.34375 C 35.464788,2.6705453 34.938126,1.9829153 34.34375,1.3125 z M 36.6875,4.28125 L 31.21875,9.9375 C 31.411417,10.1105 31.78125,10.40625 31.78125,10.40625 L 32.09375,10.71875 L 31.8125,11.09375 L 31.34375,11.75 L 32,11.625 L 32.53125,11.53125 L 32.71875,11.84375 L 38.28125,6.90625 C 37.808188,6.0338957 37.296818,5.1648334 36.6875,4.28125 z M 38.8125,7.96875 L 33.0625,12.4375 C 33.355439,12.988251 33.620882,13.536478 33.84375,14.0625 L 33.90625,14.21875 L 39.8125,10.28125 C 39.525205,9.5271475 39.19256,8.746119 38.8125,7.96875 z M 28.875,8.75 L 18.96875,22.4375 L 33.84375,16.4375 C 33.821965,16.361751 33.804067,16.296749 33.78125,16.21875 L 31.0625,15.75 L 33.15625,14.3125 C 32.864196,13.623177 32.515481,12.912121 32.09375,12.1875 L 29.90625,12.59375 L 31.21875,10.84375 C 31.218752,10.84375 28.875,8.75 28.875,8.75 z M 40.25,11.46875 L 33.1875,15.5 L 34,15.625 L 34.40625,15.6875 L 34.5,16 C 34.51513,16.051719 34.517297,16.104477 34.53125,16.15625 L 40.84375,13.59375 C 40.679211,12.901585 40.489107,12.196266 40.25,11.46875 z M 41.25,15.625 L 33.75,18.65625 L 34.75,18.96875 L 35.125,19.0625 L 35.125,19.34375 L 41.5,17.53125 C 41.446551,16.921679 41.358419,16.287963 41.25,15.625 z M 32.84375,19.03125 L 18.90625,24.65625 L 18.9375,24.6875 L 33.9375,24.28125 C 33.937503,24.28125 34.074877,23.849069 34.21875,23.125 L 32.40625,22.40625 L 34.4375,21.40625 C 34.472195,20.836381 34.456112,20.234032 34.40625,19.53125 L 32.84375,19.03125 z M 41.59375,19.03125 L 35.1875,20.25 C 35.192121,20.649309 35.177514,21.025723 35.15625,21.375 L 35.125,21.65625 L 41.59375,20.84375 C 41.615917,20.297861 41.614159,19.689752 41.59375,19.03125 z M 41.46875,22.28125 L 34.46875,22.53125 L 34.59375,22.59375 L 35.03125,22.75 L 34.9375,23.15625 C 34.835587,23.669161 34.741621,23.994505 34.6875,24.1875 L 41.21875,24 C 41.21875,24 41.218472,23.970115 41.21875,23.96875 L 40.3125,22.96875 L 41.375,22.90625 C 41.403769,22.695427 41.440669,22.54455 41.46875,22.28125 z"
         style="fill:#ff00cc;fill-opacity:1;fill-rule:evenodd;stroke:none;stroke-width:1px;stroke-linecap:butt;stroke-linejoin:miter;stroke-opacity:1" />
    </g>
    <path
       sodipodi:nodetypes="ccccccccc"
       id="path3265"
       d="M -13.781124,74.734395 L -21.235166,86.539576 L -15.515125,91.997176 C -15.515125,91.997176 -20.10407,94.815137 -20.10407,94.815137 L -17.412718,97.11998 L -10.127093,91.744638 L -14.430507,86.800749 L -7.5263867,78.647308 L -13.781124,74.734395 z"
       style="fill:#ff00cc;fill-opacity:1;fill-rule:evenodd;stroke:none;stroke-width:1px;stroke-linecap:butt;stroke-linejoin:miter;stroke-opacity:1" />
    <path
       style="fill:#ff00cc;fill-opacity:1;fill-rule:evenodd;stroke:none;stroke-width:1px;stroke-linecap:butt;stroke-linejoin:miter;stroke-opacity:1"
       d="M -24.451151,68.385796 L -17.812101,62.066951 L -5.9281727,76.227666 L -6.0035937,79.317596 L -10.544244,87.084808 L -4.5085286,92.995522 L -10.160315,99.093741 L -13.454958,96.379451 L -9.7585287,93.308022 L -16.062101,87.397308 L -11.937101,80.20088 L -24.451151,68.385796 z"
       id="path3270"
       sodipodi:nodetypes="cccccccccccc" />
    <path
       sodipodi:nodetypes="cccccccccccc"
       id="path3284"
       d="M -24.451151,68.385796 L -17.812101,62.066951 L -5.9281727,76.227666 L -6.0035937,79.317596 L -10.544244,87.084808 L -4.5085286,92.995522 L -10.160315,99.093741 L -13.454958,96.379451 L -9.7585287,93.308022 L -16.062101,87.397308 L -11.937101,80.20088 L -24.451151,68.385796 z"
       style="fill:#ff00cc;fill-opacity:1;fill-rule:evenodd;stroke:#e6e6e6;stroke-width:2;stroke-linecap:butt;stroke-linejoin:miter;stroke-opacity:1;stroke-miterlimit:4;stroke-dasharray:none" />
    <g
       id="g3297"
       transform="matrix(0.9737424,-0.2276524,0.2276524,0.9737424,-7.3051107,6.4294096)">
      <path
         id="path3279"
         d="M 18.431155,38.375148 L 17.524905,39.812648 L 20.962405,43.093898 L 21.524905,43.625148 L 21.149905,44.312648 L 17.431155,50.843898 L 21.181155,54.375148 L 17.774905,50.437648 L 24.681155,42.281398 L 18.431155,38.375148 z M 16.399905,41.562648 L 10.962405,50.187648 L 16.681155,55.625148 C 16.681155,55.625146 12.087405,58.437648 12.087405,58.437648 L 14.774905,60.750148 L 20.524905,56.500148 L 15.462405,51.750148 L 14.899905,51.218898 L 15.274905,50.531398 L 19.024905,44.031398 L 16.399905,41.562648 z"
         style="fill:#ff00cc;fill-opacity:1;fill-rule:evenodd;stroke:none;stroke-width:1px;stroke-linecap:butt;stroke-linejoin:miter;stroke-opacity:1" />
      <path
         transform="translate(-4,-2.9079056)"
         d="M 16,28 A 4,4 0 1 1 8,28 A 4,4 0 1 1 16,28 z"
         sodipodi:ry="4"
         sodipodi:rx="4"
         sodipodi:cy="28"
         sodipodi:cx="12"
         id="path13878"
         style="opacity:1;fill:#ff00cc;fill-opacity:1;fill-rule:nonzero;stroke:none;stroke-width:2;stroke-linecap:butt;stroke-linejoin:miter;stroke-miterlimit:4;stroke-dasharray:none;stroke-dashoffset:0;stroke-opacity:1"
         sodipodi:type="arc" />
      <path
         sodipodi:nodetypes="cccccccccccc"
         id="path3286"
         d="M 9.702773,31.127447 L 15.270394,25.701459 L 27.154323,39.862174 L 27.078902,42.952104 L 22.538252,50.719316 L 28.573967,56.63003 L 22.922181,62.728246 L 19.627538,60.013959 L 23.323967,56.94253 L 17.020395,51.031816 L 21.145395,43.835388 L 9.702773,31.127447 z"
         style="fill:#ff00cc;fill-opacity:1;fill-rule:evenodd;stroke:none;stroke-width:2;stroke-linecap:butt;stroke-linejoin:miter;stroke-miterlimit:4;stroke-dasharray:none;stroke-opacity:1" />
    </g>
  </g>
</svg>
