<?xml version="1.0" encoding="UTF-8" standalone="no"?>
<!-- Created with Inkscape (http://www.inkscape.org/) -->
<svg
   xmlns:dc="http://purl.org/dc/elements/1.1/"
   xmlns:cc="http://creativecommons.org/ns#"
   xmlns:rdf="http://www.w3.org/1999/02/22-rdf-syntax-ns#"
   xmlns:svg="http://www.w3.org/2000/svg"
   xmlns="http://www.w3.org/2000/svg"
   xmlns:sodipodi="http://sodipodi.sourceforge.net/DTD/sodipodi-0.dtd"
   xmlns:inkscape="http://www.inkscape.org/namespaces/inkscape"
   width="64"
   height="64"
   id="svg2"
   sodipodi:version="0.32"
   inkscape:version="0.46"
   version="1.0"
   sodipodi:docname="haste.svg"
   inkscape:output_extension="org.inkscape.output.svg.inkscape"
   inkscape:export-filename="/mnt/adat/Udi/OpenArena/2D improvement/haste.png"
   inkscape:export-xdpi="90"
   inkscape:export-ydpi="90">
  <defs
     id="defs4">
    <inkscape:perspective
       sodipodi:type="inkscape:persp3d"
       inkscape:vp_x="0 : 526.18109 : 1"
       inkscape:vp_y="0 : 1000 : 0"
       inkscape:vp_z="744.09448 : 526.18109 : 1"
       inkscape:persp3d-origin="372.04724 : 350.78739 : 1"
       id="perspective10" />
    <inkscape:perspective
       id="perspective2412"
       inkscape:persp3d-origin="372.04724 : 350.78739 : 1"
       inkscape:vp_z="744.09448 : 526.18109 : 1"
       inkscape:vp_y="0 : 1000 : 0"
       inkscape:vp_x="0 : 526.18109 : 1"
       sodipodi:type="inkscape:persp3d" />
  </defs>
  <sodipodi:namedview
     id="base"
     pagecolor="#ccff33"
     bordercolor="#666666"
     borderopacity="1.0"
     inkscape:pageopacity="0"
     inkscape:pageshadow="2"
     inkscape:zoom="4.8384"
     inkscape:cx="18.436005"
     inkscape:cy="16.517081"
     inkscape:document-units="px"
     inkscape:current-layer="layer1"
     showgrid="true"
     inkscape:window-width="1280"
     inkscape:window-height="742"
     inkscape:window-x="0"
     inkscape:window-y="0"
     objecttolerance="10"
     gridtolerance="10"
     guidetolerance="10"
     inkscape:snap-global="true">
    <inkscape:grid
       type="xygrid"
       id="grid2383"
       visible="true"
       enabled="true"
       spacingx="2px"
       spacingy="2px"
       empspacing="4" />
  </sodipodi:namedview>
  <metadata
     id="metadata7">
    <rdf:RDF>
      <cc:Work
         rdf:about="">
        <dc:format>image/svg+xml</dc:format>
        <dc:type
           rdf:resource="http://purl.org/dc/dcmitype/StillImage" />
      </cc:Work>
    </rdf:RDF>
  </metadata>
  <g
     inkscape:label="1. réteg"
     inkscape:groupmode="layer"
     id="layer1">
    <path
       sodipodi:nodetypes="ccccccccccccccccc"
       id="path3382"
       d="M 28,38 L 16,44 L 10,54 L 4,52 L 2,56 L 12,60 L 22,48 L 34,44 L 38,38 L 32,22 L 40,16 L 50,18 L 52,14 L 40,10 L 30,16 L 18,20 L 28,38 z"
       style="fill:#ccff33;fill-opacity:1;fill-rule:evenodd;stroke:none;stroke-width:2;stroke-linecap:butt;stroke-linejoin:miter;stroke-miterlimit:4;stroke-dasharray:none;stroke-opacity:1" />
    <path
       sodipodi:type="arc"
       style="opacity:1;fill:#ccff33;fill-opacity:1;fill-rule:nonzero;stroke:none;stroke-width:2;stroke-linecap:butt;stroke-linejoin:miter;stroke-miterlimit:4;stroke-dasharray:none;stroke-dashoffset:0;stroke-opacity:1"
       id="path3330"
       sodipodi:cx="25"
       sodipodi:cy="25.517857"
       sodipodi:rx="9.1071424"
       sodipodi:ry="9.1964283"
       d="M 34.107142,25.517857 A 9.1071424,9.1964283 0 1 1 15.892858,25.517857 A 9.1071424,9.1964283 0 1 1 34.107142,25.517857 z"
       transform="matrix(0.6588236,0,0,0.6524272,5.52941,-6.6485437)" />
    <path
       style="fill:#ccff33;fill-rule:evenodd;stroke:none;stroke-width:1px;stroke-linecap:butt;stroke-linejoin:miter;stroke-opacity:1;fill-opacity:1"
       d="M 6 10 L 2 12 L 8 26 L 20.1875 26 L 17.125 20.5 L 16.84375 20 L 12 20 L 6 10 z M 21.15625 20 L 19.46875 20.5625 L 22 25.125 L 22 20 L 21.15625 20 z "
       id="path3334" />
    <path
       style="fill:#ccff33;fill-opacity:1;fill-rule:evenodd;stroke:none;stroke-width:1px;stroke-linecap:butt;stroke-linejoin:miter;stroke-opacity:1"
       d="M 52 30 L 46 42 L 38.90625 38.46875 L 38.84375 38.5625 L 34.84375 44.5625 L 34.65625 44.84375 L 34.40625 44.90625 L 48 50 L 54 36 L 60 38 L 62 34 L 52 30 z M 34 36 L 28 40 L 31.71875 43.71875 L 33.3125 43.1875 L 36.875 37.84375 L 36.6875 37.34375 L 34 36 z "
       id="path3336" />
    <path
       style="fill:#ccff33;fill-rule:evenodd;stroke:none;stroke-width:1px;stroke-linecap:butt;stroke-linejoin:miter;stroke-opacity:1;fill-opacity:1"
       d="M 16,60 L 62,60 L 62,52 L 16,60 z"
       id="path3338" />
    <path
       style="fill:#ccff33;fill-rule:evenodd;stroke:none;stroke-width:1px;stroke-linecap:butt;stroke-linejoin:miter;stroke-opacity:1;fill-opacity:1"
       d="M 16,58 L 42,54 L 42,52 L 16,58 z"
       id="path3340" />
    <g
       id="g3374"
       transform="translate(110,30)">
      <path
         sodipodi:type="arc"
         style="opacity:1;fill:#ccff66;fill-opacity:1;fill-rule:nonzero;stroke:none;stroke-width:2;stroke-linecap:butt;stroke-linejoin:miter;stroke-miterlimit:4;stroke-dasharray:none;stroke-dashoffset:0;stroke-opacity:1"
         id="path3362"
         sodipodi:cx="25"
         sodipodi:cy="25.517857"
         sodipodi:rx="9.1071424"
         sodipodi:ry="9.1964283"
         d="M 34.107142,25.517857 A 9.1071424,9.1964283 0 1 1 15.892858,25.517857 A 9.1071424,9.1964283 0 1 1 34.107142,25.517857 z"
         transform="matrix(0.6588236,0,0,0.6524272,5.52941,-6.6485437)" />
      <path
         style="fill:#ccff66;fill-opacity:1;fill-rule:evenodd;stroke:none;stroke-width:1px;stroke-linecap:butt;stroke-linejoin:miter;stroke-opacity:1"
         d="M 22,20 L 18,20 L 12,20 L 6,10 L 2,12 L 8,26 L 22,26 L 22,20 z"
         id="path3364"
         sodipodi:nodetypes="cccccccc" />
      <path
         style="fill:#ccff66;fill-opacity:1;fill-rule:evenodd;stroke:none;stroke-width:1px;stroke-linecap:butt;stroke-linejoin:miter;stroke-opacity:1"
         d="M 32,44 L 48,50 L 54,36 L 60,38 L 62,34 L 52,30 L 46,42 L 38,38 L 34,36 L 28,40 L 32,44 z"
         id="path3366"
         sodipodi:nodetypes="ccccccccccc" />
      <path
         style="fill:#ccff66;fill-opacity:1;fill-rule:evenodd;stroke:none;stroke-width:1px;stroke-linecap:butt;stroke-linejoin:miter;stroke-opacity:1"
         d="M 28,38 L 16,44 L 10,54 L 4,52 L 2,56 L 12,60 L 22,48 L 34,44 L 38,38 L 32,22 L 40,16 L 50,18 L 52,14 L 40,10 L 30,16 L 18,20 L 28,38 z"
         id="path3368"
         sodipodi:nodetypes="ccccccccccccccccc" />
      <path
         style="fill:#ccff66;fill-opacity:1;fill-rule:evenodd;stroke:none;stroke-width:1px;stroke-linecap:butt;stroke-linejoin:miter;stroke-opacity:1"
         d="M 16,60 L 62,60 L 62,52 L 16,60 z"
         id="path3370" />
      <path
         style="fill:#ccff66;fill-opacity:1;fill-rule:evenodd;stroke:none;stroke-width:1px;stroke-linecap:butt;stroke-linejoin:miter;stroke-opacity:1"
         d="M 16,58 L 42,54 L 42,52 L 16,58 z"
         id="path3372" />
    </g>
    <path
       id="path3397"
       d="M 39.875,68.90625 L 39.5,69.15625 L 29.6875,75.0625 L 29.625,75.09375 L 17.6875,79.0625 L 16.53125,79.4375 L 17.125,80.5 L 26.59375,97.5625 L 15.5625,103.09375 L 15.28125,103.25 L 15.15625,103.5 L 9.5625,112.8125 L 4.3125,111.0625 L 3.5,110.78125 L 3.09375,111.5625 L 1.09375,115.5625 L 0.625,116.53125 L 1.625,116.9375 L 11.625,120.9375 L 12.3125,121.1875 L 12.78125,120.625 L 22.59375,108.84375 L 34.3125,104.9375 L 34.65625,104.84375 L 34.84375,104.5625 L 38.84375,98.5625 L 39.125,98.125 L 38.9375,97.65625 L 33.1875,82.34375 L 40.25,77.0625 L 49.8125,78.96875 L 50.5625,79.125 L 50.90625,78.4375 L 52.90625,74.4375 L 53.40625,73.40625 L 52.3125,73.0625 L 40.3125,69.0625 L 39.875,68.90625 z M 40.125,71.0625 L 50.59375,74.5625 L 49.4375,76.875 L 40.1875,75.03125 L 39.75,74.9375 L 39.40625,75.1875 L 31.40625,81.1875 L 30.8125,81.65625 L 31.0625,82.34375 L 36.875,97.84375 L 33.3125,103.1875 L 21.6875,107.0625 L 21.40625,107.15625 L 21.21875,107.375 L 11.6875,118.78125 L 3.375,115.46875 L 4.53125,113.21875 L 9.6875,114.9375 L 10.4375,115.1875 L 10.84375,114.5 L 16.65625,104.78125 L 28.4375,98.90625 L 29.375,98.4375 L 28.875,97.5 L 19.46875,80.5625 L 30.3125,76.9375 L 30.40625,76.90625 L 30.5,76.84375 L 40.125,71.0625 z"
       style="fill:#e6e6e6;fill-opacity:1;fill-rule:evenodd;stroke:none;stroke-width:2;stroke-linecap:butt;stroke-linejoin:miter;stroke-miterlimit:4;stroke-dasharray:none;stroke-opacity:1" />
  </g>
</svg>
