<?xml version="1.0" encoding="UTF-8" standalone="no"?>
<!-- Created with Inkscape (http://www.inkscape.org/) -->
<svg
   xmlns:dc="http://purl.org/dc/elements/1.1/"
   xmlns:cc="http://creativecommons.org/ns#"
   xmlns:rdf="http://www.w3.org/1999/02/22-rdf-syntax-ns#"
   xmlns:svg="http://www.w3.org/2000/svg"
   xmlns="http://www.w3.org/2000/svg"
   xmlns:sodipodi="http://sodipodi.sourceforge.net/DTD/sodipodi-0.dtd"
   xmlns:inkscape="http://www.inkscape.org/namespaces/inkscape"
   width="64"
   height="64"
   id="svg2"
   sodipodi:version="0.32"
   inkscape:version="0.46"
   version="1.0"
   sodipodi:docname="iconw_grenade.svg"
   inkscape:output_extension="org.inkscape.output.svg.inkscape"
   inkscape:export-filename="/mnt/adat/Udi/OpenArena/2D improvement/iconw_grenade.png"
   inkscape:export-xdpi="90"
   inkscape:export-ydpi="90"
   style="display:inline">
  <defs
     id="defs4">
    <inkscape:perspective
       sodipodi:type="inkscape:persp3d"
       inkscape:vp_x="0 : 526.18109 : 1"
       inkscape:vp_y="0 : 1000 : 0"
       inkscape:vp_z="744.09448 : 526.18109 : 1"
       inkscape:persp3d-origin="372.04724 : 350.78739 : 1"
       id="perspective10" />
    <inkscape:perspective
       id="perspective2390"
       inkscape:persp3d-origin="372.04724 : 350.78739 : 1"
       inkscape:vp_z="744.09448 : 526.18109 : 1"
       inkscape:vp_y="0 : 1000 : 0"
       inkscape:vp_x="0 : 526.18109 : 1"
       sodipodi:type="inkscape:persp3d" />
    <inkscape:perspective
       id="perspective3320"
       inkscape:persp3d-origin="372.04724 : 350.78739 : 1"
       inkscape:vp_z="744.09448 : 526.18109 : 1"
       inkscape:vp_y="0 : 1000 : 0"
       inkscape:vp_x="0 : 526.18109 : 1"
       sodipodi:type="inkscape:persp3d" />
    <inkscape:perspective
       id="perspective3505"
       inkscape:persp3d-origin="372.04724 : 350.78739 : 1"
       inkscape:vp_z="744.09448 : 526.18109 : 1"
       inkscape:vp_y="0 : 1000 : 0"
       inkscape:vp_x="0 : 526.18109 : 1"
       sodipodi:type="inkscape:persp3d" />
  </defs>
  <sodipodi:namedview
     id="base"
     pagecolor="#009900"
     bordercolor="#666666"
     borderopacity="1.0"
     inkscape:pageopacity="0"
     inkscape:pageshadow="2"
     inkscape:zoom="4"
     inkscape:cx="39.110081"
     inkscape:cy="15.425804"
     inkscape:document-units="px"
     inkscape:current-layer="layer4"
     showgrid="true"
     inkscape:window-width="1280"
     inkscape:window-height="742"
     inkscape:window-x="0"
     inkscape:window-y="0"
     objecttolerance="10"
     gridtolerance="10"
     guidetolerance="10">
    <inkscape:grid
       type="xygrid"
       id="grid2424"
       visible="true"
       enabled="true"
       spacingx="1px"
       spacingy="1px"
       empspacing="8" />
  </sodipodi:namedview>
  <metadata
     id="metadata7">
    <rdf:RDF>
      <cc:Work
         rdf:about="">
        <dc:format>image/svg+xml</dc:format>
        <dc:type
           rdf:resource="http://purl.org/dc/dcmitype/StillImage" />
      </cc:Work>
    </rdf:RDF>
  </metadata>
  <g
     inkscape:groupmode="layer"
     id="layer4"
     inkscape:label="rendering"
     style="display:inline">
    <g
       transform="translate(9.005204,2.03125)"
       id="g5229"
       style="fill:#009900;fill-opacity:1">
      <path
         style="fill:#009900;fill-opacity:1;fill-rule:nonzero;stroke:none;stroke-width:0.1;stroke-linecap:round;stroke-linejoin:round;stroke-miterlimit:4;stroke-dashoffset:0;stroke-opacity:1"
         d="M 94.994796,-3 C 89.994796,-3 84.994796,-2 82.994796,3 L 76.994792,18 L 77,55.03125 C 80.994796,67 108.9948,67 113,55 L 112.9948,18 L 106.9948,3 C 104.9948,-2 99.994796,-3 94.994796,-3 z M 94.994796,-1 C 99.494796,-1.0117188 103.9948,1 104.9948,4 L 110.9948,18 L 111,45 C 109.9948,54 80.994796,54 79,45.03125 L 78.994792,18 L 84.994796,4 C 85.994796,1 90.494796,-0.9882812 94.994796,-1 z"
         transform="translate(2,2.96875)"
         id="rect5205"
         sodipodi:nodetypes="cccccccccccccccc" />
      <path
         sodipodi:nodetypes="ccccc"
         id="rect5212"
         d="M 80.994796,20.96875 C 82.994796,30.96875 110.9948,30.96875 112.9948,20.96875 L 114.9948,21.96875 C 113.9948,33.96875 80.994796,33.96875 78.994796,21.96875 L 80.994796,20.96875 z"
         style="fill:#009900;fill-opacity:1;fill-rule:nonzero;stroke:none;stroke-width:0.1;stroke-linecap:round;stroke-linejoin:round;stroke-miterlimit:4;stroke-dashoffset:0;stroke-opacity:1" />
      <path
         style="fill:#009900;fill-opacity:1;fill-rule:nonzero;stroke:none;stroke-width:0.1;stroke-linecap:round;stroke-linejoin:round;stroke-miterlimit:4;stroke-dashoffset:0;stroke-opacity:1"
         d="M 86.994796,6.96875 C 88.994796,12.96875 104.99479,12.96875 106.9948,6.96875 L 108.9948,7.96875 C 106.99479,15.96875 86.994796,15.96875 84.994796,7.96875 L 86.994796,6.96875 z"
         id="path5360"
         sodipodi:nodetypes="ccccc" />
      <path
         sodipodi:nodetypes="cccccccccccccccc"
         id="path5410"
         transform="translate(2,2.96875)"
         d="M 94.994796,-3 C 89.994796,-3 84.994796,-2 82.994796,3 L 76.994792,18 L 77,55.03125 C 80.994796,67 108.9948,67 113,55 L 112.9948,18 L 106.9948,3 C 104.9948,-2 99.994796,-3 94.994796,-3 z M 94.994796,-1 C 99.494796,-1.0117188 103.9948,1 104.9948,4 L 110.9948,18 L 111,45 C 109.9948,54 80.994796,54 79,45.03125 L 78.994792,18 L 84.994796,4 C 85.994796,1 90.494796,-0.9882812 94.994796,-1 z"
         style="fill:#009900;fill-opacity:1;fill-rule:nonzero;stroke:none;stroke-width:0.1;stroke-linecap:round;stroke-linejoin:round;stroke-miterlimit:4;stroke-dashoffset:0;stroke-opacity:1" />
    </g>
    <g
       style="fill:#009900;fill-opacity:1"
       id="g5412"
       transform="translate(57.005204,2.03125)">
      <path
         sodipodi:nodetypes="cccccccccccccccc"
         id="path5414"
         transform="translate(2,2.96875)"
         d="M 94.994796,-3 C 89.994796,-3 84.994796,-2 82.994796,3 L 76.994792,18 L 77,55.03125 C 80.994796,67 108.9948,67 113,55 L 112.9948,18 L 106.9948,3 C 104.9948,-2 99.994796,-3 94.994796,-3 z M 94.994796,-1 C 99.494796,-1.0117188 103.9948,1 104.9948,4 L 110.9948,18 L 111,45 C 109.9948,54 80.994796,54 79,45.03125 L 78.994792,18 L 84.994796,4 C 85.994796,1 90.494796,-0.9882812 94.994796,-1 z"
         style="fill:#009900;fill-opacity:1;fill-rule:nonzero;stroke:none;stroke-width:0.1;stroke-linecap:round;stroke-linejoin:round;stroke-miterlimit:4;stroke-dashoffset:0;stroke-opacity:1" />
      <path
         style="fill:#009900;fill-opacity:1;fill-rule:nonzero;stroke:none;stroke-width:0.1;stroke-linecap:round;stroke-linejoin:round;stroke-miterlimit:4;stroke-dashoffset:0;stroke-opacity:1"
         d="M 86.994796,5.96875 C 88.994796,11.96875 104.9948,11.96875 106.9948,5.96875 L 114.9948,21.96875 C 113.9948,33.96875 80.994796,33.96875 78.994796,21.96875 L 86.994796,5.96875 z"
         id="path5416"
         sodipodi:nodetypes="ccccc" />
      <path
         style="fill:#009900;fill-opacity:1;fill-rule:nonzero;stroke:none;stroke-width:0.1;stroke-linecap:round;stroke-linejoin:round;stroke-miterlimit:4;stroke-dashoffset:0;stroke-opacity:1"
         d="M 94.994796,-3 C 89.994796,-3 84.994796,-2 82.994796,3 L 76.994792,18 L 77,55.03125 C 80.994796,67 108.9948,67 113,55 L 112.9948,18 L 106.9948,3 C 104.9948,-2 99.994796,-3 94.994796,-3 z M 94.994796,-1 C 99.494796,-1.0117188 103.9948,1 104.9948,4 L 110.9948,18 L 110.9948,43 C 109.9896,52 80.989592,52 78.994796,43.03125 L 78.994792,18 L 84.994796,4 C 85.994796,1 90.494796,-0.9882812 94.994796,-1 z"
         transform="translate(2,2.96875)"
         id="path5420"
         sodipodi:nodetypes="cccccccccccccccc" />
    </g>
    <g
       transform="matrix(0.7071068,0.7071068,-0.7071068,0.7071068,-11.720399,-61.445978)"
       id="g5422"
       style="fill:#009900;fill-opacity:1">
      <path
         style="fill:#009900;fill-opacity:1;fill-rule:nonzero;stroke:none;stroke-width:0.1;stroke-linecap:round;stroke-linejoin:round;stroke-miterlimit:4;stroke-dashoffset:0;stroke-opacity:1"
         d="M 94.994796,-3 C 89.994796,-3 84.994796,-2 82.994796,3 L 76.994792,18 L 77,55.03125 C 80.994796,67 108.9948,67 113,55 L 112.9948,18 L 106.9948,3 C 104.9948,-2 99.994796,-3 94.994796,-3 z M 94.994796,-1 C 99.494796,-1.0117188 103.9948,1 104.9948,4 L 110.9948,18 L 111,45 C 109.9948,54 80.994796,54 79,45.03125 L 78.994792,18 L 84.994796,4 C 85.994796,1 90.494796,-0.9882812 94.994796,-1 z"
         transform="translate(2,2.96875)"
         id="path5424"
         sodipodi:nodetypes="cccccccccccccccc" />
      <path
         sodipodi:nodetypes="ccccc"
         id="path5426"
         d="M 86.994796,5.96875 C 88.994796,11.96875 104.9948,11.96875 106.9948,5.96875 L 114.9948,21.96875 C 113.9948,33.96875 80.994796,33.96875 78.994796,21.96875 L 86.994796,5.96875 z"
         style="fill:#009900;fill-opacity:1;fill-rule:nonzero;stroke:none;stroke-width:0.1;stroke-linecap:round;stroke-linejoin:round;stroke-miterlimit:4;stroke-dashoffset:0;stroke-opacity:1" />
      <path
         sodipodi:nodetypes="cccccccccccccccc"
         id="path5428"
         transform="translate(2,2.96875)"
         d="M 94.994796,-3 C 89.994796,-3 84.994796,-2 82.994796,3 L 76.994792,18 L 77,55.03125 C 80.994796,67 108.9948,67 113,55 L 112.9948,18 L 106.9948,3 C 104.9948,-2 99.994796,-3 94.994796,-3 z M 94.994796,-1 C 99.494796,-1.0117188 103.9948,1 104.9948,4 L 110.9948,18 L 110.9948,43 C 109.9896,52 80.989592,52 78.994796,43.03125 L 78.994792,18 L 84.994796,4 C 85.994796,1 90.494796,-0.9882812 94.994796,-1 z"
         style="fill:#009900;fill-opacity:1;fill-rule:nonzero;stroke:none;stroke-width:0.1;stroke-linecap:round;stroke-linejoin:round;stroke-miterlimit:4;stroke-dashoffset:0;stroke-opacity:1" />
    </g>
  </g>
</svg>
