<?xml version="1.0" encoding="UTF-8" standalone="no"?>
<!-- Created with Inkscape (http://www.inkscape.org/) -->
<svg
   xmlns:dc="http://purl.org/dc/elements/1.1/"
   xmlns:cc="http://creativecommons.org/ns#"
   xmlns:rdf="http://www.w3.org/1999/02/22-rdf-syntax-ns#"
   xmlns:svg="http://www.w3.org/2000/svg"
   xmlns="http://www.w3.org/2000/svg"
   xmlns:sodipodi="http://sodipodi.sourceforge.net/DTD/sodipodi-0.dtd"
   xmlns:inkscape="http://www.inkscape.org/namespaces/inkscape"
   width="64"
   height="64"
   id="svg2"
   sodipodi:version="0.32"
   inkscape:version="0.46"
   version="1.0"
   sodipodi:docname="iconw_chaingun.svg"
   inkscape:output_extension="org.inkscape.output.svg.inkscape"
   inkscape:export-filename="/mnt/adat/Udi/OpenArena/2D improvement/iconw_chaingun.png"
   inkscape:export-xdpi="90"
   inkscape:export-ydpi="90"
   style="display:inline">
  <defs
     id="defs4">
    <inkscape:perspective
       sodipodi:type="inkscape:persp3d"
       inkscape:vp_x="0 : 526.18109 : 1"
       inkscape:vp_y="0 : 1000 : 0"
       inkscape:vp_z="744.09448 : 526.18109 : 1"
       inkscape:persp3d-origin="372.04724 : 350.78739 : 1"
       id="perspective10" />
    <inkscape:perspective
       id="perspective2390"
       inkscape:persp3d-origin="372.04724 : 350.78739 : 1"
       inkscape:vp_z="744.09448 : 526.18109 : 1"
       inkscape:vp_y="0 : 1000 : 0"
       inkscape:vp_x="0 : 526.18109 : 1"
       sodipodi:type="inkscape:persp3d" />
    <inkscape:perspective
       id="perspective3320"
       inkscape:persp3d-origin="372.04724 : 350.78739 : 1"
       inkscape:vp_z="744.09448 : 526.18109 : 1"
       inkscape:vp_y="0 : 1000 : 0"
       inkscape:vp_x="0 : 526.18109 : 1"
       sodipodi:type="inkscape:persp3d" />
    <inkscape:perspective
       id="perspective3505"
       inkscape:persp3d-origin="372.04724 : 350.78739 : 1"
       inkscape:vp_z="744.09448 : 526.18109 : 1"
       inkscape:vp_y="0 : 1000 : 0"
       inkscape:vp_x="0 : 526.18109 : 1"
       sodipodi:type="inkscape:persp3d" />
  </defs>
  <sodipodi:namedview
     id="base"
     pagecolor="#cccccc"
     bordercolor="#666666"
     borderopacity="1.0"
     inkscape:pageopacity="0"
     inkscape:pageshadow="2"
     inkscape:zoom="2.8"
     inkscape:cx="164.63396"
     inkscape:cy="7.2263993"
     inkscape:document-units="px"
     inkscape:current-layer="layer4"
     showgrid="true"
     inkscape:window-width="1280"
     inkscape:window-height="742"
     inkscape:window-x="0"
     inkscape:window-y="0"
     objecttolerance="10"
     gridtolerance="10"
     guidetolerance="10"
     showguides="true"
     inkscape:guide-bbox="true">
    <inkscape:grid
       type="xygrid"
       id="grid2424"
       visible="true"
       enabled="true"
       spacingx="2px"
       spacingy="2px"
       empspacing="4" />
  </sodipodi:namedview>
  <metadata
     id="metadata7">
    <rdf:RDF>
      <cc:Work
         rdf:about="">
        <dc:format>image/svg+xml</dc:format>
        <dc:type
           rdf:resource="http://purl.org/dc/dcmitype/StillImage" />
      </cc:Work>
    </rdf:RDF>
  </metadata>
  <g
     inkscape:groupmode="layer"
     id="layer4"
     inkscape:label="rendering"
     style="display:inline">
    <g
       id="g3379"
       transform="translate(-8,-8)">
      <path
         sodipodi:nodetypes="cccccccc"
         d="M 100,10 C 100,10 106,16 106,30 L 108,34 L 108,62 L 92,62 L 92,34 L 94,30 C 94,16 100,10 100,10 z"
         style="fill:#e6e6e6;fill-rule:evenodd;stroke:none;stroke-width:1px;stroke-linecap:butt;stroke-linejoin:miter;stroke-opacity:1"
         id="path3381" />
      <path
         id="path3383"
         style="fill:#b3b3b3;fill-rule:evenodd;stroke:none;stroke-width:1px;stroke-linecap:butt;stroke-linejoin:miter;stroke-opacity:1"
         d="M 100,14 C 100,14 104,18 104,32 L 106,36 L 106,54 L 94,54 L 94,36 L 96,32 C 96,18 100,14 100,14 z M 106,56 L 106,60 L 94,60 L 94,56 L 106,56 z"
         sodipodi:nodetypes="ccccccccccccc" />
    </g>
    <g
       transform="translate(8,-16)"
       id="g3391">
      <path
         id="path3393"
         style="fill:#e6e6e6;fill-rule:evenodd;stroke:none;stroke-width:1px;stroke-linecap:butt;stroke-linejoin:miter;stroke-opacity:1"
         d="M 100,10 C 100,10 106,16 106,30 L 108,34 L 108,62 L 92,62 L 92,34 L 94,30 C 94,16 100,10 100,10 z"
         sodipodi:nodetypes="cccccccc" />
      <path
         sodipodi:nodetypes="ccccccccccccc"
         d="M 100,14 C 100,14 104,18 104,32 L 106,36 L 106,54 L 94,54 L 94,36 L 96,32 C 96,18 100,14 100,14 z M 106,56 L 106,60 L 94,60 L 94,56 L 106,56 z"
         style="fill:#b3b3b3;fill-rule:evenodd;stroke:none;stroke-width:1px;stroke-linecap:butt;stroke-linejoin:miter;stroke-opacity:1"
         id="path3395" />
    </g>
    <g
       id="g3345">
      <path
         id="path3337"
         style="fill:#e6e6e6;fill-rule:evenodd;stroke:none;stroke-width:1px;stroke-linecap:butt;stroke-linejoin:miter;stroke-opacity:1"
         d="M 100,10 C 100,10 106,16 106,30 L 108,34 L 108,62 L 92,62 L 92,34 L 94,30 C 94,16 100,10 100,10 z"
         sodipodi:nodetypes="cccccccc" />
      <path
         sodipodi:nodetypes="ccccccccccccc"
         d="M 100,14 C 100,14 104,18 104,32 L 106,36 L 106,54 L 94,54 L 94,36 L 96,32 C 96,18 100,14 100,14 z M 106,56 L 106,60 L 94,60 L 94,56 L 106,56 z"
         style="fill:#b3b3b3;fill-rule:evenodd;stroke:none;stroke-width:1px;stroke-linecap:butt;stroke-linejoin:miter;stroke-opacity:1"
         id="path3332" />
    </g>
    <g
       transform="translate(24,-8)"
       id="g3385">
      <path
         id="path3387"
         style="fill:#e6e6e6;fill-rule:evenodd;stroke:none;stroke-width:1px;stroke-linecap:butt;stroke-linejoin:miter;stroke-opacity:1"
         d="M 100,10 C 100,10 106,16 106,30 L 108,34 L 108,62 L 92,62 L 92,34 L 94,30 C 94,16 100,10 100,10 z"
         sodipodi:nodetypes="cccccccc" />
      <path
         sodipodi:nodetypes="ccccccccccccc"
         d="M 100,14 C 100,14 104,18 104,32 L 106,36 L 106,54 L 94,54 L 94,36 L 96,32 C 96,18 100,14 100,14 z M 106,56 L 106,60 L 94,60 L 94,56 L 106,56 z"
         style="fill:#b3b3b3;fill-rule:evenodd;stroke:none;stroke-width:1px;stroke-linecap:butt;stroke-linejoin:miter;stroke-opacity:1"
         id="path3389" />
    </g>
    <g
       id="g3373"
       transform="translate(16,0)">
      <path
         sodipodi:nodetypes="cccccccc"
         d="M 100,10 C 100,10 106,16 106,30 L 108,34 L 108,62 L 92,62 L 92,34 L 94,30 C 94,16 100,10 100,10 z"
         style="fill:#e6e6e6;fill-rule:evenodd;stroke:none;stroke-width:1px;stroke-linecap:butt;stroke-linejoin:miter;stroke-opacity:1"
         id="path3375" />
      <path
         id="path3377"
         style="fill:#b3b3b3;fill-rule:evenodd;stroke:none;stroke-width:1px;stroke-linecap:butt;stroke-linejoin:miter;stroke-opacity:1"
         d="M 100,14 C 100,14 104,18 104,32 L 106,36 L 106,54 L 94,54 L 94,36 L 96,32 C 96,18 100,14 100,14 z M 106,56 L 106,60 L 94,60 L 94,56 L 106,56 z"
         sodipodi:nodetypes="ccccccccccccc" />
    </g>
    <g
       id="g3622"
       transform="translate(80.09375,69.96875)">
      <path
         id="path3448"
         d="M 38.8125,2.3125 C 37.594398,2.4478447 32.162058,3.5254422 23.5,12.1875 L 19.28125,13.625 L 6.53125,26.34375 L 10.78125,30.59375 L 19.28125,22.09375 L 23.5,20.6875 C 26.985965,17.201535 30.298514,14.963158 33.125,13.5 C 39.035602,6.3223446 39.062501,2.3125 39.0625,2.3125 C 39.0625,2.3125 38.986515,2.293165 38.8125,2.3125 z M 5.125,27.75 L 2.3125,30.59375 L 6.5625,34.8125 L 9.375,32 L 5.125,27.75 z"
         style="fill:#b3b3b3;fill-rule:evenodd;stroke:none;stroke-width:1px;stroke-linecap:butt;stroke-linejoin:miter;stroke-opacity:1" />
      <path
         id="path3454"
         d="M 55.78125,7.96875 C 54.563148,8.1040947 49.162057,9.1816917 40.5,17.84375 L 39.90625,18.03125 C 38.504332,21.157873 36.13608,25.02017 32,29.15625 L 30.59375,33.40625 L 34.84375,32 C 38.97983,27.86392 42.842126,25.495668 45.96875,24.09375 L 46.15625,23.5 C 56.055746,13.600505 56.031248,7.9687499 56.03125,7.96875 C 56.03125,7.96875 55.955265,7.949415 55.78125,7.96875 z"
         style="fill:#b3b3b3;fill-rule:evenodd;stroke:none;stroke-width:1px;stroke-linecap:butt;stroke-linejoin:miter;stroke-opacity:1" />
      <path
         id="path3460"
         style="fill:#b3b3b3;fill-rule:evenodd;stroke:none;stroke-width:1px;stroke-linecap:butt;stroke-linejoin:miter;stroke-opacity:1"
         d="M 39.071069,13.615223 C 39.071069,13.615223 39.071069,19.272078 29.171574,29.171573 L 27.75736,33.414214 L 15.029438,46.142136 L 6.544156,37.656854 L 19.272078,24.928932 L 23.514719,23.514718 C 33.414214,13.615223 39.071069,13.615223 39.071069,13.615223 z M 13.615224,47.55635 L 10.786797,50.384777 L 2.3015152,41.899495 L 5.1299424,39.071068 L 13.615224,47.55635 z"
         sodipodi:nodetypes="ccccccccccccc" />
      <path
         id="path3466"
         d="M 61.4375,24.9375 C 60.439278,25.048414 56.612157,25.841807 50.5,30.875 C 49.036842,33.701486 46.798465,37.014035 43.3125,40.5 L 41.90625,44.71875 L 33.40625,53.21875 L 37.65625,57.46875 L 50.375,44.71875 L 51.8125,40.5 C 61.711995,30.600505 61.6875,24.9375 61.6875,24.9375 C 61.6875,24.9375 61.611515,24.918165 61.4375,24.9375 z M 32,54.625 L 29.1875,57.4375 L 33.40625,61.6875 L 36.25,58.875 L 32,54.625 z"
         style="fill:#b3b3b3;fill-rule:evenodd;stroke:none;stroke-width:1px;stroke-linecap:butt;stroke-linejoin:miter;stroke-opacity:1" />
      <path
         sodipodi:nodetypes="ccccccccccccc"
         d="M 50.384777,24.928932 C 50.384777,24.928932 50.384777,30.585787 40.485282,40.485282 L 39.071068,44.727923 L 26.343146,57.455845 L 17.857864,48.970563 L 30.585786,36.242641 L 34.828427,34.828427 C 44.727922,24.928932 50.384777,24.928932 50.384777,24.928932 z M 24.928932,58.870059 L 22.100505,61.698486 L 13.615223,53.213204 L 16.44365,50.384777 L 24.928932,58.870059 z"
         style="fill:#b3b3b3;fill-rule:evenodd;stroke:none;stroke-width:1px;stroke-linecap:butt;stroke-linejoin:miter;stroke-opacity:1"
         id="path3472" />
    </g>
    <g
       transform="translate(68,-6)"
       id="g3592">
      <path
         id="path3594"
         style="fill:#e6e6e6;fill-rule:evenodd;stroke:none;stroke-width:1px;stroke-linecap:butt;stroke-linejoin:miter;stroke-opacity:1"
         d="M 100,10 C 100,10 104,16 104,30 L 106,34 L 106,62 L 94,62 L 94,34 L 96,30 C 96,16 100,10 100,10 z"
         sodipodi:nodetypes="cccccccc" />
      <path
         sodipodi:nodetypes="ccccccccccccc"
         d="M 100,14 C 100,14 102,18 102,32 L 104,36 L 104,54 L 96,54 L 96,36 L 98,32 C 98,18 100,14 100,14 z M 104,56 L 104,60 L 96,60 L 96,56 L 104,56 z"
         style="fill:#b3b3b3;fill-rule:evenodd;stroke:none;stroke-width:1px;stroke-linecap:butt;stroke-linejoin:miter;stroke-opacity:1"
         id="path3596" />
    </g>
    <g
       id="g3598"
       transform="translate(84,-14)">
      <path
         sodipodi:nodetypes="cccccccc"
         d="M 100,10 C 100,10 104,16 104,30 L 106,34 L 106,62 L 94,62 L 94,34 L 96,30 C 96,16 100,10 100,10 z"
         style="fill:#e6e6e6;fill-rule:evenodd;stroke:none;stroke-width:1px;stroke-linecap:butt;stroke-linejoin:miter;stroke-opacity:1"
         id="path3600" />
      <path
         id="path3602"
         style="fill:#b3b3b3;fill-rule:evenodd;stroke:none;stroke-width:1px;stroke-linecap:butt;stroke-linejoin:miter;stroke-opacity:1"
         d="M 100,14 C 100,14 102,18 102,32 L 104,36 L 104,54 L 96,54 L 96,36 L 98,32 C 98,18 100,14 100,14 z M 104,56 L 104,60 L 96,60 L 96,56 L 104,56 z"
         sodipodi:nodetypes="ccccccccccccc" />
    </g>
    <g
       id="g3604"
       transform="translate(76,2)">
      <path
         sodipodi:nodetypes="cccccccc"
         d="M 100,10 C 100,10 104,16 104,30 L 106,34 L 106,62 L 94,62 L 94,34 L 96,30 C 96,16 100,10 100,10 z"
         style="fill:#e6e6e6;fill-rule:evenodd;stroke:none;stroke-width:1px;stroke-linecap:butt;stroke-linejoin:miter;stroke-opacity:1"
         id="path3606" />
      <path
         id="path3608"
         style="fill:#b3b3b3;fill-rule:evenodd;stroke:none;stroke-width:1px;stroke-linecap:butt;stroke-linejoin:miter;stroke-opacity:1"
         d="M 100,14 C 100,14 102,18 102,32 L 104,36 L 104,54 L 96,54 L 96,36 L 98,32 C 98,18 100,14 100,14 z M 104,56 L 104,60 L 96,60 L 96,56 L 104,56 z"
         sodipodi:nodetypes="ccccccccccccc" />
    </g>
    <g
       id="g3610"
       transform="translate(100,-6)">
      <path
         sodipodi:nodetypes="cccccccc"
         d="M 100,10 C 100,10 104,16 104,30 L 106,34 L 106,62 L 94,62 L 94,34 L 96,30 C 96,16 100,10 100,10 z"
         style="fill:#e6e6e6;fill-rule:evenodd;stroke:none;stroke-width:1px;stroke-linecap:butt;stroke-linejoin:miter;stroke-opacity:1"
         id="path3612" />
      <path
         id="path3614"
         style="fill:#b3b3b3;fill-rule:evenodd;stroke:none;stroke-width:1px;stroke-linecap:butt;stroke-linejoin:miter;stroke-opacity:1"
         d="M 100,14 C 100,14 102,18 102,32 L 104,36 L 104,54 L 96,54 L 96,36 L 98,32 C 98,18 100,14 100,14 z M 104,56 L 104,60 L 96,60 L 96,56 L 104,56 z"
         sodipodi:nodetypes="ccccccccccccc" />
    </g>
    <g
       transform="translate(92,2)"
       id="g3616">
      <path
         id="path3618"
         style="fill:#e6e6e6;fill-rule:evenodd;stroke:none;stroke-width:1px;stroke-linecap:butt;stroke-linejoin:miter;stroke-opacity:1"
         d="M 100,10 C 100,10 104,16 104,30 L 106,34 L 106,62 L 94,62 L 94,34 L 96,30 C 96,16 100,10 100,10 z"
         sodipodi:nodetypes="cccccccc" />
      <path
         sodipodi:nodetypes="ccccccccccccc"
         d="M 100,14 C 100,14 102,18 102,32 L 104,36 L 104,54 L 96,54 L 96,36 L 98,32 C 98,18 100,14 100,14 z M 104,56 L 104,60 L 96,60 L 96,56 L 104,56 z"
         style="fill:#b3b3b3;fill-rule:evenodd;stroke:none;stroke-width:1px;stroke-linecap:butt;stroke-linejoin:miter;stroke-opacity:1"
         id="path3620" />
    </g>
    <g
       id="g3659"
       transform="matrix(0.7071068,0.7071068,-0.7071068,0.7071068,29.87868,-13.961942)"
       style="fill:#cccccc;fill-opacity:1">
      <path
         style="fill:#cccccc;fill-rule:evenodd;stroke:none;stroke-width:1px;stroke-linecap:butt;stroke-linejoin:miter;stroke-opacity:1;fill-opacity:1"
         d="M 38.375 3 C 38.375 3 34.118244 4.4130043 24.21875 14.3125 L 19.96875 15.75 L 7.25 28.46875 L 11.5 32.71875 L 19.96875 24.21875 L 24.21875 22.8125 L 25.625 21.40625 L 27.0625 17.15625 C 36.961995 7.2567548 38.375001 3 38.375 3 z M 5.84375 29.875 L 3 32.71875 L 7.25 36.96875 L 10.09375 34.125 L 5.84375 29.875 z "
         transform="matrix(0.7071068,-0.7071068,0.7071068,0.7071068,-11.254833,31)"
         id="path3633" />
      <path
         style="fill:#cccccc;fill-rule:evenodd;stroke:none;stroke-width:1px;stroke-linecap:butt;stroke-linejoin:miter;stroke-opacity:1;fill-opacity:1"
         d="M 55.34375 8.65625 C 55.343749 8.6562503 51.086995 10.069253 41.1875 19.96875 L 36.9375 21.40625 L 29.875 28.46875 L 28.46875 32.71875 L 25.625 35.53125 L 28.46875 38.375 L 31.28125 35.53125 L 35.53125 34.125 L 42.59375 27.0625 L 44.03125 22.8125 C 53.930744 12.913004 55.343749 8.6562498 55.34375 8.65625 z M 24.21875 36.9375 L 21.375 39.78125 L 24.21875 42.625 L 27.0625 39.78125 L 24.21875 36.9375 z "
         transform="matrix(0.7071068,-0.7071068,0.7071068,0.7071068,-11.254833,31)"
         id="path3639" />
      <path
         sodipodi:nodetypes="ccccccccccccc"
         d="M 26,14 C 26,14 28,18 28,32 L 30,36 L 30,54 L 22,54 L 22,36 L 24,32 C 24,18 26,14 26,14 z M 30,56 L 30,60 L 22,60 L 22,56 L 30,56 z"
         style="fill:#cccccc;fill-rule:evenodd;stroke:none;stroke-width:1px;stroke-linecap:butt;stroke-linejoin:miter;stroke-opacity:1;fill-opacity:1"
         id="path3645" />
      <path
         style="fill:#cccccc;fill-rule:evenodd;stroke:none;stroke-width:1px;stroke-linecap:butt;stroke-linejoin:miter;stroke-opacity:1;fill-opacity:1"
         d="M 61 25.625 C 61 25.625 56.743245 27.038003 46.84375 36.9375 L 42.59375 38.375 L 41.1875 39.78125 L 39.78125 44.03125 L 31.28125 52.5 L 35.53125 56.75 L 48.25 44.03125 L 49.6875 39.78125 C 59.586995 29.881755 61 25.624999 61 25.625 z M 29.875 53.90625 L 27.03125 56.75 L 31.28125 61 L 34.125 58.15625 L 29.875 53.90625 z "
         transform="matrix(0.7071068,-0.7071068,0.7071068,0.7071068,-11.254833,31)"
         id="path3651" />
      <path
         id="path3657"
         style="fill:#cccccc;fill-rule:evenodd;stroke:none;stroke-width:1px;stroke-linecap:butt;stroke-linejoin:miter;stroke-opacity:1;fill-opacity:1"
         d="M 42,14 C 42,14 44,18 44,32 L 46,36 L 46,54 L 38,54 L 38,36 L 40,32 C 40,18 42,14 42,14 z M 46,56 L 46,60 L 38,60 L 38,56 L 46,56 z"
         sodipodi:nodetypes="ccccccccccccc" />
    </g>
    <g
       transform="matrix(0.7071068,0.7071068,-0.7071068,0.7071068,182.53493,57.381808)"
       id="g3694">
      <path
         id="path3696"
         transform="matrix(0.7071068,-0.7071068,0.7071068,0.7071068,-11.254833,31)"
         d="M 38.375,3 C 38.375,3 34.118244,4.4130043 24.21875,14.3125 L 19.96875,15.75 L 7.25,28.46875 L 11.5,32.71875 L 19.96875,24.21875 L 24.21875,22.8125 L 25.625,21.40625 L 27.0625,17.15625 C 36.961995,7.2567548 38.375001,3 38.375,3 z M 5.84375,29.875 L 3,32.71875 L 7.25,36.96875 L 10.09375,34.125 L 5.84375,29.875 z"
         style="fill:#b3b3b3;fill-rule:evenodd;stroke:none;stroke-width:1px;stroke-linecap:butt;stroke-linejoin:miter;stroke-opacity:1" />
      <path
         id="path3698"
         transform="matrix(0.7071068,-0.7071068,0.7071068,0.7071068,-11.254833,31)"
         d="M 55.34375,8.65625 C 55.343749,8.6562503 51.086995,10.069253 41.1875,19.96875 L 36.9375,21.40625 L 29.875,28.46875 L 28.46875,32.71875 L 25.625,35.53125 L 28.46875,38.375 L 31.28125,35.53125 L 35.53125,34.125 L 42.59375,27.0625 L 44.03125,22.8125 C 53.930744,12.913004 55.343749,8.6562498 55.34375,8.65625 z M 24.21875,36.9375 L 21.375,39.78125 L 24.21875,42.625 L 27.0625,39.78125 L 24.21875,36.9375 z"
         style="fill:#b3b3b3;fill-rule:evenodd;stroke:none;stroke-width:1px;stroke-linecap:butt;stroke-linejoin:miter;stroke-opacity:1" />
      <path
         id="path3700"
         style="fill:#b3b3b3;fill-rule:evenodd;stroke:none;stroke-width:1px;stroke-linecap:butt;stroke-linejoin:miter;stroke-opacity:1"
         d="M 26,14 C 26,14 28,18 28,32 L 30,36 L 30,54 L 22,54 L 22,36 L 24,32 C 24,18 26,14 26,14 z M 30,56 L 30,60 L 22,60 L 22,56 L 30,56 z"
         sodipodi:nodetypes="ccccccccccccc" />
      <path
         id="path3702"
         transform="matrix(0.7071068,-0.7071068,0.7071068,0.7071068,-11.254833,31)"
         d="M 61,25.625 C 61,25.625 56.743245,27.038003 46.84375,36.9375 L 42.59375,38.375 L 41.1875,39.78125 L 39.78125,44.03125 L 31.28125,52.5 L 35.53125,56.75 L 48.25,44.03125 L 49.6875,39.78125 C 59.586995,29.881755 61,25.624999 61,25.625 z M 29.875,53.90625 L 27.03125,56.75 L 31.28125,61 L 34.125,58.15625 L 29.875,53.90625 z"
         style="fill:#b3b3b3;fill-rule:evenodd;stroke:none;stroke-width:1px;stroke-linecap:butt;stroke-linejoin:miter;stroke-opacity:1" />
      <path
         sodipodi:nodetypes="ccccccccccccc"
         d="M 42,14 C 42,14 44,18 44,32 L 46,36 L 46,54 L 38,54 L 38,36 L 40,32 C 40,18 42,14 42,14 z M 46,56 L 46,60 L 38,60 L 38,56 L 46,56 z"
         style="fill:#b3b3b3;fill-rule:evenodd;stroke:none;stroke-width:1px;stroke-linecap:butt;stroke-linejoin:miter;stroke-opacity:1"
         id="path3704" />
    </g>
  </g>
</svg>
