<?xml version="1.0" encoding="UTF-8" standalone="no"?>
<!-- Created with Inkscape (http://www.inkscape.org/) -->
<svg
   xmlns:dc="http://purl.org/dc/elements/1.1/"
   xmlns:cc="http://creativecommons.org/ns#"
   xmlns:rdf="http://www.w3.org/1999/02/22-rdf-syntax-ns#"
   xmlns:svg="http://www.w3.org/2000/svg"
   xmlns="http://www.w3.org/2000/svg"
   xmlns:sodipodi="http://sodipodi.sourceforge.net/DTD/sodipodi-0.dtd"
   xmlns:inkscape="http://www.inkscape.org/namespaces/inkscape"
   width="64"
   height="64"
   id="svg2"
   sodipodi:version="0.32"
   inkscape:version="0.46"
   version="1.0"
   sodipodi:docname="iconw_grapple.svg"
   inkscape:output_extension="org.inkscape.output.svg.inkscape"
   inkscape:export-filename="/mnt/adat/Udi/OpenArena/2D improvement/iconw_grapple.png"
   inkscape:export-xdpi="90"
   inkscape:export-ydpi="90"
   style="display:inline">
  <defs
     id="defs4">
    <inkscape:perspective
       sodipodi:type="inkscape:persp3d"
       inkscape:vp_x="0 : 526.18109 : 1"
       inkscape:vp_y="0 : 1000 : 0"
       inkscape:vp_z="744.09448 : 526.18109 : 1"
       inkscape:persp3d-origin="372.04724 : 350.78739 : 1"
       id="perspective10" />
    <inkscape:perspective
       id="perspective2390"
       inkscape:persp3d-origin="372.04724 : 350.78739 : 1"
       inkscape:vp_z="744.09448 : 526.18109 : 1"
       inkscape:vp_y="0 : 1000 : 0"
       inkscape:vp_x="0 : 526.18109 : 1"
       sodipodi:type="inkscape:persp3d" />
    <inkscape:perspective
       id="perspective3320"
       inkscape:persp3d-origin="372.04724 : 350.78739 : 1"
       inkscape:vp_z="744.09448 : 526.18109 : 1"
       inkscape:vp_y="0 : 1000 : 0"
       inkscape:vp_x="0 : 526.18109 : 1"
       sodipodi:type="inkscape:persp3d" />
    <inkscape:perspective
       id="perspective3505"
       inkscape:persp3d-origin="372.04724 : 350.78739 : 1"
       inkscape:vp_z="744.09448 : 526.18109 : 1"
       inkscape:vp_y="0 : 1000 : 0"
       inkscape:vp_x="0 : 526.18109 : 1"
       sodipodi:type="inkscape:persp3d" />
  </defs>
  <sodipodi:namedview
     id="base"
     pagecolor="#669900"
     bordercolor="#666666"
     borderopacity="1.0"
     inkscape:pageopacity="0"
     inkscape:pageshadow="2"
     inkscape:zoom="3.959798"
     inkscape:cx="117.63104"
     inkscape:cy="33.71799"
     inkscape:document-units="px"
     inkscape:current-layer="g3773"
     showgrid="true"
     inkscape:window-width="1280"
     inkscape:window-height="742"
     inkscape:window-x="0"
     inkscape:window-y="0"
     objecttolerance="10"
     gridtolerance="10"
     guidetolerance="10"
     showguides="true"
     inkscape:guide-bbox="true">
    <inkscape:grid
       type="xygrid"
       id="grid3730"
       visible="true"
       enabled="true"
       empspacing="4" />
  </sodipodi:namedview>
  <metadata
     id="metadata7">
    <rdf:RDF>
      <cc:Work
         rdf:about="">
        <dc:format>image/svg+xml</dc:format>
        <dc:type
           rdf:resource="http://purl.org/dc/dcmitype/StillImage" />
      </cc:Work>
    </rdf:RDF>
  </metadata>
  <g
     inkscape:groupmode="layer"
     id="layer4"
     inkscape:label="rendering"
     style="display:inline">
    <g
       id="g3765"
       transform="translate(68,45)">
      <path
         sodipodi:nodetypes="ccccccccccccccccc"
         d="M 24,51 L 14,41 L 17,36 L 17,10 L 45,6 L 49,10 L 49,14 L 25,18 L 25,38 L 27,40 L 45,40 L 50,16 L 54,16 L 58,20 L 52,48 L 29,48 L 24,51 z"
         style="fill:#008000;fill-rule:evenodd;stroke:#000000;stroke-width:1px;stroke-linecap:butt;stroke-linejoin:miter;stroke-opacity:1"
         id="path3746" />
      <path
         sodipodi:nodetypes="ccccccccccccccc"
         d="M 29,48 L 24,51 L 18,45 L 21,40 L 21,14 L 49,10 L 49,14 L 25,18 L 25,38 L 31,44 L 49,44 L 54,20 L 58,20 L 52,48 L 29,48 z"
         style="fill:#008000;fill-rule:evenodd;stroke:#000000;stroke-width:1px;stroke-linecap:butt;stroke-linejoin:bevel;stroke-opacity:1"
         id="path3726" />
    </g>
    <path
       sodipodi:nodetypes="ccccccc"
       id="path3741"
       d="M 83,48 L 111,48 L 117,20 L 113,20 L 108,44 L 87,44 L 83,48 z"
       style="fill:none;fill-rule:evenodd;stroke:#000000;stroke-width:1px;stroke-linecap:butt;stroke-linejoin:miter;stroke-opacity:1" />
    <path
       style="fill:none;fill-rule:evenodd;stroke:#000000;stroke-width:1px;stroke-linecap:butt;stroke-linejoin:miter;stroke-opacity:1"
       d="M 108,10 L 80,14 L 80,45 L 84,41 L 84,18 L 108,14 L 108,10 z"
       id="path3743"
       sodipodi:nodetypes="ccccccc" />
    <g
       id="g3773"
       style="fill:#669900;fill-opacity:1"
       transform="translate(-0.5,0)">
      <path
         id="path3751"
         d="M 46.5,2 L 18.5,6 L 18.5,32 L 16.5,38 L 21.5,43 L 24.5,38 L 24.5,12 L 51.5,7 L 46.5,2 z M 51.5,8 L 25.5,13 L 25.5,39 L 22.5,44 L 27.5,49 L 32.5,45 L 55.5,45 L 60.5,19 L 58.5,19 L 53.5,43 L 34.5,43 L 28.5,36 L 28.5,15 L 51.5,11 L 51.5,8 z M 51.5,12 L 47.5,36 L 30.5,36 L 35.5,42 L 52.5,42 L 57.5,18 L 60.5,18 L 55.5,12 L 51.5,12 z"
         style="fill:#669900;fill-opacity:1;fill-rule:evenodd;stroke:none;stroke-width:1px;stroke-linecap:butt;stroke-linejoin:miter;stroke-opacity:1"
         sodipodi:nodetypes="ccccccccccccccccccccccccccccccccc" />
      <path
         sodipodi:nodetypes="ccccc"
         id="path3769"
         d="M 26,49 L 20,56 C 14,56 9.5,52 9.5,46 L 15.5,39 L 26,49 z"
         style="fill:#669900;fill-opacity:1;fill-rule:evenodd;stroke:none;stroke-width:1px;stroke-linecap:butt;stroke-linejoin:miter;stroke-opacity:1" />
      <path
         sodipodi:nodetypes="ccccc"
         id="path3771"
         d="M 13.5,55 L 7.5,61 L 3.5,57 C 3.5,57 9.5,51 9.5,51 C 9.5,52 12.5,55 13.5,55 z"
         style="fill:#669900;fill-opacity:1;fill-rule:evenodd;stroke:none;stroke-width:1px;stroke-linecap:butt;stroke-linejoin:miter;stroke-opacity:1" />
    </g>
  </g>
</svg>
