<?xml version="1.0" encoding="UTF-8" standalone="no"?>
<!-- Created with Inkscape (http://www.inkscape.org/) -->
<svg
   xmlns:dc="http://purl.org/dc/elements/1.1/"
   xmlns:cc="http://creativecommons.org/ns#"
   xmlns:rdf="http://www.w3.org/1999/02/22-rdf-syntax-ns#"
   xmlns:svg="http://www.w3.org/2000/svg"
   xmlns="http://www.w3.org/2000/svg"
   xmlns:sodipodi="http://sodipodi.sourceforge.net/DTD/sodipodi-0.dtd"
   xmlns:inkscape="http://www.inkscape.org/namespaces/inkscape"
   width="64"
   height="64"
   id="svg2"
   sodipodi:version="0.32"
   inkscape:version="0.46"
   version="1.0"
   sodipodi:docname="iconw_proxlauncher.svg"
   inkscape:output_extension="org.inkscape.output.svg.inkscape"
   inkscape:export-filename="/mnt/adat/Udi/OpenArena/2D improvement/iconw_proxlauncher.png"
   inkscape:export-xdpi="90"
   inkscape:export-ydpi="90"
   style="display:inline">
  <defs
     id="defs4">
    <inkscape:perspective
       sodipodi:type="inkscape:persp3d"
       inkscape:vp_x="0 : 526.18109 : 1"
       inkscape:vp_y="0 : 1000 : 0"
       inkscape:vp_z="744.09448 : 526.18109 : 1"
       inkscape:persp3d-origin="372.04724 : 350.78739 : 1"
       id="perspective10" />
    <inkscape:perspective
       id="perspective2390"
       inkscape:persp3d-origin="372.04724 : 350.78739 : 1"
       inkscape:vp_z="744.09448 : 526.18109 : 1"
       inkscape:vp_y="0 : 1000 : 0"
       inkscape:vp_x="0 : 526.18109 : 1"
       sodipodi:type="inkscape:persp3d" />
    <inkscape:perspective
       id="perspective3320"
       inkscape:persp3d-origin="372.04724 : 350.78739 : 1"
       inkscape:vp_z="744.09448 : 526.18109 : 1"
       inkscape:vp_y="0 : 1000 : 0"
       inkscape:vp_x="0 : 526.18109 : 1"
       sodipodi:type="inkscape:persp3d" />
    <inkscape:perspective
       id="perspective3505"
       inkscape:persp3d-origin="372.04724 : 350.78739 : 1"
       inkscape:vp_z="744.09448 : 526.18109 : 1"
       inkscape:vp_y="0 : 1000 : 0"
       inkscape:vp_x="0 : 526.18109 : 1"
       sodipodi:type="inkscape:persp3d" />
  </defs>
  <sodipodi:namedview
     id="base"
     pagecolor="#ff9966"
     bordercolor="#666666"
     borderopacity="1.0"
     inkscape:pageopacity="0"
     inkscape:pageshadow="2"
     inkscape:zoom="3.959798"
     inkscape:cx="102.51506"
     inkscape:cy="-0.057517917"
     inkscape:document-units="px"
     inkscape:current-layer="layer4"
     showgrid="true"
     inkscape:window-width="1280"
     inkscape:window-height="742"
     inkscape:window-x="0"
     inkscape:window-y="0"
     objecttolerance="10"
     gridtolerance="10"
     guidetolerance="10"
     showguides="true"
     inkscape:guide-bbox="true">
    <inkscape:grid
       type="xygrid"
       id="grid3730"
       visible="true"
       enabled="true"
       empspacing="4" />
  </sodipodi:namedview>
  <metadata
     id="metadata7">
    <rdf:RDF>
      <cc:Work
         rdf:about="">
        <dc:format>image/svg+xml</dc:format>
        <dc:type
           rdf:resource="http://purl.org/dc/dcmitype/StillImage" />
      </cc:Work>
    </rdf:RDF>
  </metadata>
  <g
     inkscape:groupmode="layer"
     id="layer4"
     inkscape:label="rendering"
     style="display:inline">
    <path
       style="opacity:1;fill:#ff9966;fill-opacity:1;fill-rule:nonzero;stroke:none;stroke-width:2;stroke-linecap:butt;stroke-linejoin:miter;stroke-miterlimit:4;stroke-dasharray:none;stroke-dashoffset:0;stroke-opacity:1"
       d="M 30 2.0625 C 15.04088 3.0540512 3.0546143 15.040495 2.0625 30 L 6.09375 30 C 7.0664755 17.240541 17.241272 7.0337483 30 6.0625 L 30 2.0625 z M 34 2.0625 L 34 6.09375 C 46.759459 7.0664756 56.966251 17.241272 57.9375 30 L 61.9375 30 C 60.945949 15.04088 48.959505 3.0546143 34 2.0625 z M 30 14.125 C 21.661341 15.047912 15.049113 21.663605 14.125 30 L 18.15625 30 C 19.03182 23.871937 23.871571 19.036451 30 18.15625 L 30 14.125 z M 34 14.125 L 34 18.15625 C 40.128063 19.031819 44.963549 23.871571 45.84375 30 L 49.875 30 C 48.952088 21.661341 42.336395 15.049113 34 14.125 z M 32 26 C 28.688 26 26 28.688 26 32 C 26 35.312 28.688 38 32 38 C 35.312 38 38 35.312 38 32 C 38 28.688 35.312 26 32 26 z M 2.0625 34 C 3.0540512 48.95912 15.040495 60.945386 30 61.9375 L 30 57.90625 C 17.240541 56.933525 7.0337483 46.758728 6.0625 34 L 2.0625 34 z M 14.125 34 C 15.047912 42.338659 21.663605 48.950887 30 49.875 L 30 45.84375 C 23.871937 44.968179 19.036451 40.128428 18.15625 34 L 14.125 34 z M 45.84375 34 C 44.963549 40.128429 40.128063 44.96818 34 45.84375 L 34 49.875 C 42.336395 48.950887 48.952088 42.338659 49.875 34 L 45.84375 34 z M 57.9375 34 C 56.966251 46.758728 46.759459 56.933525 34 57.90625 L 34 61.9375 C 48.959505 60.945386 60.945949 48.95912 61.9375 34 L 57.9375 34 z "
       id="path2417" />
    <path
       transform="matrix(1.5,0,0,1.5,62,-23.999999)"
       d="M 56,36 A 20,20 0 1 1 16,36 A 20,20 0 1 1 56,36 z"
       sodipodi:ry="20"
       sodipodi:rx="20"
       sodipodi:cy="36"
       sodipodi:cx="36"
       id="path3197"
       style="opacity:1;fill:#ffccaa;fill-opacity:1;fill-rule:nonzero;stroke:none;stroke-width:2;stroke-linecap:butt;stroke-linejoin:miter;stroke-miterlimit:4;stroke-dasharray:none;stroke-dashoffset:0;stroke-opacity:1"
       sodipodi:type="arc" />
    <path
       transform="matrix(1.625,0,0,1.3722903,-53,-12.467482)"
       d="M 120,30.946428 A 16,18.946428 0 1 1 88,30.946428 A 16,18.946428 0 1 1 120,30.946428 z"
       sodipodi:ry="18.946428"
       sodipodi:rx="16"
       sodipodi:cy="30.946428"
       sodipodi:cx="104"
       id="path3199"
       style="opacity:1;fill:#e6e6e6;fill-opacity:1;fill-rule:nonzero;stroke:none;stroke-width:2;stroke-linecap:butt;stroke-linejoin:miter;stroke-miterlimit:4;stroke-dasharray:none;stroke-dashoffset:0;stroke-opacity:1"
       sodipodi:type="arc" />
    <path
       sodipodi:type="arc"
       style="opacity:1;fill:#ffccaa;fill-opacity:1;fill-rule:nonzero;stroke:none;stroke-width:2;stroke-linecap:butt;stroke-linejoin:miter;stroke-miterlimit:4;stroke-dasharray:none;stroke-dashoffset:0;stroke-opacity:1"
       id="path3201"
       sodipodi:cx="36"
       sodipodi:cy="36"
       sodipodi:rx="20"
       sodipodi:ry="20"
       d="M 56,36 A 20,20 0 1 1 16,36 A 20,20 0 1 1 56,36 z"
       transform="matrix(0.9,0,0,0.9,83.6,-2.399999)" />
    <path
       sodipodi:type="arc"
       style="opacity:1;fill:#e6e6e6;fill-opacity:1;fill-rule:nonzero;stroke:none;stroke-width:2;stroke-linecap:butt;stroke-linejoin:miter;stroke-miterlimit:4;stroke-dasharray:none;stroke-dashoffset:0;stroke-opacity:1"
       id="path3203"
       sodipodi:cx="104"
       sodipodi:cy="30.946428"
       sodipodi:rx="16"
       sodipodi:ry="18.946428"
       d="M 120,30.946428 A 16,18.946428 0 1 1 88,30.946428 A 16,18.946428 0 1 1 120,30.946428 z"
       transform="matrix(0.875,0,0,0.7389255,25,7.132896)" />
    <path
       transform="matrix(0.3,0,0,0.3,105.2,19.200001)"
       d="M 56,36 A 20,20 0 1 1 16,36 A 20,20 0 1 1 56,36 z"
       sodipodi:ry="20"
       sodipodi:rx="20"
       sodipodi:cy="36"
       sodipodi:cx="36"
       id="path3205"
       style="opacity:1;fill:#ffccaa;fill-opacity:1;fill-rule:nonzero;stroke:none;stroke-width:2;stroke-linecap:butt;stroke-linejoin:miter;stroke-miterlimit:4;stroke-dasharray:none;stroke-dashoffset:0;stroke-opacity:1"
       sodipodi:type="arc" />
    <path
       style="fill:#e6e6e6;fill-rule:evenodd;stroke:none;stroke-width:1px;stroke-linecap:butt;stroke-linejoin:miter;stroke-opacity:1"
       d="M 120,-4 L 100,-4 L 100,-8 L 120,-8 L 120,-4 z"
       id="path3219"
       sodipodi:nodetypes="ccccc" />
  </g>
</svg>
