<?xml version="1.0" encoding="UTF-8" standalone="no"?>
<!-- Created with Inkscape (http://www.inkscape.org/) -->
<svg
   xmlns:dc="http://purl.org/dc/elements/1.1/"
   xmlns:cc="http://creativecommons.org/ns#"
   xmlns:rdf="http://www.w3.org/1999/02/22-rdf-syntax-ns#"
   xmlns:svg="http://www.w3.org/2000/svg"
   xmlns="http://www.w3.org/2000/svg"
   xmlns:sodipodi="http://sodipodi.sourceforge.net/DTD/sodipodi-0.dtd"
   xmlns:inkscape="http://www.inkscape.org/namespaces/inkscape"
   width="64"
   height="64"
   id="svg2"
   sodipodi:version="0.32"
   inkscape:version="0.46"
   version="1.0"
   sodipodi:docname="icona_plasma.svg"
   inkscape:output_extension="org.inkscape.output.svg.inkscape"
   inkscape:export-filename="/mnt/adat/Udi/OpenArena/2D improvement/icona_plasma.png"
   inkscape:export-xdpi="90"
   inkscape:export-ydpi="90"
   style="display:inline">
  <defs
     id="defs4">
    <inkscape:perspective
       sodipodi:type="inkscape:persp3d"
       inkscape:vp_x="0 : 526.18109 : 1"
       inkscape:vp_y="0 : 1000 : 0"
       inkscape:vp_z="744.09448 : 526.18109 : 1"
       inkscape:persp3d-origin="372.04724 : 350.78739 : 1"
       id="perspective10" />
    <inkscape:perspective
       id="perspective2390"
       inkscape:persp3d-origin="372.04724 : 350.78739 : 1"
       inkscape:vp_z="744.09448 : 526.18109 : 1"
       inkscape:vp_y="0 : 1000 : 0"
       inkscape:vp_x="0 : 526.18109 : 1"
       sodipodi:type="inkscape:persp3d" />
    <inkscape:perspective
       id="perspective3320"
       inkscape:persp3d-origin="372.04724 : 350.78739 : 1"
       inkscape:vp_z="744.09448 : 526.18109 : 1"
       inkscape:vp_y="0 : 1000 : 0"
       inkscape:vp_x="0 : 526.18109 : 1"
       sodipodi:type="inkscape:persp3d" />
    <inkscape:perspective
       id="perspective3505"
       inkscape:persp3d-origin="372.04724 : 350.78739 : 1"
       inkscape:vp_z="744.09448 : 526.18109 : 1"
       inkscape:vp_y="0 : 1000 : 0"
       inkscape:vp_x="0 : 526.18109 : 1"
       sodipodi:type="inkscape:persp3d" />
  </defs>
  <sodipodi:namedview
     id="base"
     pagecolor="#ff00ff"
     bordercolor="#666666"
     borderopacity="1.0"
     inkscape:pageopacity="0"
     inkscape:pageshadow="2"
     inkscape:zoom="4"
     inkscape:cx="99.843068"
     inkscape:cy="1.1782279"
     inkscape:document-units="px"
     inkscape:current-layer="layer4"
     showgrid="true"
     inkscape:window-width="1280"
     inkscape:window-height="742"
     inkscape:window-x="0"
     inkscape:window-y="0"
     objecttolerance="10"
     gridtolerance="10"
     guidetolerance="10">
    <inkscape:grid
       type="xygrid"
       id="grid2424"
       visible="true"
       enabled="true"
       spacingx="2px"
       spacingy="2px"
       empspacing="4" />
  </sodipodi:namedview>
  <metadata
     id="metadata7">
    <rdf:RDF>
      <cc:Work
         rdf:about="">
        <dc:format>image/svg+xml</dc:format>
        <dc:type
           rdf:resource="http://purl.org/dc/dcmitype/StillImage" />
      </cc:Work>
    </rdf:RDF>
  </metadata>
  <g
     inkscape:groupmode="layer"
     id="layer4"
     inkscape:label="rendering"
     style="display:inline">
    <g
       id="g5092">
      <path
         style="fill:#990099;fill-opacity:1;fill-rule:nonzero;stroke:none;stroke-width:1;stroke-linecap:round;stroke-linejoin:round;stroke-miterlimit:4;stroke-dasharray:none;stroke-dashoffset:0;stroke-opacity:1"
         d="M 181.71281,16 C 169.56881,16 159.71281,25.856 159.71281,38 C 159.71281,50.144 169.56881,59.999999 181.71281,60 C 193.85681,60 203.71281,50.143999 203.71281,38 C 203.71281,25.856 193.85681,16 181.71281,16 z M 181.71281,20 C 191.64881,19.999999 199.71281,28.064 199.71281,38 C 199.71281,47.936 191.64881,56 181.71281,56 C 171.77681,56 163.71281,47.936 163.71281,38 C 163.71281,28.064001 171.77681,20 181.71281,20 z"
         id="path5006" />
      <path
         id="path5008"
         d="M 154,64 C 160.072,74.517013 173.53554,78.124558 184.05256,72.052559 C 194.56957,65.980559 198.17711,52.517012 192.10511,42 C 186.03311,31.482988 172.56957,27.875442 162.05256,33.947441 C 151.53554,40.019441 147.928,53.482988 154,64 z M 157.4641,62 C 152.4961,53.395172 155.44773,42.379543 164.05256,37.411543 C 172.65738,32.443543 183.67301,35.395172 188.64101,44 C 193.60901,52.604829 190.65738,63.620457 182.05256,68.588457 C 173.44773,73.556456 162.4321,70.604829 157.4641,62 z"
         style="fill:#990099;fill-opacity:1;fill-rule:nonzero;stroke:none;stroke-width:1;stroke-linecap:round;stroke-linejoin:round;stroke-miterlimit:4;stroke-dasharray:none;stroke-dashoffset:0;stroke-opacity:1" />
      <path
         style="fill:#990099;fill-opacity:1;fill-rule:nonzero;stroke:none;stroke-width:1;stroke-linecap:round;stroke-linejoin:round;stroke-miterlimit:4;stroke-dasharray:none;stroke-dashoffset:0;stroke-opacity:1"
         d="M 209.42562,64 C 215.49762,53.482987 211.89008,40.019442 201.37306,33.947441 C 190.85605,27.875441 177.39251,31.482989 171.32051,42 C 165.24851,52.517012 168.85605,65.980559 179.37306,72.052559 C 189.89008,78.124559 203.35362,74.517012 209.42562,64 z M 205.96152,62 C 200.99352,70.604829 189.97789,73.556457 181.37306,68.588457 C 172.76824,63.620457 169.81661,52.604828 174.78461,44 C 179.75261,35.395171 190.76824,32.443543 199.37306,37.411543 C 207.97789,42.379543 210.92952,53.395171 205.96152,62 z"
         id="path5010" />
    </g>
    <g
       id="g8104"
       transform="matrix(0.5,0,0,0.5,16,19.25)"
       style="fill:#ff00ff;fill-opacity:1">
      <g
         id="g5099"
         style="fill:#ff00ff;fill-opacity:1">
        <path
           sodipodi:nodetypes="cscccccscccscccscscc"
           id="path4931"
           d="M 10.1875,27.2224 C 10.1875,27.2224 14.042969,24.124744 14.042969,24.124744 C 14.042969,24.124744 14.78125,19.2224 14.78125,19.2224 C 17.041032,11.863088 23.903093,6.5036501 32,6.5036501 C 40.096907,6.5036491 46.958968,11.863087 49.21875,19.2224 C 49.21875,19.2224 49.96875,24.12865 49.96875,24.12865 C 49.96875,24.12865 53.8125,27.2224 53.8125,27.2224 C 59.067706,32.858798 60.302025,41.485336 56.25,48.50365 C 52.201559,55.515759 44.128225,58.757496 36.625,57.0349 C 36.625,57.0349 32,55.2849 32,55.2849 C 32,55.2849 27.375,57.0349 27.375,57.0349 C 19.871775,58.757495 11.798442,55.515758 7.7500003,48.50365 C 3.6979753,41.485337 4.9322933,32.858798 10.1875,27.2224 z M 32,2.5036501 C 20.74466,2.5036501 11.455598,10.971224 10.15625,21.87865 C 1.3445963,28.454132 -1.3504937,40.749184 4.2812503,50.50365 C 9.9098113,60.252604 21.903215,64.054108 32,59.7224 C 42.096785,64.054108 54.090189,60.252603 59.71875,50.50365 C 65.350493,40.749183 62.655403,28.454132 53.84375,21.87865 C 52.544402,10.971224 43.25534,2.5036501 32,2.5036501 z"
           style="fill:#ff00ff;fill-opacity:1;fill-rule:nonzero;stroke:none;stroke-width:1;stroke-linecap:round;stroke-linejoin:round;stroke-miterlimit:4;stroke-dasharray:none;stroke-dashoffset:0;stroke-opacity:1" />
        <path
           sodipodi:type="arc"
           style="opacity:1;fill:#ff00ff;fill-opacity:1;fill-rule:nonzero;stroke:none;stroke-width:0.10000000000000001;stroke-linecap:round;stroke-linejoin:round;stroke-miterlimit:4;stroke-dasharray:none;stroke-dashoffset:0;stroke-opacity:1"
           id="path5060"
           sodipodi:cx="82"
           sodipodi:cy="32"
           sodipodi:rx="4"
           sodipodi:ry="4"
           d="M 86,32 A 4,4 0 1 1 78,32 A 4,4 0 1 1 86,32 z"
           transform="translate(-50,2)" />
      </g>
      <path
         id="path5064"
         d="M 28.71875,6.8125 C 28.243959,6.9002403 27.773526,7.0007393 27.3125,7.125 C 27.777568,6.9990333 28.23944,6.9011739 28.71875,6.8125 z M 35.28125,6.8125 C 35.76056,6.9011739 36.222432,6.9990333 36.6875,7.125 C 36.226474,7.0007393 35.756041,6.9002403 35.28125,6.8125 z M 21.5,9.90625 C 20.662285,10.509357 19.877697,11.171556 19.15625,11.90625 C 19.8726,11.173016 20.667988,10.508761 21.5,9.90625 z M 42.5,9.90625 C 43.332012,10.508761 44.1274,11.173016 44.84375,11.90625 C 44.122303,11.171556 43.337715,10.509357 42.5,9.90625 z M 18.09375,13.09375 C 17.766237,13.492568 17.449079,13.917447 17.15625,14.34375 C 17.450279,13.912791 17.764443,13.496711 18.09375,13.09375 z M 17.15625,14.34375 C 16.563767,15.206292 16.062023,16.132129 15.625,17.09375 C 16.058746,16.133257 16.568192,15.205668 17.15625,14.34375 z M 15.625,17.09375 C 15.407016,17.573399 15.207194,18.061554 15.03125,18.5625 C 15.206244,18.060964 15.408127,17.573997 15.625,17.09375 z M 15.03125,18.5625 C 14.952936,18.785474 14.850915,18.991876 14.78125,19.21875 C 14.78125,19.21875 14.724435,19.493498 14.71875,19.53125 C 14.812327,19.204629 14.920029,18.88126 15.03125,18.5625 z M 45.90625,13.09375 C 46.235557,13.496711 46.549721,13.912791 46.84375,14.34375 C 46.550921,13.917447 46.233763,13.492568 45.90625,13.09375 z M 46.84375,14.34375 C 47.431808,15.205668 47.941254,16.133257 48.375,17.09375 C 47.937977,16.132129 47.436232,15.206292 46.84375,14.34375 z M 48.375,17.09375 C 48.591873,17.573997 48.793756,18.060964 48.96875,18.5625 C 48.792806,18.061554 48.592983,17.573399 48.375,17.09375 z M 48.96875,18.5625 C 49.079971,18.88126 49.187673,19.204629 49.28125,19.53125 C 49.275474,19.493468 49.21875,19.21875 49.21875,19.21875 C 49.149085,18.991876 49.047064,18.785474 48.96875,18.5625 z M 23.34375,19.5 C 20.132311,19.5 17.096112,20.246749 14.40625,21.59375 C 14.21612,22.856251 14.03125,24.125 14.03125,24.125 C 16.750293,22.475124 19.933126,21.5 23.34375,21.5 C 25.61853,21.5 27.777016,21.947705 29.78125,22.71875 C 24.560876,26.11048 21.022524,31.866565 20.6875,38.46875 C 16.617435,35.16773 14,30.144834 14,24.5 C 14,24.373487 14.028648,24.250893 14.03125,24.125 C 14.03125,24.125 13.029041,24.917079 12.03125,25.71875 C 12.413281,32.074052 15.76491,37.642808 20.71875,41.03125 C 21.200516,47.356353 24.621319,52.871941 29.625,56.1875 C 30.812818,55.738055 32.000001,55.28125 32,55.28125 C 32,55.28125 33.187182,55.738055 34.375,56.1875 C 39.378681,52.871941 42.799484,47.356353 43.28125,41.03125 C 48.23509,37.642808 51.586719,32.074052 51.96875,25.71875 C 50.973992,24.918091 49.968751,24.125 49.96875,24.125 C 49.971352,24.250893 50,24.373487 50,24.5 C 50,30.144834 47.382565,35.16773 43.3125,38.46875 C 42.977476,31.866565 39.439125,26.11048 34.21875,22.71875 C 36.222984,21.947705 38.38147,21.5 40.65625,21.5 C 44.066874,21.5 47.249706,22.475124 49.96875,24.125 C 49.96875,24.125 49.786898,22.857258 49.59375,21.59375 C 46.903888,20.246749 43.867689,19.5 40.65625,19.5 C 37.54884,19.5 34.624418,20.233717 32,21.5 C 29.375582,20.233717 26.45116,19.5 23.34375,19.5 z M 32,23.75 C 37.556732,26.815167 41.34375,32.70922 41.34375,39.5 C 41.34375,39.626513 41.315102,39.749107 41.3125,39.875 C 38.590918,41.529238 35.4155,42.5 32,42.5 C 28.5845,42.5 25.409082,41.529238 22.6875,39.875 C 22.684898,39.749107 22.65625,39.626513 22.65625,39.5 C 22.656251,32.70922 26.443268,26.815167 32,23.75 z M 10.3125,27.125 C 10.305021,27.131009 10.1875,27.21875 10.1875,27.21875 C 10.08626,27.327334 10.004496,27.45173 9.90625,27.5625 C 10.039833,27.412674 10.174071,27.270308 10.3125,27.125 z M 9.90625,27.5625 C 9.471392,28.052791 9.0627482,28.564117 8.6875,29.09375 C 9.0685526,28.560028 9.4707027,28.051007 9.90625,27.5625 z M 53.6875,27.125 C 53.825929,27.270308 53.960167,27.412674 54.09375,27.5625 C 53.995503,27.45173 53.91374,27.327334 53.8125,27.21875 C 53.8125,27.21875 53.694956,27.131001 53.6875,27.125 z M 54.09375,27.5625 C 54.529297,28.051007 54.931447,28.560028 55.3125,29.09375 C 54.937251,28.564117 54.528608,28.05279 54.09375,27.5625 z M 5.34375,39.71875 C 5.3479812,40.178324 5.3977173,40.633658 5.4375,41.09375 C 5.3976792,40.640508 5.349299,40.180968 5.34375,39.71875 z M 58.65625,39.71875 C 58.650701,40.180968 58.602321,40.640508 58.5625,41.09375 C 58.602283,40.633658 58.652019,40.178324 58.65625,39.71875 z M 22.90625,42.3125 C 25.636357,43.710897 28.723705,44.5 32,44.5 C 35.276295,44.5 38.363643,43.710897 41.09375,42.3125 C 40.214026,47.898436 36.772076,52.61766 32,55.25 C 27.227924,52.61766 23.785975,47.898436 22.90625,42.3125 z M 6.25,45.09375 C 6.3734455,45.471024 6.5062578,45.846681 6.65625,46.21875 C 6.5072394,45.849769 6.3747743,45.474369 6.25,45.09375 z M 57.75,45.09375 C 57.625226,45.474369 57.492761,45.849769 57.34375,46.21875 C 57.493742,45.846681 57.626554,45.471024 57.75,45.09375 z M 7.53125,48.0625 C 7.608989,48.205922 7.6679348,48.357859 7.75,48.5 C 7.8930996,48.747856 8.0657959,48.980368 8.21875,49.21875 C 7.9759941,48.842183 7.7459777,48.457615 7.53125,48.0625 z M 56.46875,48.0625 C 56.254022,48.457615 56.024006,48.842183 55.78125,49.21875 C 55.934204,48.980368 56.1069,48.747856 56.25,48.5 C 56.332065,48.357859 56.391011,48.205922 56.46875,48.0625 z M 8.5625,49.78125 C 9.1850906,50.678846 9.8733313,51.469271 10.625,52.21875 C 9.8734578,51.467208 9.1723646,50.655469 8.5625,49.78125 z M 10.625,52.21875 C 11.031366,52.623932 11.467517,53.014501 11.90625,53.375 C 11.461699,53.008074 11.03225,52.626 10.625,52.21875 z M 11.90625,53.375 C 12.273865,53.677063 12.643337,53.979938 13.03125,54.25 C 12.643397,53.978031 12.270862,53.675946 11.90625,53.375 z M 55.4375,49.78125 C 54.827635,50.655469 54.126542,51.467208 53.375,52.21875 C 54.126668,51.469271 54.81491,50.678846 55.4375,49.78125 z M 53.375,52.21875 C 52.96775,52.626 52.538301,53.008074 52.09375,53.375 C 52.532482,53.014501 52.968635,52.623932 53.375,52.21875 z M 52.09375,53.375 C 51.729138,53.675946 51.356603,53.978031 50.96875,54.25 C 51.356663,53.979938 51.726135,53.677063 52.09375,53.375 z M 13.4375,54.53125 C 13.870872,54.815411 14.327124,55.067925 14.78125,55.3125 C 14.324687,55.064378 13.869151,54.81665 13.4375,54.53125 z M 50.5625,54.53125 C 50.130849,54.81665 49.675313,55.064378 49.21875,55.3125 C 49.672876,55.067925 50.129128,54.815411 50.5625,54.53125 z M 26.46875,57.21875 C 26.074877,57.290734 25.683841,57.329728 25.28125,57.375 C 25.675388,57.332543 26.076049,57.287697 26.46875,57.21875 z M 37.53125,57.21875 C 37.923951,57.287697 38.324611,57.332543 38.71875,57.375 C 38.316159,57.329728 37.925123,57.290734 37.53125,57.21875 z"
         style="fill:#ff00ff;fill-opacity:1;fill-rule:nonzero;stroke:none;stroke-width:0.10000000000000001;stroke-linecap:round;stroke-linejoin:round;stroke-miterlimit:4;stroke-dasharray:none;stroke-dashoffset:0;stroke-opacity:1" />
    </g>
    <g
       transform="translate(-33.71281,56)"
       id="g5103">
      <g
         id="g5105"
         transform="translate(7.71281,-82.000307)">
        <path
           style="opacity:1;fill:#cc00cc;fill-opacity:1;fill-rule:nonzero;stroke:none;stroke-width:0.1;stroke-linecap:round;stroke-linejoin:round;stroke-miterlimit:4;stroke-dasharray:none;stroke-dashoffset:0;stroke-opacity:1"
           d="M 172,102 C 160.96,102 152,110.96 152,122 C 152,133.04 160.96,142 172,142 C 183.04,142 192,133.04 192,122 C 192,110.96 183.04,102 172,102 z M 172,104 C 181.936,104 190,112.064 190,122 C 190,131.936 181.936,140 172,140 C 162.064,140 154,131.936 154,122 C 154,112.064 162.064,104 172,104 z"
           transform="translate(2,-1.999693)"
           id="path5107" />
      </g>
      <g
         transform="translate(-0.9474448,-67.000307)"
         id="g5109">
        <path
           id="path5111"
           transform="translate(2,-1.999693)"
           d="M 172,102 C 160.96,102 152,110.96 152,122 C 152,133.04 160.96,142 172,142 C 183.04,142 192,133.04 192,122 C 192,110.96 183.04,102 172,102 z M 172,104 C 181.936,104 190,112.064 190,122 C 190,131.936 181.936,140 172,140 C 162.064,140 154,131.936 154,122 C 154,112.064 162.064,104 172,104 z"
           style="opacity:1;fill:#cc00cc;fill-opacity:1;fill-rule:nonzero;stroke:none;stroke-width:0.1;stroke-linecap:round;stroke-linejoin:round;stroke-miterlimit:4;stroke-dasharray:none;stroke-dashoffset:0;stroke-opacity:1" />
      </g>
      <g
         id="g5113"
         transform="translate(16.373065,-67.000307)">
        <path
           style="opacity:1;fill:#cc00cc;fill-opacity:1;fill-rule:nonzero;stroke:none;stroke-width:0.1;stroke-linecap:round;stroke-linejoin:round;stroke-miterlimit:4;stroke-dasharray:none;stroke-dashoffset:0;stroke-opacity:1"
           d="M 172,102 C 160.96,102 152,110.96 152,122 C 152,133.04 160.96,142 172,142 C 183.04,142 192,133.04 192,122 C 192,110.96 183.04,102 172,102 z M 172,104 C 181.936,104 190,112.064 190,122 C 190,131.936 181.936,140 172,140 C 162.064,140 154,131.936 154,122 C 154,112.064 162.064,104 172,104 z"
           transform="translate(2,-1.999693)"
           id="path5115" />
      </g>
    </g>
    <path
       style="fill:#ff00ff;fill-opacity:1;fill-rule:evenodd;stroke:none;stroke-width:1px;stroke-linecap:butt;stroke-linejoin:miter;stroke-opacity:1;display:inline"
       d="M 26,4 L 2,50 L 8,60 L 56,60 L 62,50 L 38,4 L 26,4 z M 28,8.0000002 L 36,8.0000002 L 58,50 L 54,56 L 10,56 L 6,50 L 28,8.0000002 z"
       id="path3593"
       sodipodi:nodetypes="cccccccccccccc" />
  </g>
</svg>
