<?xml version="1.0" encoding="UTF-8" standalone="no"?>
<!-- Created with Inkscape (http://www.inkscape.org/) -->
<svg
   xmlns:dc="http://purl.org/dc/elements/1.1/"
   xmlns:cc="http://creativecommons.org/ns#"
   xmlns:rdf="http://www.w3.org/1999/02/22-rdf-syntax-ns#"
   xmlns:svg="http://www.w3.org/2000/svg"
   xmlns="http://www.w3.org/2000/svg"
   xmlns:sodipodi="http://sodipodi.sourceforge.net/DTD/sodipodi-0.dtd"
   xmlns:inkscape="http://www.inkscape.org/namespaces/inkscape"
   width="64"
   height="64"
   id="svg2"
   sodipodi:version="0.32"
   inkscape:version="0.46"
   version="1.0"
   sodipodi:docname="iconw_gauntlet.svg"
   inkscape:output_extension="org.inkscape.output.svg.inkscape"
   inkscape:export-filename="/mnt/adat/Udi/OpenArena/2D improvement/iconw_gauntlet.png"
   inkscape:export-xdpi="90"
   inkscape:export-ydpi="90"
   style="display:inline">
  <defs
     id="defs4">
    <inkscape:perspective
       sodipodi:type="inkscape:persp3d"
       inkscape:vp_x="0 : 526.18109 : 1"
       inkscape:vp_y="0 : 1000 : 0"
       inkscape:vp_z="744.09448 : 526.18109 : 1"
       inkscape:persp3d-origin="372.04724 : 350.78739 : 1"
       id="perspective10" />
    <inkscape:perspective
       id="perspective2390"
       inkscape:persp3d-origin="372.04724 : 350.78739 : 1"
       inkscape:vp_z="744.09448 : 526.18109 : 1"
       inkscape:vp_y="0 : 1000 : 0"
       inkscape:vp_x="0 : 526.18109 : 1"
       sodipodi:type="inkscape:persp3d" />
    <inkscape:perspective
       id="perspective3320"
       inkscape:persp3d-origin="372.04724 : 350.78739 : 1"
       inkscape:vp_z="744.09448 : 526.18109 : 1"
       inkscape:vp_y="0 : 1000 : 0"
       inkscape:vp_x="0 : 526.18109 : 1"
       sodipodi:type="inkscape:persp3d" />
    <inkscape:perspective
       id="perspective3505"
       inkscape:persp3d-origin="372.04724 : 350.78739 : 1"
       inkscape:vp_z="744.09448 : 526.18109 : 1"
       inkscape:vp_y="0 : 1000 : 0"
       inkscape:vp_x="0 : 526.18109 : 1"
       sodipodi:type="inkscape:persp3d" />
  </defs>
  <sodipodi:namedview
     id="base"
     pagecolor="#00ccff"
     bordercolor="#666666"
     borderopacity="1.0"
     inkscape:pageopacity="0"
     inkscape:pageshadow="2"
     inkscape:zoom="2.8"
     inkscape:cx="17.278958"
     inkscape:cy="29.567666"
     inkscape:document-units="px"
     inkscape:current-layer="layer4"
     showgrid="true"
     inkscape:window-width="1280"
     inkscape:window-height="742"
     inkscape:window-x="0"
     inkscape:window-y="0"
     objecttolerance="10"
     gridtolerance="10"
     guidetolerance="10">
    <inkscape:grid
       type="xygrid"
       id="grid2424"
       visible="true"
       enabled="true"
       spacingx="2px"
       spacingy="2px"
       empspacing="4" />
  </sodipodi:namedview>
  <metadata
     id="metadata7">
    <rdf:RDF>
      <cc:Work
         rdf:about="">
        <dc:format>image/svg+xml</dc:format>
        <dc:type
           rdf:resource="http://purl.org/dc/dcmitype/StillImage" />
      </cc:Work>
    </rdf:RDF>
  </metadata>
  <g
     inkscape:groupmode="layer"
     id="layer4"
     inkscape:label="rendering"
     style="display:inline">
    <path
       id="path4042"
       d="M 29.416386,2.1505025 C 29.416386,2.1505025 24.738293,2.7650515 24.738293,2.7650515 L 17.426421,14.541806 C 17.426421,14.541806 17.100334,16.381867 14.842809,16.561037 C 14.842809,16.561037 11.816159,15.353905 12.221571,9.4247495 L 8.985786,12.560201 L 9.976588,26.431438 C 9.976588,26.431438 10.691471,28.337793 9.186454,29.591972 C 9.186454,29.591972 5.462939,30.39694 2.827759,25.177257 C 2.827759,25.177257 2,29.654681 2,29.654681 L 10.904682,40.440634 C 10.904682,40.440634 12.773411,41.504898 12.271739,43.475752 C 12.271739,43.475752 9.869061,45.121465 4.345317,43.601169 L 6.402173,47.790133 L 19.947323,51.11371 C 19.947323,51.11371 22.131389,51.090418 22.919731,52.882105 C 22.919731,52.882105 22.024107,55.926007 16.297658,57.547657 L 20.561872,59.755017 L 33.530097,54.512541 C 33.530097,54.512541 34.952699,53.579068 37.066886,54.224078 C 37.066886,54.224078 37.712502,57.187258 34.621234,61.849497 L 39.186451,61.096987 L 46.51087,49.307691 C 46.51087,49.307691 47.229337,47.609173 49.307693,46.999999 C 49.307693,46.999999 52.0208,47.912556 51.615385,54.449832 L 54.938964,51.239128 L 53.923077,37.430601 C 53.923077,37.430601 53.279865,35.653248 54.964047,33.969064 C 54.964047,33.969064 57.878265,33.781699 61.172241,38.697323 L 62,34.031773 L 52.9699,23.408862 C 52.9699,23.408862 51.269588,22.247849 51.878763,20.097826 C 51.878763,20.097826 54.711935,18.547863 59.830268,20.524248 L 57.673077,16.260033 L 43.964879,12.710702 C 43.964879,12.710702 41.911607,12.483156 41.230766,10.691472 C 41.230766,10.691472 41.812846,7.4804535 47.539298,6.2642145 C 47.539298,6.2642145 43.362872,4.0066905 43.362872,4.0066905 L 30.382106,9.3244155 C 30.382106,9.3244155 28.91113,10.089465 27.083611,9.3369575 C 27.083611,9.3369575 25.10888,7.7249235 29.416386,2.1505025 z M 31.974913,25.879598 C 35.29799,25.879598 37.99498,28.576588 37.99498,31.899665 C 37.99498,35.222741 35.29799,37.919731 31.974913,37.919731 C 28.651838,37.919731 25.954848,35.222741 25.954848,31.899665 C 25.954848,28.576588 28.651838,25.879598 31.974913,25.879598 z"
       style="fill:#00ccff;fill-opacity:1;fill-rule:nonzero;stroke:none;stroke-width:2;stroke-linecap:round;stroke-linejoin:round;stroke-miterlimit:1;stroke-dashoffset:0;stroke-opacity:1;display:inline"
       inkscape:export-xdpi="90"
       inkscape:export-ydpi="90" />
  </g>
</svg>
