<?xml version="1.0" encoding="UTF-8" standalone="no"?>
<!-- Created with Inkscape (http://www.inkscape.org/) -->
<svg
   xmlns:dc="http://purl.org/dc/elements/1.1/"
   xmlns:cc="http://creativecommons.org/ns#"
   xmlns:rdf="http://www.w3.org/1999/02/22-rdf-syntax-ns#"
   xmlns:svg="http://www.w3.org/2000/svg"
   xmlns="http://www.w3.org/2000/svg"
   xmlns:sodipodi="http://sodipodi.sourceforge.net/DTD/sodipodi-0.dtd"
   xmlns:inkscape="http://www.inkscape.org/namespaces/inkscape"
   width="64"
   height="64"
   id="svg2"
   sodipodi:version="0.32"
   inkscape:version="0.46"
   version="1.0"
   sodipodi:docname="iconw_rocket.svg"
   inkscape:output_extension="org.inkscape.output.svg.inkscape"
   inkscape:export-filename="/mnt/adat/Udi/OpenArena/2D improvement/iconw_rocket.png"
   inkscape:export-xdpi="90"
   inkscape:export-ydpi="90"
   style="display:inline">
  <defs
     id="defs4">
    <inkscape:perspective
       sodipodi:type="inkscape:persp3d"
       inkscape:vp_x="0 : 526.18109 : 1"
       inkscape:vp_y="0 : 1000 : 0"
       inkscape:vp_z="744.09448 : 526.18109 : 1"
       inkscape:persp3d-origin="372.04724 : 350.78739 : 1"
       id="perspective10" />
    <inkscape:perspective
       id="perspective2390"
       inkscape:persp3d-origin="372.04724 : 350.78739 : 1"
       inkscape:vp_z="744.09448 : 526.18109 : 1"
       inkscape:vp_y="0 : 1000 : 0"
       inkscape:vp_x="0 : 526.18109 : 1"
       sodipodi:type="inkscape:persp3d" />
    <inkscape:perspective
       id="perspective3320"
       inkscape:persp3d-origin="372.04724 : 350.78739 : 1"
       inkscape:vp_z="744.09448 : 526.18109 : 1"
       inkscape:vp_y="0 : 1000 : 0"
       inkscape:vp_x="0 : 526.18109 : 1"
       sodipodi:type="inkscape:persp3d" />
    <inkscape:perspective
       id="perspective3505"
       inkscape:persp3d-origin="372.04724 : 350.78739 : 1"
       inkscape:vp_z="744.09448 : 526.18109 : 1"
       inkscape:vp_y="0 : 1000 : 0"
       inkscape:vp_x="0 : 526.18109 : 1"
       sodipodi:type="inkscape:persp3d" />
  </defs>
  <sodipodi:namedview
     id="base"
     pagecolor="#ff0000"
     bordercolor="#666666"
     borderopacity="1.0"
     inkscape:pageopacity="0"
     inkscape:pageshadow="2"
     inkscape:zoom="2.8284271"
     inkscape:cx="32.267415"
     inkscape:cy="57.125114"
     inkscape:document-units="px"
     inkscape:current-layer="layer4"
     showgrid="true"
     inkscape:window-width="1280"
     inkscape:window-height="742"
     inkscape:window-x="0"
     inkscape:window-y="0"
     objecttolerance="10"
     gridtolerance="10"
     guidetolerance="10">
    <inkscape:grid
       type="xygrid"
       id="grid2424"
       visible="true"
       enabled="true"
       spacingx="2px"
       spacingy="2px"
       empspacing="8" />
  </sodipodi:namedview>
  <metadata
     id="metadata7">
    <rdf:RDF>
      <cc:Work
         rdf:about="">
        <dc:format>image/svg+xml</dc:format>
        <dc:type
           rdf:resource="http://purl.org/dc/dcmitype/StillImage" />
      </cc:Work>
    </rdf:RDF>
  </metadata>
  <g
     inkscape:groupmode="layer"
     id="layer4"
     inkscape:label="rendering"
     style="display:inline">
    <path
       style="fill:#ff0000;fill-rule:evenodd;stroke:none;stroke-width:1px;stroke-linecap:butt;stroke-linejoin:miter;stroke-opacity:1"
       d="M 140,44 L 128,32 L 120,32 L 108,44 L 110,48 L 122,46 L 122,48 L 126,48 L 126,46 L 138,48 L 140,44 z"
       id="path2711"
       sodipodi:nodetypes="ccccccccccc" />
    <path
       style="fill:#ff0000;fill-rule:evenodd;stroke:none;stroke-width:1px;stroke-linecap:butt;stroke-linejoin:miter;stroke-opacity:1"
       d="M 28,46 L 14,56 L 16,62 L 30,60 L 30,62 L 34,62 L 34,60 L 48,62 L 50,56 L 36,46 L 34,46 L 34,58 L 30,58 L 30,46 L 28,46 z"
       id="path3485"
       sodipodi:nodetypes="ccccccccccccccc" />
    <path
       style="fill:#ff0000;fill-rule:evenodd;stroke:none;stroke-width:1px;stroke-linecap:butt;stroke-linejoin:miter;stroke-opacity:1"
       d="M 32,2 C 30,2 22,12 22,24 L 24,42 C 24,50 32,50 32,50 C 32,50 40,50 40,42 L 42,24 C 42,12 34,2 32,2 z M 32,4 C 34,4 40,14 40,26 L 38,40 C 38,48 32,48 32,48 C 32,48 26,48 26,40 L 24,26 C 24,14 30,4 32,4 z"
       id="path5450"
       sodipodi:nodetypes="cccccccccccccc" />
    <path
       style="fill:#ff0000;fill-rule:evenodd;stroke:none;stroke-width:1px;stroke-linecap:butt;stroke-linejoin:miter;stroke-opacity:1"
       d="M 32,2 C 34,2 38,10 38,14 C 36,16 28,16 26,14 C 26,10 30,2 32,2 z"
       id="path3503"
       sodipodi:nodetypes="cccc" />
    <path
       sodipodi:nodetypes="ccccccc"
       id="path3496"
       d="M 86,4 C 88,4 94,10 94,22 L 94,42 C 94,52 86,52 86,52 C 86,52 78,52 78,42 L 78,22 C 78,10 84,4 86,4 z"
       style="fill:#ff0000;fill-rule:evenodd;stroke:none;stroke-width:1px;stroke-linecap:butt;stroke-linejoin:miter;stroke-opacity:1" />
    <path
       style="fill:#e6e6e6;fill-rule:evenodd;stroke:none;stroke-width:1px;stroke-linecap:butt;stroke-linejoin:miter;stroke-opacity:1"
       d="M 86,6 C 88,6 92,12 92,24 L 92,40 C 92,50 86,50 86,50 C 86,50 80,50 80,40 L 80,24 C 80,12 84,6 86,6 z"
       id="path3498"
       sodipodi:nodetypes="ccccccc" />
    <path
       style="fill:#ff0000;fill-rule:evenodd;stroke:none;stroke-width:1px;stroke-linecap:butt;stroke-linejoin:miter;stroke-opacity:1"
       d="M 38,44 C 38,44 38,50 32,50 C 26,50 26,44 26,44 C 28,46 36,46 38,44 z"
       id="path3501"
       sodipodi:nodetypes="cccc" />
    <path
       style="fill:#ffffff;fill-rule:evenodd;stroke:none;stroke-width:1px;stroke-linecap:butt;stroke-linejoin:miter;stroke-opacity:1"
       d="M 122,32 L 122,44 L 126,44 L 126,32 L 122,32 z"
       id="path3483"
       sodipodi:nodetypes="ccccc" />
    <path
       style="fill:#ff0000;fill-rule:evenodd;stroke:none;stroke-width:1px;stroke-linecap:butt;stroke-linejoin:miter;stroke-opacity:1"
       d="M 24,24 C 26,28 38,28 40,24 L 40,36 C 38,40 26,40 24,36 C 24,36 24,24 24,24 z"
       id="path3505"
       sodipodi:nodetypes="ccccc" />
  </g>
</svg>
