<?xml version="1.0" encoding="UTF-8" standalone="no"?>
<!-- Created with Inkscape (http://www.inkscape.org/) -->
<svg
   xmlns:dc="http://purl.org/dc/elements/1.1/"
   xmlns:cc="http://creativecommons.org/ns#"
   xmlns:rdf="http://www.w3.org/1999/02/22-rdf-syntax-ns#"
   xmlns:svg="http://www.w3.org/2000/svg"
   xmlns="http://www.w3.org/2000/svg"
   xmlns:sodipodi="http://sodipodi.sourceforge.net/DTD/sodipodi-0.dtd"
   xmlns:inkscape="http://www.inkscape.org/namespaces/inkscape"
   width="64"
   height="64"
   id="svg2"
   sodipodi:version="0.32"
   inkscape:version="0.46"
   version="1.0"
   sodipodi:docname="icona_railgun.svg"
   inkscape:output_extension="org.inkscape.output.svg.inkscape"
   inkscape:export-filename="/mnt/adat/Udi/OpenArena/2D improvement/icona_railgun.png"
   inkscape:export-xdpi="90"
   inkscape:export-ydpi="90"
   style="display:inline">
  <defs
     id="defs4">
    <inkscape:perspective
       sodipodi:type="inkscape:persp3d"
       inkscape:vp_x="0 : 526.18109 : 1"
       inkscape:vp_y="0 : 1000 : 0"
       inkscape:vp_z="744.09448 : 526.18109 : 1"
       inkscape:persp3d-origin="372.04724 : 350.78739 : 1"
       id="perspective10" />
    <inkscape:perspective
       id="perspective2390"
       inkscape:persp3d-origin="372.04724 : 350.78739 : 1"
       inkscape:vp_z="744.09448 : 526.18109 : 1"
       inkscape:vp_y="0 : 1000 : 0"
       inkscape:vp_x="0 : 526.18109 : 1"
       sodipodi:type="inkscape:persp3d" />
    <inkscape:perspective
       id="perspective3320"
       inkscape:persp3d-origin="372.04724 : 350.78739 : 1"
       inkscape:vp_z="744.09448 : 526.18109 : 1"
       inkscape:vp_y="0 : 1000 : 0"
       inkscape:vp_x="0 : 526.18109 : 1"
       sodipodi:type="inkscape:persp3d" />
    <inkscape:perspective
       id="perspective3505"
       inkscape:persp3d-origin="372.04724 : 350.78739 : 1"
       inkscape:vp_z="744.09448 : 526.18109 : 1"
       inkscape:vp_y="0 : 1000 : 0"
       inkscape:vp_x="0 : 526.18109 : 1"
       sodipodi:type="inkscape:persp3d" />
  </defs>
  <sodipodi:namedview
     id="base"
     pagecolor="#00ff00"
     bordercolor="#666666"
     borderopacity="1.0"
     inkscape:pageopacity="0"
     inkscape:pageshadow="2"
     inkscape:zoom="4"
     inkscape:cx="115.83078"
     inkscape:cy="25.390511"
     inkscape:document-units="px"
     inkscape:current-layer="layer4"
     showgrid="true"
     inkscape:window-width="1280"
     inkscape:window-height="742"
     inkscape:window-x="0"
     inkscape:window-y="0"
     objecttolerance="10"
     gridtolerance="10"
     guidetolerance="10">
    <inkscape:grid
       type="xygrid"
       id="grid2424"
       visible="true"
       enabled="true"
       spacingx="2px"
       spacingy="2px"
       empspacing="4" />
  </sodipodi:namedview>
  <metadata
     id="metadata7">
    <rdf:RDF>
      <cc:Work
         rdf:about="">
        <dc:format>image/svg+xml</dc:format>
        <dc:type
           rdf:resource="http://purl.org/dc/dcmitype/StillImage" />
      </cc:Work>
    </rdf:RDF>
  </metadata>
  <g
     inkscape:groupmode="layer"
     id="layer4"
     inkscape:label="rendering"
     style="display:inline">
    <path
       sodipodi:type="arc"
       style="opacity:1;fill:#00ff00;fill-opacity:1;fill-rule:nonzero;stroke:none;stroke-width:0.1;stroke-linecap:butt;stroke-linejoin:miter;stroke-miterlimit:4;stroke-dasharray:none;stroke-dashoffset:0;stroke-opacity:1"
       id="path2465"
       sodipodi:cx="30.187185"
       sodipodi:cy="33.812817"
       sodipodi:rx="17.812815"
       sodipodi:ry="17.812815"
       d="M 48,33.812817 A 17.812815,17.812815 0 1 1 12.374371,33.812817 A 17.812815,17.812815 0 1 1 48,33.812817 z"
       transform="matrix(1.4596233,0,0,1.4596233,67.938081,-19.353976)" />
    <path
       transform="matrix(1.2350659,0,0,1.2350659,74.716837,-11.761057)"
       d="M 48,33.812817 A 17.812815,17.812815 0 1 1 12.374371,33.812817 A 17.812815,17.812815 0 1 1 48,33.812817 z"
       sodipodi:ry="17.812815"
       sodipodi:rx="17.812815"
       sodipodi:cy="33.812817"
       sodipodi:cx="30.187185"
       id="path2467"
       style="opacity:1;fill:#e6e6e6;fill-opacity:1;fill-rule:nonzero;stroke:none;stroke-width:0.1;stroke-linecap:butt;stroke-linejoin:miter;stroke-miterlimit:4;stroke-dasharray:none;stroke-dashoffset:0;stroke-opacity:1"
       sodipodi:type="arc" />
    <g
       id="g8794"
       transform="matrix(0.5,0,0,0.5,16,22)">
      <path
         id="path3279"
         d="M 32,6 C 22.334637,6 13.887091,11.291232 9.40625,19.125 L 12.71875,21.40625 C 16.465063,14.614682 23.700153,10 32,10 C 40.299847,10 47.534937,14.614682 51.28125,21.40625 L 54.59375,19.125 C 50.112909,11.291232 41.665363,6 32,6 z M 12.71875,42.59375 L 9.40625,44.875 C 13.887091,52.708768 22.334637,58 32,58 C 41.665363,58 50.112909,52.708768 54.59375,44.875 L 51.28125,42.59375 C 47.534937,49.385318 40.299847,54 32,54 C 23.700153,54 16.465063,49.385318 12.71875,42.59375 z"
         style="opacity:1;fill:#00ff00;fill-opacity:1;fill-rule:nonzero;stroke:none;stroke-width:0.1;stroke-linecap:butt;stroke-linejoin:miter;stroke-miterlimit:4;stroke-dasharray:none;stroke-dashoffset:0;stroke-opacity:1" />
      <path
         sodipodi:nodetypes="cccc"
         id="path2472"
         d="M 2,22 L 2,42 L 20,32 L 2,22 z"
         style="fill:#00ff00;fill-rule:evenodd;stroke:none;stroke-width:1px;stroke-linecap:butt;stroke-linejoin:miter;stroke-opacity:1" />
      <path
         transform="matrix(1.5,0,0,1.5,-16,-19)"
         d="M 36,34 A 4,4 0 1 1 28,34 A 4,4 0 1 1 36,34 z"
         sodipodi:ry="4"
         sodipodi:rx="4"
         sodipodi:cy="34"
         sodipodi:cx="32"
         id="path2470"
         style="opacity:1;fill:#00ff00;fill-opacity:1;fill-rule:nonzero;stroke:none;stroke-width:0.1;stroke-linecap:butt;stroke-linejoin:miter;stroke-miterlimit:4;stroke-dasharray:none;stroke-dashoffset:0;stroke-opacity:1"
         sodipodi:type="arc" />
      <path
         sodipodi:nodetypes="cccc"
         style="fill:#00ff00;fill-rule:evenodd;stroke:none;stroke-width:1px;stroke-linecap:butt;stroke-linejoin:miter;stroke-opacity:1"
         d="M 62,22 L 62,42 L 44,32 L 62,22 z"
         id="path3244" />
    </g>
    <path
       transform="matrix(2.4,0,0,2.4,-11.6,-122.4)"
       d="M 84,66 A 10,10 0 1 1 64,66 A 10,10 0 1 1 84,66 z"
       sodipodi:ry="10"
       sodipodi:rx="10"
       sodipodi:cy="66"
       sodipodi:cx="74"
       id="path3262"
       style="opacity:1;fill:#008000;fill-opacity:1;fill-rule:nonzero;stroke:none;stroke-width:0.1;stroke-linecap:butt;stroke-linejoin:miter;stroke-miterlimit:4;stroke-dasharray:none;stroke-dashoffset:0;stroke-opacity:1"
       sodipodi:type="arc" />
    <path
       sodipodi:type="arc"
       style="opacity:1;fill:#e6e6e6;fill-opacity:1;fill-rule:nonzero;stroke:none;stroke-width:0.1;stroke-linecap:butt;stroke-linejoin:miter;stroke-miterlimit:4;stroke-dasharray:none;stroke-dashoffset:0;stroke-opacity:1"
       id="path3264"
       sodipodi:cx="74"
       sodipodi:cy="66"
       sodipodi:rx="10"
       sodipodi:ry="10"
       d="M 84,66 A 10,10 0 1 1 64,66 A 10,10 0 1 1 84,66 z"
       transform="matrix(2,0,0,2,18,-96)" />
    <path
       style="fill:#e6e6e6;fill-rule:evenodd;stroke:none;stroke-width:1px;stroke-linecap:butt;stroke-linejoin:miter;stroke-opacity:1"
       d="M 73.25,48 L 73.25,84 L 99.25,66 L 73.25,48 z"
       id="path3269"
       sodipodi:nodetypes="cccc" />
    <path
       sodipodi:nodetypes="cccc"
       id="path3271"
       d="M 73.25,56 L 73.25,76 L 91.25,66 L 73.25,56 z"
       style="fill:#00ff00;fill-rule:evenodd;stroke:none;stroke-width:1px;stroke-linecap:butt;stroke-linejoin:miter;stroke-opacity:1" />
    <path
       id="path3277"
       d="M 171.0625,67.71875 C 162.07059,67.71875 154.23566,72.674965 150.125,80 L 153.4375,82.28125 C 156.81142,75.999942 163.43769,71.71875 171.0625,71.71875 C 178.68731,71.71875 185.31358,75.999942 188.6875,82.28125 L 192,80 C 187.88934,72.674965 180.05441,67.71875 171.0625,67.71875 z M 153.4375,101.15625 L 150.125,103.4375 C 154.23566,110.76253 162.07059,115.71875 171.0625,115.71875 C 180.05441,115.71875 187.88934,110.76253 192,103.4375 L 188.6875,101.15625 C 185.31358,107.43756 178.68731,111.71875 171.0625,111.71875 C 163.43769,111.71875 156.81142,107.43756 153.4375,101.15625 z"
       style="opacity:1;fill:#00ff00;fill-opacity:1;fill-rule:nonzero;stroke:none;stroke-width:0.1;stroke-linecap:butt;stroke-linejoin:miter;stroke-miterlimit:4;stroke-dasharray:none;stroke-dashoffset:0;stroke-opacity:1" />
    <path
       style="fill:#00ff00;fill-rule:evenodd;stroke:none;stroke-width:1px;stroke-linecap:butt;stroke-linejoin:miter;stroke-opacity:1;display:inline"
       d="M 26,4 L 2,50 L 8,60 L 56,60 L 62,50 L 38,4 L 26,4 z M 28,8 L 36,8 L 58,50 L 54,56 L 10,56 L 6,50 L 28,8 z"
       id="path3593"
       sodipodi:nodetypes="cccccccccccccc" />
  </g>
</svg>
