<?xml version="1.0" encoding="UTF-8" standalone="no"?>
<!-- Created with Inkscape (http://www.inkscape.org/) -->
<svg
   xmlns:dc="http://purl.org/dc/elements/1.1/"
   xmlns:cc="http://creativecommons.org/ns#"
   xmlns:rdf="http://www.w3.org/1999/02/22-rdf-syntax-ns#"
   xmlns:svg="http://www.w3.org/2000/svg"
   xmlns="http://www.w3.org/2000/svg"
   xmlns:sodipodi="http://sodipodi.sourceforge.net/DTD/sodipodi-0.dtd"
   xmlns:inkscape="http://www.inkscape.org/namespaces/inkscape"
   width="64"
   height="64"
   id="svg2"
   sodipodi:version="0.32"
   inkscape:version="0.46"
   version="1.0"
   sodipodi:docname="invis.svg"
   inkscape:output_extension="org.inkscape.output.svg.inkscape"
   inkscape:export-filename="/mnt/adat/Udi/OpenArena/2D improvement/invis.png"
   inkscape:export-xdpi="90"
   inkscape:export-ydpi="90"
   style="display:inline">
  <defs
     id="defs4">
    <inkscape:perspective
       sodipodi:type="inkscape:persp3d"
       inkscape:vp_x="0 : 526.18109 : 1"
       inkscape:vp_y="0 : 1000 : 0"
       inkscape:vp_z="744.09448 : 526.18109 : 1"
       inkscape:persp3d-origin="372.04724 : 350.78739 : 1"
       id="perspective10" />
    <inkscape:perspective
       id="perspective2390"
       inkscape:persp3d-origin="372.04724 : 350.78739 : 1"
       inkscape:vp_z="744.09448 : 526.18109 : 1"
       inkscape:vp_y="0 : 1000 : 0"
       inkscape:vp_x="0 : 526.18109 : 1"
       sodipodi:type="inkscape:persp3d" />
    <inkscape:perspective
       id="perspective3320"
       inkscape:persp3d-origin="372.04724 : 350.78739 : 1"
       inkscape:vp_z="744.09448 : 526.18109 : 1"
       inkscape:vp_y="0 : 1000 : 0"
       inkscape:vp_x="0 : 526.18109 : 1"
       sodipodi:type="inkscape:persp3d" />
    <inkscape:perspective
       id="perspective3505"
       inkscape:persp3d-origin="372.04724 : 350.78739 : 1"
       inkscape:vp_z="744.09448 : 526.18109 : 1"
       inkscape:vp_y="0 : 1000 : 0"
       inkscape:vp_x="0 : 526.18109 : 1"
       sodipodi:type="inkscape:persp3d" />
  </defs>
  <sodipodi:namedview
     id="base"
     pagecolor="#666666"
     bordercolor="#666666"
     borderopacity="1.0"
     inkscape:pageopacity="0"
     inkscape:pageshadow="2"
     inkscape:zoom="5.6"
     inkscape:cx="76.482193"
     inkscape:cy="24.705128"
     inkscape:document-units="px"
     inkscape:current-layer="g4621"
     showgrid="true"
     inkscape:window-width="1280"
     inkscape:window-height="742"
     inkscape:window-x="0"
     inkscape:window-y="0"
     objecttolerance="10"
     gridtolerance="10"
     guidetolerance="10">
    <inkscape:grid
       type="xygrid"
       id="grid2424"
       visible="true"
       enabled="true"
       spacingx="2px"
       spacingy="2px"
       empspacing="4" />
  </sodipodi:namedview>
  <metadata
     id="metadata7">
    <rdf:RDF>
      <cc:Work
         rdf:about="">
        <dc:format>image/svg+xml</dc:format>
        <dc:type
           rdf:resource="http://purl.org/dc/dcmitype/StillImage" />
      </cc:Work>
    </rdf:RDF>
  </metadata>
  <g
     inkscape:groupmode="layer"
     id="layer4"
     inkscape:label="rendering"
     style="display:inline">
    <g
       id="g4621"
       transform="translate(0,-4.9995163)">
      <path
         sodipodi:nodetypes="ccccccccccccccc"
         id="path4617"
         d="M 44,42 C 44,42 32,60 18,60 L 14,60 C 4,60 4,52 4,52 C 4,44 10,44 10,44 C 18,44 18,50 18,50 C 18,54 14,54 14,54 C 10,54 10,50 10,50 C 10,48 12,48 12,48 C 12,48 12,46 10,46 C 10,46 6,46 6,52 C 6,52 6,58 14,58 L 18,58 C 30,58 42,42 42,42 L 44,42 z"
         style="fill:#666666;fill-opacity:1;fill-rule:evenodd;stroke:none;stroke-width:1px;stroke-linecap:butt;stroke-linejoin:miter;stroke-opacity:1" />
      <path
         sodipodi:nodetypes="ccccc"
         id="path4614"
         d="M 52,38 C 52,38 46,48 56,50 C 56,50 44,60 44,60 C 44,50 50,38 50,38 L 52,38 z"
         style="fill:#666666;fill-opacity:1;fill-rule:evenodd;stroke:none;stroke-width:1px;stroke-linecap:butt;stroke-linejoin:miter;stroke-opacity:1" />
      <path
         sodipodi:nodetypes="cccc"
         id="path4619"
         d="M 24,24.999516 L 40,24.999516 C 40,24.999516 40,34.999516 32,34.999516 C 24,34.999516 24,24.999516 24,24.999516 z"
         style="fill:#666666;fill-opacity:1;fill-rule:evenodd;stroke:none;stroke-width:1px;stroke-linecap:butt;stroke-linejoin:miter;stroke-opacity:1" />
      <path
         sodipodi:nodetypes="ccscccscccscsc"
         d="M 4,34 L 8,36 C 14.022699,42.022699 24.973532,44.022785 32,44 C 38.973504,43.977387 50.022699,41.977301 56,36 L 60,34 L 56,32 C 50.040948,26.040948 38.952182,24.040668 32,24 C 24.952275,23.958773 14.040948,25.959052 8,32 L 4,34 z M 12,34 C 16.715988,29.284012 26.55363,28.26788 32,28 C 38.102367,27.699855 47.77279,28.715988 52,34 C 47.841499,39.198127 37.996403,40.205977 32,40 C 26.460703,39.809724 16.801873,38.801873 12,34 z"
         style="fill:#666666;fill-opacity:1;fill-rule:evenodd;stroke:none;stroke-width:1px;stroke-linecap:butt;stroke-linejoin:miter;stroke-opacity:1"
         id="path4610" />
      <path
         sodipodi:nodetypes="cccsccccscc"
         id="path4608"
         d="M 4,22 L 4,24 L 12,24 C 16.013914,19.986086 24.975686,17.986037 32,18 C 38.975614,18.013866 48.013914,20.013914 52,24 L 60,24 L 60,22 L 54,20 C 49.949197,15.949197 40.100953,13.948552 32,14 C 24.102243,14.050158 13.949197,16.050803 10,20 L 4,22 z"
         style="fill:#666666;fill-opacity:1;fill-rule:evenodd;stroke:none;stroke-width:1px;stroke-linecap:butt;stroke-linejoin:miter;stroke-opacity:1" />
    </g>
  </g>
</svg>
