<?xml version="1.0" encoding="UTF-8" standalone="no"?>
<!-- Created with Inkscape (http://www.inkscape.org/) -->
<svg
   xmlns:dc="http://purl.org/dc/elements/1.1/"
   xmlns:cc="http://creativecommons.org/ns#"
   xmlns:rdf="http://www.w3.org/1999/02/22-rdf-syntax-ns#"
   xmlns:svg="http://www.w3.org/2000/svg"
   xmlns="http://www.w3.org/2000/svg"
   xmlns:sodipodi="http://sodipodi.sourceforge.net/DTD/sodipodi-0.dtd"
   xmlns:inkscape="http://www.inkscape.org/namespaces/inkscape"
   width="64"
   height="64"
   id="svg2"
   sodipodi:version="0.32"
   inkscape:version="0.46"
   version="1.0"
   sodipodi:docname="iconw_kamikaze.svg"
   inkscape:output_extension="org.inkscape.output.svg.inkscape"
   inkscape:export-filename="/mnt/adat/Udi/OpenArena/2D improvement/iconw_kamikaze.png"
   inkscape:export-xdpi="90"
   inkscape:export-ydpi="90"
   style="display:inline">
  <defs
     id="defs4">
    <inkscape:perspective
       sodipodi:type="inkscape:persp3d"
       inkscape:vp_x="0 : 526.18109 : 1"
       inkscape:vp_y="0 : 1000 : 0"
       inkscape:vp_z="744.09448 : 526.18109 : 1"
       inkscape:persp3d-origin="372.04724 : 350.78739 : 1"
       id="perspective10" />
    <inkscape:perspective
       id="perspective2390"
       inkscape:persp3d-origin="372.04724 : 350.78739 : 1"
       inkscape:vp_z="744.09448 : 526.18109 : 1"
       inkscape:vp_y="0 : 1000 : 0"
       inkscape:vp_x="0 : 526.18109 : 1"
       sodipodi:type="inkscape:persp3d" />
    <inkscape:perspective
       id="perspective3320"
       inkscape:persp3d-origin="372.04724 : 350.78739 : 1"
       inkscape:vp_z="744.09448 : 526.18109 : 1"
       inkscape:vp_y="0 : 1000 : 0"
       inkscape:vp_x="0 : 526.18109 : 1"
       sodipodi:type="inkscape:persp3d" />
    <inkscape:perspective
       id="perspective3505"
       inkscape:persp3d-origin="372.04724 : 350.78739 : 1"
       inkscape:vp_z="744.09448 : 526.18109 : 1"
       inkscape:vp_y="0 : 1000 : 0"
       inkscape:vp_x="0 : 526.18109 : 1"
       sodipodi:type="inkscape:persp3d" />
  </defs>
  <sodipodi:namedview
     id="base"
     pagecolor="#ff9966"
     bordercolor="#666666"
     borderopacity="1.0"
     inkscape:pageopacity="0"
     inkscape:pageshadow="2"
     inkscape:zoom="2.8"
     inkscape:cx="26.578279"
     inkscape:cy="8.8318162"
     inkscape:document-units="px"
     inkscape:current-layer="layer4"
     showgrid="true"
     inkscape:window-width="1280"
     inkscape:window-height="742"
     inkscape:window-x="0"
     inkscape:window-y="0"
     objecttolerance="10"
     gridtolerance="10"
     guidetolerance="10"
     showguides="true"
     inkscape:guide-bbox="true">
    <inkscape:grid
       type="xygrid"
       id="grid3730"
       visible="true"
       enabled="true"
       empspacing="4" />
  </sodipodi:namedview>
  <metadata
     id="metadata7">
    <rdf:RDF>
      <cc:Work
         rdf:about="">
        <dc:format>image/svg+xml</dc:format>
        <dc:type
           rdf:resource="http://purl.org/dc/dcmitype/StillImage" />
      </cc:Work>
    </rdf:RDF>
  </metadata>
  <g
     inkscape:groupmode="layer"
     id="layer4"
     inkscape:label="rendering"
     style="display:inline">
    <path
       style="opacity:1;fill:#ff9900;fill-opacity:1;fill-rule:nonzero;stroke:none;stroke-width:2;stroke-linecap:butt;stroke-linejoin:miter;stroke-miterlimit:4;stroke-dasharray:none;stroke-dashoffset:0;stroke-opacity:1"
       d="M 32 2 C 15.44 2 2 15.44 2 32 L 6 32 C 5.9999998 17.648001 17.648 6 32 6 C 46.352 5.9999998 58 17.648 58 32 L 62 32 C 62 15.44 48.56 2 32 2 z "
       id="path2440" />
    <g
       transform="translate(61,-33)"
       id="g2399">
      <path
         sodipodi:nodetypes="cccccccccscc"
         id="path4271"
         d="M 30,93 L 35,93 L 35,98 C 40,93 45,98 45,98 C 50,93 55,98 55,98 C 60,93 65,98 65,98 L 65,93 L 70,93 L 65,103 C 60,108 50,108 50,108 C 50,108 40,108 35,103 L 30,93 z"
         style="fill:#ff0000;fill-rule:evenodd;stroke:#000000;stroke-width:0.98414707px;stroke-linecap:butt;stroke-linejoin:miter;stroke-opacity:1" />
      <path
         sodipodi:nodetypes="cccsccccccccccccccscccccccccc"
         d="M 25,83 C 20,78 25,73 25,73 C 25,73 20,68 20,53 C 22.518616,40.406921 36.148242,32.906228 50,33 C 63.646995,33.092385 77.518616,40.593079 80,53 C 80,68 75,73 75,73 C 75,73 80,78 75,83 C 75,83 70,88 70,88 L 70,93 C 65,98 60,93 60,93 C 55,98 50,93 50,93 C 45,98 40,93 40,93 C 35,98 30,93 30,93 L 30,88 L 25,83 z M 30,68 C 30,68 30,73 40,73 C 40,73 45,73 45,63 C 45,63 40,58 30,58 C 30,58 30,68 30,68 z M 70,68 C 70,68 70,73 60,73 C 60,73 55,73 55,63 C 55,63 60,58 70,58 C 70,58 70,68 70,68 z M 50,73 C 50,73 55,73 55,83 L 45,83 C 45,73 50,73 50,73 z"
         style="fill:#ff0000;fill-rule:evenodd;stroke:#000000;stroke-width:0.98414707px;stroke-linecap:butt;stroke-linejoin:miter;stroke-opacity:1"
         id="path4273" />
    </g>
    <g
       id="g3358"
       transform="matrix(0.4,0,0,0.4,12,6.8)"
       style="fill:#ff9900;fill-opacity:1;stroke:none">
      <path
         style="fill:#ff9900;fill-opacity:1;fill-rule:evenodd;stroke:none;stroke-width:0.98414707px;stroke-linecap:butt;stroke-linejoin:miter;stroke-opacity:1"
         d="M 30,93 L 35,93 L 35,98 C 40,93 45,98 45,98 C 50,93 55,98 55,98 C 60,93 65,98 65,98 L 65,93 L 70,93 L 65,103 C 60,108 50,108 50,108 C 50,108 40,108 35,103 L 30,93 z"
         id="path3360"
         sodipodi:nodetypes="cccccccccscc" />
      <path
         id="path3362"
         style="fill:#ff9900;fill-opacity:1;fill-rule:evenodd;stroke:none;stroke-width:0.98414707px;stroke-linecap:butt;stroke-linejoin:miter;stroke-opacity:1"
         d="M 25,83 C 20,78 25,73 25,73 C 25,73 20,68 20,53 C 22.518616,40.406921 36.148242,32.906228 50,33 C 63.646995,33.092385 77.518616,40.593079 80,53 C 80,68 75,73 75,73 C 75,73 80,78 75,83 C 75,83 70,88 70,88 L 70,93 C 65,98 60,93 60,93 C 55,98 50,93 50,93 C 45,98 40,93 40,93 C 35,98 30,93 30,93 L 30,88 L 25,83 z M 30,68 C 30,68 30,73 40,73 C 40,73 45,73 45,63 C 45,63 40,58 30,58 C 30,58 30,68 30,68 z M 70,68 C 70,68 70,73 60,73 C 60,73 55,73 55,63 C 55,63 60,58 70,58 C 70,58 70,68 70,68 z M 50,73 C 50,73 55,73 55,83 L 45,83 C 45,73 50,73 50,73 z"
         sodipodi:nodetypes="cccsccccccccccccccscccccccccc" />
    </g>
    <path
       transform="matrix(1.25,0,0,1.25,-95.999999,44)"
       d="M 64,48 A 24,24 0 1 1 16,48 A 24,24 0 1 1 64,48 z"
       sodipodi:ry="24"
       sodipodi:rx="24"
       sodipodi:cy="48"
       sodipodi:cx="40"
       id="path3370"
       style="opacity:1;fill:#ff9900;fill-opacity:1;fill-rule:nonzero;stroke:none;stroke-width:2;stroke-linecap:butt;stroke-linejoin:miter;stroke-miterlimit:4;stroke-dasharray:none;stroke-dashoffset:0;stroke-opacity:1"
       sodipodi:type="arc" />
    <path
       sodipodi:type="arc"
       style="opacity:1;fill:#e6e6e6;fill-opacity:1;fill-rule:nonzero;stroke:none;stroke-width:2;stroke-linecap:butt;stroke-linejoin:miter;stroke-miterlimit:4;stroke-dasharray:none;stroke-dashoffset:0;stroke-opacity:1"
       id="path3372"
       sodipodi:cx="40"
       sodipodi:cy="48"
       sodipodi:rx="24"
       sodipodi:ry="24"
       d="M 64,48 A 24,24 0 1 1 16,48 A 24,24 0 1 1 64,48 z"
       transform="matrix(1.0833333,0,0,1.0833333,-89.333331,52.000002)" />
    <path
       sodipodi:type="arc"
       style="opacity:1;fill:#ff9900;fill-opacity:1;fill-rule:nonzero;stroke:none;stroke-width:2;stroke-linecap:butt;stroke-linejoin:miter;stroke-miterlimit:4;stroke-dasharray:none;stroke-dashoffset:0;stroke-opacity:1"
       id="path3376"
       sodipodi:cx="40"
       sodipodi:cy="48"
       sodipodi:rx="24"
       sodipodi:ry="24"
       d="M 64,48 A 24,24 0 1 1 16,48 A 24,24 0 1 1 64,48 z"
       transform="matrix(0.7916667,0,0,0.7916667,5.3333333,86.999999)" />
    <path
       transform="matrix(0.625,0,0,0.625,12.000001,94.999999)"
       d="M 64,48 A 24,24 0 1 1 16,48 A 24,24 0 1 1 64,48 z"
       sodipodi:ry="24"
       sodipodi:rx="24"
       sodipodi:cy="48"
       sodipodi:cx="40"
       id="path3378"
       style="opacity:1;fill:#e6e6e6;fill-opacity:1;fill-rule:nonzero;stroke:none;stroke-width:2;stroke-linecap:butt;stroke-linejoin:miter;stroke-miterlimit:4;stroke-dasharray:none;stroke-dashoffset:0;stroke-opacity:1"
       sodipodi:type="arc" />
    <path
       style="opacity:1;fill:#ff9900;fill-opacity:1;fill-rule:nonzero;stroke:none;stroke-width:2;stroke-linecap:butt;stroke-linejoin:miter;stroke-miterlimit:4;stroke-dasharray:none;stroke-dashoffset:0;stroke-opacity:1"
       d="M 32 12 C 20.96 12 12 20.96 12 32 L 16 32 C 16 23.168 23.168 16 32 16 C 40.832 16 48 23.168 48 32 L 52 32 C 52 20.96 43.04 12 32 12 z "
       id="path3380" />
    <path
       style="fill:#ff9900;fill-rule:evenodd;stroke:none;stroke-width:1px;stroke-linecap:butt;stroke-linejoin:miter;stroke-opacity:1;fill-opacity:1"
       d="M 28,52 C 28,56 24,62 24,62 L 40,62 C 40,62 36,56 36,52 L 28,52 z"
       id="path2410"
       sodipodi:nodetypes="ccccc" />
  </g>
</svg>
