<?xml version="1.0" encoding="UTF-8" standalone="no"?>
<!-- Created with Inkscape (http://www.inkscape.org/) -->
<svg
   xmlns:dc="http://purl.org/dc/elements/1.1/"
   xmlns:cc="http://creativecommons.org/ns#"
   xmlns:rdf="http://www.w3.org/1999/02/22-rdf-syntax-ns#"
   xmlns:svg="http://www.w3.org/2000/svg"
   xmlns="http://www.w3.org/2000/svg"
   xmlns:sodipodi="http://sodipodi.sourceforge.net/DTD/sodipodi-0.dtd"
   xmlns:inkscape="http://www.inkscape.org/namespaces/inkscape"
   width="128"
   height="128"
   id="svg2"
   sodipodi:version="0.32"
   inkscape:version="0.46"
   version="1.0"
   sodipodi:docname="medal_impressive.svg"
   inkscape:output_extension="org.inkscape.output.svg.inkscape"
   inkscape:export-filename="/mnt/adat/Udi/OpenArena/2D improvement/medal_impressive.png"
   inkscape:export-xdpi="90"
   inkscape:export-ydpi="90">
  <defs
     id="defs4">
    <inkscape:perspective
       sodipodi:type="inkscape:persp3d"
       inkscape:vp_x="0 : 526.18109 : 1"
       inkscape:vp_y="6.1230318e-14 : 1000 : 0"
       inkscape:vp_z="744.09448 : 526.18109 : 1"
       inkscape:persp3d-origin="372.04724 : 350.78739 : 1"
       id="perspective10" />
    <inkscape:perspective
       id="perspective2532"
       inkscape:persp3d-origin="372.04724 : 350.78739 : 1"
       inkscape:vp_z="744.09448 : 526.18109 : 1"
       inkscape:vp_y="0 : 1000 : 0"
       inkscape:vp_x="0 : 526.18109 : 1"
       sodipodi:type="inkscape:persp3d" />
  </defs>
  <sodipodi:namedview
     id="base"
     pagecolor="#00cc00"
     bordercolor="#666666"
     borderopacity="1.0"
     inkscape:pageopacity="0"
     inkscape:pageshadow="2"
     inkscape:zoom="0.5"
     inkscape:cx="33.103059"
     inkscape:cy="-111.61276"
     inkscape:document-units="px"
     inkscape:current-layer="layer1"
     showgrid="false"
     borderlayer="true"
     inkscape:window-width="1280"
     inkscape:window-height="742"
     inkscape:window-x="0"
     inkscape:window-y="0" />
  <metadata
     id="metadata7">
    <rdf:RDF>
      <cc:Work
         rdf:about="">
        <dc:format>image/svg+xml</dc:format>
        <dc:type
           rdf:resource="http://purl.org/dc/dcmitype/StillImage" />
      </cc:Work>
    </rdf:RDF>
  </metadata>
  <g
     inkscape:label="1. réteg"
     inkscape:groupmode="layer"
     id="layer1">
    <path
       style="fill:none;fill-rule:evenodd;stroke:#000000;stroke-width:0.9988851px;stroke-linecap:butt;stroke-linejoin:miter;stroke-opacity:1"
       d="M 540.03538,273.44052 L 667.0365,400.44164"
       id="path2542" />
    <path
       sodipodi:type="arc"
       style="fill:#ee0000;fill-opacity:1;fill-rule:nonzero;stroke:#000000;stroke-width:1;stroke-linecap:round;stroke-linejoin:miter;stroke-miterlimit:4;stroke-dasharray:none;stroke-dashoffset:0;stroke-opacity:1"
       id="path2546"
       sodipodi:cx="248.92857"
       sodipodi:cy="452.71933"
       sodipodi:rx="26.785715"
       sodipodi:ry="32.5"
       d="M 275.71429,452.71933 A 26.785715,32.5 0 1 1 222.14286,452.71933 A 26.785715,32.5 0 1 1 275.71429,452.71933 z"
       transform="matrix(1.0998419,0,0,1.0603093,83.57507,-795.87462)" />
    <path
       sodipodi:nodetypes="ccccccsscc"
       id="path3376"
       d="M 370.37558,-225.82525 C 361.7832,-235.95334 345.37808,-241.58223 329.31822,-231.82953 C 313.824,-221.78348 311.25871,-200.55741 323.99395,-187.82218 C 338.87204,-176.87266 354.55626,-179.47181 368.70183,-191.4745 C 386.41881,-207.04864 374.24651,-231.76144 349.76843,-254.26095 L 340.25509,-248.51903 C 360.93373,-225.80467 371.87451,-210.20916 362.17084,-200.50549 C 352.46717,-190.80182 338.15024,-188.81403 331.1073,-195.85697 C 324.06437,-202.89991 324.99641,-216.59056 335.84207,-224.99854 C 351.99575,-232.85936 362.14784,-226.01909 368.72651,-216.62616"
       style="fill:#000000;fill-opacity:1;fill-rule:nonzero;stroke:#999999;stroke-width:4;stroke-linecap:round;stroke-linejoin:miter;stroke-miterlimit:4;stroke-dasharray:none;stroke-dashoffset:0;stroke-opacity:1" />
    <g
       id="g3391"
       style="fill:#00ee00;fill-opacity:1;stroke:#ffffff;stroke-width:2;stroke-miterlimit:4;stroke-dasharray:none;stroke-opacity:1"
       transform="translate(-30,-520)">
      <path
         sodipodi:nodetypes="cccsccccccccc"
         id="path3401"
         d="M 453.61045,547.53219 C 452.49195,546.93534 451.36466,546.57462 449.93682,546.55869 C 448.33881,546.54086 446.54271,546.95557 444.50046,547.94939 C 440.11265,551.35098 439.72942,556.89571 442.57877,559.74506 C 445.42811,562.59439 451.21983,561.78708 455.14563,557.86129 C 457.46404,554.09799 456.77703,551.994 453.75494,547.53219 C 450.73283,543.07035 451.74334,544.75255 450.49311,543.24629 C 449.24288,541.74004 447.831,540.12972 446.28308,538.42942 L 450.12647,536.1158 C 460.0295,545.21837 464.23324,553.48039 457.78796,561.51504 C 452.64308,566.65991 445.72806,567.42406 439.70887,562.99424 C 434.5566,557.84198 435.58968,549.24495 441.85813,545.18064 C 444.81128,543.38728 447.79216,542.88192 450.49311,543.24629"
         style="opacity:1;fill:#00ee00;fill-opacity:1;fill-rule:nonzero;stroke:#ffffff;stroke-width:1.27211201;stroke-linecap:round;stroke-linejoin:miter;stroke-miterlimit:4;stroke-dasharray:none;stroke-dashoffset:0;stroke-opacity:1" />
      <path
         sodipodi:nodetypes="cccsccccccccc"
         id="path3399"
         d="M 444.63342,537.18113 C 443.33284,536.48712 442.02204,536.06768 440.36176,536.04916 C 438.5036,536.02843 436.41512,536.51065 434.04041,537.66625 C 428.9383,541.62159 428.49268,548.06895 431.80588,551.38214 C 435.11907,554.69532 441.85363,553.75659 446.41851,549.19171 C 449.11434,544.81578 448.31549,542.36929 444.80143,537.18113 C 441.28735,531.99295 442.46236,533.94899 441.0086,532.19753 C 439.55485,530.44607 437.91313,528.57361 436.11322,526.59652 L 440.58228,523.90626 C 452.09743,534.49064 456.9855,544.09765 449.49099,553.44026 C 443.50857,559.42267 435.46785,560.31122 428.46879,555.16026 C 422.47778,549.16926 423.67904,539.17271 430.96793,534.44677 C 434.40182,532.36147 437.86796,531.77384 441.0086,532.19753"
         style="opacity:1;fill:#00ee00;fill-opacity:1;fill-rule:nonzero;stroke:#ffffff;stroke-width:1.47920001;stroke-linecap:round;stroke-linejoin:miter;stroke-miterlimit:4;stroke-dasharray:none;stroke-dashoffset:0;stroke-opacity:1" />
      <path
         sodipodi:nodetypes="cccsccccccccc"
         id="path3389"
         d="M 436.2166,525.52375 C 434.7043,524.71676 433.18012,524.22904 431.24956,524.20751 C 429.08891,524.1834 426.66044,524.74412 423.89915,526.08784 C 417.96647,530.68707 417.4483,538.18401 421.30086,542.03655 C 425.15341,545.88909 432.98429,544.79754 438.29229,539.48954 C 441.42698,534.40125 440.49808,531.55649 436.41196,525.52375 C 432.32583,519.49098 433.69211,521.76545 432.0017,519.72887 C 430.31129,517.69229 428.40231,515.51501 426.3094,513.21606 L 431.50598,510.08786 C 444.89569,522.39527 450.57949,533.56621 441.86494,544.42971 C 434.90864,551.38601 425.55896,552.4192 417.42052,546.42971 C 410.45423,539.46343 411.85104,527.83954 420.3265,522.34426 C 424.3194,519.91949 428.34979,519.2362 432.0017,519.72887"
         style="opacity:1;fill:#00ee00;fill-opacity:1;fill-rule:nonzero;stroke:#ffffff;stroke-width:1.72000003;stroke-linecap:round;stroke-linejoin:miter;stroke-miterlimit:4;stroke-dasharray:none;stroke-dashoffset:0;stroke-opacity:1" />
      <path
         sodipodi:nodetypes="cccsccccccccc"
         id="path3387"
         d="M 423.81,510.25935 C 422.05151,509.321 420.27921,508.75388 418.03437,508.72884 C 415.52199,508.70081 412.69819,509.35281 409.48738,510.91527 C 402.58892,516.26322 401.9864,524.98059 406.46611,529.46029 C 410.94582,533.93998 420.0515,532.67074 426.22359,526.49865 C 429.86858,520.58203 428.78846,517.27417 424.03716,510.25935 C 419.28585,503.24451 420.87454,505.88924 418.90895,503.52112 C 416.94336,501.15301 414.72362,498.62129 412.29,495.94809 L 418.33253,492.31064 C 433.90196,506.62159 440.51103,519.61105 430.37784,532.24303 C 422.28911,540.33175 411.4174,541.53313 401.95409,534.56861 C 393.85376,526.46829 395.47795,512.95213 405.33314,506.56227 C 409.97604,503.74277 414.66255,502.94825 418.90895,503.52112"
         style="opacity:1;fill:#00ee00;fill-opacity:1;fill-rule:nonzero;stroke:#ffffff;stroke-width:1.72000003;stroke-linecap:round;stroke-linejoin:miter;stroke-miterlimit:4;stroke-dasharray:none;stroke-dashoffset:0;stroke-opacity:1" />
      <path
         sodipodi:nodetypes="cccsccccccccc"
         id="path3385"
         d="M 411.22424,494.87052 C 409.17949,493.77941 407.11867,493.11997 404.5084,493.09085 C 401.58702,493.05826 398.30354,493.8164 394.57003,495.63322 C 386.54857,501.85176 385.84796,511.98824 391.05693,517.19719 C 396.26589,522.40614 406.8539,520.93027 414.03075,513.75342 C 418.26911,506.87364 417.01315,503.02729 411.48838,494.87052 C 405.9636,486.71373 407.81092,489.789 405.52535,487.03537 C 403.23978,484.28175 400.65869,481.33789 397.82889,478.22952 L 404.85509,473.99992 C 422.95908,490.64056 430.64405,505.74459 418.86127,520.43294 C 409.45577,529.83842 396.81424,531.23538 385.81039,523.1371 C 376.39141,513.71812 378.28,498.00166 389.73952,490.57159 C 395.13824,487.2931 400.58767,486.36924 405.52535,487.03537"
         style="opacity:1;fill:#00ee00;fill-opacity:1;fill-rule:nonzero;stroke:#ffffff;stroke-width:2;stroke-linecap:round;stroke-linejoin:miter;stroke-miterlimit:4;stroke-dasharray:none;stroke-dashoffset:0;stroke-opacity:1" />
      <path
         sodipodi:nodetypes="cccsccccccccc"
         id="path3383"
         d="M 393.63118,476.40843 C 391.25357,475.1397 388.85727,474.37291 385.82207,474.33905 C 382.42512,474.30116 378.60712,475.18271 374.26582,477.2953 C 364.93855,484.52616 364.12388,496.31276 370.18082,502.36968 C 376.23775,508.4266 388.54939,506.71047 396.89457,498.3653 C 401.8229,490.36555 400.36248,485.89305 393.93832,476.40843 C 387.51416,466.9238 389.66221,470.49969 387.00457,467.2978 C 384.34693,464.09591 381.34566,460.67282 378.0552,457.05843 L 386.2252,452.1403 C 407.27635,471.48988 416.21236,489.0527 402.51145,506.13218 C 391.57483,517.06878 376.87537,518.69315 364.0802,509.27655 C 353.12789,498.32425 355.32393,480.04929 368.64895,471.40968 C 374.92653,467.59748 381.26308,466.52322 387.00457,467.2978"
         style="opacity:1;fill:#00ee00;fill-opacity:1;fill-rule:nonzero;stroke:#ffffff;stroke-width:2;stroke-linecap:round;stroke-linejoin:miter;stroke-miterlimit:4;stroke-dasharray:none;stroke-dashoffset:0;stroke-opacity:1" />
      <path
         sodipodi:nodetypes="cccsccccccccc"
         id="path3378"
         d="M 375.88394,456.47321 C 373.11928,454.99795 370.33288,454.10633 366.80358,454.06696 C 362.85364,454.0229 358.4141,455.04796 353.36608,457.50446 C 342.52042,465.91244 341.57312,479.61778 348.61608,486.66071 C 355.65902,493.70365 369.97488,491.70815 379.67858,482.00446 C 385.40919,472.70242 383.71103,467.50184 376.24108,456.47321 C 368.77113,445.44458 371.26886,449.60259 368.17858,445.87946 C 365.0883,442.15633 361.59845,438.176 357.77233,433.97321 L 367.27233,428.25446 C 391.75041,450.75397 402.14112,471.17586 386.20983,491.03571 C 373.49283,503.75269 356.40044,505.64149 341.52233,494.69196 C 328.78709,481.95673 331.34062,460.70677 346.83483,450.66071 C 354.13435,446.22792 361.50243,444.97879 368.17858,445.87946"
         style="opacity:1;fill:#00ee00;fill-opacity:1;fill-rule:nonzero;stroke:#ffffff;stroke-width:2;stroke-linecap:round;stroke-linejoin:miter;stroke-miterlimit:4;stroke-dasharray:none;stroke-dashoffset:0;stroke-opacity:1" />
      <path
         sodipodi:nodetypes="cccsccccccccc"
         id="path3381"
         d="M 357.10052,432.04748 C 353.89352,430.33618 350.66129,429.3019 346.56731,429.25623 C 341.98538,429.20512 336.83551,430.39419 330.97981,433.24373 C 318.39884,442.99699 317.29997,458.89518 325.46981,467.06498 C 333.63962,475.23479 350.24601,472.92001 361.50231,461.66373 C 368.14981,450.87337 366.17995,444.84069 357.51481,432.04748 C 348.84966,419.25427 351.74703,424.07756 348.16231,419.75873 C 344.57758,415.4399 340.52936,410.82272 336.09106,405.94748 L 347.11106,399.31373 C 375.50563,425.41316 387.55885,449.10256 369.07856,472.13998 C 354.32684,486.89168 334.49966,489.08269 317.24106,476.38123 C 302.46818,461.60837 305.43027,436.95841 323.40356,425.30498 C 331.871,420.16295 340.41797,418.71396 348.16231,419.75873"
         style="opacity:1;fill:#00ee00;fill-opacity:1;fill-rule:nonzero;stroke:#ffffff;stroke-width:2;stroke-linecap:round;stroke-linejoin:miter;stroke-miterlimit:4;stroke-dasharray:none;stroke-dashoffset:0;stroke-opacity:1" />
      <path
         sodipodi:nodetypes="cccsccccccccc"
         id="path3421"
         d="M 335.09375,401.88283 C 331.37363,399.89772 327.62424,398.69796 322.87523,398.64498 C 317.56019,398.58569 311.58634,399.96501 304.79373,403.27048 C 290.1998,414.58426 288.92511,433.02616 298.40213,442.50313 C 307.87911,451.98011 327.14252,449.29496 340.19983,436.23768 C 347.91093,423.72086 345.62589,416.72295 335.57433,401.88283 C 325.52275,387.04271 328.8837,392.63772 324.72543,387.62788 C 320.56714,382.61804 315.87121,377.26211 310.72278,371.60683 L 323.50598,363.91168 C 356.44368,394.18702 370.42541,421.66672 348.98828,448.39013 C 331.87628,465.5021 308.87675,468.04367 288.85678,453.30998 C 271.72024,436.17346 275.15626,407.57951 296.00528,394.06153 C 305.82751,388.09677 315.74199,386.41595 324.72543,387.62788"
         style="opacity:1;fill:#00ee00;fill-opacity:1;fill-rule:nonzero;stroke:#ffffff;stroke-width:2.31999993;stroke-linecap:round;stroke-linejoin:miter;stroke-miterlimit:4;stroke-dasharray:none;stroke-dashoffset:0;stroke-opacity:1" />
    </g>
    <text
       xml:space="preserve"
       style="font-size:40px;font-style:normal;font-variant:normal;font-weight:normal;font-stretch:normal;text-align:start;line-height:125%;writing-mode:lr-tb;text-anchor:start;fill:#000000;fill-opacity:1;stroke:none;stroke-width:1px;stroke-linecap:butt;stroke-linejoin:miter;stroke-opacity:1;font-family:STIXGeneral;-inkscape-font-specification:STIXGeneral"
       x="294"
       y="-394.85715"
       id="text3696"
       sodipodi:linespacing="125%"><tspan
         sodipodi:role="line"
         id="tspan3698"
         x="294"
         y="-394.85715">60/70</tspan></text>
    <text
       xml:space="preserve"
       style="font-size:40px;font-style:normal;font-variant:normal;font-weight:normal;font-stretch:normal;text-align:start;line-height:125%;writing-mode:lr-tb;text-anchor:start;fill:#000000;fill-opacity:1;stroke:none;stroke-width:1px;stroke-linecap:butt;stroke-linejoin:miter;stroke-opacity:1;font-family:STIXGeneral;-inkscape-font-specification:STIXGeneral"
       x="523.67468"
       y="-396.15457"
       id="text3700"
       sodipodi:linespacing="125%"><tspan
         sodipodi:role="line"
         id="tspan3702"
         x="523.67468"
         y="-396.15457">50/70</tspan></text>
    <path
       sodipodi:type="arc"
       style="fill:#ee0000;fill-opacity:1;fill-rule:nonzero;stroke:#000000;stroke-width:1;stroke-linecap:round;stroke-linejoin:miter;stroke-miterlimit:4;stroke-dasharray:none;stroke-dashoffset:0;stroke-opacity:1"
       id="path3728"
       sodipodi:cx="248.92857"
       sodipodi:cy="452.71933"
       sodipodi:rx="26.785715"
       sodipodi:ry="32.5"
       d="M 275.71429,452.71933 A 26.785715,32.5 0 1 1 222.14286,452.71933 A 26.785715,32.5 0 1 1 275.71429,452.71933 z"
       transform="matrix(0.9149351,0,0,1.0617597,357.17559,-798.19703)" />
    <path
       sodipodi:nodetypes="ccccccsscc"
       id="path3743"
       d="M 604.83904,-214.92343 C 594.96637,-229.86732 580.1977,-235.24873 564.64242,-224.99145 C 549.58405,-214.50954 545.5259,-194.77635 556.2235,-184.07875 C 569.03539,-175.19544 583.6728,-178.8414 597.64693,-191.01551 C 614.12106,-209.61824 604.54243,-229.59451 592.03683,-249.76438 L 582.82521,-243.72075 C 595.0324,-222.33497 602.06458,-208.50521 592.36091,-198.80154 C 582.65723,-189.09788 569.32664,-186.12376 563.41056,-192.03983 C 557.4945,-197.9559 559.44724,-210.62587 570.09788,-219.22886 C 584.45171,-228.76326 591.98172,-219.49431 599.93432,-210.24268"
       style="fill:#000000;fill-opacity:1;fill-rule:nonzero;stroke:#999999;stroke-width:3.66606045;stroke-linecap:round;stroke-linejoin:miter;stroke-miterlimit:4;stroke-dasharray:none;stroke-dashoffset:0;stroke-opacity:1" />
    <g
       id="g3764"
       transform="translate(66,130)"
       style="fill:#00ee00;fill-opacity:1;stroke:#ffffff;stroke-opacity:1;stroke-width:4;stroke-miterlimit:4;stroke-dasharray:none">
      <path
         sodipodi:nodetypes="cccsscccccccc"
         id="path3760"
         d="M 636.47986,-2.7364929 C 635.31797,-4.025221 634.10717,-5.08849 632.49341,-5.0235442 C 631.70089,-4.9916503 630.81135,-4.6805631 629.78547,-3.9991363 C 627.07897,-1.8129716 626.5827,1.4062919 628.08607,2.9096644 C 629.58945,4.4130375 632.9737,3.6522981 635.43958,1.1864347 C 636.52182,0.1041853 636.78767,-1.1766143 636.47986,-2.7364929 C 636.17205,-4.2963721 635.82966,-4.884583 635.2331,-6.1194235 C 634.63654,-7.3542648 633.88177,-8.7109258 633.01752,-10.224999 L 635.36016,-11.765582 C 638.53804,-6.6400786 640.96798,-1.5634833 636.78163,3.1637819 C 633.23057,6.2574273 629.51533,7.1841147 626.2596,4.9267169 C 623.54117,2.2082767 624.56919,-2.8046195 628.39577,-5.4682492 C 630.83101,-7.0740625 633.19378,-7.1692054 635.2331,-6.1194235"
         style="fill:#00ee00;fill-opacity:1;fill-rule:nonzero;stroke:#ffffff;stroke-width:4;stroke-linecap:round;stroke-linejoin:miter;stroke-miterlimit:4;stroke-dasharray:none;stroke-dashoffset:0;stroke-opacity:1" />
      <path
         sodipodi:nodetypes="cccsscccccccc"
         id="path3758"
         d="M 632.80664,-9.278812 C 631.17017,-11.093922 629.46482,-12.591484 627.19192,-12.500011 C 626.0757,-12.45509 624.82282,-12.016939 623.37792,-11.057183 C 619.56595,-7.9780778 618.86697,-3.4439038 620.9844,-1.3264778 C 623.10183,0.7909492 627.86839,-0.2805148 631.34145,-3.7535618 C 632.86574,-5.2778568 633.24018,-7.0817998 632.80664,-9.278812 C 632.37311,-11.475825 631.89087,-12.304291 631.05064,-14.043503 C 630.21041,-15.782716 629.14735,-17.693506 627.9301,-19.826003 L 631.2296,-21.995838 C 635.70549,-14.77682 639.12793,-7.6266858 633.23167,-0.9685658 C 628.23017,3.3886812 622.99744,4.6938752 618.41191,1.5144412 C 614.58313,-2.3143478 616.03104,-9.374765 621.4206,-13.126356 C 624.85051,-15.388065 628.17835,-15.522069 631.05064,-14.043503"
         style="fill:#00ee00;fill-opacity:1;fill-rule:nonzero;stroke:#ffffff;stroke-width:4;stroke-linecap:round;stroke-linejoin:miter;stroke-miterlimit:4;stroke-dasharray:none;stroke-dashoffset:0;stroke-opacity:1" />
      <path
         sodipodi:nodetypes="cccsscccccccc"
         id="path3756"
         d="M 626.22469,-19.768301 C 623.91981,-22.324794 621.5179,-24.434036 618.31663,-24.305201 C 616.7445,-24.241932 614.97988,-23.624817 612.94481,-22.273049 C 607.57583,-17.936281 606.59136,-11.55012 609.57365,-8.5678299 C 612.55594,-5.5855388 619.26941,-7.0946431 624.16104,-11.986258 C 626.30793,-14.133153 626.83531,-16.673918 626.22469,-19.768301 C 625.61409,-22.862685 624.93488,-24.029538 623.75146,-26.479133 C 622.56803,-28.928728 621.07076,-31.619982 619.35633,-34.623499 L 624.00351,-37.679605 C 630.30758,-27.511973 635.12792,-17.441363 626.82332,-8.0637292 C 619.77896,-1.9267605 612.40892,-0.088459 605.95042,-4.5665355 C 600.55777,-9.9591964 602.59709,-19.903446 610.18802,-25.187376 C 615.01887,-28.372882 619.70598,-28.56162 623.75146,-26.479133"
         style="fill:#00ee00;fill-opacity:1;fill-rule:nonzero;stroke:#ffffff;stroke-width:4;stroke-linecap:round;stroke-linejoin:miter;stroke-miterlimit:4;stroke-dasharray:none;stroke-dashoffset:0;stroke-opacity:1" />
      <path
         sodipodi:nodetypes="cccsscccccccc"
         id="path3754"
         d="M 616.73088,-31.259427 C 613.48456,-34.860121 610.10159,-37.830884 605.59276,-37.649427 C 603.3785,-37.560315 600.89311,-36.691139 598.02682,-34.78724 C 590.46487,-28.679117 589.0783,-19.684524 593.2787,-15.484115 C 597.47911,-11.283705 606.9347,-13.409204 613.82432,-20.298802 C 616.84812,-23.322598 617.5909,-26.901141 616.73088,-31.259427 C 615.87087,-35.617713 614.91424,-37.261168 613.24745,-40.711302 C 611.58065,-44.161436 609.47182,-47.951935 607.05713,-52.18224 L 613.60245,-56.486615 C 622.48142,-42.166006 629.27064,-27.982049 617.57401,-14.774114 C 607.65238,-6.130496 597.27204,-3.541339 588.17557,-9.848489 C 580.58028,-17.443786 583.45257,-31.449772 594.14401,-38.891927 C 600.94803,-43.378554 607.54959,-43.644382 613.24745,-40.711302"
         style="fill:#00ee00;fill-opacity:1;fill-rule:nonzero;stroke:#ffffff;stroke-width:4;stroke-linecap:round;stroke-linejoin:miter;stroke-miterlimit:4;stroke-dasharray:none;stroke-dashoffset:0;stroke-opacity:1" />
      <path
         sodipodi:nodetypes="cccsscccccccc"
         id="path3726"
         d="M 605.59375,-50.3125 C 601.02146,-55.3839 596.25672,-59.568073 589.90625,-59.3125 C 586.78757,-59.18699 583.28702,-57.962798 579.25,-55.28125 C 568.59936,-46.67826 566.64645,-34.009819 572.5625,-28.09375 C 578.47858,-22.17768 591.79631,-25.171341 601.5,-34.875 C 605.75887,-39.133868 606.80504,-44.174069 605.59375,-50.3125 C 604.38246,-56.450931 603.0351,-58.765656 600.6875,-63.625 C 598.3399,-68.484344 595.36972,-73.823075 591.96875,-79.78125 L 601.1875,-85.84375 C 613.6931,-65.673879 623.25538,-45.696474 606.78125,-27.09375 C 592.80712,-14.91964 578.18692,-11.272939 565.375,-20.15625 C 554.6774,-30.85385 558.72288,-50.580591 573.78125,-61.0625 C 583.36438,-67.381693 592.66235,-67.756098 600.6875,-63.625"
         style="fill:#00ee00;fill-opacity:1;fill-rule:nonzero;stroke:#ffffff;stroke-width:4;stroke-linecap:round;stroke-linejoin:miter;stroke-miterlimit:4;stroke-dasharray:none;stroke-dashoffset:0;stroke-opacity:1" />
      <path
         sodipodi:nodetypes="cccsscccccccc"
         id="path3748"
         d="M 592.04806,-77.853348 C 585.64685,-84.953308 578.97621,-90.81115 570.08556,-90.45335 C 565.7194,-90.27763 560.81863,-88.563765 555.16681,-84.809598 C 540.25591,-72.765412 537.52184,-55.029595 545.80431,-46.747098 C 554.08682,-38.4646 572.73164,-42.655726 586.31681,-56.240848 C 592.27922,-62.203264 593.74386,-69.259545 592.04806,-77.853348 C 590.35225,-86.447151 588.46595,-89.687766 585.17931,-96.49085 C 581.89267,-103.29393 577.73441,-110.76815 572.97306,-119.1096 L 585.87931,-127.5971 C 603.38715,-99.35928 616.77434,-71.390912 593.71056,-45.347098 C 574.14677,-28.303344 553.67849,-23.197963 535.74181,-35.634598 C 520.76517,-50.611238 526.42884,-78.228676 547.51056,-92.90335 C 560.92694,-101.75022 573.9441,-102.27438 585.17931,-96.49085"
         style="fill:#00ee00;fill-opacity:1;fill-rule:nonzero;stroke:#ffffff;stroke-width:4;stroke-linecap:round;stroke-linejoin:miter;stroke-miterlimit:4;stroke-dasharray:none;stroke-dashoffset:0;stroke-opacity:1" />
      <path
         sodipodi:nodetypes="cccsscccccccc"
         id="path3752"
         d="M 568.89056,-114.0302 C 559.92887,-123.97015 550.58997,-132.17113 538.14306,-131.67021 C 532.03044,-131.4242 525.16936,-129.02479 517.25681,-123.76895 C 496.38155,-106.90709 492.55386,-82.076949 504.14931,-70.481453 C 515.74483,-58.885956 541.84758,-64.753532 560.86681,-83.772703 C 569.21419,-92.120086 571.26468,-101.99888 568.89056,-114.0302 C 566.51643,-126.06153 563.87561,-130.59839 559.27431,-140.12271 C 554.67302,-149.64702 548.85145,-160.11093 542.18556,-171.78896 L 560.25431,-183.67146 C 584.76529,-144.13851 603.50736,-104.98279 571.21806,-68.521453 C 543.82876,-44.660198 515.17317,-37.512664 490.06181,-54.923953 C 469.09452,-75.891249 477.02366,-114.55566 506.53806,-135.10021 C 525.321,-147.48583 543.54502,-148.21965 559.27431,-140.12271"
         style="fill:#00ee00;fill-opacity:1;fill-rule:nonzero;stroke:#ffffff;stroke-width:4;stroke-linecap:round;stroke-linejoin:miter;stroke-miterlimit:4;stroke-dasharray:none;stroke-dashoffset:0;stroke-opacity:1" />
      <path
         sodipodi:nodetypes="cccsscccccccc"
         id="path3762"
         d="M 545.75533,-171.38948 C 533.20897,-185.30541 520.13451,-196.78678 502.70883,-196.08549 C 494.15117,-195.74108 484.54565,-192.38191 473.46808,-185.02373 C 444.24272,-161.41712 438.88395,-126.65492 455.11758,-110.42123 C 471.35131,-94.187534 507.89516,-102.40214 534.52208,-129.02898 C 546.20842,-140.71532 549.0791,-154.54563 545.75533,-171.38948 C 542.43155,-188.23334 538.7344,-194.58495 532.29258,-207.919 C 525.85078,-221.25303 517.70058,-235.9025 508.36833,-252.25175 L 533.66458,-268.88725 C 567.97996,-213.54112 594.21885,-158.7231 549.01383,-107.67723 C 510.66881,-74.271472 470.55099,-64.264924 435.39508,-88.64073 C 406.04088,-117.99494 417.14167,-172.12512 458.46183,-200.8875 C 484.75795,-218.22736 510.27158,-219.25471 532.29258,-207.919"
         style="fill:#00ee00;fill-opacity:1;fill-rule:nonzero;stroke:#ffffff;stroke-width:4;stroke-linecap:round;stroke-linejoin:miter;stroke-miterlimit:4;stroke-dasharray:none;stroke-dashoffset:0;stroke-opacity:1" />
    </g>
    <g
       id="g3360">
      <path
         sodipodi:nodetypes="cccsscccccccc"
         id="path2438"
         d="M 342.45415,463.9638 C 341.01624,462.70192 339.55375,461.69322 337.79499,461.97172 C 336.93126,462.10849 335.99717,462.56345 334.96138,463.44146 C 332.27864,466.18317 332.14892,469.77211 333.98834,471.22514 C 335.82777,472.67817 339.43584,471.41024 341.81915,468.39318 C 342.86515,467.06901 342.99166,465.63234 342.45415,463.9638 C 341.91663,462.29525 341.46612,461.69515 340.65418,460.41963 C 339.84225,459.14412 338.84142,457.75554 337.70047,456.20866 L 340.06774,454.22063 C 344.20626,459.42479 347.51948,464.67151 343.54283,470.38595 C 340.0519,474.2299 336.10271,475.72209 332.24752,473.66857 C 328.92144,471.04116 329.40294,465.41982 333.25083,462.01134 C 335.71112,459.93999 338.28618,459.53217 340.65418,460.41963"
         style="fill:#00cc00;fill-opacity:1;fill-rule:nonzero;stroke:#4d4d4d;stroke-width:6;stroke-linecap:round;stroke-linejoin:miter;stroke-miterlimit:4;stroke-dasharray:none;stroke-dashoffset:0;stroke-opacity:1" />
      <path
         sodipodi:nodetypes="cccsscccccccc"
         id="path2440"
         d="M 337.59115,455.27185 C 335.56592,453.49457 333.50607,452.07385 331.02895,452.46611 C 329.81244,452.65874 328.49681,453.29953 327.03795,454.53617 C 323.25945,458.39773 323.07673,463.45257 325.66747,465.49909 C 328.25821,467.54562 333.34001,465.7598 336.69677,461.51041 C 338.17002,459.64539 338.34822,457.62192 337.59115,455.27185 C 336.83409,452.92179 336.19956,452.07657 335.05598,450.28007 C 333.91241,448.48357 332.50278,446.52782 330.89582,444.34912 L 334.23001,441.54909 C 340.05891,448.87888 344.72541,456.26863 339.1245,464.31714 C 334.20769,469.73115 328.64546,471.83282 323.21562,468.94055 C 318.53099,465.23997 319.20916,457.32259 324.62874,452.52191 C 328.09392,449.60451 331.72075,449.03012 335.05598,450.28007"
         style="fill:#00cc00;fill-opacity:1;fill-rule:nonzero;stroke:#4d4d4d;stroke-width:6;stroke-linecap:round;stroke-linejoin:miter;stroke-miterlimit:4;stroke-dasharray:none;stroke-dashoffset:0;stroke-opacity:1" />
      <path
         sodipodi:nodetypes="cccsscccccccc"
         id="path2442"
         d="M 329.03578,444.63146 C 326.18335,442.12824 323.28215,440.12724 319.79324,440.67971 C 318.07986,440.95102 316.22686,441.85355 314.17213,443.59529 C 308.85029,449.0341 308.59295,456.15361 312.24187,459.03603 C 315.8908,461.91846 323.04826,459.40321 327.77609,453.41817 C 329.85109,450.79138 330.10207,447.94141 329.03578,444.63146 C 327.9695,441.32151 327.0758,440.13107 325.46513,437.60078 C 323.85446,435.0705 321.86907,432.31593 319.60575,429.24733 L 324.30178,425.30363 C 332.5115,435.62728 339.08404,446.03537 331.19543,457.3713 C 324.27035,464.99668 316.43623,467.95677 308.78855,463.88315 C 302.19048,458.67107 303.14566,447.51982 310.77887,440.7583 C 315.65939,436.6493 320.76763,435.84029 325.46513,437.60078"
         style="fill:#00cc00;fill-opacity:1;fill-rule:nonzero;stroke:#4d4d4d;stroke-width:6;stroke-linecap:round;stroke-linejoin:miter;stroke-miterlimit:4;stroke-dasharray:none;stroke-dashoffset:0;stroke-opacity:1" />
      <path
         sodipodi:nodetypes="cccsscccccccc"
         id="path2444"
         d="M 317.16313,429.26846 C 313.14562,425.7428 309.05943,422.92449 304.14548,423.70261 C 301.73226,424.08474 299.1224,425.3559 296.22842,427.80906 C 288.73286,435.46936 288.37042,445.49683 293.50974,449.55658 C 298.64907,453.61634 308.73,450.07374 315.38892,441.64411 C 318.31147,437.9444 318.66495,433.93036 317.16313,429.26846 C 315.66133,424.60656 314.4026,422.92987 312.13405,419.3661 C 309.8655,415.80232 307.06917,411.92264 303.8814,407.60067 L 310.49553,402.04616 C 322.05852,416.58652 331.31562,431.2458 320.20488,447.2119 C 310.45126,457.95186 299.41728,462.12101 288.64592,456.38351 C 279.35285,449.04255 280.69818,433.33657 291.44917,423.81331 C 298.32315,418.02598 305.51785,416.88653 312.13405,419.3661"
         style="fill:#00cc00;fill-opacity:1;fill-rule:nonzero;stroke:#4d4d4d;stroke-width:6;stroke-linecap:round;stroke-linejoin:miter;stroke-miterlimit:4;stroke-dasharray:none;stroke-dashoffset:0;stroke-opacity:1" />
      <path
         sodipodi:nodetypes="cccsscccccccc"
         id="path2446"
         d="M 302.51925,407.83614 C 296.86077,402.87042 291.10557,398.90096 284.18451,399.99691 C 280.78561,400.53513 277.10975,402.32549 273.03373,405.78064 C 262.4766,416.5698 261.96612,430.69299 269.20459,436.41096 C 276.44309,442.12892 290.6416,437.13935 300.02035,425.26662 C 304.13661,420.05577 304.63448,414.40219 302.51925,407.83614 C 300.40402,401.27008 298.63117,398.90855 295.43602,393.88915 C 292.24088,388.86974 288.3024,383.40541 283.81258,377.31813 L 293.12824,369.49487 C 309.41415,389.97425 322.45232,410.62112 306.80339,433.10858 C 293.06589,448.2353 277.52507,454.10734 262.35415,446.02635 C 249.26531,435.68698 251.16015,413.56588 266.30238,400.15282 C 275.98405,392.00165 286.11743,390.3968 295.43602,393.88915"
         style="fill:#00cc00;fill-opacity:1;fill-rule:nonzero;stroke:#4d4d4d;stroke-width:6;stroke-linecap:round;stroke-linejoin:miter;stroke-miterlimit:4;stroke-dasharray:none;stroke-dashoffset:0;stroke-opacity:1" />
      <path
         sodipodi:nodetypes="cccsscccccccc"
         id="path2448"
         d="M 284.14718,377.41903 C 276.22531,370.46703 268.16803,364.90979 258.47855,366.44411 C 253.72009,367.19762 248.57388,369.70413 242.86745,374.54133 C 228.08747,389.64616 227.3728,409.41863 237.50666,417.42378 C 247.64057,425.42893 267.51846,418.44353 280.64872,401.82171 C 286.41148,394.52651 287.1085,386.61151 284.14718,377.41903 C 281.18585,368.22655 278.70387,364.92041 274.23067,357.89324 C 269.75747,350.86608 264.24358,343.21601 257.95785,334.69381 L 270.99977,323.74125 C 293.80004,352.41239 312.05349,381.318 290.14499,412.80045 C 270.91247,433.97786 249.15533,442.19871 227.91605,430.88533 C 209.59167,416.4102 212.24444,385.44066 233.44357,366.66239 C 246.99791,355.25075 261.18463,353.00397 274.23067,357.89324"
         style="fill:#00cc00;fill-opacity:1;fill-rule:nonzero;stroke:#4d4d4d;stroke-width:6;stroke-linecap:round;stroke-linejoin:miter;stroke-miterlimit:4;stroke-dasharray:none;stroke-dashoffset:0;stroke-opacity:1" />
      <path
         sodipodi:nodetypes="cccsscccccccc"
         id="path2450"
         d="M 254.14017,340.78051 C 243.04955,331.04769 231.76935,323.26756 218.20408,325.41562 C 211.54224,326.47053 204.33755,329.97964 196.34855,336.75173 C 175.65657,357.89849 174.65605,385.57994 188.84344,396.78716 C 203.03091,407.99436 230.85997,398.21481 249.24233,374.94426 C 257.31019,364.73098 258.28601,353.64997 254.14017,340.78051 C 249.99432,327.91103 246.51953,323.28243 240.25705,313.4444 C 233.99458,303.60637 226.27513,292.89627 217.47511,280.96519 L 235.73379,265.6316 C 267.65418,305.7712 293.20901,346.23907 262.53709,390.31449 C 235.61157,419.96286 205.15158,431.47206 175.41659,415.63333 C 149.76246,395.36815 153.47634,352.01079 183.15512,325.7212 C 202.1312,309.7449 221.9926,306.59941 240.25705,313.4444"
         style="fill:#00cc00;fill-opacity:1;fill-rule:nonzero;stroke:#4d4d4d;stroke-width:6;stroke-linecap:round;stroke-linejoin:miter;stroke-miterlimit:4;stroke-dasharray:none;stroke-dashoffset:0;stroke-opacity:1" />
      <path
         sodipodi:nodetypes="cccsscccccccc"
         id="path2452"
         d="M 221.43542,280.94389 C 205.90856,267.31795 190.11628,256.42577 171.1249,259.43305 C 161.79833,260.90992 151.71175,265.82267 140.52715,275.30361 C 111.55838,304.90908 110.15765,343.66311 130.02,359.3532 C 149.88247,375.04329 188.84315,361.35192 214.57845,328.77315 C 225.87346,314.47455 227.2396,298.96115 221.43542,280.94389 C 215.63123,262.92662 210.76653,256.44658 201.99906,242.67333 C 193.23161,228.90009 182.42437,213.90597 170.10433,197.20245 L 195.66649,175.73542 C 240.35504,231.93085 276.13179,288.58588 233.19112,350.29148 C 195.49539,391.79919 152.85141,407.91206 111.2224,385.73785 C 75.306636,357.36659 80.50606,296.66629 122.05635,259.86086 C 148.62286,237.49405 176.42884,233.09036 201.99906,242.67333"
         style="fill:#00cc00;fill-opacity:1;fill-rule:nonzero;stroke:#4d4d4d;stroke-width:6;stroke-linecap:round;stroke-linejoin:miter;stroke-miterlimit:4;stroke-dasharray:none;stroke-dashoffset:0;stroke-opacity:1" />
    </g>
    <path
       style="fill:#4d4d4d;fill-opacity:1;fill-rule:nonzero;stroke:none;stroke-width:5.44199324;stroke-linecap:round;stroke-linejoin:miter;stroke-miterlimit:4;stroke-dasharray:none;stroke-dashoffset:0;stroke-opacity:1"
       d="M -297.62247,222.54087 L -299.95391,224.54902 L -325.53521,246.00664 L -327.68142,247.81959 L -325.99329,250.08452 C -315.66194,264.09179 -306.75362,276.63979 -298.90539,288.46507 C -323.15417,282.28201 -349.1671,288.12184 -373.58154,308.67678 L -373.61576,308.6808 L -373.64597,308.71904 C -394.98738,327.62335 -407.01333,352.67761 -409.08743,376.81337 C -411.16152,400.94914 -403.18113,424.32404 -384.35136,439.1984 L -384.12596,439.3454 L -383.90056,439.4924 C -362.4448,450.9211 -340.37504,452.52909 -319.11306,445.86951 C -297.85108,439.20992 -277.38344,424.4436 -258.28695,403.41596 L -258.16613,403.26302 L -258.04532,403.11008 C -236.10597,371.58332 -234.17371,340.71454 -243.54869,311.14349 C -252.92367,281.57244 -273.2675,253.12565 -295.67473,224.94879 L -297.62247,222.54087 z M -298.48642,231.14149 C -276.9978,258.34226 -257.95708,285.55093 -249.26769,312.95945 C -240.33599,341.13227 -241.96594,369.36743 -262.84289,399.47553 C -281.40681,419.88395 -301.08462,433.89945 -320.93304,440.11629 C -340.73607,446.3189 -360.7102,444.95613 -380.79328,434.34042 C -397.7417,420.83695 -405.05653,399.75204 -403.12956,377.32835 C -401.19531,354.81978 -389.85862,331.11195 -369.64975,313.21083 C -344.03702,291.64704 -318.01,287.51487 -293.64809,296.31263 C -287.18762,306.4183 -282.89087,312.72811 -278.76671,322.90853 C -292.05067,312.51087 -306.2734,304.91287 -323.02872,307.56607 C -333.04035,309.15141 -343.64685,314.37275 -355.12015,324.09842 L -355.21076,324.21312 L -355.30539,324.29361 C -370.23051,339.54677 -378.16472,357.25477 -379.72714,373.36774 C -381.28956,389.48071 -376.4246,404.19836 -365.52374,412.8094 C -354.51074,421.50897 -338.67032,421.85601 -322.60689,416.09859 C -306.54345,410.34117 -289.954,398.4231 -276.75661,381.71627 C -264.97401,366.80043 -263.453,349.99744 -269.2887,331.54432 C -269.29568,331.52225 -269.28973,331.49796 -269.29673,331.47588 C -269.32634,331.35081 -269.36395,331.22776 -269.40935,331.1075 C -269.43369,331.03192 -269.44334,330.9814 -269.46766,330.9062 C -269.48249,330.87304 -269.49791,330.84016 -269.51393,330.80756 C -275.29465,312.97413 -280.4539,305.87177 -288.95709,292.53587 C -288.97003,292.51557 -288.95215,292.48777 -288.96512,292.46743 C -289.08573,292.21041 -289.24222,291.97182 -289.42988,291.75878 C -289.44254,291.74861 -289.45529,291.73854 -289.46812,291.72858 C -297.83588,278.61959 -308.02734,264.41573 -319.51762,248.80419 L -298.48642,231.14149 z M -322.09042,313.49214 C -304.71183,310.74026 -290.02102,320.57107 -274.89107,333.76288 C -269.58587,350.79283 -270.94949,364.657 -281.49377,378.00525 C -294.03168,393.87721 -309.8078,405.12746 -324.62415,410.4379 C -339.4405,415.74834 -352.95924,415.09697 -361.80871,408.10646 C -370.7702,401.02741 -375.17579,388.5391 -373.76125,373.95116 C -372.3502,359.39929 -365.09542,342.95179 -351.11992,328.62443 C -340.27574,319.45904 -330.69881,314.85528 -322.09042,313.49214 z"
       id="path3348" />
    <path
       style="fill:#00cc00;fill-opacity:1;fill-rule:nonzero;stroke:none;stroke-width:6;stroke-linecap:round;stroke-linejoin:miter;stroke-miterlimit:4;stroke-dasharray:none;stroke-dashoffset:0;stroke-opacity:1"
       d="M 106.84375 493.53125 L 85.8125 511.1875 C 97.30278 526.79904 107.50724 541.016 115.875 554.125 C 115.88783 554.13496 115.89359 554.11481 115.90625 554.125 C 116.09391 554.33804 116.25439 554.58674 116.375 554.84375 C 116.38797 554.86409 116.36206 554.88598 116.375 554.90625 C 124.87819 568.24215 130.03178 575.35406 135.8125 593.1875 C 135.82852 593.2201 135.86017 593.24809 135.875 593.28125 C 135.89932 593.35645 135.91317 593.42442 135.9375 593.5 C 135.9829 593.62026 136.00164 593.71865 136.03125 593.84375 C 136.03825 593.86583 136.02428 593.91542 136.03125 593.9375 C 141.86695 612.39062 140.34511 629.17792 128.5625 644.09375 C 115.36511 660.80058 98.78219 672.71133 82.71875 678.46875 C 66.65532 684.22617 50.825501 683.88707 39.8125 675.1875 C 28.91164 666.57646 24.03133 651.86296 25.59375 635.75 C 27.15617 619.63703 35.106131 601.94068 50.03125 586.6875 L 50.125 586.59375 L 50.21875 586.46875 C 61.69205 576.74308 72.300869 571.52285 82.3125 569.9375 C 99.06782 567.2843 113.27854 574.8836 126.5625 585.28125 C 122.43834 575.10083 118.14797 568.79316 111.6875 558.6875 C 87.32559 549.88974 61.300231 554.02996 35.6875 575.59375 C 15.47863 593.49487 4.153 617.21021 2.21875 639.71875 C 0.29178003 662.14244 7.5828294 683.21529 24.53125 696.71875 C 44.61433 707.33446 64.603219 708.70261 84.40625 702.5 C 104.25467 696.28316 123.93608 682.25216 142.5 661.84375 C 163.37695 631.73565 164.9942 603.51659 156.0625 575.34375 C 147.37311 547.93523 128.33237 520.73201 106.84375 493.53125 z M 130.1875 595.9375 C 130.29621 596.08467 130.39157 596.22827 130.5 596.375 C 130.47728 596.30138 130.46047 596.22999 130.4375 596.15625 C 130.3531 596.08266 130.27188 596.01088 130.1875 595.9375 z M 167.03125 608.0625 C 166.8495 617.79212 165.20216 627.60879 161.75 637.53125 C 164.72209 642.80803 167.12983 648.03964 168.78125 654.03125 C 172.98296 667.3175 171.88973 679.41683 163.40625 690.15625 C 153.90413 702.18516 141.94067 710.76091 130.375 714.90625 C 118.80933 719.05159 107.42936 718.82621 99.5 712.5625 C 97.458054 710.94949 95.080829 707.67002 93.65625 705.5625 C 91.189383 706.56588 88.707623 707.47044 86.21875 708.25 C 82.730338 709.34263 79.212239 710.19909 75.6875 710.84375 C 78.349155 717.58402 82.550112 723.32199 88.5 728.0625 C 102.95982 735.70585 117.33557 736.68463 131.59375 732.21875 C 145.88461 727.74265 160.04022 717.63157 173.40625 702.9375 C 188.43765 681.2597 189.61832 660.94068 183.1875 640.65625 C 179.71117 629.69107 174.10357 618.93866 167.03125 608.0625 z M 132.1875 624.0625 C 119.92209 624.48796 107.3481 629.45422 95.15625 639.71875 C 83.796987 649.78083 76.278468 662.34485 72.71875 675.15625 C 75.325509 674.58586 78.004136 673.78547 80.71875 672.8125 C 86.556294 670.72022 92.527483 667.6995 98.40625 663.84375 C 100.98097 659.34501 104.26519 654.9182 108.34375 650.75 C 113.49795 646.3809 118.30979 643.39323 122.875 641.53125 C 123.1902 641.14292 123.53248 640.76904 123.84375 640.375 C 128.02971 635.0759 130.73813 629.69001 132.1875 624.0625 z M 159.75 642.875 C 159.07151 644.52499 158.34166 646.19175 157.5625 647.84375 C 159.62607 649.34653 161.65953 650.97534 163.6875 652.6875 C 163.1165 651.0931 162.63693 649.76753 161.9375 647.71875 C 161.22284 645.95463 160.49904 644.38545 159.75 642.875 z M 189.9375 650.09375 C 191.45101 658.54929 191.58671 667.12211 189.90625 675.8125 C 192.41081 680.12713 196.81962 687.86566 198.0625 692.375 C 201.08773 701.9411 200.29561 710.64261 194.1875 718.375 C 187.34597 727.03582 178.76478 733.23409 170.4375 736.21875 C 162.11021 739.20339 153.89663 739.00987 148.1875 734.5 C 147.02425 733.5811 145.93218 732.27381 145.15625 731.21875 C 141.11855 733.33412 137.03657 735.05006 132.90625 736.34375 C 132.78993 736.37084 132.67811 736.41015 132.5625 736.4375 C 134.18832 740.44784 136.12416 742.36903 140.25 745.65625 C 150.66107 751.15945 161.01536 751.87168 171.28125 748.65625 C 181.57066 745.43346 191.78271 738.17348 201.40625 727.59375 C 212.22886 711.98573 213.06769 697.35479 208.4375 682.75 C 205.86047 674.6214 195.86194 658.97599 189.9375 650.09375 z M 166.71875 672.03125 C 159.61683 673.30956 152.44655 676.7552 145.4375 682.65625 C 136.45381 690.61405 130.82363 700.78304 128.6875 710.9375 C 128.77188 710.90775 128.853 710.87404 128.9375 710.84375 C 135.14441 708.61909 141.57683 704.93332 147.65625 700 C 149.51523 696.74059 151.92546 693.54562 154.875 690.53125 C 157.02194 688.71135 159.07151 687.24387 161.0625 686.0625 C 164.30695 681.5512 166.13845 676.94091 166.71875 672.03125 z M 188.90625 680.1875 C 188.35769 682.25525 187.69364 684.32687 186.9375 686.40625 C 189.5728 688.01906 192.11832 690.00566 194.65625 692.15625 C 194.12088 690.65524 193.73918 689.55129 193.15625 687.84375 C 192.48826 686.19485 190.4276 682.75521 188.90625 680.1875 z M 214.15625 697.90625 C 214.24214 702.88478 213.56873 707.92075 212.03125 713 C 213.49164 715.54679 214.98829 718.29891 215.75 721.0625 C 217.89792 727.85444 217.33675 734.04127 213 739.53125 C 208.14251 745.68044 202.03736 750.0684 196.125 752.1875 C 190.21262 754.3066 184.36599 754.17075 180.3125 750.96875 C 179.66064 750.45382 179.06596 749.79494 178.5625 749.15625 C 176.47241 750.13404 174.37336 750.99118 172.25 751.65625 C 171.22694 751.89453 170.20217 752.09192 169.1875 752.28125 C 170.34741 755.17706 171.73395 756.55305 174.6875 758.90625 C 182.07936 762.81349 189.42996 763.3142 196.71875 761.03125 C 204.02423 758.74307 211.29228 753.57411 218.125 746.0625 C 225.80905 734.98078 226.41243 724.58815 223.125 714.21875 C 221.50084 709.09577 217.73552 703.24707 214.15625 697.90625 z M 196.4375 706.1875 C 190.41627 706.57154 184.28802 709.12534 178.3125 714.15625 C 171.94033 719.80075 167.92443 726.9855 166.375 734.1875 C 167.36154 733.93224 168.36099 733.64469 169.375 733.28125 C 172.53612 732.14825 175.79079 730.47224 178.96875 728.34375 C 180.3859 725.4081 182.38714 722.48347 185.03125 719.78125 C 187.81308 717.42316 190.42414 715.84513 192.875 714.90625 C 194.8042 712.08613 195.94981 709.21981 196.4375 706.1875 z M 211.125 715.6875 C 210.81272 716.54977 210.49095 717.41764 210.125 718.28125 C 211.19814 719.05768 212.25939 719.92294 213.3125 720.8125 C 212.95208 719.803 212.65262 719.02311 212.25 717.84375 C 211.96679 717.14465 211.55193 716.40951 211.125 715.6875 z M 227.09375 723.75 C 227.28785 727.36937 226.97046 731.02128 225.96875 734.71875 C 227.22663 736.87089 229.40387 740.53628 230.03125 742.8125 C 231.55628 747.63478 231.17283 752.03961 228.09375 755.9375 C 224.64493 760.30343 220.29151 763.40167 216.09375 764.90625 C 211.89596 766.41081 207.75297 766.33591 204.875 764.0625 C 203.95394 763.33492 202.95429 761.70807 202.5625 761.0625 C 200.85662 761.89642 199.1429 762.6123 197.40625 763.15625 C 197.07157 763.2342 196.73819 763.28078 196.40625 763.34375 C 197.32477 765.91992 198.63381 767.87696 200.90625 769.6875 C 206.15447 772.46166 211.35621 772.80839 216.53125 771.1875 C 221.71814 769.56287 226.86752 765.89575 231.71875 760.5625 C 237.17444 752.6945 237.61532 745.33103 235.28125 737.96875 C 234.03667 734.04306 229.99676 728.05352 227.09375 723.75 z M 214.25 732.4375 C 210.64253 733.08448 206.99682 734.81585 203.4375 737.8125 C 199.50389 741.2969 196.8495 745.60404 195.5 750.03125 C 200.91597 748.05799 206.67147 743.95231 211.25 738.15625 C 212.72025 736.29502 213.69939 734.40626 214.25 732.4375 z M 225.34375 736.6875 C 225.01374 737.65369 224.63382 738.6245 224.21875 739.59375 C 225.5945 740.40772 226.92516 741.422 228.25 742.53125 C 228.02026 741.8889 227.83208 741.32089 227.5625 740.53125 C 227.20898 739.6586 226.09143 737.90131 225.34375 736.6875 z M 237.875 742.40625 C 238.26822 745.20257 238.23338 748.04044 237.65625 750.90625 C 238.58235 752.47475 241.17012 756.44336 241.625 758.09375 C 242.70777 761.51757 242.43617 764.63873 240.25 767.40625 C 237.80134 770.50606 234.73041 772.71299 231.75 773.78125 C 228.76957 774.84949 225.82462 774.80162 223.78125 773.1875 C 223.11972 772.66494 222.12027 771.20119 221.75 770.65625 C 220.4087 771.38026 219.05732 771.99478 217.6875 772.46875 C 218.34261 774.39853 219.26573 775.82428 220.9375 777.15625 C 224.66375 779.1259 228.38822 779.40083 232.0625 778.25 C 235.74519 777.09654 239.39938 774.47411 242.84375 770.6875 C 246.71728 765.10122 247.00094 759.88347 245.34375 754.65625 C 244.46054 751.87037 240.20605 745.81262 237.875 742.40625 z M 228.8125 751.34375 C 226.78932 751.96826 224.77361 753.0726 222.78125 754.75 C 220.22438 757.01488 218.42977 759.79042 217.40625 762.65625 C 220.71469 761.0828 224.08095 758.46622 226.84375 754.96875 C 227.7756 753.7891 228.43527 752.58102 228.84375 751.34375 C 228.83421 751.34667 228.82204 751.3408 228.8125 751.34375 z M 237.28125 752.40625 C 237.0239 753.38994 236.74091 754.38341 236.34375 755.375 C 237.77518 756.02335 239.12755 757.0204 240.46875 758.15625 C 240.23726 757.50456 240.10372 757.13875 239.875 756.46875 C 239.60613 755.80507 238.02394 753.5436 237.28125 752.40625 z M 247.15625 757.65625 C 247.44725 759.64241 247.45604 761.65229 247.0625 763.6875 C 247.77928 764.88517 249.71628 767.85727 250.03125 769 C 250.80002 771.43091 250.58342 773.66011 249.03125 775.625 C 247.2927 777.82587 245.11608 779.3978 243 780.15625 C 240.8839 780.9147 238.79452 780.86477 237.34375 779.71875 C 236.92103 779.38483 236.27352 778.37156 235.90625 777.78125 C 234.93784 778.31066 233.958 778.74675 232.96875 779.09375 C 233.44846 780.42207 234.20054 781.65166 235.34375 782.5625 C 237.98938 783.96094 240.61001 784.12959 243.21875 783.3125 C 245.83346 782.49355 248.4295 780.65725 250.875 777.96875 C 253.62521 774.00248 253.83285 770.27383 252.65625 766.5625 C 252.0282 764.58152 248.84277 760.10571 247.15625 757.65625 z M 240.75 764.1875 C 239.36843 764.63745 237.98127 765.38938 236.625 766.53125 C 234.81612 768.13356 233.57097 770.07276 232.84375 772.09375 C 235.13609 770.96781 237.46209 769.14036 239.375 766.71875 C 240.02864 765.89129 240.45926 765.05466 240.75 764.1875 z M 246.8125 764.75 C 246.63076 765.46549 246.40996 766.18381 246.125 766.90625 C 247.16646 767.35223 248.15509 768.05887 249.125 768.875 C 249.00919 768.55119 248.91715 768.27306 248.78125 767.875 C 248.59479 767.41473 247.4112 765.66546 246.8125 764.75 z M 254.125 770.9375 C 254.09127 772.39138 253.78273 773.85762 253.1875 775.34375 C 253.66625 776.09317 254.08441 776.77571 254.46875 777.96875 C 255.00626 779.63729 254.8585 781.08207 253.8125 782.40625 C 251.42919 785.42331 247.83943 786.67176 246 785.21875 C 245.4673 784.79795 245.09906 784.20398 244.90625 783.5 C 244.42461 783.71663 243.95715 783.90953 243.46875 784.0625 C 243.06177 784.15729 242.65073 784.24648 242.25 784.3125 C 242.53869 785.62211 243.16695 786.8007 244.25 787.65625 C 248.10519 789.70977 252.04032 788.21897 255.53125 784.375 C 258.81648 779.65413 257.14401 775.2584 254.125 770.9375 z M 254.46875 777.96875 L 253.15625 775.40625 C 252.99567 775.80143 252.83024 776.19665 252.625 776.59375 C 253.25294 776.96121 253.87104 777.44421 254.46875 777.96875 z M 249.0625 774.125 C 247.78866 774.35802 246.50769 774.94114 245.25 776 C 244.14286 776.98071 243.34655 778.15064 242.8125 779.375 C 244.7453 778.66601 246.77294 777.19261 248.40625 775.125 C 248.66981 774.79135 248.88376 774.46593 249.0625 774.125 z "
       id="path3372" />
    <path
       sodipodi:nodetypes="cscscsscscccccscsssscscccssss"
       style="opacity:0.8;fill:#4d4d4d;fill-opacity:1;fill-rule:nonzero;stroke:none;stroke-width:5.44199324;stroke-linecap:round;stroke-linejoin:miter;stroke-miterlimit:4;stroke-dasharray:none;stroke-dashoffset:0;stroke-opacity:1"
       d="M -322.28482,616.12976 C -322.28482,616.12976 -318.31206,614.70225 -318.31206,614.70225 C -315.75827,622.65605 -311.25655,629.29454 -304.50922,634.6704 C -290.0494,642.31372 -275.66803,643.29491 -261.40985,638.82903 C -247.11899,634.35291 -232.95097,624.26175 -219.58494,609.56768 C -204.55354,587.88985 -203.37998,567.56054 -209.8108,547.27611 C -213.58886,535.35917 -219.86377,523.67148 -227.82437,511.82905 C -227.82437,511.82905 -225.69695,507.34433 -225.69695,507.34433 C -217.02698,520.00731 -209.85724,532.83393 -205.69312,545.96861 C -198.94313,567.25977 -200.33436,589.48529 -216.13069,612.18456 L -216.21768,612.29468 L -216.30467,612.40479 C -230.05414,627.54469 -244.79084,638.17644 -260.09946,642.97135 C -276.50633,646.79269 -291.93813,646.62829 -307.07104,638.16815 C -314.60549,632.2164 -319.47734,624.90561 -322.28482,616.12976 z M -296.77336,608.31699 C -296.77336,608.31699 -300.62068,610.23993 -300.62068,610.23993 C -300.62068,610.23993 -296.59563,616.73468 -293.51514,619.16807 C -285.58579,625.43177 -274.18069,625.68163 -262.61502,621.53629 C -251.04935,617.39094 -239.10494,608.80993 -229.60282,596.78102 C -221.11935,586.04161 -220.02422,573.94346 -224.22593,560.65721 C -226.03019,554.11108 -228.70532,548.47117 -232.07069,542.68956 C -232.07069,542.68956 -234.90864,546.31268 -234.90864,546.31268 C -233.53305,548.76861 -232.28089,551.31284 -231.05009,554.35105 C -229.98104,557.4825 -229.64869,558.30152 -228.25963,562.25458 C -224.43989,574.51614 -225.4217,584.49834 -233.01358,594.10908 C -242.04087,605.53689 -253.39967,613.63707 -264.06745,617.46059 C -274.73522,621.28411 -284.46871,620.81513 -290.84033,615.78195 C -293.31949,613.82356 -296.77336,608.31699 -296.77336,608.31699 z"
       id="path3907" />
    <path
       sodipodi:nodetypes="cscscsscscccccscsssscscccssss"
       style="opacity:0.8;fill:#4d4d4d;fill-opacity:1;fill-rule:nonzero;stroke:none;stroke-width:5.44199324;stroke-linecap:round;stroke-linejoin:miter;stroke-miterlimit:4;stroke-dasharray:none;stroke-dashoffset:0;stroke-opacity:1"
       d="M -244.15982,685.12908 C -244.15982,685.12908 -241.29943,684.10127 -241.29943,684.10127 C -239.4607,689.828 -237.59447,691.79522 -232.73639,695.66584 C -222.32532,701.16903 -211.97073,701.87548 -201.70484,698.66005 C -191.41542,695.43724 -181.21445,688.17161 -171.59091,677.59188 C -160.7683,661.98384 -159.92334,647.34674 -164.55353,632.74195 C -167.27373,624.16175 -178.32291,607.12161 -184.05455,598.59506 C -184.05455,598.59506 -182.5228,595.36607 -182.5228,595.36607 C -176.28043,604.48341 -164.58696,622.34358 -161.5888,631.80055 C -156.7288,647.13018 -157.73049,663.13256 -169.10385,679.47603 L -169.16648,679.55532 L -169.22911,679.6346 C -179.12873,690.53533 -189.73915,698.19019 -200.76136,701.64252 C -212.57431,704.39389 -223.6852,704.27552 -234.5809,698.18422 C -240.0057,693.89896 -242.13843,691.44769 -244.15982,685.12908 z M -226.22907,678.12888 C -226.22907,678.12888 -228.99914,679.5134 -228.99914,679.5134 C -228.99914,679.5134 -227.0386,682.75212 -224.82065,684.50416 C -219.11152,689.01402 -210.89985,689.19392 -202.57256,686.20928 C -194.24528,683.22463 -185.64531,677.0463 -178.80378,668.38548 C -172.69568,660.65311 -171.90719,651.94244 -174.93242,642.37634 C -176.23149,637.66313 -181.03258,629.32114 -183.45565,625.15838 C -183.45565,625.15838 -185.49897,627.76703 -185.49897,627.76703 C -184.50855,629.5353 -180.73199,635.64839 -179.84581,637.8359 C -179.0761,640.09055 -178.83681,640.68024 -177.83668,643.52645 C -175.08647,652.35477 -175.79337,659.54195 -181.25953,666.46169 C -187.75918,674.68971 -195.93751,680.52184 -203.61831,683.27477 C -211.29911,686.02771 -218.30722,685.69004 -222.89479,682.06615 C -224.67978,680.65611 -226.22907,678.12888 -226.22907,678.12888 z"
       id="path3912" />
    <path
       sodipodi:nodetypes="cscscsscscccccscsssscscccssss"
       style="opacity:0.8;fill:#4d4d4d;fill-opacity:1;fill-rule:nonzero;stroke:none;stroke-width:5.44199324;stroke-linecap:round;stroke-linejoin:miter;stroke-miterlimit:4;stroke-dasharray:none;stroke-dashoffset:0;stroke-opacity:1"
       d="M -185.90255,730.91238 C -185.90255,730.91238 -183.87167,730.18263 -183.87167,730.18263 C -182.56617,734.24861 -181.24115,735.64534 -177.79191,738.39348 C -170.40005,742.30074 -163.0483,742.80232 -155.75951,740.51937 C -148.45403,738.23117 -141.21134,733.07258 -134.37862,725.56097 C -126.69457,714.47926 -126.09465,704.08692 -129.38208,693.71752 C -131.31343,687.62558 -136.28334,680.46458 -140.35281,674.41073 C -140.35281,674.41073 -139.26527,672.11814 -139.26527,672.11814 C -134.83318,678.59145 -129.40582,686.33468 -127.27713,693.04912 C -123.82653,703.93316 -124.53773,715.29485 -132.61281,726.89871 L -132.65728,726.95501 L -132.70175,727.0113 C -139.73048,734.75082 -147.26387,740.18577 -155.08964,742.63692 C -163.47684,744.5904 -171.36557,744.50635 -179.10152,740.18153 C -182.95312,737.13899 -184.46736,735.39859 -185.90255,730.91238 z M -173.17172,725.94224 C -173.17172,725.94224 -175.13847,726.92525 -175.13847,726.92525 C -175.13847,726.92525 -173.74648,729.22474 -172.17174,730.46869 C -168.11826,733.67069 -162.28797,733.79842 -156.37559,731.67932 C -150.46323,729.56022 -144.35725,725.17361 -139.49976,719.02442 C -135.16301,713.53444 -134.60318,707.34987 -136.7511,700.55793 C -137.67344,697.21156 -139.64471,693.85124 -141.36509,690.89568 C -141.36509,690.89568 -142.81585,692.74782 -142.81585,692.74782 C -142.11265,694.0033 -140.86879,695.78109 -140.2396,697.33422 C -139.69311,698.93502 -139.52321,699.3537 -138.81312,701.37451 C -136.86047,707.64262 -137.36237,712.74552 -141.24334,717.65853 C -145.8581,723.50043 -151.66471,727.64124 -157.11808,729.59582 C -162.57145,731.55041 -167.5472,731.31066 -170.80438,728.7377 C -172.07172,727.73657 -173.17172,725.94224 -173.17172,725.94224 z"
       id="path3921" />
    <path
       sodipodi:nodetypes="cscscsscscccccscsssscscccssss"
       style="opacity:0.8;fill:#4d4d4d;fill-opacity:1;fill-rule:nonzero;stroke:none;stroke-width:5.44199324;stroke-linecap:round;stroke-linejoin:miter;stroke-miterlimit:4;stroke-dasharray:none;stroke-dashoffset:0;stroke-opacity:1"
       d="M -140.0732,762.02405 C -140.0732,762.02405 -138.63127,761.50593 -138.63127,761.50593 C -137.70437,764.39278 -136.36585,766.48931 -133.91689,768.44049 C -128.66866,771.21464 -123.44892,771.57076 -118.27388,769.94987 C -113.08699,768.32525 -107.94468,764.66265 -103.09345,759.3294 C -97.637771,751.46139 -97.211831,744.08283 -99.545901,736.72055 C -100.91716,732.39528 -105.72743,725.45481 -108.61675,721.15657 C -108.61675,721.15657 -107.8446,719.52883 -107.8446,719.52883 C -104.69781,724.12488 -99.562761,731.47874 -98.051391,736.24599 C -95.601461,743.97366 -96.106411,752.04046 -101.83972,760.2792 L -101.87129,760.31917 L -101.90287,760.35914 C -106.89327,765.8542 -112.24197,769.71301 -117.79827,771.45333 C -123.75318,772.8403 -129.35418,772.78062 -134.84671,769.71 C -137.58135,767.5498 -139.05421,765.20926 -140.0732,762.02405 z M -131.16689,758.62783 C -131.16689,758.62783 -132.56328,759.32577 -132.56328,759.32577 C -132.56328,759.32577 -131.04464,761.93068 -129.92656,762.81388 C -127.04859,765.0873 -122.90908,765.17799 -118.71129,763.67343 C -114.51352,762.16887 -110.17827,759.05438 -106.72945,754.68845 C -103.65036,750.79057 -103.25288,746.39952 -104.77791,741.57724 C -105.43277,739.20132 -107.80464,735.26869 -109.02611,733.17025 C -109.02611,733.17025 -110.05615,734.48527 -110.05615,734.48527 C -109.55688,735.37666 -107.70147,738.18569 -107.25474,739.28841 C -106.86673,740.42498 -106.7461,740.72224 -106.24194,742.15702 C -104.85556,746.60737 -105.21191,750.23043 -107.9674,753.71867 C -111.24388,757.86642 -115.36657,760.80639 -119.23846,762.19415 C -123.11035,763.58191 -126.64314,763.41168 -128.95573,761.58488 C -129.85555,760.87408 -131.16689,758.62783 -131.16689,758.62783 z"
       id="path3926" />
    <path
       sodipodi:nodetypes="cscscsscscccccscsssscscccssss"
       style="opacity:0.8;fill:#4d4d4d;fill-opacity:1;fill-rule:nonzero;stroke:none;stroke-width:5.44199324;stroke-linecap:round;stroke-linejoin:miter;stroke-miterlimit:4;stroke-dasharray:none;stroke-dashoffset:0;stroke-opacity:1"
       d="M -104.05364,783.91985 C -104.05364,783.91985 -103.02987,783.55199 -103.02987,783.55199 C -102.37177,785.60165 -101.42142,787.09019 -99.682657,788.47553 C -95.956407,790.44517 -92.250397,790.69802 -88.576117,789.54719 C -84.893427,788.39371 -81.242387,785.79326 -77.798017,782.00665 C -73.924477,776.42037 -73.622067,771.18159 -75.279257,765.95437 C -76.252847,762.88343 -81.435907,755.65759 -83.487327,752.60584 C -83.487327,752.60584 -82.939097,751.45015 -82.939097,751.45015 C -80.704877,754.71334 -75.291227,762.23268 -74.218147,765.61743 C -72.478697,771.10408 -72.837217,776.83151 -76.907867,782.68101 L -76.930277,782.70939 L -76.952697,782.73777 C -80.495887,786.63926 -84.293467,789.37902 -88.238437,790.61464 C -92.466417,791.59939 -96.443127,791.55702 -100.34283,789.37688 C -102.28442,787.84314 -103.33015,786.18135 -104.05364,783.91985 z M -98.172097,781.0666 C -98.172097,781.0666 -99.163527,781.56214 -99.163527,781.56214 C -99.163527,781.56214 -97.643357,783.85356 -96.849517,784.48063 C -94.806157,786.09476 -91.867107,786.15915 -88.886677,785.09091 C -85.906267,784.02268 -82.828237,781.81139 -80.379577,778.71158 C -78.193417,775.94408 -77.911207,772.82644 -78.993977,769.40262 C -79.458927,767.71572 -82.203617,763.55353 -83.070857,762.06364 C -83.070857,762.06364 -83.802187,762.9973 -83.802187,762.9973 C -83.447707,763.63019 -81.069707,766.99462 -80.752527,767.77755 C -80.477037,768.58451 -80.391397,768.79557 -80.033437,769.81426 C -79.049107,772.97401 -79.302117,775.54638 -81.258517,778.02303 C -83.584817,780.96794 -86.511927,783.05532 -89.260967,784.04063 C -92.010007,785.02594 -94.518287,784.90507 -96.160227,783.60804 C -96.799097,783.10338 -98.172097,781.0666 -98.172097,781.0666 z"
       id="path3932" />
    <path
       sodipodi:nodetypes="cscscsscscccccscsssscscccssss"
       style="opacity:0.8;fill:#4d4d4d;fill-opacity:1;fill-rule:nonzero;stroke:none;stroke-width:5.44199324;stroke-linecap:round;stroke-linejoin:miter;stroke-miterlimit:4;stroke-dasharray:none;stroke-dashoffset:0;stroke-opacity:1"
       d="M -77.024607,802.6137 C -77.024607,802.6137 -76.297727,802.35251 -76.297727,802.35251 C -75.830477,803.80777 -75.023147,805.12981 -73.788627,806.1134 C -71.142997,807.51184 -68.511727,807.69137 -65.902987,806.87428 C -63.288277,806.05531 -60.696037,804.20899 -58.250537,801.52049 C -55.500327,797.55423 -55.285617,793.8347 -56.462217,790.12337 C -57.153467,787.94301 -61.054407,782.59169 -62.510917,780.42495 C -62.510917,780.42495 -62.121677,779.60441 -62.121677,779.60441 C -60.535377,781.92127 -56.470717,787.48097 -55.708827,789.88415 C -54.473817,793.77967 -54.728367,797.84614 -57.618527,801.99929 L -57.634437,802.01944 L -57.650357,802.03959 C -60.166027,804.80965 -62.862307,806.75488 -65.663237,807.63217 C -68.665097,808.33134 -71.488567,808.30126 -74.257347,806.75336 C -75.635877,805.6644 -76.510927,804.21936 -77.024607,802.6137 z M -72.848717,800.45531 C -72.848717,800.45531 -73.552627,800.80714 -73.552627,800.80714 C -73.552627,800.80714 -72.340727,802.8318 -71.777097,803.27702 C -70.326317,804.42305 -68.239587,804.46877 -66.123487,803.71032 C -64.007397,802.95187 -61.821997,801.38186 -60.083447,799.18099 C -58.531267,797.21607 -58.330897,795.00254 -59.099667,792.57163 C -59.429787,791.37393 -61.599487,788.06523 -62.215227,787.00741 C -62.215227,787.00741 -62.734467,787.6703 -62.734467,787.6703 C -62.482787,788.11966 -60.573437,790.86195 -60.348237,791.41783 C -60.152637,791.99077 -60.091837,792.14063 -59.837687,792.8639 C -59.138807,795.10732 -59.318447,796.9337 -60.707487,798.69212 C -62.359167,800.78301 -64.437417,802.26505 -66.389227,802.96462 C -68.341047,803.66419 -70.121927,803.57837 -71.287707,802.65748 C -71.741307,802.29917 -72.848717,800.45531 -72.848717,800.45531 z"
       id="path3937" />
    <path
       id="path3940"
       d="M -8.6329094,-156.04591 L -29.664159,-138.38966 C -18.173879,-122.77812 -7.9694194,-108.56116 0.39834059,-95.452164 C 0.41117059,-95.442204 0.41693059,-95.462354 0.42959059,-95.452164 C 0.61725059,-95.239124 0.77773059,-94.990424 0.89834059,-94.733414 C 0.91131059,-94.713074 0.88540059,-94.691184 0.89834059,-94.670914 C 9.4015306,-81.335014 14.555121,-74.223104 20.335841,-56.389664 C 20.351861,-56.357064 20.383511,-56.329074 20.398341,-56.295914 C 20.422661,-56.220714 20.436511,-56.152744 20.460841,-56.077164 C 20.506241,-55.956904 20.524981,-55.858514 20.554591,-55.733414 C 20.561591,-55.711334 20.547621,-55.661744 20.554591,-55.639664 C 26.390291,-37.186544 24.868451,-20.399244 13.085841,-5.4834145 C -0.11154941,11.223416 -16.694469,23.134166 -32.757909,28.891586 C -48.821339,34.649006 -64.651158,34.309906 -75.664159,25.610336 C -86.565019,16.999296 -91.445329,2.2857955 -89.882909,-13.827164 C -88.320489,-29.940134 -80.370528,-47.636484 -65.445409,-62.889664 L -65.351659,-62.983414 L -65.257909,-63.108414 C -53.784609,-72.834084 -43.17579,-78.054314 -33.164159,-79.639664 C -16.408839,-82.292864 -2.1981194,-74.693564 11.085841,-64.295914 C 6.9616806,-74.476334 2.6713106,-80.784004 -3.7891594,-90.889664 C -28.151069,-99.687424 -54.176428,-95.547204 -79.789159,-73.983414 C -99.998029,-56.082294 -111.32366,-32.366954 -113.25791,-9.8584145 C -115.18488,12.565276 -107.89383,33.638126 -90.945409,47.141586 C -70.862329,57.757296 -50.87344,59.125446 -31.070409,52.922836 C -11.221989,46.705996 8.4594206,32.674996 27.023341,12.266586 C 47.900291,-17.841514 49.517541,-46.060574 40.585841,-74.233414 C 31.896451,-101.64193 12.855711,-128.84515 -8.6329094,-156.04591 z M 14.710841,-53.639664 C 14.819551,-53.492494 14.914911,-53.348894 15.023341,-53.202164 C 15.000621,-53.275784 14.983811,-53.347174 14.960841,-53.420914 C 14.876441,-53.494504 14.795221,-53.566284 14.710841,-53.639664 z M 51.554591,-41.514664 C 51.372841,-31.785044 49.725501,-21.968374 46.273341,-12.045914 C 49.245431,-6.7691345 51.653171,-1.5375245 53.304591,4.4540855 C 57.506301,17.740336 56.413071,29.839666 47.929591,40.579086 C 38.427471,52.607996 26.464011,61.183746 14.898341,65.329086 C 3.3326706,69.474426 -8.0472994,69.249046 -15.976659,62.985336 C -18.018605,61.372326 -20.39583,58.092856 -21.820409,55.985336 C -24.287276,56.988716 -26.769036,57.893276 -29.257909,58.672836 C -32.746321,59.765466 -36.26442,60.621926 -39.789159,61.266586 C -37.127504,68.006856 -32.926547,73.744826 -26.976659,78.485336 C -12.516839,86.128686 1.8589106,87.107466 16.117091,82.641586 C 30.407951,78.165486 44.563561,68.054406 57.929591,53.360336 C 72.960991,31.682536 74.141661,11.363516 67.710841,-8.9209145 C 64.234511,-19.886094 58.626911,-30.638504 51.554591,-41.514664 z M 16.710841,-25.514664 C 4.4454306,-25.089204 -8.1285594,-20.122944 -20.320409,-9.8584145 C -31.679672,0.20366553 -39.198191,12.767686 -42.757909,25.579086 C -40.15115,25.008696 -37.472523,24.208306 -34.757909,23.235336 C -28.920365,21.143056 -22.949176,18.122336 -17.070409,14.266586 C -14.495689,9.7678455 -11.211469,5.3410355 -7.1329094,1.1728355 C -1.9787094,-3.1962645 2.8331306,-6.1839345 7.3983406,-8.0459145 C 7.7135406,-8.4342445 8.0558206,-8.8081245 8.3670906,-9.2021645 C 12.553051,-14.501264 15.261471,-19.887154 16.710841,-25.514664 z M 44.273341,-6.7021645 C 43.594851,-5.0521745 42.865001,-3.3854145 42.085841,-1.7334145 C 44.149411,-0.23063447 46.182871,1.3981755 48.210841,3.1103355 C 47.639841,1.5159355 47.160271,0.19036553 46.460841,-1.8584145 C 45.746181,-3.6225345 45.022381,-5.1917145 44.273341,-6.7021645 z M 74.460841,0.51658553 C 75.974351,8.9721255 76.110051,17.544946 74.429591,26.235336 C 76.934151,30.549966 81.342961,38.288496 82.585841,42.797836 C 85.611071,52.363936 84.818951,61.065446 78.710841,68.797836 C 71.869311,77.458656 63.288121,83.656926 54.960841,86.641586 C 46.633551,89.626226 38.419971,89.432706 32.710841,84.922836 C 31.547591,84.003936 30.455521,82.696646 29.679591,81.641586 C 25.641891,83.756956 21.559911,85.472896 17.429591,86.766586 C 17.313271,86.793676 17.201451,86.832986 17.085841,86.860336 C 18.711661,90.870676 20.647501,92.791866 24.773341,96.079086 C 35.184411,101.58229 45.538701,102.29452 55.804591,99.079086 C 66.094001,95.856296 76.306051,88.596316 85.929591,78.016586 C 96.752201,62.408566 97.591031,47.777626 92.960841,33.172836 C 90.383811,25.044236 80.385281,9.3988255 74.460841,0.51658553 z M 51.242091,22.454086 C 44.140171,23.732396 36.969891,27.178036 29.960841,33.079086 C 20.977151,41.036886 15.346971,51.205876 13.210841,61.360336 C 13.295221,61.330586 13.376341,61.296876 13.460841,61.266586 C 19.667751,59.041926 26.100171,55.356156 32.179591,50.422836 C 34.038571,47.163426 36.448801,43.968456 39.398341,40.954086 C 41.545281,39.134186 43.594851,37.666706 45.585841,36.485336 C 48.830291,31.974036 50.661791,27.363746 51.242091,22.454086 z M 73.429591,30.610336 C 72.881031,32.678086 72.216981,34.749706 71.460841,36.829086 C 74.096141,38.441896 76.641661,40.428496 79.179591,42.579086 C 78.644221,41.078076 78.262521,39.974126 77.679591,38.266586 C 77.011601,36.617686 74.950941,33.178046 73.429591,30.610336 z M 98.679591,48.329086 C 98.765481,53.307616 98.092071,58.343586 96.554591,63.422836 C 98.014981,65.969626 99.511631,68.721746 100.27334,71.485336 C 102.42126,78.277276 101.86009,84.464106 97.523341,89.954086 C 92.665851,96.103276 86.560701,100.49124 80.648341,102.61034 C 74.735961,104.72944 68.889331,104.59359 64.835841,101.39159 C 64.183981,100.87666 63.589301,100.21778 63.085841,99.579086 C 60.995751,100.55688 58.896701,101.41402 56.773341,102.07909 C 55.750281,102.31737 54.725511,102.51476 53.710841,102.70409 C 54.870751,105.5999 56.257291,106.97589 59.210841,109.32909 C 66.602701,113.23633 73.953301,113.73704 81.242091,111.45409 C 88.547571,109.16591 95.815621,103.99695 102.64834,96.485336 C 110.33239,85.403616 110.93577,75.010986 107.64834,64.641586 C 106.02418,59.518606 102.25886,53.669906 98.679591,48.329086 z M 80.960841,56.610336 C 74.939611,56.994376 68.811361,59.548176 62.835841,64.579086 C 56.463671,70.223586 52.447771,77.408336 50.898341,84.610336 C 51.884881,84.355076 52.884331,84.067526 53.898341,83.704086 C 57.059461,82.571086 60.314131,80.895076 63.492091,78.766586 C 64.909241,75.830936 66.910481,72.906306 69.554591,70.204086 C 72.336421,67.845996 74.947481,66.267966 77.398341,65.329086 C 79.327541,62.508966 80.473151,59.642646 80.960841,56.610336 z M 95.648341,66.110336 C 95.336061,66.972606 95.014291,67.840476 94.648341,68.704086 C 95.721481,69.480516 96.782731,70.345776 97.835841,71.235336 C 97.475421,70.225836 97.175961,69.445946 96.773341,68.266586 C 96.490131,67.567486 96.075271,66.832346 95.648341,66.110336 z M 111.61709,74.172836 C 111.81119,77.792206 111.4938,81.444116 110.49209,85.141586 C 111.74997,87.293726 113.92721,90.959116 114.55459,93.235336 C 116.07962,98.057616 115.69617,102.46245 112.61709,106.36034 C 109.16827,110.72627 104.81485,113.82451 100.61709,115.32909 C 96.419301,116.83365 92.276311,116.75875 89.398341,114.48534 C 88.477281,113.75776 87.477631,112.13091 87.085841,111.48534 C 85.379961,112.31926 83.666241,113.03514 81.929591,113.57909 C 81.594911,113.65704 81.261531,113.70362 80.929591,113.76659 C 81.848111,116.34276 83.157151,118.2998 85.429591,120.11034 C 90.677811,122.8845 95.879551,123.23123 101.05459,121.61034 C 106.24148,119.98571 111.39086,116.31859 116.24209,110.98534 C 121.69778,103.11734 122.13866,95.753866 119.80459,88.391586 C 118.56001,84.465896 114.5201,78.476356 111.61709,74.172836 z M 98.773341,82.860336 C 95.165871,83.507316 91.520161,85.238686 87.960841,88.235336 C 84.027231,91.719736 81.372841,96.026876 80.023341,100.45409 C 85.439311,98.480826 91.194811,94.375146 95.773341,88.579086 C 97.243591,86.717856 98.222731,84.829096 98.773341,82.860336 z M 109.86709,87.110336 C 109.53708,88.076526 109.15716,89.047336 108.74209,90.016586 C 110.11784,90.830556 111.4485,91.844836 112.77334,92.954086 C 112.5436,92.311736 112.35542,91.743726 112.08584,90.954086 C 111.73232,90.081436 110.61477,88.324146 109.86709,87.110336 z M 122.39834,92.829086 C 122.79156,95.625406 122.75672,98.463276 122.17959,101.32909 C 123.10569,102.89759 125.69346,106.8662 126.14834,108.51659 C 127.23111,111.94041 126.95951,115.06157 124.77334,117.82909 C 122.32468,120.9289 119.25375,123.13583 116.27334,124.20409 C 113.29291,125.27233 110.34796,125.22446 108.30459,123.61034 C 107.64306,123.08778 106.64361,121.62403 106.27334,121.07909 C 104.93204,121.8031 103.58066,122.41762 102.21084,122.89159 C 102.86595,124.82137 103.78907,126.24712 105.46084,127.57909 C 109.18709,129.54874 112.91156,129.82367 116.58584,128.67284 C 120.26853,127.51938 123.92272,124.89695 127.36709,121.11034 C 131.24062,115.52406 131.52428,110.30631 129.86709,105.07909 C 128.98388,102.29321 124.72939,96.235456 122.39834,92.829086 z M 113.33584,101.76659 C 111.31266,102.3911 109.29695,103.49544 107.30459,105.17284 C 104.74772,107.43772 102.95311,110.21326 101.92959,113.07909 C 105.23803,111.50564 108.60429,108.88906 111.36709,105.39159 C 112.29894,104.21194 112.95861,103.00386 113.36709,101.76659 C 113.35755,101.76951 113.34538,101.76364 113.33584,101.76659 z M 121.80459,102.82909 C 121.54724,103.81278 121.26425,104.80625 120.86709,105.79784 C 122.29852,106.44619 123.65089,107.44324 124.99209,108.57909 C 124.7606,107.9274 124.62706,107.56159 124.39834,106.89159 C 124.12947,106.22791 122.54728,103.96644 121.80459,102.82909 z M 131.67959,108.07909 C 131.97059,110.06525 131.97938,112.07513 131.58584,114.11034 C 132.30262,115.30801 134.23962,118.28011 134.55459,119.42284 C 135.32336,121.85375 135.10676,124.08295 133.55459,126.04784 C 131.81604,128.24871 129.63942,129.82064 127.52334,130.57909 C 125.40724,131.33754 123.31786,131.28761 121.86709,130.14159 C 121.44437,129.80767 120.79686,128.7944 120.42959,128.20409 C 119.46118,128.7335 118.48134,129.16959 117.49209,129.51659 C 117.9718,130.84491 118.72388,132.0745 119.86709,132.98534 C 122.51272,134.38378 125.13335,134.55243 127.74209,133.73534 C 130.3568,132.91639 132.95284,131.08009 135.39834,128.39159 C 138.14855,124.42532 138.35619,120.69667 137.17959,116.98534 C 136.55154,115.00436 133.36611,110.52855 131.67959,108.07909 z M 125.27334,114.61034 C 123.89177,115.06029 122.50461,115.81222 121.14834,116.95409 C 119.33946,118.5564 118.09431,120.4956 117.36709,122.51659 C 119.65943,121.39065 121.98543,119.5632 123.89834,117.14159 C 124.55198,116.31413 124.9826,115.4775 125.27334,114.61034 z M 131.33584,115.17284 C 131.1541,115.88833 130.9333,116.60665 130.64834,117.32909 C 131.6898,117.77507 132.67843,118.48171 133.64834,119.29784 C 133.53253,118.97403 133.44049,118.6959 133.30459,118.29784 C 133.11813,117.83757 131.93454,116.0883 131.33584,115.17284 z M 138.64834,121.36034 C 138.61461,122.81422 138.30607,124.28046 137.71084,125.76659 C 138.18959,126.51601 138.60775,127.19855 138.99209,128.39159 C 139.5296,130.06013 139.38184,131.50491 138.33584,132.82909 C 135.95253,135.84615 132.36277,137.0946 130.52334,135.64159 C 129.99064,135.22079 129.6224,134.62682 129.42959,133.92284 C 128.94795,134.13947 128.48049,134.33237 127.99209,134.48534 C 127.58511,134.58013 127.17407,134.66932 126.77334,134.73534 C 127.06203,136.04495 127.69029,137.22354 128.77334,138.07909 C 132.62853,140.13261 136.56366,138.64181 140.05459,134.79784 C 143.33982,130.07697 141.66735,125.68124 138.64834,121.36034 z M 138.99209,128.39159 L 137.67959,125.82909 C 137.51901,126.22427 137.35358,126.61949 137.14834,127.01659 C 137.77628,127.38405 138.39438,127.86705 138.99209,128.39159 z M 133.58584,124.54784 C 132.312,124.78086 131.03103,125.36398 129.77334,126.42284 C 128.6662,127.40355 127.86989,128.57348 127.33584,129.79784 C 129.26864,129.08885 131.29628,127.61545 132.92959,125.54784 C 133.19315,125.21419 133.4071,124.88877 133.58584,124.54784 z"
       style="fill:#00cc00;fill-opacity:1;fill-rule:nonzero;stroke:none;stroke-width:6;stroke-linecap:round;stroke-linejoin:miter;stroke-miterlimit:4;stroke-dasharray:none;stroke-dashoffset:0;stroke-opacity:1" />
    <g
       id="g4213"
       transform="translate(-225.07821,5.9827559)">
      <path
         style="opacity:0.8;fill:#ffffff;fill-rule:evenodd;stroke:none;stroke-width:1px;stroke-linecap:butt;stroke-linejoin:miter;stroke-opacity:1"
         d="M 139.96793,137.75305 L 141.73386,134.96567 L -82.710678,-105.51681 L -121.46551,-61.075685 L 139.96793,137.75305 z"
         id="path4215"
         sodipodi:nodetypes="ccccc" />
      <path
         style="opacity:0.8;fill:#cccccc;fill-rule:evenodd;stroke:none;stroke-width:1px;stroke-linecap:butt;stroke-linejoin:miter;stroke-opacity:1"
         d="M 132.35938,132.15626 C 134.25001,131.26562 136.125,128.75 136.125,128.75 L 133.03125,125.34375 C 133.03125,125.34375 131.04688,127.96875 128.625,129.1875 L 132.35938,132.15626 z"
         id="path4217"
         sodipodi:nodetypes="ccccc" />
      <path
         sodipodi:nodetypes="ccccc"
         id="path4219"
         d="M 7.8593801,39.406255 C 22.00001,28.765615 31.75,15.874995 31.75,15.874995 L 9.0312501,-9.7812551 C 9.0312501,-9.7812551 -3.9531199,2.968745 -21.125,16.687495 L 7.8593801,39.406255 z"
         style="opacity:0.8;fill:#cccccc;fill-rule:evenodd;stroke:none;stroke-width:1px;stroke-linecap:butt;stroke-linejoin:miter;stroke-opacity:1" />
      <path
         style="opacity:0.8;fill:#cccccc;fill-rule:evenodd;stroke:none;stroke-width:1px;stroke-linecap:butt;stroke-linejoin:miter;stroke-opacity:1"
         d="M 47.664066,68.781255 C 56.562507,64.332807 64.7625,51.684373 64.7625,51.684373 L 47.984375,32.849998 C 47.984375,32.849998 39.145316,43.649998 27.625,53.503123 L 47.664066,68.781255 z"
         id="path4221"
         sodipodi:nodetypes="ccccc" />
      <path
         sodipodi:nodetypes="ccccc"
         id="path4223"
         d="M 76.415237,90.218755 C 83.35813,86.997857 89.680125,78.392469 89.680125,78.392469 L 78.267656,64.020063 C 78.267656,64.020063 70.304424,72.563063 62.125,79.558781 L 76.415237,90.218755 z"
         style="opacity:0.8;fill:#cccccc;fill-rule:evenodd;stroke:none;stroke-width:1px;stroke-linecap:butt;stroke-linejoin:miter;stroke-opacity:1" />
      <path
         style="opacity:0.8;fill:#cccccc;fill-rule:evenodd;stroke:none;stroke-width:1px;stroke-linecap:butt;stroke-linejoin:miter;stroke-opacity:1"
         d="M 96.52335,104.93542 C 101.69274,102.68079 105.72038,96.347657 105.72038,96.347657 L 97.157131,86.507942 C 97.157131,86.507942 92.599335,93.150954 86.255019,97.29666 L 96.52335,104.93542 z"
         id="path4225"
         sodipodi:nodetypes="ccccc" />
      <path
         sodipodi:nodetypes="ccccc"
         id="path4227"
         d="M 112.15908,116.73527 C 115.77765,115.06864 118.72958,110.14931 118.72958,110.14931 L 112.60273,103.59296 C 112.60273,103.59296 109.39017,108.41985 104.94915,111.32185 L 112.15908,116.73527 z"
         style="opacity:0.8;fill:#cccccc;fill-rule:evenodd;stroke:none;stroke-width:1px;stroke-linecap:butt;stroke-linejoin:miter;stroke-opacity:1" />
      <path
         style="opacity:0.8;fill:#cccccc;fill-rule:evenodd;stroke:none;stroke-width:1px;stroke-linecap:butt;stroke-linejoin:miter;stroke-opacity:1"
         d="M 123.93936,125.75088 C 126.82592,124.34117 128.73759,120.91974 128.73759,120.91974 L 124.49299,116.35239 C 124.49299,116.35239 121.82435,119.64283 118.75983,121.76262 L 123.93936,125.75088 z"
         id="path4229"
         sodipodi:nodetypes="ccccc" />
    </g>
    <g
       transform="translate(9.1106018e-2,-7.184595e-2)"
       id="g4238">
      <path
         style="opacity:1;fill:#ffffff;fill-rule:evenodd;stroke:none;stroke-width:1px;stroke-linecap:butt;stroke-linejoin:miter;stroke-opacity:1"
         d="M -87.375 -85.59375 L -104.625 -66.15625 L -12.9375 9.9375 C -7.9701945 5.7588194 -3.5573369 1.9152962 -0.03125 -1.28125 L -87.375 -85.59375 z M 25.4375 23.3125 C 22.734103 26.256044 19.295359 29.7544 15.25 33.34375 L 33.34375 48.34375 C 36.735359 45.14266 39.770056 42.037083 42.15625 39.46875 L 25.4375 23.3125 z M 60.625 57.28125 C 58.637317 59.722907 56.115054 62.502536 53.28125 64.90625 L 66.375 75.78125 C 68.850815 73.508119 71.166028 71.264647 73.09375 69.34375 L 60.625 57.28125 z M 86.46875 82.25 C 84.896558 83.957655 82.90681 85.935541 80.65625 87.625 L 89.4375 94.90625 C 91.44141 93.227221 93.15771 91.473592 94.46875 89.96875 L 86.46875 82.25 z M 103.78125 98.96875 C 102.66683 100.30965 101.1724 101.87985 99.40625 103.1875 L 107.1875 109.625 C 108.70003 108.34237 109.95992 106.97682 110.90625 105.84375 L 103.78125 98.96875 z M 117.40625 112.09375 C 116.59137 113.14941 115.47718 114.41811 114.1875 115.4375 L 120.34375 120.53125 C 121.52359 119.54837 122.524 118.56343 123.28125 117.75 L 117.40625 112.09375 z M 127.90625 122.21875 C 127.32061 123.00405 126.48121 123.97426 125.4375 124.78125 L 129.84375 128.4375 C 130.81978 127.75532 131.59938 126.98074 132.1875 126.34375 L 127.90625 122.21875 z M 135.5 129.5625 C 134.99132 130.14422 134.28982 130.86403 133.46875 131.46875 L 140.3125 137.125 L 141.75 135.59375 L 135.5 129.5625 z "
         transform="translate(-9.1106018e-2,7.184595e-2)"
         id="path4240" />
    </g>
    <g
       id="g4276"
       transform="translate(-300.90889,69.92815)">
      <path
         style="opacity:1;fill:#ffffff;fill-rule:evenodd;stroke:none;stroke-width:1px;stroke-linecap:butt;stroke-linejoin:miter;stroke-opacity:1"
         d="M 140.21793,137.19055 L 141.67136,135.65317 L -87.460678,-85.51681 L -104.71551,-66.075685 L 140.21793,137.19055 z"
         id="path4278"
         sodipodi:nodetypes="ccccc" />
      <path
         style="opacity:0.8;fill:#cccccc;fill-rule:evenodd;stroke:none;stroke-width:1px;stroke-linecap:butt;stroke-linejoin:miter;stroke-opacity:1"
         d="M 132.35938,132.15626 C 134.25001,131.26562 136.125,128.75 136.125,128.75 L 133.03125,125.34375 C 133.03125,125.34375 131.04688,127.96875 128.625,129.1875 L 132.35938,132.15626 z"
         id="path4280"
         sodipodi:nodetypes="ccccc" />
      <path
         sodipodi:nodetypes="ccccc"
         id="path4282"
         d="M 7.8593801,39.406255 C 22.00001,28.765615 31.75,15.874995 31.75,15.874995 L 9.0312501,-9.7812551 C 9.0312501,-9.7812551 -3.9531199,2.968745 -21.125,16.687495 L 7.8593801,39.406255 z"
         style="opacity:0.8;fill:#cccccc;fill-rule:evenodd;stroke:none;stroke-width:1px;stroke-linecap:butt;stroke-linejoin:miter;stroke-opacity:1" />
      <path
         style="opacity:0.8;fill:#cccccc;fill-rule:evenodd;stroke:none;stroke-width:1px;stroke-linecap:butt;stroke-linejoin:miter;stroke-opacity:1"
         d="M 47.664066,68.781255 C 56.562507,64.332807 64.7625,51.684373 64.7625,51.684373 L 47.984375,32.849998 C 47.984375,32.849998 39.145316,43.649998 27.625,53.503123 L 47.664066,68.781255 z"
         id="path4284"
         sodipodi:nodetypes="ccccc" />
      <path
         sodipodi:nodetypes="ccccc"
         id="path4286"
         d="M 76.415237,90.218755 C 83.35813,86.997857 89.680125,78.392469 89.680125,78.392469 L 78.267656,64.020063 C 78.267656,64.020063 70.304424,72.563063 62.125,79.558781 L 76.415237,90.218755 z"
         style="opacity:0.8;fill:#cccccc;fill-rule:evenodd;stroke:none;stroke-width:1px;stroke-linecap:butt;stroke-linejoin:miter;stroke-opacity:1" />
      <path
         style="opacity:0.8;fill:#cccccc;fill-rule:evenodd;stroke:none;stroke-width:1px;stroke-linecap:butt;stroke-linejoin:miter;stroke-opacity:1"
         d="M 96.52335,104.93542 C 101.69274,102.68079 105.72038,96.347657 105.72038,96.347657 L 97.157131,86.507942 C 97.157131,86.507942 92.599335,93.150954 86.255019,97.29666 L 96.52335,104.93542 z"
         id="path4288"
         sodipodi:nodetypes="ccccc" />
      <path
         sodipodi:nodetypes="ccccc"
         id="path4290"
         d="M 112.15908,116.73527 C 115.77765,115.06864 118.72958,110.14931 118.72958,110.14931 L 112.60273,103.59296 C 112.60273,103.59296 109.39017,108.41985 104.94915,111.32185 L 112.15908,116.73527 z"
         style="opacity:0.8;fill:#cccccc;fill-rule:evenodd;stroke:none;stroke-width:1px;stroke-linecap:butt;stroke-linejoin:miter;stroke-opacity:1" />
      <path
         style="opacity:0.8;fill:#cccccc;fill-rule:evenodd;stroke:none;stroke-width:1px;stroke-linecap:butt;stroke-linejoin:miter;stroke-opacity:1"
         d="M 123.93936,125.75088 C 126.82592,124.34117 128.73759,120.91974 128.73759,120.91974 L 124.49299,116.35239 C 124.49299,116.35239 121.82435,119.64283 118.75983,121.76262 L 123.93936,125.75088 z"
         id="path4292"
         sodipodi:nodetypes="ccccc" />
    </g>
  </g>
</svg>
