<?xml version="1.0" encoding="UTF-8" standalone="no"?>
<!-- Created with Inkscape (http://www.inkscape.org/) -->
<svg
   xmlns:dc="http://purl.org/dc/elements/1.1/"
   xmlns:cc="http://creativecommons.org/ns#"
   xmlns:rdf="http://www.w3.org/1999/02/22-rdf-syntax-ns#"
   xmlns:svg="http://www.w3.org/2000/svg"
   xmlns="http://www.w3.org/2000/svg"
   xmlns:sodipodi="http://sodipodi.sourceforge.net/DTD/sodipodi-0.dtd"
   xmlns:inkscape="http://www.inkscape.org/namespaces/inkscape"
   width="128"
   height="128"
   id="svg4893"
   sodipodi:version="0.32"
   inkscape:version="0.46"
   sodipodi:docname="medal_excellent.svg"
   inkscape:output_extension="org.inkscape.output.svg.inkscape"
   version="1.0"
   inkscape:export-filename="/mnt/adat/Udi/OpenArena/2D improvement/medal_excellent.png"
   inkscape:export-xdpi="90"
   inkscape:export-ydpi="90">
  <defs
     id="defs4895">
    <inkscape:perspective
       sodipodi:type="inkscape:persp3d"
       inkscape:vp_x="0 : 526.18109 : 1"
       inkscape:vp_y="0 : 1000 : 0"
       inkscape:vp_z="744.09448 : 526.18109 : 1"
       inkscape:persp3d-origin="372.04724 : 350.78739 : 1"
       id="perspective4901" />
    <inkscape:perspective
       id="perspective5015"
       inkscape:persp3d-origin="372.04724 : 350.78739 : 1"
       inkscape:vp_z="744.09448 : 526.18109 : 1"
       inkscape:vp_y="0 : 1000 : 0"
       inkscape:vp_x="0 : 526.18109 : 1"
       sodipodi:type="inkscape:persp3d" />
    <inkscape:perspective
       id="perspective4645"
       inkscape:persp3d-origin="372.04724 : 350.78739 : 1"
       inkscape:vp_z="744.09448 : 526.18109 : 1"
       inkscape:vp_y="0 : 1000 : 0"
       inkscape:vp_x="0 : 526.18109 : 1"
       sodipodi:type="inkscape:persp3d" />
  </defs>
  <sodipodi:namedview
     id="base"
     pagecolor="#ff8000"
     bordercolor="#666666"
     borderopacity="1.0"
     inkscape:pageopacity="0"
     inkscape:pageshadow="2"
     inkscape:zoom="5.6"
     inkscape:cx="60.937625"
     inkscape:cy="18.0291"
     inkscape:document-units="px"
     inkscape:current-layer="layer1"
     showgrid="false"
     inkscape:window-width="1280"
     inkscape:window-height="742"
     inkscape:window-x="0"
     inkscape:window-y="0" />
  <metadata
     id="metadata4898">
    <rdf:RDF>
      <cc:Work
         rdf:about="">
        <dc:format>image/svg+xml</dc:format>
        <dc:type
           rdf:resource="http://purl.org/dc/dcmitype/StillImage" />
      </cc:Work>
    </rdf:RDF>
  </metadata>
  <g
     inkscape:label="1. réteg"
     inkscape:groupmode="layer"
     id="layer1">
    <g
       id="g5217"
       transform="matrix(0.9251547,0,0,1,-10.159062,1.5152288)"
       inkscape:export-xdpi="90"
       inkscape:export-ydpi="90">
      <path
         transform="matrix(0.9109329,0,0,0.9109329,8.8100045,1.4230671)"
         d="M 51.428566,0.49999197 L 61.476379,65.74084 L 100.52852,12.52189 L 81.274347,75.661445 L 139.54995,44.656919 L 94.807311,93.189619 L 160.76418,90.540342 L 99.394901,114.85369 L 159.96946,141.08439 L 94.128488,136.36282 L 137.32321,186.27818 L 80.051151,153.45687 L 97.310787,217.17054 L 59.951077,162.75015 L 47.857148,227.64286 L 37.809334,162.40201 L -1.2428102,215.62096 L 18.011366,152.48141 L -40.264238,183.48593 L 4.4784019,134.95323 L -61.478462,137.60251 L -0.10918789,113.28916 L -60.683747,87.058467 L 5.1572249,91.780028 L -38.037495,41.864672 L 19.234563,74.685978 L 1.9749261,10.97231 L 39.334636,65.392699 L 51.428566,0.49999197 z"
         inkscape:randomized="0"
         inkscape:rounded="0"
         inkscape:flatsided="false"
         sodipodi:arg2="-1.3306749"
         sodipodi:arg1="-1.5550744"
         sodipodi:r2="49.758194"
         sodipodi:r1="113.58547"
         sodipodi:cy="114.07143"
         sodipodi:cx="49.642857"
         sodipodi:sides="14"
         id="path4706"
         style="opacity:1;fill:#ff9900;fill-opacity:1;fill-rule:nonzero;stroke:none;stroke-width:6;stroke-linecap:round;stroke-linejoin:round;stroke-miterlimit:4;stroke-dasharray:none;stroke-dashoffset:0;stroke-opacity:1"
         sodipodi:type="star" />
      <path
         sodipodi:nodetypes="cczzcccccccccccccccccccc"
         id="path4852"
         d="M 143.63155,139.48353 L 97.699045,134.644 C 97.699045,134.644 82.814361,138.71248 75.40861,140.31672 C 68.002859,141.92095 44.787194,142.31286 37.371063,140.74521 C 29.954933,139.17757 16.08858,137.34339 16.08858,137.34339 L -31.560576,139.45918 L 0.47753743,115.80315 L -35.546811,108.97664 L -0.77447948,91.609826 L -30.390921,71.212509 L 9.5052433,69.343388 L -5.612185,39.854362 L 27.98734,54.930642 L 33.112898,22.085956 L 54.644696,49.968427 L 76.912843,21.977849 L 80.426016,55.224851 L 115.75367,39.554803 L 100.03177,70.931224 L 140.73736,70.790125 L 109.7475,95.959726 L 146.14046,108.52819 L 109.23089,115.00876 L 143.63155,139.48353 z"
         style="fill:#ff6600;fill-opacity:1;fill-rule:nonzero;stroke:none;stroke-width:2;stroke-linecap:round;stroke-linejoin:miter;stroke-miterlimit:4;stroke-dashoffset:0;stroke-opacity:1" />
    </g>
    <g
       style="stroke:#000000;stroke-width:1.2060405;stroke-miterlimit:4;stroke-dasharray:none;stroke-opacity:1"
       transform="matrix(1.1023646,-0.2809781,0.2959344,1.0718604,-570.01647,-366.36817)"
       id="g4555">
      <path
         sodipodi:type="arc"
         style="opacity:1;fill:#000000;fill-opacity:1;fill-rule:nonzero;stroke:none;stroke-width:1.2060405;stroke-linecap:round;stroke-linejoin:miter;stroke-miterlimit:4;stroke-dasharray:none;stroke-dashoffset:0;stroke-opacity:1"
         id="path4557"
         sodipodi:cx="401.6619"
         sodipodi:cy="527.71423"
         sodipodi:rx="3.0954506"
         sodipodi:ry="3.0954506"
         d="M 404.75735,527.71423 A 3.0954506,3.0954506 0 1 1 398.56645,527.71423 A 3.0954506,3.0954506 0 1 1 404.75735,527.71423 z"
         transform="matrix(1.4176812,-1.0420339e-2,-1.0671312e-2,1.4546348,-121.46751,-233.71172)" />
      <path
         style="fill:#000000;fill-opacity:1;fill-rule:evenodd;stroke:none;stroke-width:1.2060405;stroke-linecap:butt;stroke-linejoin:miter;stroke-miterlimit:4;stroke-dasharray:none;stroke-opacity:1"
         d="M 431.28878,517.87446 C 431.28878,517.87446 436.72978,534.10231 436.72978,534.10231 C 436.72978,534.10231 442.61311,537.65165 442.61311,537.65165 L 459.73211,531.85677 C 459.73211,531.85677 460.85817,535.227 460.85817,535.227 L 441.52931,543.98794 C 441.52931,543.98794 437.26472,549.29663 437.26472,549.29663 C 437.26472,549.29663 435.72589,552.34531 435.72589,552.34531 C 435.72589,552.34531 427.61778,562.07858 427.61778,562.07858 C 427.61778,562.07858 417.32314,563.58266 417.32314,563.58266 C 417.32314,563.58266 416.20577,566.51294 416.20577,566.51294 C 416.20577,566.51294 413.26155,566.40428 413.26155,566.40428 L 414.79615,558.64838 C 414.79615,558.64838 424.57305,556.80453 424.57305,556.80453 C 424.57305,556.80453 429.04647,551.22833 429.04647,551.22833 C 429.04647,551.22833 428.55953,550.43865 428.55953,550.43865 C 428.55953,550.43865 419.36065,552.25434 419.36065,552.25434 C 419.36065,552.25434 412.68447,546.65479 412.68447,546.65479 C 412.68447,546.65479 409.40436,548.25389 409.40436,548.25389 C 409.40436,548.25389 407.45382,545.87483 407.45382,545.87483 C 407.45382,545.87483 414.21496,541.35792 414.21496,541.35792 C 414.21496,541.35792 421.03987,546.10374 421.03987,546.10374 C 421.03987,546.10374 427.38097,544.06057 427.38097,544.06057 C 427.38097,544.06057 429.69797,542.86864 429.69797,542.86864 C 429.69797,542.86864 431.99174,538.13649 431.99174,538.13649 L 428.10489,518.77446 C 428.10489,518.77446 431.28878,517.87446 431.28878,517.87446 z"
         id="path4559"
         sodipodi:nodetypes="ccccccsczczzccccsccccccsccc" />
    </g>
    <g
       style="stroke:#000000;stroke-width:1.2060405;stroke-miterlimit:4;stroke-dasharray:none;stroke-opacity:1"
       transform="matrix(1.1023646,-0.2809781,0.2959344,1.0718604,-651.30815,-251.28115)"
       id="g4648">
      <path
         sodipodi:type="arc"
         style="opacity:1;fill:#000000;fill-opacity:1;fill-rule:nonzero;stroke:#000000;stroke-width:1.2060405;stroke-linecap:round;stroke-linejoin:miter;stroke-miterlimit:4;stroke-dasharray:none;stroke-dashoffset:0;stroke-opacity:1"
         id="path4650"
         sodipodi:cx="401.6619"
         sodipodi:cy="527.71423"
         sodipodi:rx="3.0954506"
         sodipodi:ry="3.0954506"
         d="M 404.75735,527.71423 A 3.0954506,3.0954506 0 1 1 398.56645,527.71423 A 3.0954506,3.0954506 0 1 1 404.75735,527.71423 z"
         transform="translate(40.809703,2.7539232)" />
      <path
         style="fill:#000000;fill-opacity:1;fill-rule:evenodd;stroke:#000000;stroke-width:1.2060405;stroke-linecap:butt;stroke-linejoin:miter;stroke-miterlimit:4;stroke-dasharray:none;stroke-opacity:1"
         d="M 432.69833,518.59737 C 432.69833,518.59737 436.75446,533.50239 437.44374,534.64288 C 438.01768,535.54112 438.62124,536.29838 439.72176,536.7344 C 440.82229,537.1704 442.556,537.22438 442.556,537.22438 L 457.12111,532.40925 C 457.12111,532.40925 458.2927,531.99116 458.5754,532.73687 C 458.85812,533.48259 457.73641,534.05525 457.73641,534.05525 L 441.40067,541.48034 C 441.40067,541.48034 437.02156,545.87925 435.93279,547.60101 C 434.84402,549.32277 435.36049,549.37417 434.41355,551.70838 C 432.64936,555.9097 427.73672,560.76211 425.83233,561.7106 C 424.00605,562.62018 417.2733,563.71338 417.2733,563.71338 C 417.2733,563.71338 416.16593,564.86231 415.36437,565.77988 C 414.53912,566.72455 413.29121,566.37465 413.49428,565.54047 L 414.4113,561.77352 C 414.56143,561.15676 415.43591,560.68594 416.03591,560.69691 C 418.92029,560.82455 422.05631,558.66699 423.65305,557.99462 C 425.20183,557.34244 428.55272,552.324 428.55272,552.324 C 428.60261,552.11132 428.32851,552.05565 428.1229,551.9616 C 428.1229,551.9616 421.94216,553.77953 419.76192,552.78946 C 417.69902,551.85268 413.52955,546.92339 413.52955,546.92339 C 413.52955,546.92339 412.66905,546.90311 410.57923,546.54736 C 409.41533,546.20061 409.15753,546.17826 409.54103,545.37491 C 410.63375,544.15785 413.21172,543.49806 413.21172,543.49806 C 413.21172,543.49806 414.31847,543.34407 414.8447,544.25725 C 417.97864,546.86873 418.55167,547.94004 419.90928,548.50501 C 421.2783,549.07472 425.47295,547.9959 427.53249,546.38563 C 428.65711,545.50634 429.62705,545.80392 430.64928,544.37261 C 431.67151,542.94131 433.68197,537.81384 433.68197,537.81384 L 430.91317,518.98051 C 430.91317,518.98051 430.97777,518.18698 431.61157,518.08577 C 432.24537,517.98455 432.69833,518.59737 432.69833,518.59737 z"
         id="path4652"
         sodipodi:nodetypes="ccscczcczczczzzcsccscccccsszcczc" />
    </g>
    <g
       style="stroke:#000000;stroke-width:1.20604038;stroke-miterlimit:4;stroke-dasharray:none;stroke-opacity:1"
       transform="matrix(0.7452379,0.8398678,-0.821499,0.717308,42.248244,-598.07437)"
       id="g4654">
      <path
         sodipodi:type="arc"
         style="opacity:1;fill:#000000;fill-opacity:1;fill-rule:nonzero;stroke:#000000;stroke-width:1.20604038;stroke-linecap:round;stroke-linejoin:miter;stroke-miterlimit:4;stroke-dasharray:none;stroke-dashoffset:0;stroke-opacity:1"
         id="path4656"
         sodipodi:cx="401.6619"
         sodipodi:cy="527.71423"
         sodipodi:rx="3.0954506"
         sodipodi:ry="3.0954506"
         d="M 404.75735,527.71423 A 3.0954506,3.0954506 0 1 1 398.56645,527.71423 A 3.0954506,3.0954506 0 1 1 404.75735,527.71423 z"
         transform="translate(38.96779,0.304117)" />
      <path
         style="fill:#000000;fill-opacity:1;fill-rule:evenodd;stroke:#000000;stroke-width:1.20604038;stroke-linecap:butt;stroke-linejoin:miter;stroke-miterlimit:4;stroke-dasharray:none;stroke-opacity:1"
         d="M 436.20086,532.5069 C 437.32099,533.53791 438.05595,533.53117 439.19962,533.79206 C 440.45447,534.0783 442.01639,534.13255 442.01639,534.13255 L 455.13446,534.81104 C 455.13446,534.81104 455.74119,534.87475 455.84326,535.42923 C 455.9552,536.03739 455.09486,536.14288 455.09486,536.14288 L 441.6377,537.90774 C 441.6377,537.90774 437.18648,543.06237 436.32948,544.91298 C 435.47248,546.76359 435.84712,546.54056 436.66393,547.78309 C 437.7086,549.1483 443.77966,554.86421 444.12922,555.41348 C 444.91683,556.65101 449.502,563.92016 449.502,563.92016 C 449.502,563.92016 450.96083,564.20653 451.47263,564.79348 C 452.11476,565.5299 452.51021,565.41863 451.33294,566.12696 L 447.91625,566.28331 C 447.47903,566.1959 447.46899,565.97795 447.18695,565.39833 C 446.6989,564.03254 441.52461,559.02903 441.20014,558.35858 C 440.72982,557.38677 433.15425,550.45283 433.15425,550.45283 C 432.93534,550.37913 433.05069,550.69341 433.14417,550.88295 C 433.14417,550.88295 436.17427,559.82454 436.46123,560.65448 C 436.87891,561.86244 437.07436,569.44823 437.07436,569.44823 C 437.07436,569.44823 437.84873,569.6315 438.94176,570.60178 C 439.58533,571.32417 439.12888,572.30613 438.30121,572.2254 L 435.07203,571.07483 C 434.70273,570.94325 434.71737,570.84284 434.50996,570.14521 C 434.39551,569.64689 433.93072,563.60351 433.13526,561.35006 C 432.70577,560.13335 426.41102,551.96422 427.95571,547.72611 C 428.4462,546.3804 430.32777,543.49417 430.94938,542.32835 C 431.571,541.16253 432.47086,537.51404 433.46213,535.60144 C 434.45339,533.68885 436.20086,532.5069 436.20086,532.5069 z"
         id="path4658"
         sodipodi:nodetypes="csccsccscscscccsccscccscssssc" />
      <path
         style="fill:#000000;fill-opacity:1;fill-rule:evenodd;stroke:#000000;stroke-width:1.20604038;stroke-linecap:butt;stroke-linejoin:miter;stroke-miterlimit:4;stroke-dasharray:none;stroke-opacity:1"
         d="M 433.23361,536.8647 L 439.83224,539.85292 L 447.90014,542.27995 C 447.90014,542.27995 448.53296,542.7014 448.76017,542.1703 C 449.00823,541.59048 448.47213,541.3071 448.47213,541.3071 C 448.47213,541.3071 438.20448,536.01642 437.80309,535.55193"
         id="path4660"
         sodipodi:nodetypes="cccscc" />
    </g>
    <g
       transform="matrix(0.8217704,0.1104495,-0.1104495,0.8217704,-412.47039,-352.81009)"
       id="g5413">
      <path
         sodipodi:type="arc"
         style="opacity:1;fill:#000000;fill-opacity:1;fill-rule:nonzero;stroke:none;stroke-width:2;stroke-linecap:round;stroke-linejoin:miter;stroke-miterlimit:4;stroke-dasharray:none;stroke-dashoffset:0;stroke-opacity:1"
         id="path5415"
         sodipodi:cx="401.6619"
         sodipodi:cy="527.71423"
         sodipodi:rx="3.0954506"
         sodipodi:ry="3.0954506"
         d="M 404.75735,527.71423 A 3.0954506,3.0954506 0 1 1 398.56645,527.71423 A 3.0954506,3.0954506 0 1 1 404.75735,527.71423 z"
         transform="translate(39.410836,2.3996239)" />
      <path
         sodipodi:nodetypes="ccscczcczczczzzcsccscccccsszcczc"
         id="path5417"
         d="M 436.0821,521.34871 C 436.0821,521.34871 436.98022,531.61906 437.2192,532.18452 C 438.02117,533.4756 438.58957,533.45945 439.29917,533.72435 C 440.50497,534.17449 442.01639,534.13255 442.01639,534.13255 L 452.75497,534.72412 C 452.75497,534.72412 453.4108,534.78094 453.78912,535.47935 C 454.16745,536.17776 452.65179,536.56163 452.65179,536.56163 L 441.58736,538.18566 C 441.58736,538.18566 437.18648,543.06237 436.32948,544.91298 C 435.47248,546.76359 436.3044,546.77869 436.58403,549.169 C 437.39175,552.48674 438.40502,555.11382 438.55923,556.49603 C 438.72189,557.95389 439.41431,563.84817 439.41431,563.84817 C 439.41431,563.84817 441.08153,564.574 441.70058,565.1839 C 442.31143,565.7857 442.29669,566.87373 441.46528,566.75583 L 437.61161,566.20939 C 436.98404,566.1204 437.05486,565.77794 436.95241,565.11986 C 435.81928,560.38354 435.81213,559.17857 435.28904,557.42582 C 434.73577,555.57196 432.47268,550.23206 432.47268,550.23206 C 432.30074,550.00265 432.04607,550.03221 431.7491,550.24706 C 431.7491,550.24706 431.09944,556.17698 430.57526,557.45839 C 429.71746,559.55536 427.67694,564.39888 427.67694,564.39888 C 427.67694,564.39888 427.95655,564.61249 428.66384,565.99954 C 428.86193,566.55133 428.33232,567.42185 427.88196,567.2904 C 426.35517,566.29198 425.10376,564.98387 425.10376,564.98387 C 425.10376,564.98387 424.80727,564.69849 425.05265,563.94 C 425.70968,562.60813 426.87464,557.5954 427.11468,556.75853 C 427.47042,555.51825 427.12024,546.95194 428.53672,545.18954 C 429.43402,544.07313 430.12056,543.88278 430.94938,542.32835 C 431.7782,540.77392 433.43853,535.61696 433.43853,535.61696 L 434.3408,521.38386 C 434.3408,521.38386 434.59838,520.50238 435.1752,520.53357 C 435.80493,520.56762 436.0821,521.34871 436.0821,521.34871 z"
         style="fill:#000000;fill-opacity:1;fill-rule:evenodd;stroke:none;stroke-width:1px;stroke-linecap:butt;stroke-linejoin:miter;stroke-opacity:1" />
    </g>
    <g
       id="g2410"
       transform="matrix(0.7452379,0.8398678,-0.821499,0.717308,151.08847,-689.64637)"
       style="stroke:none;stroke-width:1.20604038;stroke-miterlimit:4;stroke-dasharray:none;stroke-opacity:1">
      <path
         transform="matrix(1.4599652,3.1357595e-3,2.9521561e-3,1.4591865,-147.41516,-244.27181)"
         d="M 404.75735,527.71423 A 3.0954506,3.0954506 0 1 1 398.56645,527.71423 A 3.0954506,3.0954506 0 1 1 404.75735,527.71423 z"
         sodipodi:ry="3.0954506"
         sodipodi:rx="3.0954506"
         sodipodi:cy="527.71423"
         sodipodi:cx="401.6619"
         id="path2412"
         style="opacity:1;fill:#000000;fill-opacity:1;fill-rule:nonzero;stroke:none;stroke-width:1.20604038;stroke-linecap:round;stroke-linejoin:miter;stroke-miterlimit:4;stroke-dasharray:none;stroke-dashoffset:0;stroke-opacity:1"
         sodipodi:type="arc" />
      <path
         sodipodi:nodetypes="cccccscscscccccsccscccsc"
         id="path2414"
         d="M 435.24627,531.69526 C 435.24627,531.69526 440.84119,533.3925 440.84119,533.3925 L 457.76203,532.33111 C 457.76203,532.33111 458.14426,535.86918 458.14426,535.86918 L 442.11398,539.15494 C 442.11398,539.15494 439.08544,545.70209 439.08544,545.70209 C 439.08544,545.70209 439.48241,548.41539 439.48241,548.41539 C 439.48241,548.41539 445.74167,555.85849 445.74167,555.85849 C 445.74167,555.85849 449.00767,563.44534 449.00767,563.44534 C 449.00767,563.44534 453.01259,564.08748 453.01259,564.08748 C 453.01259,564.08748 452.85435,567.9303 452.85435,567.9303 L 445.54656,567.93763 C 445.54656,567.93763 441.4618,558.40429 441.4618,558.40429 C 441.4618,558.40429 435.87438,552.00753 435.87438,552.00753 C 435.87438,552.00753 434.6474,552.23731 434.6474,552.23731 C 434.6474,552.23731 437.68298,559.72188 437.68298,559.72188 C 437.68298,559.72188 438.47289,569.78538 438.47289,569.78538 C 438.47289,569.78538 441.5723,571.20959 441.5723,571.20959 C 441.5723,571.20959 441.13637,574.1282 441.13637,574.1282 L 432.90396,572.36861 C 432.90396,572.36861 431.82183,562.02101 431.82183,562.02101 C 431.82183,562.02101 427.57399,551.87232 427.57399,551.87232 C 427.57399,551.87232 427.64983,546.5217 427.64983,546.5217 C 427.64983,546.5217 435.24627,531.69526 435.24627,531.69526 z"
         style="fill:#000000;fill-opacity:1;fill-rule:evenodd;stroke:none;stroke-width:1.20604038;stroke-linecap:butt;stroke-linejoin:miter;stroke-miterlimit:4;stroke-dasharray:none;stroke-opacity:1" />
      <path
         style="fill:#000000;fill-opacity:1;fill-rule:evenodd;stroke:none;stroke-width:1.20604038;stroke-linecap:butt;stroke-linejoin:miter;stroke-miterlimit:4;stroke-dasharray:none;stroke-opacity:1"
         d="M 36.888393,70.008928 L 34.486608,70.794643 L 39.589286,80.991071 C 39.589287,80.991073 43.839286,79.165179 43.839286,79.165179 C 43.839286,79.165179 42.029572,75.930176 40.848214,72.924107 L 36.888393,70.008928 z"
         transform="matrix(0.5857892,-0.6858775,0.6708767,0.6085981,374.35259,522.90855)"
         id="path2416"
         sodipodi:nodetypes="cccccc" />
    </g>
    <g
       style="stroke:none;stroke-width:1.20604038;stroke-miterlimit:4;stroke-dasharray:none;stroke-opacity:1"
       transform="matrix(0.7452379,0.8398678,-0.821499,0.717308,90.944253,-758.42174)"
       id="g3204">
      <path
         sodipodi:type="arc"
         style="opacity:1;fill:#000000;fill-opacity:1;fill-rule:nonzero;stroke:none;stroke-width:1.20604038;stroke-linecap:round;stroke-linejoin:miter;stroke-miterlimit:4;stroke-dasharray:none;stroke-dashoffset:0;stroke-opacity:1"
         id="path3206"
         sodipodi:cx="401.6619"
         sodipodi:cy="527.71423"
         sodipodi:rx="3.0954506"
         sodipodi:ry="3.0954506"
         d="M 404.75735,527.71423 A 3.0954506,3.0954506 0 1 1 398.56645,527.71423 A 3.0954506,3.0954506 0 1 1 404.75735,527.71423 z"
         transform="matrix(1.1679721,2.5086075e-3,2.3617248e-3,1.1673492,-29.526789,-88.963666)" />
      <path
         style="fill:#000000;fill-opacity:1;fill-rule:evenodd;stroke:none;stroke-width:1.20604038;stroke-linecap:butt;stroke-linejoin:miter;stroke-miterlimit:4;stroke-dasharray:none;stroke-opacity:1"
         d="M 436.39108,531.973 C 436.39108,531.973 440.84119,533.3925 440.84119,533.3925 L 457.76203,532.33111 C 457.76203,532.33111 458.04301,535.6143 458.04301,535.6143 L 441.60439,538.25792 C 441.60439,538.25792 438.41223,545.74349 438.41223,545.74349 C 438.41223,545.74349 438.7864,548.11006 438.7864,548.11006 C 438.7864,548.11006 445.05998,554.91403 445.05998,554.91403 C 445.05998,554.91403 449.8825,563.04341 449.8825,563.04341 C 449.8825,563.04341 454.20883,563.43369 454.20883,563.43369 C 454.20883,563.43369 454.33402,566.44676 454.33402,566.44676 L 446.98912,566.74649 C 446.98912,566.74649 441.6263,558.33615 441.6263,558.33615 C 441.6263,558.33615 435.87438,552.00753 435.87438,552.00753 C 435.87438,552.00753 434.6474,552.23731 434.6474,552.23731 C 434.6474,552.23731 437.68298,559.72188 437.68298,559.72188 C 437.68298,559.72188 438.3379,569.44555 438.3379,569.44555 C 438.3379,569.44555 441.5723,571.20959 441.5723,571.20959 C 441.5723,571.20959 440.26826,573.77543 440.26826,573.77543 L 434.20481,571.59234 C 434.20481,571.59234 433.12268,561.24474 433.12268,561.24474 C 433.12268,561.24474 427.84351,549.13501 427.84351,549.13501 C 427.84351,549.13501 436.39108,531.973 436.39108,531.973 z"
         id="path3208"
         sodipodi:nodetypes="cccccscscscccccsccscccc" />
      <path
         style="fill:#000000;fill-opacity:1;fill-rule:evenodd;stroke:none;stroke-width:1.20604038;stroke-linecap:butt;stroke-linejoin:miter;stroke-miterlimit:4;stroke-dasharray:none;stroke-opacity:1"
         d="M 437.61351,540.04411 L 451.67668,544.59815 C 451.67668,544.59815 452.81472,541.2004 452.81472,541.2004 C 452.81472,541.2004 437.80309,535.55193 437.80309,535.55193"
         id="path3210"
         sodipodi:nodetypes="cccc" />
    </g>
    <g
       transform="translate(231.32493,54.588847)"
       id="g3220">
      <path
         sodipodi:type="star"
         style="opacity:1;fill:#ff8000;fill-opacity:1;fill-rule:nonzero;stroke:none;stroke-width:6;stroke-linecap:round;stroke-linejoin:round;stroke-miterlimit:4;stroke-dasharray:none;stroke-dashoffset:0;stroke-opacity:1"
         id="path3222"
         sodipodi:sides="14"
         sodipodi:cx="49.642857"
         sodipodi:cy="114.07143"
         sodipodi:r1="113.58547"
         sodipodi:r2="49.758194"
         sodipodi:arg1="-1.5550744"
         sodipodi:arg2="-1.3306749"
         inkscape:flatsided="false"
         inkscape:rounded="0"
         inkscape:randomized="0"
         d="M 51.428566,0.49999197 L 61.476379,65.74084 L 100.52852,12.52189 L 81.274347,75.661445 L 139.54995,44.656919 L 94.807311,93.189619 L 160.76418,90.540342 L 99.394901,114.85369 L 159.96946,141.08439 L 94.128488,136.36282 L 137.32321,186.27818 L 80.051151,153.45687 L 97.310787,217.17054 L 59.951077,162.75015 L 47.857148,227.64286 L 37.809334,162.40201 L -1.2428102,215.62096 L 18.011366,152.48141 L -40.264238,183.48593 L 4.4784019,134.95323 L -61.478462,137.60251 L -0.10918789,113.28916 L -60.683747,87.058467 L 5.1572249,91.780028 L -38.037495,41.864672 L 19.234563,74.685978 L 1.9749261,10.97231 L 39.334636,65.392699 L 51.428566,0.49999197 z"
         transform="matrix(0.9109329,0,0,0.9109329,8.8100045,1.4230671)" />
      <path
         style="fill:#ff8200;fill-opacity:1;fill-rule:nonzero;stroke:none;stroke-width:2;stroke-linecap:round;stroke-linejoin:miter;stroke-miterlimit:4;stroke-dashoffset:0;stroke-opacity:1"
         d="M 143.63155,139.48353 L 97.699045,134.644 C 97.699045,134.644 82.814361,138.71248 75.40861,140.31672 C 68.002859,141.92095 44.787194,142.31286 37.371063,140.74521 C 29.954933,139.17757 16.08858,137.34339 16.08858,137.34339 L -31.560576,139.45918 L 4.7239315,114.91029 L -35.546811,108.97664 L 2.1207892,92.859826 L -30.390921,71.212509 L 12.400512,71.486245 L -5.612185,39.854362 L 29.917519,57.609213 L 33.112898,22.085956 L 54.451678,52.82557 L 76.912843,21.977849 L 79.460926,57.010565 L 115.75367,39.554803 L 97.136506,72.716938 L 140.73736,70.790125 L 107.23827,96.316869 L 146.14046,108.52819 L 105.75657,114.47305 L 143.63155,139.48353 z"
         id="path3224"
         sodipodi:nodetypes="cczzcccccccccccccccccccc" />
    </g>
  </g>
</svg>
