<?xml version="1.0" encoding="UTF-8" standalone="no"?>
<!-- Created with Inkscape (http://www.inkscape.org/) -->
<svg
   xmlns:dc="http://purl.org/dc/elements/1.1/"
   xmlns:cc="http://creativecommons.org/ns#"
   xmlns:rdf="http://www.w3.org/1999/02/22-rdf-syntax-ns#"
   xmlns:svg="http://www.w3.org/2000/svg"
   xmlns="http://www.w3.org/2000/svg"
   xmlns:sodipodi="http://sodipodi.sourceforge.net/DTD/sodipodi-0.dtd"
   xmlns:inkscape="http://www.inkscape.org/namespaces/inkscape"
   width="128"
   height="128"
   id="svg2"
   sodipodi:version="0.32"
   inkscape:version="0.46"
   sodipodi:docname="medal_frags.svg"
   inkscape:output_extension="org.inkscape.output.svg.inkscape"
   version="1.0"
   inkscape:export-filename="/mnt/adat/Udi/OpenArena/2D improvement/medal_frags.png"
   inkscape:export-xdpi="90"
   inkscape:export-ydpi="90">
  <defs
     id="defs4">
    <inkscape:path-effect
       effect="skeletal"
       id="path-effect4802"
       prop_scale="1"
       pattern="M 546.69796,501.61342 C 546.69796,501.61342 556.90972,486.32151 559.4351,471.16922 C 564.15702,492.99801 571.88018,501.82864 571.88018,501.82864"
       copytype="repeated"
       pattern-nodetypes="ccc" />
    <inkscape:path-effect
       effect="skeletal"
       id="path-effect4800"
       prop_scale="1"
       pattern="M 542.45192,469.50417 L 554.77918,451.61087 L 560.95033,469.14891 L 574.91064,452.33117"
       copytype="repeated"
       scale_y_rel="false"
       vertical_pattern="false" />
    <inkscape:path-effect
       effect="skeletal"
       id="path-effect4796"
       prop_scale="1"
       pattern="M 548.51308,478.59533 L 557.305,459.692 L 562.46531,478.74541 L 571.88016,462.93761"
       scale_y_rel="false"
       vertical_pattern="true"
       pattern-nodetypes="cccc"
       copytype="repeated" />
    <inkscape:perspective
       sodipodi:type="inkscape:persp3d"
       inkscape:vp_x="0 : 526.18109 : 1"
       inkscape:vp_y="0 : 1000 : 0"
       inkscape:vp_z="744.09448 : 526.18109 : 1"
       inkscape:persp3d-origin="372.04724 : 350.78739 : 1"
       id="perspective10" />
    <inkscape:perspective
       id="perspective2549"
       inkscape:persp3d-origin="372.04724 : 350.78739 : 1"
       inkscape:vp_z="744.09448 : 526.18109 : 1"
       inkscape:vp_y="0 : 1000 : 0"
       inkscape:vp_x="0 : 526.18109 : 1"
       sodipodi:type="inkscape:persp3d" />
    <pattern
       patternUnits="userSpaceOnUse"
       width="24.21875"
       height="44.34375"
       patternTransform="translate(551.05742,438.03284)"
       id="pattern2567">
      <path
         sodipodi:nodetypes="cccc"
         id="path2557"
         d="M 12.09375,0.5 L 0.5,43.84375 L 23.71875,43.84375 L 12.09375,0.5 z"
         style="fill:none;fill-rule:evenodd;stroke:#000000;stroke-width:1px;stroke-linecap:butt;stroke-linejoin:miter;stroke-opacity:1" />
    </pattern>
  </defs>
  <sodipodi:namedview
     id="base"
     pagecolor="#cc0000"
     bordercolor="#666666"
     borderopacity="1.0"
     inkscape:pageopacity="0"
     inkscape:pageshadow="2"
     inkscape:zoom="1.4"
     inkscape:cx="302.90658"
     inkscape:cy="82.268069"
     inkscape:document-units="px"
     inkscape:current-layer="g4694"
     showgrid="true"
     inkscape:window-width="1280"
     inkscape:window-height="742"
     inkscape:window-x="0"
     inkscape:window-y="0"
     showguides="true"
     inkscape:snap-guide="false"
     objecttolerance="6"
     gridtolerance="6"
     guidetolerance="6">
    <inkscape:grid
       type="xygrid"
       id="grid4855"
       visible="true"
       enabled="true"
       spacingx="1px" />
  </sodipodi:namedview>
  <metadata
     id="metadata7">
    <rdf:RDF>
      <cc:Work
         rdf:about="">
        <dc:format>image/svg+xml</dc:format>
        <dc:type
           rdf:resource="http://purl.org/dc/dcmitype/StillImage" />
      </cc:Work>
    </rdf:RDF>
  </metadata>
  <g
     inkscape:label="1. réteg"
     inkscape:groupmode="layer"
     id="layer1">
    <g
       transform="translate(10,-200)"
       id="g2399">
      <path
         sodipodi:nodetypes="cccccccccscc"
         id="path4271"
         d="M 30,93 L 35,93 L 35,98 C 40,93 45,98 45,98 C 50,93 55,98 55,98 C 60,93 65,98 65,98 L 65,93 L 70,93 L 65,103 C 60,108 50,108 50,108 C 50,108 40,108 35,103 L 30,93 z"
         style="fill:#ff0000;fill-rule:evenodd;stroke:#000000;stroke-width:0.98414707px;stroke-linecap:butt;stroke-linejoin:miter;stroke-opacity:1" />
      <path
         sodipodi:nodetypes="cccsccccccccccccccscccccccccc"
         d="M 25,83 C 20,78 25,73 25,73 C 25,73 20,68 20,53 C 22.518616,40.406921 36.148242,32.906228 50,33 C 63.646995,33.092385 77.518616,40.593079 80,53 C 80,68 75,73 75,73 C 75,73 80,78 75,83 C 75,83 70,88 70,88 L 70,93 C 65,98 60,93 60,93 C 55,98 50,93 50,93 C 45,98 40,93 40,93 C 35,98 30,93 30,93 L 30,88 L 25,83 z M 30,68 C 30,68 30,73 40,73 C 40,73 45,73 45,63 C 45,63 40,58 30,58 C 30,58 30,68 30,68 z M 70,68 C 70,68 70,73 60,73 C 60,73 55,73 55,63 C 55,63 60,58 70,58 C 70,58 70,68 70,68 z M 50,73 C 50,73 55,73 55,83 L 45,83 C 45,73 50,73 50,73 z"
         style="fill:#ff0000;fill-rule:evenodd;stroke:#000000;stroke-width:0.98414707px;stroke-linecap:butt;stroke-linejoin:miter;stroke-opacity:1"
         id="path4273" />
    </g>
    <g
       transform="translate(20,-190)"
       id="g2412">
      <path
         sodipodi:nodetypes="ccccccccc"
         id="path2410"
         d="M 150,88 L 150,93 C 150,93 145,98 140,98 C 130,98 125,93 125,93 L 115,78 L 125,78 L 130,88 C 130,88 135,83 140,88 C 140,88 145,83 150,88 z"
         style="fill:#ff0000;fill-rule:evenodd;stroke:#000000;stroke-width:1px;stroke-linecap:butt;stroke-linejoin:miter;stroke-opacity:1" />
      <path
         sodipodi:nodetypes="cccccsccccccccccscc"
         d="M 150,43 C 150,23 125,23 125,23 C 85,23 85,48 85,48 C 85,78 105,83 115,83 C 120,83 120,78 125,78 C 125,78 130,78 130,78 C 130,78 130,83 130,83 C 135,88 140,83 140,83 C 145,88 150,83 150,83 L 150,73 L 145,73 C 145,63 150,63 150,63 L 150,43 z M 145,53 L 145,58 C 145,58 145,63 142,63 C 142,63 135,63 135,58 C 135,54.666667 135,51.333333 135,48 C 135,48 145,48 145,53 z"
         style="fill:#ff0000;fill-rule:evenodd;stroke:#000000;stroke-width:1px;stroke-linecap:butt;stroke-linejoin:miter;stroke-opacity:1"
         id="path2403" />
    </g>
    <g
       id="g2422"
       transform="matrix(-1,0,0,1,100,-190)">
      <path
         style="fill:#ff0000;fill-rule:evenodd;stroke:#000000;stroke-width:1px;stroke-linecap:butt;stroke-linejoin:miter;stroke-opacity:1"
         d="M 150,78 C 150,78 155,73 160,78 L 160,68 L 165,68 L 165,73 L 165,78 C 165,78 165,88 150,88 C 135,88 125,83 125,83 L 120,68 L 130,68 L 130,78 C 130,78 135,73 140,78 C 140,78 145,73 150,78 z"
         id="path2424"
         transform="translate(-15,10)"
         sodipodi:nodetypes="ccccccccccccc" />
      <path
         id="path2426"
         style="fill:#ff0000;fill-rule:evenodd;stroke:#000000;stroke-width:1px;stroke-linecap:butt;stroke-linejoin:miter;stroke-opacity:1"
         d="M 150,43 C 150,23 115,23 115,23 C 85,23 85,48 85,48 C 85,78 90,83 100,83 C 105,83 105,78 110,78 C 110,78 115,83 115,83 C 115,83 120,83 120,83 C 125,88 130,83 130,83 C 135,88 140,83 140,83 C 145,88 150,83 150,83 C 150,83 150,73 150,73 C 150,73 155,68 150,63 L 150,43 z M 125,53 L 125,58 C 125,58 125,63 122,63 C 122,63 110,63 110,58 C 110,54.666667 110,51.333333 110,48 C 110,48 125,48 125,53 z M 145,48 C 145,48 135,48 135,53 L 135,58 C 135,63 138,63 138,63 C 138,63 145,63 145,58 L 145,48 z M 134,63 C 134,63 129,63 129,73 L 139,73 C 139,63 134,63 134,63 z"
         sodipodi:nodetypes="cccscsccccccccccscccccccccccc" />
    </g>
    <g
       id="g4122"
       transform="translate(10,-120)">
      <path
         style="fill:#cc0000;fill-rule:evenodd;stroke:none;stroke-width:0.98414707000000001px;stroke-linecap:butt;stroke-linejoin:miter;stroke-opacity:1;fill-opacity:1"
         d="M 35,88 L 40,88 L 40,98 C 40,98 60,98 60,98 L 60,88 L 65,88 L 65,103 C 65,108 50,108 50,108 C 50,108 35,108 35,103 L 35,88 z"
         id="path4124"
         sodipodi:nodetypes="cccccccscc" />
      <path
         id="path4134"
         style="fill:#cc0000;fill-rule:evenodd;stroke:none;stroke-width:0.98414707000000001px;stroke-linecap:butt;stroke-linejoin:miter;stroke-opacity:1;fill-opacity:1"
         d="M 65,88 C 55,88 45,88 35,88 L 25,83 C 20,78 25,73 25,73 C 25,73 20,68 20,53 C 22.518616,40.406921 36.148242,32.906228 50,33 C 63.646995,33.092385 77.518616,40.593079 80,53 C 80,68 75,73 75,73 C 75,73 80,78 75,83 C 75,83 65,88 65,88 z M 30,68 C 30,68 30,73 40,73 C 40,73 45,73 45,63 C 45,63 40,58 30,58 C 30,58 30,68 30,68 z M 70,68 C 70,68 70,73 60,73 C 60,73 55,73 55,63 C 55,63 60,58 70,58 C 70,58 70,68 70,68 z M 50,73 C 50,73 55,73 55,83 L 45,83 C 45,73 50,73 50,73 z"
         sodipodi:nodetypes="cccccscccccccccccccccccc" />
      <path
         style="fill:#990000;fill-rule:evenodd;stroke:none;stroke-width:0.98414707000000001px;stroke-linecap:butt;stroke-linejoin:miter;stroke-opacity:1;fill-opacity:1"
         d="M 35,88 L 40,88 L 60,88 L 65,88 C 65,88 65,93 65,93 C 63,95 60,93 60,93 C 55,98 50,93 50,93 C 45,98 40,93 40,93 C 38,95 35,93 35,93 L 35,88 z"
         id="path4136"
         sodipodi:nodetypes="cccccccccc" />
      <path
         style="fill:#990000;fill-rule:evenodd;stroke:none;stroke-width:1px;stroke-linecap:butt;stroke-linejoin:miter;stroke-opacity:1;fill-opacity:1"
         d="M 45,-22 C 47,-24 50,-22 50,-22 C 55,-25 60,-22 60,-22 C 65,-25 70,-22 70,-22 C 72,-24 75,-22 75,-22 L 75,-20 L 70,-17 L 50,-17 L 45,-20 L 45,-22 z"
         id="path4139"
         transform="translate(-10,120)"
         sodipodi:nodetypes="cccccccccc" />
    </g>
    <g
       id="g4650"
       transform="translate(20,-110)"
       inkscape:transform-center-x="9.5"
       inkscape:transform-center-y="-8.8888889">
      <path
         id="path4660"
         style="fill:#cc0000;fill-opacity:1;fill-rule:evenodd;stroke:none;stroke-width:1px;stroke-linecap:butt;stroke-linejoin:miter;stroke-opacity:1"
         d="M 130,78 C 130,78 130,80 130,80 C 130,80 150,80 150,80 C 150,80 150,78 150,78 L 150,73 L 145,73 C 145,63 150,63 150,63 L 150,43 C 150,23 125,23 125,23 C 85,23 85,48 85,48 C 85,78 105,83 115,83 C 120,83 120,78 125,78 C 125,78 130,78 130,78 z M 145,53 L 145,58 C 145,58 145,63 142,63 C 142,63 135,63 135,58 C 135,54.666667 135,51.333333 135,48 C 135,48 145,48 145,53 z"
         sodipodi:nodetypes="csscccccccscccccscc" />
      <path
         style="fill:#990000;fill-opacity:1;fill-rule:evenodd;stroke:none;stroke-width:1px;stroke-linecap:butt;stroke-linejoin:miter;stroke-opacity:1"
         d="M 130,78 C 130,78 130,83 130,83 C 135,88 140,83 140,83 C 145,88 150,83 150,83 L 150,78"
         id="path4658" />
    </g>
    <g
       transform="matrix(-1,0,0,1,90,-105)"
       id="g4663"
       style="stroke:none">
      <path
         style="fill:#cc0000;fill-rule:evenodd;stroke:none;stroke-width:1px;stroke-linecap:butt;stroke-linejoin:miter;stroke-opacity:1;fill-opacity:1"
         d="M 145,88 L 145,78 L 150,78 L 150,83 L 150,88 C 150,88 150,98 135,98 C 120,98 110,93 110,93 L 105,78 L 115,78 L 115,88"
         id="path4682" />
      <path
         style="fill:#990000;fill-rule:evenodd;stroke:none;stroke-width:1px;stroke-linecap:butt;stroke-linejoin:miter;stroke-opacity:1;fill-opacity:1"
         d="M 145,88 C 145,88 148,85 150,88 C 150,88 150,93 145,93 C 145,93 120,93 120,93 C 120,93 115,91 115,91 C 115,91 115,88 115,88 C 115,88 120,83 125,88 C 125,88 130,83 135,88 C 135,88 140,83 145,88 z"
         id="path4665"
         sodipodi:nodetypes="ccssccccc" />
      <path
         id="path4677"
         style="fill:#cc0000;fill-rule:evenodd;stroke:none;stroke-width:1px;stroke-linecap:butt;stroke-linejoin:miter;stroke-opacity:1;fill-opacity:1"
         d="M 115,83 C 115,83 120,78 120,78 C 120,78 150,78 150,78 C 150,75.456168 150,73 150,73 C 150,73 155,68 150,63 L 150,43 C 150,23 115,23 115,23 C 85,23 85,48 85,48 C 85,78 90,83 100,83 C 105,83 105,78 110,78 C 110,78 115,83 115,83 z M 125,53 L 125,58 C 125,58 125,63 122,63 C 122,63 110,63 110,58 C 110,54.666667 110,51.333333 110,48 C 110,48 125,48 125,53 z M 145,48 C 145,48 135,48 135,53 L 135,58 C 135,63 138,63 138,63 C 138,63 145,63 145,58 L 145,48 z M 134,63 C 134,63 129,63 129,73 L 139,73 C 139,63 134,63 134,63 z" />
      <path
         style="fill:#990000;fill-rule:evenodd;stroke:none;stroke-width:1px;stroke-linecap:butt;stroke-linejoin:miter;stroke-opacity:1;fill-opacity:1"
         d="M 150,78 C 150,78 115,78 115,78 C 115,78 115,83 115,83 C 115,83 120,83 120,83 C 125,88 130,83 130,83 C 135,88 140,83 140,83 C 145,88 150,83 150,83 C 150,83 150,80.454574 150,78 z"
         id="path4675"
         sodipodi:nodetypes="cccccccc" />
    </g>
    <g
       style="stroke:none"
       id="g4694"
       transform="matrix(-1,0,0,1,138,32.142857)">
      <path
         id="path2628"
         style="fill:#999999;fill-opacity:1;fill-rule:evenodd;stroke:none;stroke-width:1px;stroke-linecap:butt;stroke-linejoin:miter;stroke-opacity:1"
         d="M 115,83 C 115,83 120,78 120,78 C 120,78 150,78 150,78 C 150,75.456168 150,73 150,73 C 150,73 155,68 150,63 L 150,43 C 150,23 115,23 115,23 C 85,23 85,48 85,48 C 85,78 90,83 100,83 C 105,83 105,78 110,78 C 110,78 115,83 115,83 zM 134,63 C 134,63 129,63 129,73 L 139,73 C 139,63 134,63 134,63 z" />
      <path
         id="path4696"
         d="M 145,88 L 145,78 L 150,78 L 150,83 L 150,88 C 150,88 150,98 135,98 C 120,98 110,93 110,93 L 105,78 L 115,78 L 115,88"
         style="fill:#999999;fill-opacity:1;fill-rule:evenodd;stroke:none;stroke-width:1px;stroke-linecap:butt;stroke-linejoin:miter;stroke-opacity:1" />
      <path
         sodipodi:nodetypes="ccssccccc"
         id="path4698"
         d="M 145,88 C 145,88 148,85 150,88 C 150,88 150,93 145,93 C 145,93 120,93 120,93 C 120,93 115,91 115,91 C 115,91 115,88 115,88 C 115,88 120,83 125,88 C 125,88 130,83 135,88 C 135,88 140,83 145,88 z"
         style="fill:#cccccc;fill-opacity:1;fill-rule:evenodd;stroke:none;stroke-width:1px;stroke-linecap:butt;stroke-linejoin:miter;stroke-opacity:1" />
      <path
         style="fill:#ff0000;fill-opacity:1;fill-rule:evenodd;stroke:none;stroke-width:1px;stroke-linecap:butt;stroke-linejoin:miter;stroke-opacity:1"
         d="M 125,53 L 125,58 C 125,58 125,63 122,63 C 122,63 110,63 110,58 C 110,54.666667 110,51.333333 110,48 C 110,48 125,48 125,53 z"
         id="path2626" />
      <path
         style="fill:#ff0000;fill-opacity:1;fill-rule:evenodd;stroke:none;stroke-width:1px;stroke-linecap:butt;stroke-linejoin:miter;stroke-opacity:1"
         d="M 145,48 C 145,48 135,48 135,53 L 135,58 C 135,63 138,63 138,63 C 138,63 145,63 145,58 L 145,48 z"
         id="path2624" />
      <path
         sodipodi:nodetypes="cccccccc"
         id="path4702"
         d="M 150,78 C 150,78 115,78 115,78 C 115,78 115,83 115,83 C 115,83 120,83 120,83 C 125,88 130,83 130,83 C 135,88 140,83 140,83 C 145,88 150,83 150,83 C 150,83 150,80.454574 150,78 z"
         style="fill:#cccccc;fill-opacity:1;fill-rule:evenodd;stroke:none;stroke-width:1px;stroke-linecap:butt;stroke-linejoin:miter;stroke-opacity:1" />
    </g>
    <g
       inkscape:transform-center-y="-9.1788418"
       inkscape:transform-center-x="9.2025039"
       transform="matrix(0.9944608,-0.105108,0.105108,0.9944608,-38.526883,57.360607)"
       id="g4712">
      <path
         style="fill:#999999;fill-opacity:1;fill-rule:evenodd;stroke:none;stroke-width:1px;stroke-linecap:butt;stroke-linejoin:miter;stroke-opacity:1"
         d="M 130,78 C 130,78 130,80 130,80 C 130,80 150,80 150,80 C 150,80 150,78 150,78 L 150,73 L 145,73 C 145,63 150,63 150,63 L 150,43 C 150,23 125,23 125,23 C 85,23 85,48 85,48 C 85,78 105,83 115,83 C 120,83 120,78 125,78 C 125,78 130,78 130,78 z"
         id="path2620" />
      <path
         style="fill:#ff0000;fill-opacity:1;fill-rule:evenodd;stroke:none;stroke-width:1px;stroke-linecap:butt;stroke-linejoin:miter;stroke-opacity:1"
         d="M 145,53 L 145,58 C 145,58 145,63 142,63 C 142,63 135,63 135,58 C 135,54.666667 135,51.333333 135,48 C 135,48 145,48 145,53 z"
         id="path4714" />
      <path
         id="path4716"
         d="M 130,78 C 130,78 130,83 130,83 C 135,88 140,83 140,83 C 145,88 150,83 150,83 L 150,78"
         style="fill:#cccccc;fill-opacity:1;fill-rule:evenodd;stroke:none;stroke-width:1px;stroke-linecap:butt;stroke-linejoin:miter;stroke-opacity:1" />
    </g>
    <g
       transform="matrix(0.4320657,-0.9018421,0.9018421,0.4320657,-18.993615,54.382363)"
       id="g4748">
      <path
         sodipodi:nodetypes="cccccccscc"
         id="path4750"
         d="M 35,88 L 40,88 L 40,98 C 40,98 60,98 60,98 L 60,88 L 65,88 L 65,103 C 65,108 50,108 50,108 C 50,108 35,108 35,103 L 35,88 z"
         style="fill:#999999;fill-opacity:1;fill-rule:evenodd;stroke:none;stroke-width:0.98414707000000001px;stroke-linecap:butt;stroke-linejoin:miter;stroke-opacity:1" />
      <path
         id="path2615"
         style="fill:#999999;fill-opacity:1;fill-rule:evenodd;stroke:none;stroke-width:0.98414707000000001px;stroke-linecap:butt;stroke-linejoin:miter;stroke-opacity:1"
         d="M 65,88 C 55,88 45,88 35,88 L 25,83 C 20,78 25,73 25,73 C 25,73 20,68 20,53 C 22.518616,40.406921 36.148242,32.906228 50,33 C 63.646995,33.092385 77.518616,40.593079 80,53 C 80,68 75,73 75,73 C 75,73 80,78 75,83 C 75,83 65,88 65,88 zM 50,73 C 50,73 55,73 55,83 L 45,83 C 45,73 50,73 50,73 z" />
      <path
         style="fill:#ff0000;fill-opacity:1;fill-rule:evenodd;stroke:none;stroke-width:0.98414707000000001px;stroke-linecap:butt;stroke-linejoin:miter;stroke-opacity:1"
         d="M 30,68 C 30,68 30,73 40,73 C 40,73 45,73 45,63 C 45,63 40,58 30,58 C 30,58 30,68 30,68 z"
         id="path2613" />
      <path
         style="fill:#ff0000;fill-opacity:1;fill-rule:evenodd;stroke:none;stroke-width:0.98414707000000001px;stroke-linecap:butt;stroke-linejoin:miter;stroke-opacity:1"
         d="M 70,68 C 70,68 70,73 60,73 C 60,73 55,73 55,63 C 55,63 60,58 70,58 C 70,58 70,68 70,68 z"
         id="path2611" />
      <path
         sodipodi:nodetypes="cccccccccc"
         id="path4754"
         d="M 35,88 L 40,88 L 60,88 L 65,88 C 65,88 65,93 65,93 C 63,95 60,93 60,93 C 55,98 50,93 50,93 C 45,98 40,93 40,93 C 38,95 35,93 35,93 L 35,88 z"
         style="fill:#cccccc;fill-opacity:1;fill-rule:evenodd;stroke:none;stroke-width:0.98414707000000001px;stroke-linecap:butt;stroke-linejoin:miter;stroke-opacity:1" />
      <path
         sodipodi:nodetypes="cccccccccc"
         transform="translate(-10,120)"
         id="path4756"
         d="M 45,-22 C 47,-24 50,-22 50,-22 C 55,-25 60,-22 60,-22 C 65,-25 70,-22 70,-22 C 72,-24 75,-22 75,-22 L 75,-20 L 70,-17 L 50,-17 L 45,-20 L 45,-22 z"
         style="fill:#cccccc;fill-opacity:1;fill-rule:evenodd;stroke:none;stroke-width:1px;stroke-linecap:butt;stroke-linejoin:miter;stroke-opacity:1" />
    </g>
  </g>
</svg>
