<?xml version="1.0" encoding="UTF-8" standalone="no"?>
<!-- Created with Inkscape (http://www.inkscape.org/) -->
<svg
   xmlns:dc="http://purl.org/dc/elements/1.1/"
   xmlns:cc="http://creativecommons.org/ns#"
   xmlns:rdf="http://www.w3.org/1999/02/22-rdf-syntax-ns#"
   xmlns:svg="http://www.w3.org/2000/svg"
   xmlns="http://www.w3.org/2000/svg"
   xmlns:xlink="http://www.w3.org/1999/xlink"
   xmlns:sodipodi="http://sodipodi.sourceforge.net/DTD/sodipodi-0.dtd"
   xmlns:inkscape="http://www.inkscape.org/namespaces/inkscape"
   width="64"
   height="64"
   id="svg2"
   sodipodi:version="0.32"
   inkscape:version="0.46"
   version="1.0"
   sodipodi:docname="quad.svg"
   inkscape:output_extension="org.inkscape.output.svg.inkscape"
   inkscape:export-filename="/mnt/adat/Udi/OpenArena/2D improvement/quad.png"
   inkscape:export-xdpi="90"
   inkscape:export-ydpi="90"
   style="display:inline">
  <defs
     id="defs4">
    <inkscape:perspective
       sodipodi:type="inkscape:persp3d"
       inkscape:vp_x="0 : 526.18109 : 1"
       inkscape:vp_y="0 : 1000 : 0"
       inkscape:vp_z="744.09448 : 526.18109 : 1"
       inkscape:persp3d-origin="372.04724 : 350.78739 : 1"
       id="perspective10" />
    <inkscape:perspective
       id="perspective2390"
       inkscape:persp3d-origin="372.04724 : 350.78739 : 1"
       inkscape:vp_z="744.09448 : 526.18109 : 1"
       inkscape:vp_y="0 : 1000 : 0"
       inkscape:vp_x="0 : 526.18109 : 1"
       sodipodi:type="inkscape:persp3d" />
    <inkscape:perspective
       id="perspective3320"
       inkscape:persp3d-origin="372.04724 : 350.78739 : 1"
       inkscape:vp_z="744.09448 : 526.18109 : 1"
       inkscape:vp_y="0 : 1000 : 0"
       inkscape:vp_x="0 : 526.18109 : 1"
       sodipodi:type="inkscape:persp3d" />
    <inkscape:perspective
       id="perspective3505"
       inkscape:persp3d-origin="372.04724 : 350.78739 : 1"
       inkscape:vp_z="744.09448 : 526.18109 : 1"
       inkscape:vp_y="0 : 1000 : 0"
       inkscape:vp_x="0 : 526.18109 : 1"
       sodipodi:type="inkscape:persp3d" />
  </defs>
  <sodipodi:namedview
     id="base"
     pagecolor="#0033ff"
     bordercolor="#666666"
     borderopacity="1.0"
     inkscape:pageopacity="0"
     inkscape:pageshadow="2"
     inkscape:zoom="3.959798"
     inkscape:cx="-32.086307"
     inkscape:cy="-63.2673"
     inkscape:document-units="px"
     inkscape:current-layer="g3553"
     showgrid="true"
     inkscape:window-width="1280"
     inkscape:window-height="742"
     inkscape:window-x="0"
     inkscape:window-y="0"
     objecttolerance="10"
     gridtolerance="10"
     guidetolerance="10">
    <inkscape:grid
       type="xygrid"
       id="grid2424"
       visible="true"
       enabled="true"
       spacingx="2px"
       spacingy="2px"
       empspacing="4" />
  </sodipodi:namedview>
  <metadata
     id="metadata7">
    <rdf:RDF>
      <cc:Work
         rdf:about="">
        <dc:format>image/svg+xml</dc:format>
        <dc:type
           rdf:resource="http://purl.org/dc/dcmitype/StillImage" />
      </cc:Work>
    </rdf:RDF>
  </metadata>
  <g
     inkscape:groupmode="layer"
     id="layer4"
     inkscape:label="rendering"
     style="display:inline">
    <path
       sodipodi:nodetypes="csccscsccsccscccsccsccsccssscsscccccscccsccccscccscsccscsccscccscccsccccsccsccssscccscccsccssssccsccccsssssscccccccccccccsscsscccscsccsscscssssccsscccssssscsccsc"
       id="path2524"
       d="M 243,99 C 243,99 241.80101,98.974493 240.5625,99.59375 C 239.32399,100.21301 238,101.66667 238,104 L 238,104.09375 C 237.80318,103.95181 237.63615,103.69308 237.4375,103.59375 C 236.19899,102.97449 235,103 235,103 C 232.66667,103 231.21301,104.32399 230.59375,105.5625 C 229.97449,106.80101 230,108 230,108 C 230,108 230,108.87666 230,109.34375 C 229.8784,109.28218 229.73186,109.16062 229.625,109.125 C 229.31101,109.02034 229,109 229,109 L 227,109 C 227,109 225.80101,108.97449 224.5625,109.59375 C 223.32399,110.21301 222,111.66667 222,114 L 222,118 L 222,128 C 221.99984,128.08432 222.01034,128.16832 222.03125,128.25 C 224.0389,136.28061 229.6417,145.61119 229.96875,146.15625 L 228,161.875 C 227.96398,162.16111 228.05842,162.44072 228.25,162.65625 C 228.44158,162.87178 228.71164,163.00223 229,163 L 257,163 C 257.28228,163.00121 257.55952,162.89583 257.75,162.6875 C 257.94047,162.47917 258.02644,162.18729 258,161.90625 L 256,142 C 256,141.99624 255.99995,141.9726 256,141.96875 C 256.00829,141.38197 256.63236,139.75754 257.71875,137.9375 C 258.81228,136.10551 260.32528,134.00137 261.8125,132.03125 C 264.78694,128.09102 267.75,124.65625 267.75,124.65625 C 267.81169,124.5907 267.86425,124.51712 267.90625,124.4375 C 268.99569,122.25861 269.02582,120.47827 268.71875,119.25 C 268.41168,118.02173 267.71875,117.28125 267.71875,117.28125 C 267.67959,117.24679 267.6378,117.21544 267.59375,117.1875 L 260.0625,111.53125 C 260.04702,111.49667 260.01939,111.47023 260,111.4375 L 260,108 C 260,104.77778 258.84975,102.8795 257.59375,101.9375 C 256.33775,100.9955 255,101 255,101 L 253,101 C 251.39325,101 250.34629,101.67622 249.5625,102.46875 C 249.11898,101.11077 248.34257,100.04628 247.4375,99.59375 C 246.19899,98.974493 245,99 245,99 L 243,99 z M 243,101 L 245,101 C 245,101 245.80101,101.02551 246.5625,101.40625 C 247.32399,101.78699 248,102.33333 248,104 L 248,106 L 248,111.25 C 247.77396,111.18642 247.53848,111.13783 247.3125,111.0625 C 247.21234,111.0251 247.10684,111.004 247,111 C 247,111 246.30101,110.97449 245.5625,111.34375 C 244.82399,111.71301 244,112.66667 244,114 L 244,116 C 244,118.33333 245.32399,119.78699 246.5625,120.40625 C 247.09241,120.67121 247.5051,120.78671 247.84375,120.84375 C 247.78368,121.07193 247.71833,121.31334 247.59375,121.5625 C 247.21301,122.32399 246.66667,123 245,123 L 243,123 C 241.33333,123 240.78699,122.32399 240.40625,121.5625 C 240.02551,120.80101 240,120 240,120 L 240,108 L 240,104 C 240,102.33333 240.67601,101.78699 241.4375,101.40625 C 242.19899,101.02551 243,101 243,101 z M 253,103 L 255,103 C 255,103 255.66225,103.0045 256.40625,103.5625 C 257.15025,104.1205 258,105.22222 258,108 L 258,111.25 C 256.79229,111.56953 253.67135,112.22881 250,111.6875 L 250,106 C 250,106 250.02551,105.19899 250.40625,104.4375 C 250.78699,103.67601 251.33333,103 253,103 z M 235,105 C 235,105 235.80101,105.02551 236.5625,105.40625 C 237.32399,105.78699 238,106.33333 238,108 L 238,122 C 238,122 237.97449,122.80101 237.59375,123.5625 C 237.21301,124.32399 236.66667,125 235,125 C 233.33333,125 232.78699,124.32399 232.40625,123.5625 C 232.02551,122.80101 232,122 232,122 L 232,114 C 232,114 232,108 232,108 C 232,108 232.02551,107.19899 232.40625,106.4375 C 232.78699,105.67601 233.33333,105 235,105 z M 227,111 L 229,111 C 229.06101,111.02034 229.1491,111.0866 229.28125,111.21875 C 229.54555,111.48305 230,112.16667 230,114 L 230,124 C 230,124 229.97449,124.80102 229.59375,125.5625 C 229.21301,126.32399 228.66667,127 227,127 C 226.41667,127 225.99287,126.70686 225.53125,125.9375 C 225.06963,125.16814 224.70618,123.99964 224.46875,122.8125 C 223.99389,120.43821 224,118 224,118 L 224,114 C 224,112.33333 224.67601,111.78699 225.4375,111.40625 C 226.19899,111.02551 227,111 227,111 z M 247,113 C 252.45503,114.69931 257.50326,113.46062 258.78125,113.09375 L 266.28125,118.71875 C 266.28125,118.71875 266.58832,118.97827 266.78125,119.75 C 266.973,120.51701 266.98718,121.7286 266.09375,123.53125 C 266.08825,123.54234 266.09932,123.55137 266.09375,123.5625 C 265.93236,123.74836 263.12867,126.91634 260.1875,130.8125 C 258.67472,132.81648 257.18772,134.96881 256.03125,136.90625 C 254.87478,138.84369 254,140.47282 254,142 C 253.99853,142.03123 253.99853,142.06252 254,142.09375 L 255.875,161 L 243.3125,161 L 243.3125,148.0625 L 243.3125,148 L 242.3125,147.9375 L 242.3125,148 L 240.6875,161 L 230.125,161 L 232,146.125 C 232.01828,145.90514 231.96335,145.6854 231.84375,145.5 C 231.84375,145.5 225.95683,135.56474 224,127.84375 L 224,127.15625 C 224.67036,128.16172 225.68223,129 227,129 C 229.33333,129 230.78699,127.67601 231.40625,126.4375 C 231.51842,126.21316 231.58241,125.9961 231.65625,125.78125 C 232.43839,126.47151 233.54167,127 235,127 C 237.33333,127 238.78699,125.67601 239.40625,124.4375 C 239.51842,124.21316 239.58241,123.9961 239.65625,123.78125 C 240.43839,124.47151 241.54167,125 243,125 L 245,125 C 247.33333,125 248.78699,123.67601 249.40625,122.4375 C 249.57278,122.10445 249.66369,121.77354 249.75,121.46875 C 251.21989,122.12648 252.39575,122.50519 253.25,122.71875 C 253.71161,122.83415 253.70942,122.80384 254,122.84375 L 254,123.125 C 250.48024,123.29938 247.94813,124.14917 246.4375,125.15625 C 245.05994,126.07462 244.48327,126.94975 244.28125,127.28125 C 244.23826,127.35179 244.09375,127.5625 244.09375,127.5625 C 243.94144,127.72946 243.56502,128.11997 243.09375,129.0625 C 242.53412,130.18176 242,131.83333 242,134 C 241.9949,134.36064 242.18851,134.69319 242.5,134.875 C 242.8115,135.05681 243.1885,135.05681 243.5,134.875 C 243.81149,134.69319 244.0051,134.36064 244,134 C 244,132.16667 244.46588,130.81824 244.90625,129.9375 C 245.34662,129.05676 245.71875,128.71875 245.71875,128.71875 C 245.79676,128.63632 245.86016,128.54121 245.90625,128.4375 C 245.90625,128.4375 246.23318,127.72997 247.5625,126.84375 C 248.89182,125.95754 251.16667,125 255,125 C 255.55226,124.99994 255.99994,124.55226 256,124 L 256,122 C 255.99994,121.44774 255.55226,121.00006 255,121 C 255,121 254.67391,121.01223 253.75,120.78125 C 252.83677,120.55294 251.40669,120.07295 249.5,119.125 C 249.47973,119.11317 249.45835,119.10404 249.4375,119.09375 C 249.3781,119.06602 249.31327,119.04679 249.25,119.03125 C 249.23956,119.02845 249.22925,119.0337 249.21875,119.03125 C 249.14536,119.01552 249.07552,118.9989 249,119 C 249,119 248.19899,118.97449 247.4375,118.59375 C 246.67601,118.21301 246,117.66667 246,116 L 246,114 C 246,113.33333 246.17601,113.28699 246.4375,113.15625 C 246.69899,113.02551 247,113 247,113 z"
       style="fill:#4d4d4d;fill-opacity:1;fill-rule:evenodd;stroke:none;stroke-width:2;stroke-linecap:round;stroke-linejoin:round;stroke-miterlimit:4;stroke-dasharray:none;stroke-opacity:1" />
    <image
       y="-8"
       x="120"
       id="image3507"
       height="64"
       width="64"
       sodipodi:absref="/mnt/adat/Udi/OpenArena/2D improvement/quad-original.png"
       xlink:href="quad-original.png" />
    <g
       style="fill:none;stroke:#4d4d4d;stroke-width:2;stroke-linecap:round;stroke-linejoin:round;stroke-miterlimit:4;stroke-dasharray:none;stroke-opacity:1;display:inline"
       transform="translate(-90.000001,78)"
       id="g3553">
      <path
         sodipodi:nodetypes="cccccccccccccccscccccsccc"
         id="path3555"
         d="M 50.000001,66 L 48.000001,54 C 48.000001,49.792745 58.000001,32 58.000001,32 C 60.000001,28 58.000001,24 58.000001,24 L 54.000001,22 C 54.000001,18 52.000001,6 48.000001,6 L 46.000001,6 C 42.000001,6 42.000001,10 42.000001,10 L 42.000001,8 C 42.000001,4 38.000001,4 38.000001,4 L 36.000001,4 C 36.000001,4 32.000001,4 32.000001,8 L 32.000001,12 C 32.000001,8 28.000001,8 28.000001,8 L 26.000001,8 C 22.000001,8 22.000001,12 22.000001,12 C 22.000001,12 22,16 22,16 C 22.000001,14 20.000001,14 20.000001,14 L 18.000001,14 C 16.000001,14 14.000001,14 12.000001,20 L 12.000001,36 C 12.30417,37.216675 13.62442,42.968362 14.000001,44 C 16.09398,49.751687 20.000001,54 20.000001,54 L 18.000001,66 L 50.000001,66 z"
         style="fill:none;fill-rule:evenodd;stroke:#4d4d4d;stroke-width:2;stroke-linecap:round;stroke-linejoin:round;stroke-miterlimit:4;stroke-dasharray:none;stroke-opacity:1" />
      <path
         sodipodi:nodetypes="ccccc"
         transform="translate(48.000001,-116)"
         id="path3557"
         d="M -16,128 L -16.000001,144 C -16.000001,144 -16.000001,150 -18.000001,150 L -20.000001,150 C -24.000001,150 -24.000001,146 -24.000001,146"
         style="fill:none;fill-rule:evenodd;stroke:#4d4d4d;stroke-width:2;stroke-linecap:round;stroke-linejoin:round;stroke-miterlimit:4;stroke-dasharray:none;stroke-opacity:1" />
      <path
         sodipodi:nodetypes="ccccc"
         transform="translate(48.000001,-116)"
         id="path3559"
         d="M -26.000001,132 L -24.000001,146 C -24.000001,146 -24.000001,150 -26.000001,150 L -28.000001,150 C -32.000001,148 -32,138 -32,138"
         style="fill:none;fill-rule:evenodd;stroke:#4d4d4d;stroke-width:2;stroke-linecap:round;stroke-linejoin:round;stroke-miterlimit:4;stroke-dasharray:none;stroke-opacity:1" />
      <path
         sodipodi:nodetypes="ccccc"
         transform="translate(48.000001,-116)"
         id="path3561"
         d="M -6,126 L -6.000001,144 C -6.000001,144 -8.000001,150 -10.000001,150 L -12.000001,150 C -14.000001,150 -15.144691,146.56593 -16.000001,144"
         style="fill:none;fill-rule:evenodd;stroke:#4d4d4d;stroke-width:2;stroke-linecap:round;stroke-linejoin:round;stroke-miterlimit:4;stroke-dasharray:none;stroke-opacity:1" />
      <path
         sodipodi:nodetypes="ccccsc"
         transform="translate(48.000001,-116)"
         id="path3563"
         d="M -6,124 L -6.000001,144 C -6.000001,144 -6.000001,148 -4.000001,148 L -1e-06,148 C 0.62342501,148 1.999999,144 1.999999,140 C 1.999999,140 2,132 2,132"
         style="fill:none;fill-rule:evenodd;stroke:#4d4d4d;stroke-width:2;stroke-linecap:round;stroke-linejoin:round;stroke-miterlimit:4;stroke-dasharray:none;stroke-opacity:1" />
      <path
         id="path3565"
         d="M 46.000001,30 C 42.000001,30 36.000001,38 36.000001,38 C 36.000001,38 32.000001,44 32.000001,48"
         style="fill:none;fill-rule:evenodd;stroke:#4d4d4d;stroke-width:2;stroke-linecap:round;stroke-linejoin:round;stroke-miterlimit:4;stroke-dasharray:none;stroke-opacity:1;display:inline"
         sodipodi:nodetypes="ccc" />
      <path
         sodipodi:nodetypes="cccsccc"
         id="path3567"
         d="M 54.000001,22 C 54.000001,22 46.000001,16 46.000001,16 C 44.000001,14 42.000001,16 42.000001,16 C 32.000001,20 32.000001,16 30.000001,18 C 28.000001,20 30.000001,22 30.000001,22 C 34.000001,28 44.000001,26 44.000001,26 C 46.000001,28 46.000001,34 46.000001,34"
         style="fill:none;fill-rule:evenodd;stroke:#4d4d4d;stroke-width:2;stroke-linecap:round;stroke-linejoin:round;stroke-miterlimit:4;stroke-dasharray:none;stroke-opacity:1;display:inline" />
      <path
         style="fill:none;fill-rule:evenodd;stroke:#4d4d4d;stroke-width:2;stroke-linecap:round;stroke-linejoin:round;stroke-miterlimit:4;stroke-dasharray:none;stroke-opacity:1;display:inline"
         d="M 48,54 C 48.001,54.00005 44,56 40,54"
         id="path3569"
         sodipodi:nodetypes="cc" />
      <path
         style="fill:none;fill-rule:evenodd;stroke:#4d4d4d;stroke-width:2;stroke-linecap:round;stroke-linejoin:round;stroke-miterlimit:4;stroke-dasharray:none;stroke-opacity:1;display:inline"
         d="M 20.000001,54 C 20.000001,54 22.000001,56 26.000001,56"
         id="path3571"
         sodipodi:nodetypes="cc" />
    </g>
    <g
       id="g3573"
       transform="translate(45.999999,102)"
       style="fill:#0000ff;stroke:#4d4d4d;stroke-width:2;stroke-linecap:round;stroke-linejoin:round;stroke-miterlimit:4;stroke-dasharray:none;stroke-opacity:1;display:inline">
      <path
         style="fill:#0000ff;fill-rule:evenodd;stroke:#4d4d4d;stroke-width:2;stroke-linecap:round;stroke-linejoin:round;stroke-miterlimit:4;stroke-dasharray:none;stroke-opacity:1"
         d="M 50.000001,66 L 48.000001,54 C 48.000001,49.792745 58.000001,32 58.000001,32 C 60.000001,28 58.000001,24 58.000001,24 L 54.000001,22 C 54.000001,18 52.000001,6 48.000001,6 L 46.000001,6 C 42.000001,6 42.000001,10 42.000001,10 L 42.000001,8 C 42.000001,4 38.000001,4 38.000001,4 L 36.000001,4 C 36.000001,4 32.000001,4 32.000001,8 L 32.000001,12 C 32.000001,8 28.000001,8 28.000001,8 L 26.000001,8 C 22.000001,8 22.000001,12 22.000001,12 C 22.000001,12 22,16 22,16 C 22.000001,14 20.000001,14 20.000001,14 L 18.000001,14 C 16.000001,14 14.000001,14 12.000001,20 L 12.000001,36 C 12.30417,37.216675 13.62442,42.968362 14.000001,44 C 16.09398,49.751687 20.000001,54 20.000001,54 L 18.000001,66 L 50.000001,66 z"
         id="path3575"
         sodipodi:nodetypes="cccccccccccccccscccccsccc" />
      <path
         style="fill:#4d4d4d;fill-opacity:1;fill-rule:evenodd;stroke:none;stroke-width:2;stroke-linecap:round;stroke-linejoin:round;stroke-miterlimit:4;stroke-dasharray:none;stroke-opacity:1"
         d="M 21.843751,15 C 21.577056,15.03837 21.337126,15.182727 21.178299,15.400379 C 21.019472,15.618031 20.955186,15.890562 21.000001,16.15625 L 23.000001,30.09375 C 22.998667,30.18209 22.982026,30.9469 22.781251,31.75 C 22.675273,32.17391 22.497001,32.57692 22.343751,32.78125 C 22.190501,32.98558 22.166668,33 22.000001,33 L 20.375001,33 C 19.704988,32.62997 19.082009,31.93289 18.593751,30.875 C 18.085763,29.77436 17.70921,28.38503 17.468751,27.0625 C 16.987832,24.41745 17.000001,22 17.000001,22 C 17.005101,21.639364 16.815626,21.303919 16.504128,21.122112 C 16.192631,20.940306 15.807371,20.940306 15.495874,21.122112 C 15.184376,21.303919 14.994901,21.639364 15.000001,22 C 15.000001,22 15.01217,24.58255 15.531251,27.4375 C 15.790791,28.86497 16.16424,30.35064 16.781251,31.6875 C 17.398262,33.02436 18.264359,34.25718 19.562501,34.90625 C 19.699383,34.97014 19.848959,35.002192 20.000001,35 L 22.000001,35 C 22.833334,35 23.559501,34.51442 23.968751,33.96875 C 24.378001,33.42308 24.574729,32.82609 24.718751,32.25 C 25.006796,31.09782 25.000001,30 25.000001,30 C 25.004076,29.947996 25.004076,29.895754 25.000001,29.84375 L 23.000001,15.84375 C 22.961631,15.577055 22.817274,15.337125 22.599622,15.178298 C 22.38197,15.019471 22.109439,14.955185 21.843751,15 z"
         id="path3579" />
      <path
         style="fill:#4d4d4d;fill-opacity:1;fill-rule:evenodd;stroke:none;stroke-width:2;stroke-linecap:round;stroke-linejoin:round;stroke-miterlimit:4;stroke-dasharray:none;stroke-opacity:1;display:inline"
         d="M 44.71875,14.21875 C 44.055252,14.083528 43.438991,14.145336 42.9375,14.3125 C 42.147352,14.575883 41.828599,14.877523 41.625,15.0625 C 36.731722,17.019811 34.478522,16.970379 33.15625,16.75 C 32.495114,16.639811 32.042034,16.453895 31.375,16.40625 C 30.707966,16.358605 29.899101,16.663399 29.28125,17.28125 C 28.045547,18.516952 27.978172,20.059518 28.3125,21.0625 C 28.61038,21.956139 29.070197,22.410217 29.1875,22.53125 L 29.15625,22.5625 C 29.182092,22.601264 29.223733,22.618094 29.25,22.65625 C 29.263268,22.675523 29.267875,22.699631 29.28125,22.71875 C 31.538351,25.945228 35.305222,26.991581 38.40625,27.25 C 40.891693,27.45712 42.665296,27.192542 43.46875,27.0625 C 44.034685,27.853599 44.53571,29.406218 44.75,30.90625 C 44.988686,32.577054 45,34 45,34 C 44.9949,34.360636 45.184375,34.696081 45.495873,34.877888 C 45.80737,35.059694 46.19263,35.059694 46.504127,34.877888 C 46.815625,34.696081 47.0051,34.360636 47,34 C 47,34 47.011314,32.422946 46.75,30.59375 C 46.488686,28.764554 46.072304,26.634803 44.71875,25.28125 C 44.477102,25.052281 44.137364,24.958561 43.8125,25.03125 C 43.8125,25.03125 41.437968,25.487018 38.59375,25.25 C 35.749532,25.012982 32.601957,24.074811 30.84375,21.4375 C 30.807412,21.381369 30.765535,21.329024 30.71875,21.28125 C 30.71875,21.28125 30.353173,20.934518 30.1875,20.4375 C 30.021827,19.940482 29.954452,19.483048 30.71875,18.71875 C 31.100899,18.336601 31.042034,18.391395 31.25,18.40625 C 31.457966,18.421105 32.004886,18.610189 32.84375,18.75 C 34.521479,19.029621 37.268279,18.980189 42.375,16.9375 C 42.50338,16.888944 42.620392,16.814483 42.71875,16.71875 C 42.71875,16.71875 43.065482,16.353173 43.5625,16.1875 C 44.059518,16.021827 44.516953,15.954452 45.28125,16.71875 C 45.320408,16.753212 45.362202,16.784558 45.40625,16.8125 C 45.40625,16.8125 53.40625,22.8125 53.40625,22.8125 C 53.854981,23.140419 54.484581,23.042481 54.8125,22.59375 C 55.140419,22.145019 55.042481,21.515419 54.59375,21.1875 C 54.59375,21.1875 46.960999,15.462936 46.71875,15.28125 C 46.714905,15.278366 46.59375,15.1875 46.59375,15.1875 L 46.59375,15.21875 C 46.005733,14.671846 45.341316,14.34563 44.71875,14.21875 z"
         id="path3587" />
      <path
         style="fill:#4d4d4d;fill-opacity:1;fill-rule:evenodd;stroke:none;stroke-width:2;stroke-linecap:round;stroke-linejoin:round;stroke-miterlimit:4;stroke-dasharray:none;stroke-opacity:1;display:inline"
         d="M 39.875,53 C 39.424859,53.045158 39.061089,53.386873 38.987902,53.833314 C 38.914715,54.279755 39.150339,54.719731 39.5625,54.90625 C 41.801041,56.02552 44.013945,56.023688 45.65625,55.75 C 46.477403,55.613156 47.173289,55.391257 47.65625,55.21875 C 47.89773,55.132496 48.083193,55.05878 48.21875,55 C 48.286529,54.97061 48.336264,54.95565 48.375,54.9375 C 48.394368,54.928425 48.425391,54.912135 48.4375,54.90625 C 48.938008,54.664625 49.147875,54.063008 48.90625,53.5625 C 48.664625,53.061992 48.063008,52.852125 47.5625,53.09375 C 47.560891,53.094532 47.566084,53.12329 47.5625,53.125 C 47.558916,53.12671 47.536679,53.122456 47.53125,53.125 C 47.488177,53.142893 47.446408,53.163777 47.40625,53.1875 C 47.307733,53.229646 47.148955,53.279383 46.96875,53.34375 C 46.576804,53.483748 46.022722,53.63685 45.34375,53.75 C 43.985805,53.9763 42.198959,53.97448 40.4375,53.09375 C 40.263072,53.008573 40.067625,52.975999 39.875,53 z"
         id="path3589" />
      <path
         style="fill:#4d4d4d;fill-opacity:1;fill-rule:evenodd;stroke:none;stroke-width:2;stroke-linecap:round;stroke-linejoin:round;stroke-miterlimit:4;stroke-dasharray:none;stroke-opacity:1;display:inline"
         d="M 19.78125,53 C 19.408141,53.06769 19.105406,53.340573 18.999484,53.704679 C 18.893562,54.068785 19.002675,54.461479 19.28125,54.71875 C 19.28125,54.71875 19.943243,55.346621 21.0625,55.90625 C 22.181757,56.465879 23.833333,57 26,57 C 26.360636,57.0051 26.696081,56.815625 26.877888,56.504127 C 27.059694,56.19263 27.059694,55.80737 26.877888,55.495873 C 26.696081,55.184375 26.360636,54.9949 26,55 C 24.166667,55 22.818243,54.534121 21.9375,54.09375 C 21.056757,53.653379 20.71875,53.28125 20.71875,53.28125 C 20.476611,53.030539 20.121409,52.923978 19.78125,53 L 19.78125,53 z"
         id="path3591" />
      <path
         style="fill:#4d4d4d;fill-opacity:1;fill-rule:evenodd;stroke:none;stroke-width:2;stroke-linecap:round;stroke-linejoin:round;stroke-miterlimit:4;stroke-dasharray:none;stroke-opacity:1;display:inline"
         d="M 46,31 C 44.666667,31 43.476576,31.637489 42.4375,32.46875 C 41.398424,33.300011 40.4695,34.363583 39.6875,35.40625 C 38.1235,37.491583 37.09375,39.5625 37.09375,39.5625 C 37.09375,39.5625 35,43.666666 35,48 C 34.9949,48.360636 35.184375,48.696081 35.495873,48.877888 C 35.80737,49.059694 36.19263,49.059694 36.504127,48.877888 C 36.815625,48.696081 37.0051,48.360636 37,48 C 37,44.333334 38.90625,40.4375 38.90625,40.4375 C 38.90625,40.4375 39.8765,38.508417 41.3125,36.59375 C 42.0305,35.636417 42.851577,34.699989 43.6875,34.03125 C 44.523423,33.362511 45.333334,33 46,33 C 46.360636,33.0051 46.696081,32.815625 46.877888,32.504127 C 47.059694,32.19263 47.059694,31.80737 46.877888,31.495873 C 46.696081,31.184375 46.360636,30.9949 46,31 L 46,31 z"
         id="path3605" />
      <path
         style="fill:#4d4d4d;fill-opacity:1;fill-rule:evenodd;stroke:none;stroke-width:2;stroke-linecap:round;stroke-linejoin:round;stroke-miterlimit:4;stroke-dasharray:none;stroke-opacity:1;display:inline"
         d="M 42.000001,7.9687498 C 41.924516,7.9681698 41.85637,7.9831498 41.781251,7.9999998 C 41.315622,8.1042798 40.988515,8.5229798 41.000001,8.9999998 L 41.000001,16.34375 C 41.33218,16.22066 41.642858,16.11161 42.000001,15.96875 C 42.000001,15.96875 42.398481,15.57575 43.000001,15.3125 L 43.000001,8.9999998 C 43.00744,8.6921398 42.863066,8.3828398 42.625001,8.1874998 C 42.44645,8.0409998 42.226455,7.9704898 42.000001,7.9687498 z M 50.000001,16 C 49.825811,16 49.655749,16.0341 49.500001,16.125 C 49.188504,16.30681 48.994901,16.63936 49.000001,17 C 49.000001,17 49.000001,17.90398 49.000001,18.21875 C 49.937501,18.92188 50.062501,19.01562 51.000001,19.71875 C 51.000001,18.49885 51.000001,17 51.000001,17 C 51.0051,16.63936 50.811501,16.30681 50.500001,16.125 C 50.344252,16.0341 50.174191,16 50.000001,16 z M 41.000001,25.40625 L 41.000001,29 C 41.000001,29 40.993206,30.09782 41.281251,31.25 C 41.425273,31.82609 41.622001,32.42308 42.031251,32.96875 C 42.063939,33.01233 42.119627,33.05115 42.156251,33.09375 C 42.649334,32.59957 43.153596,32.1618 43.687501,31.8125 C 43.675588,31.79704 43.670069,31.79967 43.656251,31.78125 C 43.503001,31.57692 43.324729,31.17391 43.218751,30.75 C 43.006796,29.90218 43.000001,29 43.000001,29 L 43.000001,25.78125 C 42.481594,25.68947 42.011787,25.60646 41.000001,25.40625 z"
         id="path3616" />
      <path
         style="fill:#4d4d4d;fill-opacity:1;fill-rule:evenodd;stroke:none;stroke-width:2;stroke-linecap:round;stroke-linejoin:round;stroke-miterlimit:4;stroke-dasharray:none;stroke-opacity:1;display:inline"
         d="M 42.000001,8.9687496 C 41.924516,8.9681696 41.85637,8.9831496 41.781251,8.9999996 C 41.315622,9.1042796 40.988515,9.52298 41.000001,10 L 41.000001,16.375 C 41.33218,16.25191 41.642858,16.14286 42.000001,16 C 42.000001,16 42.405227,15.6381 43.000001,15.375 L 43.000001,10 C 43.00744,9.69214 42.863066,9.38283 42.625001,9.1875 C 42.44645,9.0409996 42.226455,8.9704896 42.000001,8.9687496 z M 31.906251,26.84375 C 31.62021,26.85432 31.340831,26.98767 31.156251,27.21875 C 30.910141,27.52685 30.881776,27.96202 31.062501,28.3125 C 31.490156,29.59546 31.978074,31.13659 32.687501,32.4375 C 33.042214,33.08796 33.439186,33.67924 33.968751,34.15625 C 34.498316,34.63326 35.213828,35 36.000001,35 L 38.000001,35 C 39.000001,35 39.697292,34.35075 40.250001,33.6875 C 40.80271,33.02425 41.261375,32.22725 41.656251,31.4375 C 42.446003,29.858 42.937501,28.3125 42.937501,28.3125 C 42.974904,28.21234 42.996005,28.10684 43.000001,28 L 43.000001,27.09375 C 42.484825,27.15898 41.824506,27.22038 41.000001,27.25 L 41.000001,27.84375 C 40.951218,27.98738 40.51573,29.21854 39.843751,30.5625 C 39.488627,31.27275 39.072292,31.97575 38.687501,32.4375 C 38.30271,32.89925 38.000001,33 38.000001,33 L 36.000001,33 C 35.786173,33 35.586793,32.93457 35.312501,32.6875 C 35.038209,32.44043 34.725874,31.99755 34.437501,31.46875 C 33.860755,30.41114 33.365156,28.97046 32.937501,27.6875 C 32.871795,27.29868 32.569248,26.97382 32.187501,26.875 C 32.092064,26.8503 32.001598,26.84023 31.906251,26.84375 z"
         id="path3652" />
      <path
         style="fill:#4d4d4d;fill-opacity:1;fill-rule:evenodd;stroke:none;stroke-width:2;stroke-linecap:round;stroke-linejoin:round;stroke-miterlimit:4;stroke-dasharray:none;stroke-opacity:1;display:inline"
         d="M 32.000001,10.928571 C 31.924516,10.92799 31.85637,10.942967 31.781251,10.959821 C 31.315622,11.064101 30.988515,11.482801 31.000001,11.959821 L 31.000001,17.366071 C 31.522462,17.290391 32.062501,17.553571 33.000001,17.709821 L 33.000001,11.959821 C 33.00744,11.651961 32.863066,11.342661 32.625001,11.147321 C 32.44645,11.000821 32.226455,10.930315 32.000001,10.928571 z M 31.000001,23.178571 L 31.000001,27.959821 C 31.000001,27.959821 30.982228,29.410211 30.750001,30.803571 C 30.633887,31.500251 30.451746,32.181331 30.250001,32.584821 C 30.149128,32.786571 30.048488,32.887011 30.000001,32.928571 C 29.975758,32.949351 29.96269,32.957201 29.968751,32.959821 L 28.000001,32.959821 C 26.333335,32.959821 25.786994,32.283811 25.406251,31.522321 C 25.025508,30.760831 25.000001,29.959821 25.000001,29.959821 C 25.005101,29.599181 24.811499,29.266631 24.500001,29.084821 C 24.188503,28.903021 23.811498,28.903011 23.500001,29.084821 C 23.188504,29.266631 22.994901,29.599181 23.000001,29.959821 C 23.000001,29.959821 22.974494,31.158811 23.593751,32.397321 C 24.213008,33.635831 25.666668,34.959821 28.000001,34.959821 L 30.000001,34.959821 C 30.500001,34.959821 30.978176,34.746381 31.312501,34.459821 C 31.646826,34.173261 31.882124,33.820571 32.062501,33.459821 C 32.423256,32.738311 32.616115,31.919391 32.750001,31.116071 C 33.017774,29.509431 33.000001,27.959821 33.000001,27.959821 L 33.000001,24.678571 C 32.280519,24.279411 31.601147,23.784241 31.000001,23.178571 z"
         id="path3656" />
    </g>
    <path
       id="path3707"
       d="M 144,184 C 144,184 140,184 140,188 L 140,190.9375 C 139.9683,190.93725 139.93642,190.93327 139.90625,190.9375 C 139.26597,188.00665 136,188 136,188 L 134,188 C 130,188 130,192 130,192 C 130,192 130,193.875 130,195 C 129.94884,195.00065 129.89484,194.99138 129.84375,195 C 129.82041,195.00336 129.80414,195.02629 129.78125,195.03125 C 129.26665,194.0151 128,194 128,194 L 126,194 C 124,194 122,194 120,200 L 120,216 C 120.30417,217.21668 121.62442,222.96836 122,224 C 123.56041,228.28609 126.10579,231.7382 127.3125,233.21875 C 127.16189,233.34398 127.05683,233.5234 127,233.71875 C 126.89408,234.08285 127.00267,234.46148 127.28125,234.71875 C 127.28125,234.71875 127.47739,234.87973 127.8125,235.125 L 126,246 L 158,246 L 156.15625,235.03125 C 156.17321,235.02408 156.20312,235.00678 156.21875,235 C 156.28653,234.97061 156.33626,234.95565 156.375,234.9375 C 156.39437,234.92843 156.42539,234.91214 156.4375,234.90625 C 156.93801,234.66463 157.14787,234.06301 156.90625,233.5625 C 156.75296,233.24498 156.45032,233.07376 156.125,233.03125 C 157.24646,227.58585 166,212 166,212 C 168,208 166,204 166,204 L 162.875,202.4375 C 163.09062,202.00629 162.99601,201.48146 162.59375,201.1875 C 162.59375,201.1875 162.03588,200.76128 161.9375,200.6875 C 161.61329,195.89075 159.64413,186 156,186 L 154,186 C 151.93836,186 150.95288,187.06391 150.46875,188.09375 C 150.32592,188.01914 150.16236,187.97 150,187.96875 C 149.97842,184.00121 146,184 146,184 L 144,184 z"
       style="fill:#0000ff;fill-rule:evenodd;stroke:none;stroke-width:2;stroke-linecap:round;stroke-linejoin:round;stroke-miterlimit:4;stroke-dasharray:none;stroke-opacity:1" />
    <g
       style="fill:#0000ff;stroke:#4d4d4d;stroke-width:2;stroke-linecap:round;stroke-linejoin:round;stroke-miterlimit:4;stroke-dasharray:none;stroke-opacity:1;display:inline"
       transform="translate(37.999999,180)"
       id="g3725">
      <path
         style="fill:#4d4d4d;fill-opacity:1;fill-rule:evenodd;stroke:none;stroke-width:2;stroke-linecap:round;stroke-linejoin:round;stroke-miterlimit:4;stroke-dasharray:none;stroke-opacity:1"
         d="M 74,183 C 73.999999,183 72.801014,182.97449 71.5625,183.59375 C 70.323985,184.21301 69,185.66667 69,188 L 69,188.09375 C 68.803183,187.95181 68.636154,187.69308 68.4375,187.59375 C 67.198985,186.97449 66,187 66,187 L 64,187 C 61.666665,187 60.213007,188.32399 59.59375,189.5625 C 58.974492,190.80101 59,192 59,192 C 58.999999,192 59,192.71289 59,193.25 C 58.540933,193.1288 58,193 58,193 L 56,193 C 54.999999,193 53.66225,192.9955 52.40625,193.9375 C 51.150249,194.8795 50.094123,196.59263 49.0625,199.6875 C 49.025096,199.78766 49.003996,199.89316 49,200 L 49,216 C 48.999835,216.08432 49.010336,216.16832 49.03125,216.25 C 49.175974,216.8289 49.583721,218.58837 50,220.3125 C 50.416278,222.03663 50.799195,223.62051 51.0625,224.34375 C 53.089111,229.91039 56.446786,233.7344 56.9375,234.28125 L 55,245.84375 C 54.953971,246.13479 55.025998,246.43338 55.21875,246.65625 C 55.411501,246.87912 55.705362,247.00359 56,247 L 88,247 C 88.294637,247.00359 88.588498,246.87912 88.78125,246.65625 C 88.974001,246.43338 89.046028,246.13479 89,245.84375 L 87.03125,233.9375 C 87.046352,233.25616 87.590816,231.34771 88.5,229.15625 C 89.421716,226.93458 90.6626,224.34941 91.90625,221.875 C 94.393548,216.92618 96.875,212.5 96.875,212.5 C 96.886141,212.47954 96.896565,212.45869 96.90625,212.4375 C 99.144764,207.96047 96.90625,203.5625 96.90625,203.5625 C 96.807834,203.3575 96.642497,203.19216 96.4375,203.09375 L 92.9375,201.34375 C 92.8665,199.0965 92.421902,195.55478 91.46875,192.21875 C 90.953199,190.41432 90.304753,188.72992 89.46875,187.40625 C 88.632746,186.08258 87.5,185 86,185 L 84,185 C 82.393245,185 81.346293,185.67622 80.5625,186.46875 C 80.118975,185.11077 79.342568,184.04628 78.4375,183.59375 C 77.198985,182.97449 76,183 76,183 L 74,183 z M 74,185 L 76,185 C 75.999999,185 76.801014,185.02551 77.5625,185.40625 C 78.323985,185.78699 79,186.33333 79,188 L 79,189 L 79,190 L 79,195.3125 C 74.557499,197.00882 72.418055,196.9603 71.15625,196.75 C 71.097393,196.74019 71.055857,196.72961 71,196.71875 L 71,192 L 71,191.96875 L 71,188 C 70.999999,186.33333 71.676014,185.78699 72.4375,185.40625 C 73.198985,185.02551 74,185 74,185 z M 84,187 L 86,187 C 86.499999,187 87.117253,187.41742 87.78125,188.46875 C 88.445246,189.52008 89.0468,191.08568 89.53125,192.78125 C 90.221567,195.19736 90.672022,197.8775 90.875,199.90625 C 90.253101,199.43983 89.913568,199.18518 89,198.5 C 89,197.88607 89,197 89,197 C 89.005099,196.63936 88.8115,196.30681 88.5,196.125 C 88.344251,196.0341 88.17419,196 88,196 C 87.82581,196 87.655748,196.0341 87.5,196.125 C 87.188503,196.30681 86.9949,196.63936 87,197 C 86.05227,196.2892 84.789041,195.33397 84.71875,195.28125 C 84.714904,195.27837 84.59375,195.1875 84.59375,195.1875 L 84.59375,195.21875 C 84.005732,194.67185 83.341316,194.34563 82.71875,194.21875 C 82.07948,194.08847 81.491167,194.15897 81,194.3125 L 81,190 C 80.999999,190 81.025507,189.19899 81.40625,188.4375 C 81.786992,187.67601 82.333334,187 84,187 z M 64,189 L 66,189 C 65.999999,189 66.801014,189.02551 67.5625,189.40625 C 68.318713,189.78436 68.990733,190.32898 69,191.96875 C 69.000065,191.98018 69,191.98846 69,192 L 69,196.4375 C 68.418134,196.49982 67.789912,196.77259 67.28125,197.28125 C 66.045546,198.51695 65.978172,200.05952 66.3125,201.0625 C 66.610379,201.95614 67.070197,202.41022 67.1875,202.53125 L 67.15625,202.5625 C 67.182091,202.60126 67.223733,202.61809 67.25,202.65625 C 67.263267,202.67552 67.267875,202.69963 67.28125,202.71875 C 67.78648,203.44097 68.367878,204.04314 69,204.5625 L 69,207.46875 C 68.919629,207.67782 68.935374,207.90752 69,208.125 C 68.995688,208.34968 68.961519,209.54339 68.75,210.8125 C 68.633886,211.50918 68.451745,212.19026 68.25,212.59375 C 68.149127,212.7955 68.048487,212.89594 68,212.9375 C 67.975757,212.95828 67.962689,212.96613 67.96875,212.96875 L 66,212.96875 C 64.333334,212.96875 63.786993,212.29274 63.40625,211.53125 C 63.037222,210.79319 63.001824,210.047 63,210 C 63.000815,209.9896 62.999511,209.97917 63,209.96875 C 63.00056,209.92917 63.004121,209.88249 63,209.84375 L 61,195.84375 C 60.999999,195.55519 61,192 61,192 C 60.999999,192 61.025507,191.19899 61.40625,190.4375 C 61.786992,189.67601 62.333333,189 64,189 z M 55.3125,195 C 55.526836,194.99086 55.75,195 56,195 L 58,195 C 57.999999,195 58.301014,195.02551 58.5625,195.15625 C 58.823985,195.28699 59,195.33333 59,196 C 59.000652,196.05116 58.991382,196.10516 59,196.15625 L 61,210.09375 C 60.998666,210.18209 60.982025,210.9469 60.78125,211.75 C 60.675272,212.17391 60.497,212.57692 60.34375,212.78125 C 60.1905,212.98558 60.166667,213 60,213 L 58.375,213 C 57.704987,212.62997 57.082008,211.93289 56.59375,210.875 C 56.085762,209.77436 55.709209,208.38503 55.46875,207.0625 C 54.987831,204.41745 55,202 55,202 C 55.0051,201.63936 54.811498,201.30681 54.5,201.125 C 54.188502,200.94319 53.811497,200.94319 53.5,201.125 C 53.188503,201.3068 52.9949,201.63936 53,202 C 53,202 53.012169,204.58255 53.53125,207.4375 C 53.79079,208.86497 54.164239,210.35064 54.78125,211.6875 C 55.398261,213.02436 56.264358,214.25718 57.5625,214.90625 C 57.699382,214.97014 57.848958,215.00219 58,215 L 60,215 C 60.833333,215 61.5595,214.51442 61.96875,213.96875 C 62.107225,213.78412 62.216497,213.59984 62.3125,213.40625 C 63.096918,214.25809 64.3125,214.96875 66,214.96875 L 68,214.96875 C 68.5,214.96875 68.978175,214.75531 69.3125,214.46875 C 69.646825,214.18219 69.882123,213.8295 70.0625,213.46875 C 70.271106,213.05154 70.413863,212.5855 70.53125,212.125 C 70.584047,212.22933 70.632076,212.33587 70.6875,212.4375 C 71.042213,213.08796 71.439185,213.67924 71.96875,214.15625 C 72.498315,214.63326 73.213827,215 74,215 L 76,215 C 77,215 77.697291,214.35075 78.25,213.6875 C 78.717384,213.12664 79.117569,212.47938 79.46875,211.8125 C 79.589521,212.17364 79.729538,212.53295 79.96875,212.875 C 76.630843,215.24801 74.475413,216.66291 72,219.41829 C 71.999999,219.41829 68,223.66667 68,228 C 67.994899,228.36064 68.188502,228.69319 68.5,228.875 C 68.811497,229.05681 69.188503,229.05681 69.5,228.875 C 69.811496,228.6932 70.0051,228.36064 70,228 C 69.999999,224.33333 74,220 74,220 C 76.978585,217.23244 78.788416,216 81.6875,214.03125 C 82.129842,213.67738 82.558346,213.39279 82.96875,213.21875 C 82.990268,213.65353 83,214 83,214 C 82.994899,214.36064 83.188502,214.69319 83.5,214.875 C 83.811497,215.05681 84.188503,215.05681 84.5,214.875 C 84.811496,214.6932 85.0051,214.36064 85,214 C 84.999999,214 85.004925,213.30521 84.9375,212.34375 C 85.042409,212.06483 85.028165,211.76243 84.875,211.5 C 84.86763,211.48737 84.851617,211.48097 84.84375,211.46875 C 84.814053,211.18439 84.793491,210.89819 84.75,210.59375 C 84.488685,208.76455 84.072304,206.6348 82.71875,205.28125 C 82.477101,205.05228 82.137364,204.95856 81.8125,205.03125 C 81.812499,205.03125 79.437968,205.48702 76.59375,205.25 C 73.749531,205.01298 70.601957,204.07481 68.84375,201.4375 C 68.807411,201.38137 68.765535,201.32902 68.71875,201.28125 C 68.718749,201.28125 68.353173,200.93452 68.1875,200.4375 C 68.021826,199.94048 67.954452,199.48305 68.71875,198.71875 C 69.100898,198.3366 69.042034,198.39139 69.25,198.40625 C 69.457965,198.42111 70.004886,198.61019 70.84375,198.75 C 72.521478,199.02962 75.268279,198.98019 80.375,196.9375 C 80.503379,196.88894 80.620392,196.81448 80.71875,196.71875 C 80.718749,196.71875 81.065482,196.35317 81.5625,196.1875 C 82.059517,196.02183 82.516953,195.95445 83.28125,196.71875 C 83.320407,196.75321 83.362202,196.78456 83.40625,196.8125 C 83.406249,196.8125 91.107976,202.56536 91.3125,202.71875 C 91.334773,202.74006 91.350687,202.76197 91.375,202.78125 C 91.375305,202.78148 91.40625,202.8125 91.40625,202.8125 C 91.413098,202.81748 91.43051,202.80768 91.4375,202.8125 C 91.478567,202.84082 91.516769,202.884 91.5625,202.90625 L 95.1875,204.71875 C 95.374496,205.12531 96.722806,208.22077 95.125,211.5 C 95.114075,211.52242 95.104958,211.54008 95.09375,211.5625 C 95.061375,211.62012 92.590081,216.00196 90.09375,220.96875 C 88.837399,223.46843 87.578284,226.10849 86.625,228.40625 C 85.816318,230.35546 85.227757,231.98025 85.0625,233.3125 C 85.026488,233.32493 85.007074,233.33006 84.96875,233.34375 C 84.576803,233.48375 84.022722,233.63685 83.34375,233.75 C 81.985804,233.9763 80.198959,233.97448 78.4375,233.09375 C 78.263071,233.00857 78.067625,232.976 77.875,233 C 77.424858,233.04516 77.073187,233.39731 77,233.84375 C 76.926814,234.29019 77.150339,234.71973 77.5625,234.90625 C 79.80104,236.02552 82.013945,236.02369 83.65625,235.75 C 84.256688,235.64994 84.755286,235.51345 85.1875,235.375 L 86.8125,245 L 57.1875,245 L 58.75,235.71875 C 58.858775,235.77918 58.943063,235.84653 59.0625,235.90625 C 60.181756,236.46588 61.833333,237 64,237 C 64.360635,237.0051 64.693193,236.8115 64.875,236.5 C 65.056809,236.18851 65.056806,235.8115 64.875,235.5 C 64.693196,235.18849 64.360636,234.9949 64,235 C 62.166666,235 60.818243,234.53412 59.9375,234.09375 C 59.108386,233.67919 58.787968,233.35259 58.75,233.3125 C 58.747636,233.31 58.71875,233.28125 58.71875,233.28125 C 58.632537,233.1871 54.925599,229.11711 52.9375,223.65625 C 52.825223,223.34785 52.351283,221.55754 51.9375,219.84375 C 51.536388,218.18245 51.168748,216.55684 51,215.875 L 51,200.15625 C 51.943919,197.39395 52.867421,196.10725 53.59375,195.5625 C 54.151749,195.144 54.669492,195.02742 55.3125,195 z M 71,205.8125 C 72.763384,206.68454 74.680283,207.10617 76.40625,207.25 C 77.405945,207.33331 78.247438,207.31112 79,207.28125 L 79,207.84375 C 78.951217,207.98738 78.515729,209.21854 77.84375,210.5625 C 77.488626,211.27275 77.072291,211.97575 76.6875,212.4375 C 76.302709,212.89925 76,213 76,213 L 74,213 C 73.786172,213 73.586792,212.93457 73.3125,212.6875 C 73.038208,212.44043 72.725873,211.99755 72.4375,211.46875 C 71.888082,210.46125 71.413553,209.11025 71,207.875 L 71,205.8125 z M 81.46875,207.0625 C 82.034684,207.8536 82.53571,209.40622 82.75,210.90625 C 82.765694,211.01611 82.76746,211.11137 82.78125,211.21875 C 82.372112,211.3374 81.970965,211.47687 81.59375,211.6875 C 81.45371,211.46855 81.312907,211.12663 81.21875,210.75 C 81.006795,209.90218 81,209 81,209 L 81,208 L 81,207.125 C 81.16245,207.10159 81.348733,207.08193 81.46875,207.0625 z"
         transform="translate(-37.999999,-180)"
         id="path3727"
         sodipodi:nodetypes="csccsccsccccscccsssccsccsccsscscccsscccsccccsccccsccccscccsscccssscsccsccscccssccssccsscccsssccssscccsccccssccssccsscsscsssccscccsscssccsccccsscccccssccsssccsscssssccsscsscsccsssscssssscsccccscssssscssccsccsccssccsscccsccscccc" />
    </g>
    <path
       style="fill:#0033ff;fill-opacity:1;fill-rule:evenodd;stroke:none;stroke-width:2;stroke-linecap:round;stroke-linejoin:round;stroke-miterlimit:4;stroke-dasharray:none;stroke-opacity:1"
       d="M 32.55157,2 C 32.55157,2 31.75055,2.02551 30.98907,2.40625 C 30.22758,2.78699 29.55157,3.33333 29.55157,5 L 29.55157,8.96875 L 29.55157,9 L 29.55157,13.71875 C 29.60742,13.72961 29.64896,13.74019 29.70782,13.75 C 30.96962,13.9603 33.10907,14.00882 37.55157,12.3125 L 37.55157,7 L 37.55157,6 L 37.55157,5 C 37.55157,3.33333 36.87555,2.78699 36.11407,2.40625 C 35.35258,2.02551 34.55157,2 34.55157,2 L 32.55157,2 z M 42.55157,4 C 40.8849,4 40.33856,4.67601 39.95782,5.4375 C 39.57708,6.19899 39.55157,7 39.55157,7 L 39.55157,11.3125 C 40.04274,11.15897 40.63105,11.08847 41.27032,11.21875 C 41.89289,11.34563 42.5573,11.67185 43.14532,12.21875 L 43.14532,12.1875 C 43.14532,12.1875 43.26648,12.27837 43.27032,12.28125 C 43.34061,12.33397 44.60384,13.2892 45.55157,14 C 45.54647,13.63936 45.74007,13.30681 46.05157,13.125 C 46.20732,13.0341 46.37738,13 46.55157,13 C 46.72576,13 46.89582,13.0341 47.05157,13.125 C 47.36307,13.30681 47.55667,13.63936 47.55157,14 C 47.55157,14 47.55157,14.88607 47.55157,15.5 C 48.46514,16.18518 48.80467,16.43983 49.42657,16.90625 C 49.22359,14.8775 48.77314,12.19736 48.08282,9.78125 C 47.59837,8.08568 46.99682,6.52008 46.33282,5.46875 C 45.66882,4.41742 45.05157,4 44.55157,4 L 42.55157,4 z M 22.55157,6 C 20.8849,6 20.33856,6.67601 19.95782,7.4375 C 19.57707,8.19899 19.55157,9 19.55157,9 C 19.55157,9 19.55157,12.55519 19.55157,12.84375 L 21.55157,26.84375 C 21.55569,26.88249 21.55213,26.92916 21.55157,26.96875 C 21.55108,26.97917 21.55238,26.98959 21.55157,27 C 21.55339,27.047 21.58879,27.79318 21.95782,28.53125 C 22.33856,29.29274 22.8849,29.96874 24.55157,29.96875 L 26.52032,29.96875 C 26.51426,29.96613 26.52732,29.95827 26.55157,29.9375 C 26.60005,29.89594 26.70069,29.79549 26.80157,29.59375 C 27.00331,29.19026 27.18545,28.50917 27.30157,27.8125 C 27.51309,26.54339 27.54725,25.34967 27.55157,25.125 C 27.48694,24.90752 27.4712,24.67781 27.55157,24.46875 L 27.55157,21.5625 C 26.91944,21.04314 26.33805,20.44096 25.83282,19.71875 C 25.81944,19.69963 25.81483,19.67552 25.80157,19.65625 C 25.7753,19.61809 25.73366,19.60126 25.70782,19.5625 L 25.73907,19.53125 C 25.62176,19.41022 25.16195,18.95614 24.86407,18.0625 C 24.52974,17.05952 24.59711,15.51695 25.83282,14.28125 C 26.34148,13.77259 26.9697,13.49982 27.55157,13.4375 L 27.55157,9 C 27.55157,8.98846 27.55163,8.98018 27.55157,8.96875 C 27.5423,7.32898 26.87028,6.78436 26.11407,6.40625 C 25.35258,6.02551 24.55157,6 24.55157,6 L 22.55157,6 z M 13.86407,12 C 13.22106,12.02742 12.70332,12.144 12.14532,12.5625 C 11.41899,13.10725 10.49549,14.39395 9.5515698,17.15625 L 9.5515698,32.875 C 9.7203098,33.55684 10.08795,35.18244 10.48907,36.84375 C 10.90285,38.55754 11.37679,40.34784 11.48907,40.65625 C 13.47717,46.11711 17.1841,50.18709 17.27032,50.28125 C 17.27032,50.28125 17.2992,50.30999 17.30157,50.3125 C 17.33953,50.35259 17.65995,50.67918 18.48907,51.09375 C 19.36981,51.53412 20.71823,51.99999 22.55157,52 C 22.9122,51.9949 23.24476,52.18848 23.42657,52.5 C 23.60837,52.8115 23.60838,53.1885 23.42657,53.5 C 23.24476,53.8115 22.9122,54.00509 22.55157,54 C 20.3849,54 18.73332,53.46587 17.61407,52.90625 C 17.49463,52.84653 17.41034,52.77917 17.30157,52.71875 L 15.73907,62 L 45.36407,62 L 43.73907,52.375 C 43.30686,52.51345 42.80826,52.64993 42.20782,52.75 C 40.56552,53.02369 38.35261,53.02551 36.11407,51.90625 C 35.70191,51.71973 35.47838,51.29018 35.55157,50.84375 C 35.62475,50.39731 35.97642,50.04515 36.42657,50 C 36.61919,49.976 36.81464,50.00856 36.98907,50.09375 C 38.75053,50.97448 40.53737,50.97629 41.89532,50.75 C 42.57429,50.63685 43.12837,50.48374 43.52032,50.34375 C 43.55865,50.33006 43.57806,50.32492 43.61407,50.3125 C 43.77933,48.98025 44.36789,47.35545 45.17657,45.40625 C 46.12985,43.10849 47.38897,40.46842 48.64532,37.96875 C 51.14165,33.00196 53.61295,28.62011 53.64532,28.5625 C 53.65653,28.54008 53.66565,28.52241 53.67657,28.5 C 55.27438,25.22077 53.92607,22.1253 53.73907,21.71875 L 50.11407,19.90625 C 50.06834,19.884 50.03014,19.84081 49.98907,19.8125 C 49.98208,19.80768 49.96467,19.81747 49.95782,19.8125 C 49.95782,19.8125 49.92688,19.78147 49.92657,19.78125 C 49.90226,19.76197 49.88634,19.74005 49.86407,19.71875 C 49.65955,19.56536 41.95782,13.8125 41.95782,13.8125 C 41.91377,13.78456 41.87198,13.75321 41.83282,13.71875 C 41.06852,12.95445 40.61109,13.02183 40.11407,13.1875 C 39.61705,13.35317 39.27032,13.71875 39.27032,13.71875 C 39.17196,13.81448 39.05495,13.88894 38.92657,13.9375 C 33.81985,15.98019 31.07304,16.02962 29.39532,15.75 C 28.55645,15.61019 28.00953,15.42111 27.80157,15.40625 C 27.5936,15.39139 27.65246,15.3366 27.27032,15.71875 C 26.50602,16.48305 26.57339,16.94048 26.73907,17.4375 C 26.90474,17.93452 27.27032,18.28125 27.27032,18.28125 C 27.3171,18.32902 27.35898,18.38137 27.39532,18.4375 C 29.15352,21.07481 32.3011,22.01297 35.14532,22.25 C 37.98954,22.48702 40.36407,22.03124 40.36407,22.03125 C 40.68894,21.95856 41.02867,22.05227 41.27032,22.28125 C 42.62387,23.6348 43.04026,25.76454 43.30157,27.59375 C 43.34506,27.89819 43.36562,28.18438 43.39532,28.46875 C 43.40319,28.48097 43.4192,28.48736 43.42657,28.5 C 43.57974,28.76243 43.59398,29.06482 43.48907,29.34375 C 43.5565,30.30521 43.55157,30.99999 43.55157,31 C 43.55667,31.36064 43.36307,31.69319 43.05157,31.875 C 42.74007,32.05681 42.36307,32.0568 42.05157,31.875 C 41.74007,31.69319 41.54647,31.36063 41.55157,31 C 41.55157,31 41.54184,30.65352 41.52032,30.21875 C 41.10992,30.39279 40.68141,30.67737 40.23907,31.03125 C 37.33999,33 35.53015,34.23243 32.55157,37 C 32.55157,37 28.55157,41.33332 28.55157,45 C 28.55667,45.36064 28.36306,45.69319 28.05157,45.875 C 27.74007,46.05681 27.36306,46.0568 27.05157,45.875 C 26.74007,45.69319 26.54647,45.36063 26.55157,45 C 26.55157,40.66667 30.55157,36.40626 30.55157,36.40625 C 33.02698,33.65087 35.18241,32.248 38.52032,29.875 C 38.28111,29.53295 38.14109,29.17363 38.02032,28.8125 C 37.66914,29.47938 37.26895,30.12663 36.80157,30.6875 C 36.24886,31.35075 35.55157,31.99999 34.55157,32 L 32.55157,32 C 31.76539,32 31.04988,31.63325 30.52032,31.15625 C 29.99075,30.67924 29.59378,30.08795 29.23907,29.4375 C 29.18364,29.33587 29.13561,29.22932 29.08282,29.125 C 28.96543,29.5855 28.82267,30.05153 28.61407,30.46875 C 28.43369,30.8295 28.19839,31.18218 27.86407,31.46875 C 27.52974,31.75531 27.05157,31.96874 26.55157,31.96875 L 24.55157,31.96875 C 22.86407,31.96875 21.64848,31.25808 20.86407,30.40625 C 20.76806,30.59984 20.65879,30.78411 20.52032,30.96875 C 20.11107,31.51442 19.3849,31.99999 18.55157,32 L 16.55157,32 C 16.40052,32.00219 16.25095,31.97013 16.11407,31.90625 C 14.81592,31.25718 13.94983,30.02435 13.33282,28.6875 C 12.71581,27.35064 12.34236,25.86496 12.08282,24.4375 C 11.56374,21.58255 11.55157,19 11.55157,19 C 11.54647,18.63936 11.74007,18.3068 12.05157,18.125 C 12.36306,17.94319 12.74007,17.94319 13.05157,18.125 C 13.36306,18.30681 13.55667,18.63936 13.55157,19 C 13.55157,19 13.5394,21.41744 14.02032,24.0625 C 14.26078,25.38503 14.63733,26.77435 15.14532,27.875 C 15.63357,28.93289 16.25655,29.62996 16.92657,30 L 18.55157,30 C 18.71823,30 18.74207,29.98557 18.89532,29.78125 C 19.04857,29.57692 19.22684,29.1739 19.33282,28.75 C 19.53359,27.9469 19.55023,27.18208 19.55157,27.09375 L 17.55157,13.15625 C 17.54295,13.10516 17.55222,13.05116 17.55157,13 C 17.55157,12.33333 17.37555,12.28699 17.11407,12.15625 C 16.85258,12.02551 16.55157,12 16.55157,12 L 14.55157,12 C 14.30157,12 14.0784,11.99086 13.86407,12 z M 29.55157,22.8125 L 29.55157,24.875 C 29.96512,26.11025 30.43965,27.46124 30.98907,28.46875 C 31.27744,28.99755 31.58977,29.44042 31.86407,29.6875 C 32.13836,29.93457 32.33774,29.99999 32.55157,30 L 34.55157,30 C 34.55157,30 34.85428,29.89924 35.23907,29.4375 C 35.62386,28.97575 36.04019,28.27274 36.39532,27.5625 C 37.0673,26.21854 37.50279,24.98737 37.55157,24.84375 L 37.55157,24.28125 C 36.799,24.31112 35.95751,24.3333 34.95782,24.25 C 33.23185,24.10617 31.31495,23.68453 29.55157,22.8125 z M 40.02032,24.0625 C 39.9003,24.08193 39.71402,24.10158 39.55157,24.125 L 39.55157,25 L 39.55157,26 C 39.55157,26 39.55837,26.90217 39.77032,27.75 C 39.86448,28.12663 40.00528,28.46854 40.14532,28.6875 C 40.52254,28.47687 40.92368,28.33739 41.33282,28.21875 C 41.31903,28.11137 41.31727,28.0161 41.30157,27.90625 C 41.08728,26.40622 40.58626,24.85359 40.02032,24.0625 z"
       id="path3805" />
  </g>
</svg>
