<?xml version="1.0" encoding="UTF-8" standalone="no"?>
<!-- Created with Inkscape (http://www.inkscape.org/) -->
<svg
   xmlns:dc="http://purl.org/dc/elements/1.1/"
   xmlns:cc="http://creativecommons.org/ns#"
   xmlns:rdf="http://www.w3.org/1999/02/22-rdf-syntax-ns#"
   xmlns:svg="http://www.w3.org/2000/svg"
   xmlns="http://www.w3.org/2000/svg"
   xmlns:sodipodi="http://sodipodi.sourceforge.net/DTD/sodipodi-0.dtd"
   xmlns:inkscape="http://www.inkscape.org/namespaces/inkscape"
   width="64"
   height="64"
   id="svg2"
   sodipodi:version="0.32"
   inkscape:version="0.46"
   version="1.0"
   sodipodi:docname="regen.svg"
   inkscape:output_extension="org.inkscape.output.svg.inkscape"
   inkscape:export-filename="/mnt/adat/Udi/OpenArena/2D improvement/regen.png"
   inkscape:export-xdpi="90"
   inkscape:export-ydpi="90">
  <defs
     id="defs4">
    <inkscape:perspective
       sodipodi:type="inkscape:persp3d"
       inkscape:vp_x="0 : 526.18109 : 1"
       inkscape:vp_y="0 : 1000 : 0"
       inkscape:vp_z="744.09448 : 526.18109 : 1"
       inkscape:persp3d-origin="372.04724 : 350.78739 : 1"
       id="perspective10" />
    <inkscape:perspective
       id="perspective2412"
       inkscape:persp3d-origin="372.04724 : 350.78739 : 1"
       inkscape:vp_z="744.09448 : 526.18109 : 1"
       inkscape:vp_y="0 : 1000 : 0"
       inkscape:vp_x="0 : 526.18109 : 1"
       sodipodi:type="inkscape:persp3d" />
  </defs>
  <sodipodi:namedview
     id="base"
     pagecolor="#ff0000"
     bordercolor="#666666"
     borderopacity="1.0"
     inkscape:pageopacity="0"
     inkscape:pageshadow="2"
     inkscape:zoom="5.6"
     inkscape:cx="42.484143"
     inkscape:cy="28.411687"
     inkscape:document-units="px"
     inkscape:current-layer="g3290"
     showgrid="true"
     inkscape:window-width="1280"
     inkscape:window-height="742"
     inkscape:window-x="0"
     inkscape:window-y="0"
     objecttolerance="10"
     gridtolerance="10"
     guidetolerance="10">
    <inkscape:grid
       type="xygrid"
       id="grid2383"
       visible="true"
       enabled="true"
       spacingx="2px"
       spacingy="2px"
       empspacing="4" />
  </sodipodi:namedview>
  <metadata
     id="metadata7">
    <rdf:RDF>
      <cc:Work
         rdf:about="">
        <dc:format>image/svg+xml</dc:format>
        <dc:type
           rdf:resource="http://purl.org/dc/dcmitype/StillImage" />
      </cc:Work>
    </rdf:RDF>
  </metadata>
  <g
     inkscape:label="1. réteg"
     inkscape:groupmode="layer"
     id="layer1">
    <g
       id="g3290"
       transform="translate(0,4.734375)">
      <path
         id="path3252"
         d="M 32,7.46875 C 18.450909,7.46875 7.46875,18.450909 7.46875,32 C 7.46875,45.549091 18.45091,56.53125 32,56.53125 C 45.549091,56.53125 56.531248,45.549091 56.53125,32 C 56.53125,18.450909 45.549091,7.46875 32,7.46875 z M 32,10.40625 C 43.9232,10.40625 53.59375,20.0768 53.59375,32 C 53.593752,43.9232 43.9232,53.59375 32,53.59375 C 20.0768,53.593752 10.40625,43.9232 10.40625,32 C 10.40625,20.0768 20.0768,10.40625 32,10.40625 z"
         style="opacity:1;fill:#ff0000;fill-opacity:1;fill-rule:nonzero;stroke:none;stroke-width:0.90909094000000001;stroke-linecap:round;stroke-linejoin:round;stroke-miterlimit:4;stroke-dasharray:none;stroke-dashoffset:0;stroke-opacity:1" />
      <path
         d="M 32,-2 L 62,50 L 2,50 L 32,-2 z M 32,4 L 56,46 L 8,46 L 32,4 z"
         style="fill:#ff0000;fill-rule:evenodd;stroke:none;stroke-width:1px;stroke-linecap:butt;stroke-linejoin:miter;stroke-opacity:1"
         id="path3247" />
      <path
         id="path3288"
         d="M 32,14 L 32,42"
         style="fill:none;fill-rule:evenodd;stroke:#ff0000;stroke-width:1px;stroke-linecap:butt;stroke-linejoin:miter;stroke-opacity:1" />
      <path
         id="path3279"
         d="M 32,16 C 28.688,16 26,18.688 26,22 C 26,25.312 28.688,28 32,28 C 35.312,28 38,25.312 38,22 C 38,18.688 35.312,16 32,16 z M 32,18 C 34.208,18 36,19.792 36,22 C 36,24.208 34.208,26 32,26 C 29.792,26 28,24.208 28,22 C 28,19.792 29.792,18 32,18 z"
         style="opacity:1;fill:#ff0000;fill-opacity:1;fill-rule:nonzero;stroke:none;stroke-width:1;stroke-linecap:round;stroke-linejoin:round;stroke-miterlimit:4;stroke-dasharray:none;stroke-dashoffset:0;stroke-opacity:1" />
      <path
         style="opacity:1;fill:#ff0000;fill-opacity:1;fill-rule:nonzero;stroke:none;stroke-width:1;stroke-linecap:round;stroke-linejoin:round;stroke-miterlimit:4;stroke-dasharray:none;stroke-dashoffset:0;stroke-opacity:1"
         d="M 32,28 C 29.792,28 28,29.792 28,32 C 28,34.208 29.792,36 32,36 C 34.208,36 36,34.208 36,32 C 36,29.792 34.208,28 32,28 z M 32,29.333333 C 33.472,29.333333 34.666666,30.528 34.666666,32 C 34.666666,33.472 33.472,34.666667 32,34.666667 C 30.528,34.666667 29.333334,33.472 29.333334,32 C 29.333334,30.528 30.528,29.333333 32,29.333333 z"
         id="path3284" />
      <path
         sodipodi:nodetypes="csssccsssc"
         id="path3286"
         d="M 32,36 C 30.896,36 30,36.896 30,38 C 30,39.104 30.896,40 32,40 C 33.104,40 34,39.104 34,38 C 34,36.896 33.104,36 32,36 z M 32,37.02381 C 32,37.02381 32.97619,37.10775 32.931547,38 C 32.931547,38 32.914571,38.909226 32,38.931547 C 32,38.931547 31.096769,38.824741 31.068453,38 C 31.068453,38 31.10775,37.001488 32,37.02381 z"
         style="opacity:1;fill:#ff0000;fill-opacity:1;fill-rule:nonzero;stroke:none;stroke-width:1;stroke-linecap:round;stroke-linejoin:round;stroke-miterlimit:4;stroke-dasharray:none;stroke-dashoffset:0;stroke-opacity:1" />
    </g>
  </g>
</svg>
