<?xml version="1.0" encoding="UTF-8" standalone="no"?>
<!-- Created with Inkscape (http://www.inkscape.org/) -->
<svg
   xmlns:dc="http://purl.org/dc/elements/1.1/"
   xmlns:cc="http://creativecommons.org/ns#"
   xmlns:rdf="http://www.w3.org/1999/02/22-rdf-syntax-ns#"
   xmlns:svg="http://www.w3.org/2000/svg"
   xmlns="http://www.w3.org/2000/svg"
   xmlns:sodipodi="http://sodipodi.sourceforge.net/DTD/sodipodi-0.dtd"
   xmlns:inkscape="http://www.inkscape.org/namespaces/inkscape"
   width="64"
   height="64"
   id="svg2685"
   sodipodi:version="0.32"
   inkscape:version="0.46"
   version="1.0"
   sodipodi:docname="eight_32b.svg"
   inkscape:output_extension="org.inkscape.output.svg.inkscape"
   inkscape:export-filename="/mnt/adat/Udi/OpenArena/fonts/version sans 0.1/numbers_sources/eight_32b.png"
   inkscape:export-xdpi="90"
   inkscape:export-ydpi="90">
  <defs
     id="defs2687">
    <inkscape:perspective
       sodipodi:type="inkscape:persp3d"
       inkscape:vp_x="0 : 526.18109 : 1"
       inkscape:vp_y="0 : 1000 : 0"
       inkscape:vp_z="744.09448 : 526.18109 : 1"
       inkscape:persp3d-origin="372.04724 : 350.78739 : 1"
       id="perspective2693" />
  </defs>
  <sodipodi:namedview
     id="base"
     pagecolor="#ffffff"
     bordercolor="#666666"
     borderopacity="1.0"
     inkscape:pageopacity="0.0"
     inkscape:pageshadow="2"
     inkscape:zoom="11.2"
     inkscape:cx="58.492055"
     inkscape:cy="30.612811"
     inkscape:document-units="px"
     inkscape:current-layer="layer2"
     showgrid="true"
     inkscape:window-width="1280"
     inkscape:window-height="742"
     inkscape:window-x="0"
     inkscape:window-y="0"
     objecttolerance="5"
     gridtolerance="5"
     guidetolerance="5">
    <inkscape:grid
       type="xygrid"
       id="grid3469"
       visible="true"
       enabled="true" />
  </sodipodi:namedview>
  <metadata
     id="metadata2690">
    <rdf:RDF>
      <cc:Work
         rdf:about="">
        <dc:format>image/svg+xml</dc:format>
        <dc:type
           rdf:resource="http://purl.org/dc/dcmitype/StillImage" />
      </cc:Work>
    </rdf:RDF>
  </metadata>
  <g
     inkscape:label="background"
     inkscape:groupmode="layer"
     id="layer1"
     style="display:inline"
     sodipodi:insensitive="true">
    <rect
       style="opacity:1;fill:#b3b3b3;fill-opacity:1;stroke:none;stroke-width:0.17560613;stroke-linecap:butt;stroke-linejoin:miter;stroke-miterlimit:4;stroke-dasharray:none;stroke-dashoffset:0;stroke-opacity:1"
       id="rect2695"
       width="64"
       height="64"
       x="0"
       y="0" />
  </g>
  <g
     inkscape:groupmode="layer"
     id="layer2"
     inkscape:label="font">
    <path
       sodipodi:nodetypes="ccccccccccccccccccccccccccccccc"
       d="M 11.999995,17 C 11.999995,2 26.999995,2 31.999995,2 C 36.999995,2 51.999995,2 51.999995,17 L 51.999995,22 C 51.999995,32 41.999995,32 41.999995,32 C 41.999995,32 51.999995,32 51.999995,42 L 51.999995,47 C 52.014595,62 36.999995,62 31.999995,62 C 26.999995,62 11.999995,62 11.999995,47 L 11.999995,42 C 11.999995,32 21.999995,32 21.999995,32 C 21.999995,32 11.999995,32 11.999995,22 L 11.999995,17 z M 21.999995,42 L 21.999995,47 C 21.999995,52 26.999995,52 26.999995,52 L 36.999995,52 C 36.999995,52 41.999995,52 41.999995,47 L 41.999995,42 C 41.999995,42 41.999995,37 36.999995,37 L 27.122295,37 C 27.122295,37 21.999995,37 21.999995,42 z M 21.999995,17 L 21.999995,22 C 21.999995,27 26.999995,27 26.999995,27 L 36.999995,27 C 36.999995,27 41.999995,27 41.999995,22 L 41.999995,17 C 41.999995,12 36.999995,12 36.999995,12 L 26.999995,12 C 26.999995,12 21.999995,12 21.999995,17 z"
       style="fill:#ffffff;fill-rule:evenodd;stroke:none;stroke-width:0.1;stroke-linecap:butt;stroke-linejoin:miter;stroke-miterlimit:4;stroke-dasharray:none;stroke-opacity:1;display:inline"
       id="path3653" />
  </g>
</svg>
